<mxfile host="app.diagrams.net" modified="2024-07-13T05:59:08.727Z" agent="Mozilla/5.0 (Windows NT 10.0; Win64; x64) AppleWebKit/537.36 (KHTML, like Gecko) Chrome/126.0.0.0 Safari/537.36" etag="od1nLId2GzRXAwX8Axco" version="24.6.5" type="device">
  <diagram name="Page-1" id="ilBo6N6zrNTQXn7Dz5qY">
    <mxGraphModel dx="1034" dy="420" grid="1" gridSize="10" guides="1" tooltips="1" connect="1" arrows="1" fold="1" page="1" pageScale="1" pageWidth="850" pageHeight="1100" math="0" shadow="0">
      <root>
        <mxCell id="0" />
        <mxCell id="1" parent="0" />
        <mxCell id="5vkKwvxKlYkF0aGufTi--2" value="" style="rounded=1;whiteSpace=wrap;html=1;" parent="1" vertex="1">
          <mxGeometry x="280" y="30" width="440" height="410" as="geometry" />
        </mxCell>
        <mxCell id="R6fphjBCiR-DiBrCDHX--90" value="&lt;span style=&quot;color: rgba(0, 0, 0, 0); font-family: monospace; font-size: 0px; text-align: start; text-wrap: nowrap;&quot;&gt;%3CmxGraphModel%3E%3Croot%3E%3CmxCell%20id%3D%220%22%2F%3E%3CmxCell%20id%3D%221%22%20parent%3D%220%22%2F%3E%3CmxCell%20id%3D%222%22%20value%3D%22%22%20style%3D%22shape%3Dimage%3BverticalLabelPosition%3Dbottom%3BlabelBackgroundColor%3Ddefault%3BverticalAlign%3Dtop%3Baspect%3Dfixed%3BimageAspect%3D0%3Bimage%3Dhttps%3A%2F%2Flogosandtypes.com%2Fwp-content%2Fuploads%2F2022%2F07%2FOpenAI.png%3B%22%20vertex%3D%221%22%20parent%3D%221%22%3E%3CmxGeometry%20x%3D%22579.17%22%20y%3D%2290%22%20width%3D%2290%22%20height%3D%2290%22%20as%3D%22geometry%22%2F%3E%3C%2FmxCell%3E%3C%2Froot%3E%3C%2FmxGraphModel%3E&lt;/span&gt;" style="rounded=1;whiteSpace=wrap;html=1;fillColor=#E1D5E7;" parent="1" vertex="1">
          <mxGeometry x="310" y="210" width="101.73" height="100" as="geometry" />
        </mxCell>
        <mxCell id="R6fphjBCiR-DiBrCDHX--87" value="&lt;span style=&quot;color: rgba(0, 0, 0, 0); font-family: monospace; font-size: 0px; text-align: start; text-wrap: nowrap;&quot;&gt;%3CmxGraphModel%3E%3Croot%3E%3CmxCell%20id%3D%220%22%2F%3E%3CmxCell%20id%3D%221%22%20parent%3D%220%22%2F%3E%3CmxCell%20id%3D%222%22%20value%3D%22%22%20style%3D%22shape%3Dimage%3BverticalLabelPosition%3Dbottom%3BlabelBackgroundColor%3Ddefault%3BverticalAlign%3Dtop%3Baspect%3Dfixed%3BimageAspect%3D0%3Bimage%3Dhttps%3A%2F%2Flogosandtypes.com%2Fwp-content%2Fuploads%2F2022%2F07%2FOpenAI.png%3B%22%20vertex%3D%221%22%20parent%3D%221%22%3E%3CmxGeometry%20x%3D%22579.17%22%20y%3D%2290%22%20width%3D%2290%22%20height%3D%2290%22%20as%3D%22geometry%22%2F%3E%3C%2FmxCell%3E%3C%2Froot%3E%3C%2FmxGraphModel%3E&lt;/span&gt;" style="rounded=1;whiteSpace=wrap;html=1;fillColor=#E1D5E7;" parent="1" vertex="1">
          <mxGeometry x="580" y="328" width="101.73" height="100" as="geometry" />
        </mxCell>
        <mxCell id="R6fphjBCiR-DiBrCDHX--16" style="edgeStyle=orthogonalEdgeStyle;rounded=0;orthogonalLoop=1;jettySize=auto;html=1;exitX=0.5;exitY=0;exitDx=0;exitDy=0;" parent="1" source="R6fphjBCiR-DiBrCDHX--90" edge="1">
          <mxGeometry relative="1" as="geometry">
            <mxPoint x="359" y="210" as="sourcePoint" />
            <mxPoint x="579" y="112" as="targetPoint" />
            <Array as="points">
              <mxPoint x="361" y="112" />
            </Array>
          </mxGeometry>
        </mxCell>
        <mxCell id="R6fphjBCiR-DiBrCDHX--25" style="edgeStyle=orthogonalEdgeStyle;rounded=0;orthogonalLoop=1;jettySize=auto;html=1;" parent="1" edge="1">
          <mxGeometry relative="1" as="geometry">
            <mxPoint x="650" y="181" as="sourcePoint" />
            <mxPoint x="411" y="260" as="targetPoint" />
            <Array as="points">
              <mxPoint x="650" y="260" />
            </Array>
          </mxGeometry>
        </mxCell>
        <mxCell id="R6fphjBCiR-DiBrCDHX--22" value="" style="endArrow=classic;html=1;rounded=0;exitX=0.75;exitY=1;exitDx=0;exitDy=0;" parent="1" source="R6fphjBCiR-DiBrCDHX--90" edge="1">
          <mxGeometry width="50" height="50" relative="1" as="geometry">
            <mxPoint x="385.7049999999999" y="297.5000000000001" as="sourcePoint" />
            <mxPoint x="580" y="370" as="targetPoint" />
            <Array as="points">
              <mxPoint x="386" y="370" />
            </Array>
          </mxGeometry>
        </mxCell>
        <mxCell id="R6fphjBCiR-DiBrCDHX--23" value="" style="endArrow=classic;html=1;rounded=0;exitX=0.992;exitY=0.3;exitDx=0;exitDy=0;exitPerimeter=0;" parent="1" source="R6fphjBCiR-DiBrCDHX--90" edge="1">
          <mxGeometry width="50" height="50" relative="1" as="geometry">
            <mxPoint x="410.94000000000005" y="241.2500000000001" as="sourcePoint" />
            <mxPoint x="630" y="184" as="targetPoint" />
            <Array as="points">
              <mxPoint x="630" y="240" />
            </Array>
          </mxGeometry>
        </mxCell>
        <mxCell id="R6fphjBCiR-DiBrCDHX--28" value="&lt;font style=&quot;font-size: 12px;&quot;&gt;Question&lt;/font&gt;" style="text;html=1;align=center;verticalAlign=middle;resizable=0;points=[];autosize=1;strokeColor=none;fillColor=none;" parent="1" vertex="1">
          <mxGeometry x="190" y="222.5" width="70" height="30" as="geometry" />
        </mxCell>
        <mxCell id="R6fphjBCiR-DiBrCDHX--29" value="1" style="ellipse;whiteSpace=wrap;html=1;aspect=fixed;strokeWidth=2;fontFamily=Tahoma;spacingBottom=4;spacingRight=2;strokeColor=#99CCFF;fillColor=#CCE5FF;" parent="1" vertex="1">
          <mxGeometry x="170" y="227.5" width="20" height="20" as="geometry" />
        </mxCell>
        <mxCell id="R6fphjBCiR-DiBrCDHX--31" value="&lt;font style=&quot;font-size: 12px;&quot;&gt;Question + Prompt Template&lt;/font&gt;" style="text;html=1;align=center;verticalAlign=middle;resizable=0;points=[];autosize=1;strokeColor=none;fillColor=none;" parent="1" vertex="1">
          <mxGeometry x="389.17" y="85" width="180" height="30" as="geometry" />
        </mxCell>
        <mxCell id="R6fphjBCiR-DiBrCDHX--32" value="2" style="ellipse;whiteSpace=wrap;html=1;aspect=fixed;strokeWidth=2;fontFamily=Tahoma;spacingBottom=4;spacingRight=2;strokeColor=#99CCFF;fillColor=#CCE5FF;" parent="1" vertex="1">
          <mxGeometry x="380" y="90" width="20" height="20" as="geometry" />
        </mxCell>
        <mxCell id="R6fphjBCiR-DiBrCDHX--35" value="3" style="ellipse;whiteSpace=wrap;html=1;aspect=fixed;strokeWidth=2;fontFamily=Tahoma;spacingBottom=4;spacingRight=2;strokeColor=#99CCFF;fillColor=#CCE5FF;" parent="1" vertex="1">
          <mxGeometry x="430" y="135" width="20" height="20" as="geometry" />
        </mxCell>
        <mxCell id="R6fphjBCiR-DiBrCDHX--39" value="&lt;font style=&quot;font-size: 12px;&quot;&gt;Cypher Query&lt;/font&gt;" style="text;html=1;align=center;verticalAlign=middle;resizable=0;points=[];autosize=1;strokeColor=none;fillColor=none;" parent="1" vertex="1">
          <mxGeometry x="444.17" y="130" width="100" height="30" as="geometry" />
        </mxCell>
        <mxCell id="R6fphjBCiR-DiBrCDHX--41" value="4" style="ellipse;whiteSpace=wrap;html=1;aspect=fixed;strokeWidth=2;fontFamily=Tahoma;spacingBottom=4;spacingRight=2;strokeColor=#99CCFF;fillColor=#CCE5FF;" parent="1" vertex="1">
          <mxGeometry x="430" y="345" width="20" height="20" as="geometry" />
        </mxCell>
        <mxCell id="R6fphjBCiR-DiBrCDHX--42" value="&lt;font style=&quot;font-size: 12px;&quot;&gt;Cypher Query&lt;/font&gt;" style="text;html=1;align=center;verticalAlign=middle;resizable=0;points=[];autosize=1;strokeColor=none;fillColor=none;" parent="1" vertex="1">
          <mxGeometry x="444.17" y="340" width="100" height="30" as="geometry" />
        </mxCell>
        <mxCell id="R6fphjBCiR-DiBrCDHX--45" value="" style="endArrow=classic;html=1;rounded=0;exitX=0;exitY=0.5;exitDx=0;exitDy=0;entryX=0.75;entryY=0;entryDx=0;entryDy=0;" parent="1" source="R6fphjBCiR-DiBrCDHX--77" edge="1" target="R6fphjBCiR-DiBrCDHX--90">
          <mxGeometry width="50" height="50" relative="1" as="geometry">
            <mxPoint x="576" y="126" as="sourcePoint" />
            <mxPoint x="370" y="210" as="targetPoint" />
            <Array as="points">
              <mxPoint x="386" y="130" />
            </Array>
          </mxGeometry>
        </mxCell>
        <mxCell id="R6fphjBCiR-DiBrCDHX--57" value="5" style="ellipse;whiteSpace=wrap;html=1;aspect=fixed;strokeWidth=2;fontFamily=Tahoma;spacingBottom=4;spacingRight=2;strokeColor=#99CCFF;fillColor=#CCE5FF;" parent="1" vertex="1">
          <mxGeometry x="405" y="398" width="20" height="20" as="geometry" />
        </mxCell>
        <mxCell id="R6fphjBCiR-DiBrCDHX--58" value="&lt;font style=&quot;font-size: 12px;&quot;&gt;Raw Results&lt;/font&gt;&lt;div&gt;&lt;font style=&quot;font-size: 12px;&quot;&gt;(Full Context)&lt;/font&gt;&lt;/div&gt;" style="text;html=1;align=center;verticalAlign=middle;resizable=0;points=[];autosize=1;strokeColor=none;fillColor=none;" parent="1" vertex="1">
          <mxGeometry x="425" y="388.00000000000006" width="100" height="40" as="geometry" />
        </mxCell>
        <mxCell id="R6fphjBCiR-DiBrCDHX--62" value="7" style="ellipse;whiteSpace=wrap;html=1;aspect=fixed;strokeWidth=2;fontFamily=Tahoma;spacingBottom=4;spacingRight=2;strokeColor=#99CCFF;fillColor=#CCE5FF;" parent="1" vertex="1">
          <mxGeometry x="449.99999999999994" y="268" width="20" height="20" as="geometry" />
        </mxCell>
        <mxCell id="R6fphjBCiR-DiBrCDHX--63" value="Human-Readable&lt;div&gt;Response&lt;/div&gt;" style="text;html=1;align=center;verticalAlign=middle;resizable=0;points=[];autosize=1;strokeColor=none;fillColor=none;" parent="1" vertex="1">
          <mxGeometry x="464.17" y="258" width="120" height="40" as="geometry" />
        </mxCell>
        <mxCell id="R6fphjBCiR-DiBrCDHX--64" value="6" style="ellipse;whiteSpace=wrap;html=1;aspect=fixed;strokeWidth=2;fontFamily=Tahoma;spacingBottom=4;spacingRight=2;strokeColor=#99CCFF;fillColor=#CCE5FF;" parent="1" vertex="1">
          <mxGeometry x="460" y="215" width="20" height="20" as="geometry" />
        </mxCell>
        <mxCell id="R6fphjBCiR-DiBrCDHX--65" value="Full Context" style="text;html=1;align=center;verticalAlign=middle;resizable=0;points=[];autosize=1;strokeColor=none;fillColor=none;" parent="1" vertex="1">
          <mxGeometry x="475" y="210" width="90" height="30" as="geometry" />
        </mxCell>
        <mxCell id="R6fphjBCiR-DiBrCDHX--70" value="&lt;span style=&quot;color: rgba(0, 0, 0, 0); font-family: monospace; font-size: 0px; text-align: start;&quot;&gt;%3CmxGraphModel%3E%3Croot%3E%3CmxCell%20id%3D%220%22%2F%3E%3CmxCell%20id%3D%221%22%20parent%3D%220%22%2F%3E%3CmxCell%20id%3D%222%22%20value%3D%226%22%20style%3D%22ellipse%3BwhiteSpace%3Dwrap%3Bhtml%3D1%3Baspect%3Dfixed%3BstrokeWidth%3D2%3BfontFamily%3DTahoma%3BspacingBottom%3D4%3BspacingRight%3D2%3BstrokeColor%3D%2399CCFF%3BfillColor%3D%23CCE5FF%3B%22%20vertex%3D%221%22%20parent%3D%221%22%3E%3CmxGeometry%20x%3D%22450%22%20y%3D%22265%22%20width%3D%2220%22%20height%3D%2220%22%20as%3D%22geometry%22%2F%3E%3C%2FmxCell%3E%3CmxCell%20id%3D%223%22%20value%3D%22%26lt%3Bfont%20style%3D%26quot%3Bfont-size%3A%2012px%3B%26quot%3B%26gt%3BFormatted%20Results%26lt%3B%2Ffont%26gt%3B%22%20style%3D%22text%3Bhtml%3D1%3Balign%3Dcenter%3BverticalAlign%3Dmiddle%3Bresizable%3D0%3Bpoints%3D%5B%5D%3Bautosize%3D1%3BstrokeColor%3Dnone%3BfillColor%3Dnone%3B%22%20vertex%3D%221%22%20parent%3D%221%22%3E%3CmxGeometry%20x%3D%22470%22%20y%3D%22260%22%20width%3D%22120%22%20height%3D%2230%22%20as%3D%22geometry%22%2F%3E%3C%2FmxCell%3E%3C%2Froot%3E%3C%2FmxGraphModel%3E&lt;/span&gt;" style="text;html=1;align=center;verticalAlign=middle;resizable=0;points=[];autosize=1;strokeColor=none;fillColor=none;" parent="1" vertex="1">
          <mxGeometry x="180" y="298" width="20" height="30" as="geometry" />
        </mxCell>
        <mxCell id="R6fphjBCiR-DiBrCDHX--71" value="8" style="ellipse;whiteSpace=wrap;html=1;aspect=fixed;strokeWidth=2;fontFamily=Tahoma;spacingBottom=4;spacingRight=2;strokeColor=#99CCFF;fillColor=#CCE5FF;" parent="1" vertex="1">
          <mxGeometry x="170" y="278" width="20" height="20" as="geometry" />
        </mxCell>
        <mxCell id="R6fphjBCiR-DiBrCDHX--72" value="&lt;font style=&quot;font-size: 12px;&quot;&gt;Response&lt;/font&gt;" style="text;html=1;align=center;verticalAlign=middle;resizable=0;points=[];autosize=1;strokeColor=none;fillColor=none;" parent="1" vertex="1">
          <mxGeometry x="185" y="273" width="80" height="30" as="geometry" />
        </mxCell>
        <mxCell id="R6fphjBCiR-DiBrCDHX--77" value="&lt;span style=&quot;color: rgba(0, 0, 0, 0); font-family: monospace; font-size: 0px; text-align: start; text-wrap: nowrap;&quot;&gt;%3CmxGraphModel%3E%3Croot%3E%3CmxCell%20id%3D%220%22%2F%3E%3CmxCell%20id%3D%221%22%20parent%3D%220%22%2F%3E%3CmxCell%20id%3D%222%22%20value%3D%22%22%20style%3D%22shape%3Dimage%3BverticalLabelPosition%3Dbottom%3BlabelBackgroundColor%3Ddefault%3BverticalAlign%3Dtop%3Baspect%3Dfixed%3BimageAspect%3D0%3Bimage%3Dhttps%3A%2F%2Flogosandtypes.com%2Fwp-content%2Fuploads%2F2022%2F07%2FOpenAI.png%3B%22%20vertex%3D%221%22%20parent%3D%221%22%3E%3CmxGeometry%20x%3D%22579.17%22%20y%3D%2290%22%20width%3D%2290%22%20height%3D%2290%22%20as%3D%22geometry%22%2F%3E%3C%2FmxCell%3E%3C%2Froot%3E%3C%2FmxGraphModel%3E&lt;/span&gt;" style="rounded=1;whiteSpace=wrap;html=1;fillColor=#E1D5E7;" parent="1" vertex="1">
          <mxGeometry x="580" y="80" width="101.73" height="100" as="geometry" />
        </mxCell>
        <mxCell id="R6fphjBCiR-DiBrCDHX--78" value="" style="shape=image;verticalLabelPosition=bottom;labelBackgroundColor=default;verticalAlign=top;aspect=fixed;imageAspect=0;image=https://logosandtypes.com/wp-content/uploads/2022/07/OpenAI.png;" parent="1" vertex="1">
          <mxGeometry x="605.24" y="115" width="51.25" height="51.25" as="geometry" />
        </mxCell>
        <mxCell id="R6fphjBCiR-DiBrCDHX--80" value="&lt;font style=&quot;font-size: 14px;&quot;&gt;&lt;b style=&quot;&quot;&gt;&lt;i style=&quot;&quot;&gt;GPT-4&lt;/i&gt;&lt;/b&gt;&lt;/font&gt;" style="text;html=1;align=center;verticalAlign=middle;resizable=0;points=[];autosize=1;strokeColor=none;fillColor=none;" parent="1" vertex="1">
          <mxGeometry x="600.86" y="85" width="60" height="30" as="geometry" />
        </mxCell>
        <mxCell id="R6fphjBCiR-DiBrCDHX--86" style="edgeStyle=orthogonalEdgeStyle;rounded=0;orthogonalLoop=1;jettySize=auto;html=1;entryX=0.5;entryY=1;entryDx=0;entryDy=0;" parent="1" target="R6fphjBCiR-DiBrCDHX--90" edge="1">
          <mxGeometry relative="1" as="geometry">
            <mxPoint x="580" y="390" as="sourcePoint" />
            <mxPoint x="360.47" y="297.5000000000001" as="targetPoint" />
          </mxGeometry>
        </mxCell>
        <mxCell id="R6fphjBCiR-DiBrCDHX--81" value="" style="shape=image;verticalLabelPosition=bottom;labelBackgroundColor=default;verticalAlign=top;aspect=fixed;imageAspect=0;image=data:image/jpeg,/9j/4AAQSkZJRgABAQEAkACQAAD/4QAiRXhpZgAATU0AKgAAAAgAAQESAAMAAAABAAEAAAAAAAD/2wBDAAIBAQIBAQICAgICAgICAwUDAwMDAwYEBAMFBwYHBwcGBwcICQsJCAgKCAcHCg0KCgsMDAwMBwkODw0MDgsMDAz/2wBDAQICAgMDAwYDAwYMCAcIDAwMDAwMDAwMDAwMDAwMDAwMDAwMDAwMDAwMDAwMDAwMDAwMDAwMDAwMDAwMDAwMDAz/wAARCAE7AS0DASIAAhEBAxEB/8QAHwAAAQUBAQEBAQEAAAAAAAAAAAECAwQFBgcICQoL/8QAtRAAAgEDAwIEAwUFBAQAAAF9AQIDAAQRBRIhMUEGE1FhByJxFDKBkaEII0KxwRVS0fAkM2JyggkKFhcYGRolJicoKSo0NTY3ODk6Q0RFRkdISUpTVFVWV1hZWmNkZWZnaGlqc3R1dnd4eXqDhIWGh4iJipKTlJWWl5iZmqKjpKWmp6ipqrKztLW2t7i5usLDxMXGx8jJytLT1NXW19jZ2uHi4+Tl5ufo6erx8vP09fb3+Pn6/8QAHwEAAwEBAQEBAQEBAQAAAAAAAAECAwQFBgcICQoL/8QAtREAAgECBAQDBAcFBAQAAQJ3AAECAxEEBSExBhJBUQdhcRMiMoEIFEKRobHBCSMzUvAVYnLRChYkNOEl8RcYGRomJygpKjU2Nzg5OkNERUZHSElKU1RVVldYWVpjZGVmZ2hpanN0dXZ3eHl6goOEhYaHiImKkpOUlZaXmJmaoqOkpaanqKmqsrO0tba3uLm6wsPExcbHyMnK0tPU1dbX2Nna4uPk5ebn6Onq8vP09fb3+Pn6/9oADAMBAAIRAxEAPwD9/KKKKACiiigAooooAKKKKACiiigAooooAKKKKACiiigBuMD6U2RlRSxbApxNeWftk/F6H4I/s4+KNcebyZ4bGVLY7sfvdjbaqnTlKSjEzqVFCDm+h6hFMs6hkYMvqKexyprgf2YfEM3i34EeGNTuubjUNPhuH/3mRTXfHjdSqR5Zco6c+aKkOHFFFFIsKKKKACiiigAooooAKKKKACiiigAooooAKKKKACiiigAooooAKKKKACiiigAooooAKKKKACiiigAooooAKKKKAG8Yr8wv+C9v7UBeHR/hjpNx5jXLfa73YfmjdGwAfwav0R+NPxU0/wCDPwx1jxJqcyw2ul25lZifwH6kV/P/APET4qah+1R+1s2t37M82uasiKn8KruVV2r/AMBr28lwvPU9s9ony/E2O9nSjh4fFP8AI/ez9lbT/wCzP2cfBEX8X9h2ZP8A35SvQX+7XNfB7TP7F+FXhyzYY+y6bbxf98xqK6Rjwa8aprUbPo6CtTSHUUUVJqFFFFABRRRQAUUUUAFFFFABRRRQAUUUUAFFFFABRRRQAUUUUAFFFFABRRRQAUUUUANVeKGGBQDtrG8ceOdP8AaDcajqVwsNvbrlv7zfQd6iUlFc0iZSSV2bPmU4HNc38OviVpfxQ0GPUNLuFmhft/Ev1FdElFOopq6CMlJXQ6iig81ZQ0cmgnH40Y5Ar5+/4KH/ALZGm/sjfA6+1BpEfWNQja3soN3zbmBXf/wFsVdOlKpNQiY4jEQo03Unsj4o/wCC5f7b66zfx/C/w/dZgt236pJE3yybht8pvowr43/4J6+AX+In7XHgy2Ub0tdRiunH+yjruryvx140v/iJ4sv9a1SZri+1Cdp5XLfxM1fcP/BBH4NN4t/aJv8AxTNF5lno9rJbf7KysFYf+g19vKnHCYJpdj8xp1p5hmSk+r/A/ZG2t1tbdY0G1UXAFSUA5or4U/VAooooAKKKKACiiigAooooAKKKKACiiigAooooAKKKKACiiigAooooAKKKKACiiigAooooAhuZ1tYGkkbCxjJNfCf7Y/x7m+JfjSbSrSZv7L012RQG+WR/u7q+nv2tfiY3w3+EF9PC226usQIPUP8AKf51+ff7y7uP4mkkb/gTV8fxJmElbDU/mfO53imrUYnpX7MXx4uvg542hV5G/sq8kVLiPd8vzfLv/wCA1+gWj6tDremQXlu3mQ3CLIjeoNfl1rWj3Hh/UntLhdk0e3d/3zur7R/YM+KbeLvAMuk3MnmXmmHJP/TM4C/yrPhzHSU3hqnyIyXGSUvYTPoCiiq+oajDpdlNczyLFDChd3Y7VUCvtD6Uxfif8SNJ+EngXUfEWuXUdnpulwNPNI7bQqivwL/4KAftjap+2B8arzVZpJF0mxdoLC33fLGn3dw/3tu6voD/AILBf8FFn+N3i+fwH4XvP+Kd0mVkuZoj8t0/zL/wJdtfBNfY5Ll/so+2nuz834jzh15+wpP3V+IIu5tq/er9tv8Agh/8A2+E/wCyv/bc8Pl3Hi6VL7kfMu0FK/H39nf4U3nxs+NHh/wzYIz3GpXSou1f7vzf+y1/Rp8LPBFr8OPAGkaJZxLDb6fbJGFH05/Wo4gxHLBUl1NuEcHz1XXl0OkHSiiivkT9CCiiigAooooAKKKKACiiigAooooAKKKKACiiigAooooAKKKKACiiigAooooAKKM0m4DuKAFoo3UZoA+Vf+Ck2stb23h+zU/JcB2b/gLLXzn8G9HXxB8UNFsXXctxc7cfg1fSH/BSTQXudO0HUFX93a70c/7xWvD/ANk6xF9+0D4b3dEudzf98tX57mlNzzPlfdHyGYR5sfyvyLP7XXhtfDfxov1RdkcyoyD/AHUWut/4J9a4+l/Fe5tg3y30So3/AAHc1S/8FDNMWx+JWmzKNv2iB2/75KrUP/BPnQ5NT+LF1dBfksYg7f8AAty0Uqcqea8se4qdPkx/LHufb+7GM1+bf/BYz/gpKvgnT7j4b+Dr7/iZXCf8TC5ik/1SN/D/ADFe2/8ABUn9v6z/AGUPhhNpelXMb+LdYiZLZVb5rdeV3/VWr8O/E3iS88Ya9dalqFxJc3l5K08sjtuZmZtzf+hV+yZLlvPL21XYniTOvZL6tRevUpSSM8jO7bmb7xptFbXw68F3XxE8a6Xolikklxql0luuxd23cyru/wDHq+t+FH5/GMpS5Yn6F/8ABBD9l1tf8X6p8RNStt1pYDydOcj7swb5v/HWr9ZRyOa8v/Y++Alp+zp8A9B8NwQrHNb2yNdED/WTbRub9K9Q+6tfn2YYr29dzP17J8F9Vw0afUdRRRXCeoNI+WjORXA/EX44Wvwr8RWsGswtDp958sV0g3Krf7f92ux0PXrPxFp6XVlPHc28nR423CsY1oSk4J6ozjUi5OK3L4OaKBRWxoFFFFABRRRQAUUUUAFFFFABRRRQAUUUUAFFFFABRRRQAUHmiigCPGK+If2uvH/ibwh8ZNSht9VvrW1kbfCkcpVcbV96+4MbfrXyr/wUS+Gr3EOm+IreP5IR9nlx6s27NeHn8JvCuUOh5ebQk6F4dDwvQ/2lPGWgyLJDrFxIy/8APVmk/wDZq9a+GH/BQnVLC4jh8SWsd5CflMkKrFj3rwDwXb6bea5Hbaq8kNrcfJ5sf3o2/hrrvih+zhrPgCyXUrcf2posq74ru3+ZNn+0a+NwuMxsY+0pyukfOYfEYqK54M+ufiCuh/tT/Be6i0q4jmbHnxgffV4/m2/nXzD+yd4fn8P/ALRmn2d5G0Nxaz7WQ+vzVyfwR+MmpfBzxhb3lrMwtmdVuIt3ysv8VfZ/h74X6H8Q/FWhePtLZYZmxNIq/wDLT5W+9/tfNXuYeUcwqQxC0nDf0PTpyjjJwqR+OO54v/wUls2m8aeGWjXc720q7R/F861Z8KeKdL/YY/Zb1Txr4hKx395EWijY7Wl6bF/WvePiX8HNI8b+MtL8Q6symHQoZDsf/V/eVtx+m2vx5/4K7ftsXP7Q/wAZZvC+lXLDwr4ZdoYokb5WnXcjt+i19TkvD7r5nLEz2Mc0qRwcp4l/FLY+cv2iPjxrf7RnxV1TxPrlzJPcX0rOiFv3cK/3VX+Fa4aiiv1eMYwjyxPzipUlOTqS3Cv0E/4IU/smD4h/FW78fapa79N0FTFAHHyyO68Mv+6y18H+C/Cd9488UWGj6fC1xfahKsUEafeZmr+hb9iH9niz/Zo/Z20Hw7bIomWAT3D4+Znf5ufpmvHzzGeyo8kd2fR8MZf7fE+1ltE9iooor4k/TgooooA4j47/AAwtviv8O77T5l/eKnmxN3DLyK+LPhj8ePE/7PHiySxeSSa3t38q4tpfm+7/AHd33a/Qg/8A66+Lf2+vhGvhjxfD4gtY9ltqTbZdo/5a/Mxavmc+oThFYqjpKJ4ubUpRSr0t0fTHwY+PWjfGXREuLGaOO5Ufvbdm+ZDXdjivy78FeONS+H3iCHUNLuZLa4hb+BvvL/dr7l/Zs/ai0/4y6YlpcPHbazGv7yEt/rPpWmUZ1HEfuquk/wAysvzSNb3J7nsFFGaM19EewBOKbvokrnviR8Q9P+GXhe41PUJlihhHGf4m7CoqVFCPNImUlFXZ0PIoUfNXxt4Q/bs1S5+L32i/by/D90fKEGf9Su773+9X2DpeoxavZRXNu6yQzLuVh3riwWYUcVf2fQ58LjKde/J0LVFFFegdQUUUUAFFFFABRRRQAUUUUAFFFFADWOQKwPiP4FtfiL4RvNKulzHdRlQf7p9a6D+H2pNvvUSipR5ZEyipKzPzR+MHwn1L4R+MLjT72GRY1bdFJ/Cyfw/NXpH7MP7Ta+CHXQfEQW70O4bb+9XzPJr63+K/wa0b4waC1rqkCsyj91MB88R9q+VPiR+wL4i8P3Ukmjyx6la/8s40B8z/AIFXxWIyrE4Ot7bDe9E+ZrZfWw1X2lDVHXfHj9jix8XaY/iLwXJG4kj81rcPuVv4jt/+Jrsv2ENYvovh7eaPqEcsdxp9ww2SKV2D5RiuH/Ztj+KXwi1SPTr7w7qVxosjbWVwv7n/AGh81fTtppFjpP2jUYrWO1mmQyTNj5m78162W4SE6ixEFyPqj0MHRg5fWIrlfVHyx/wV7/a9X9m79nufTNPnVdf8SL5EKZ+byWykjfhkV+Gt3eSahdSTTO0kkjbnd23MzV9Jf8FT/wBp+T9pX9p3UpobhptH0Mva2C7t21fl3/8Ajy1801+v5Tg/Y0U+sj8/4gzD61iXbZaIKKKmsLGTVNQt7aFd0lxKsSD/AGmbatemeGj7o/4Ic/ssf8LT+ObeNNQg3ab4XIlt3K7la4Vl4/75av2YysEXZFUfgK+df+CXv7Osf7PP7J+g2ckPk6lq8KXt8m3aVlK4P8q7T9sn4gXvw6+Dd1dac7R3M0qQbx/CrcGvznPMwjzzrPZH6tlGHWCwKk992dtdfFrw7Y6n9jm1azWfpt85f8a6C2vI72ASQyJJG3RlbcK/K64vJLy6aaV2eaRtzOfvbq9V+Hf7ZPiz4daAmnW7W91BH/q/tG5mWviaHFEHL97GyJo57GUrVFY/QD5qPmr4d/4eEeMv+ffTf++T/wDFUf8ADwjxl/z76b/3yf8A4quz/WTCef3HV/bWHPuLt71wf7RHw3j+J3wu1Kx8tXuvKZrc/wB16+Wf+HhHjL/n303/AL5P/wAVTZP+CgnjKSMq1vpvzf7Lf/FVlWz/AAdSm4O+vkZ1M2w04uDPDtQs30++mt3Xa8Lsjf8AAWq54X8UXng/Wre/sJpIbi3bcpDUnibxBJ4o1y4vpI44ZLht7JGvy1n18Jz8k+aB8n8MvdP0D/Zk/aJtPjZ4XVJnWLVrUbZ4/wC9/tCvVwM1+Y/wv+I198MPGFtqthIyvC3zoG/1i/3a/RD4TfEqx+Kngu11WxkWRZRtkAP3XH3h+dfoGSZt9ZhyT+JH1+V5h7aHJPdHTSuqKWZsKBnJr4N/bD+O83xO8cS2FrI39l6e2xAPuu3fd/wKvq79qTx43gT4OatcRybLmaAxwH/br875pHvLp3b5pJm3H/eauHibHSjFYeHXc5M6xTVqMSOvtf8AYN+Lj+L/AANLot1Lm50sqkW4/M6HJJr5d+LHw5/4Qex0GbZs/tKwinb/AHmrqf2JPFb+Gvjbaru/d3UTxMv+022vEymtPC4xRf2jzcvqSw+JUZfaPv6igdKK/ST7QKKKKACiiigAooooAKKKKACiiigBpyF6Vg+PPiHonw08PT6lrmpWum2cK7meeUJ+Wap/GX4q6V8Ffh1qniXWbhbfT9LhMsjE/l+tfhN+3T/wUD8V/te+PbwyXlxY+GYXK2dgj7V2+r/NtZq9LL8uniZeR4ucZxDBQ7yfQ+8P2jf+C62i6Lrf9g/DbSJPEF9NL9nW4uFeBVcnb8vXd81fUv7HGk/EDWfAlt4j+ImptNquqRCVNPVFVbBT/BlfvfjX4pf8E6PBdn4+/a88J6ffJG9u07S4f7u5F3L/AOg1/QtEgRMD7uOK6c2w9LDWo00cGQYqvjZSr1ntsiVlHGeteB/8FJPj+v7Pn7KHibVI5vK1O5tTDYf7UuV/9lzXvhORX5af8HCnxo82bwv4Ihk2vbyf2hKgP3kdGXmuHLcP7bERgernOK9hhJTW5+ZGqag+qahcXMjbpLh2lb/eZt1V6KK/Q1ofj/mFe7f8E5PgO/7QP7VnhvR2jZ7aGX7XK38K+V865/75rwmv08/4N7vg95t94o8XXUOVUJDZvj3ZXrhzDEeyw8pnq5Phfb4uEGfqVawLaW6xxqFReAB2rm/i78M7X4seCbrR7rhZvnRv7jj7prqulVpdQt4X2vNEjejOBX5xUjGcXCezP1ucIyjys+H9T/YC8aw64YLVbGaz3cSvcKrbfXbXuvw0/Ye8LeHfDEcOtWn9pXzcySbyv8q9whZXGVbcPanHg9a8vD5HhKUuZK/qcVHK8PB8yVzzD/hj3wD/ANANP+/rUf8ADHvgH/oBp/39Nen4PtS4PtXb9Rw3/PtfcdP1Wj/Ijy//AIY98A/9ANP+/po/4Y98A/8AQDT/AL+tXqGD7Uc+1H1HDf8APtfcH1Wj/Ij5F/bR/Zx0P4e+BoNY0OxFqscqxS7SzbtzV8vV+j/7RvhRPGHwf1i3Zd3kwNcKPdFLV+cDK0bMrfKy18PxFg1SrqUFZM+XzrDxp1FKK0YV7h+xR8cT8PPHC6XeTY03UuBuP+rb/wDarw+pLO6ezuo5kba8Lq4/3lrycHiJYeqqkOh5uGrSpVFNH2n/AMFErt4vhHpvlt8sl7hsemxq+OvBentqni3S7ZV3edeRJ/30619Q+Ktfb9oL9j/7X/rtQ0NN9x/eaRV/+vXhn7M+htrnxl0q3ZNzRv5uP91lavYzb9/i4TW0rHqY/wDe4iEltKx6f+3roC6BF4dgVflt4lg/75Vq8u/Zkge4+NGiqn3lnVm/3dy17P8A8FIJM3ejr/tf+ytXMfsCfDiTxD8SZNakTdZ6fEUzt/jbaw/lVYjD82ackO6HXp82YcsT7dA4oL0ye5jt48yOiD/abFYmqfErQ9Ifbc6laRn3evvJVIx+Jn1bko7m6HzTq5zT/ip4f1OZY4dUtHkY4ADV0KSCRAy80RqRn8LCMk9h1FFFaFBRRRQAUUUUAFFFFAH50f8ABwJ8Ybzwz8J/DPhqxlaNdWu5FvMNt3JsDKP++hX5FV+sH/Bwz8O7i98AeD/EFujSRw3sqT4/5ZhYuG/Wvyfr7jI+X6suU/LeJuf67K53n7M/xQk+Dfxw8PeII22/Y7xFkP8AdRmVW/8AHa/oz+HnjrT/AIl+C9N1zS5luNP1SBZ4ZB/Epr+ZCv02/wCCLv8AwUTh0CKD4Y+Lr5Y4GIj0m4lb5V+6qxfzrnzzButD2sN0dXC2aRo1XQns/wAz9VAMH8K/B/8A4LEfEb/hYH7Z2tL5m/8AscfYPvfd2O1futfaglvo010jKVjhaUEdDgbq/nP/AG1NabxB+1d4/vN2/wC0azM6/wDfVefw7T/fOR7XF9W2HhDuzy+iiivsD85Cv3a/4Iz/AA0T4d/sUaMskW26vbm4md/4mDPuH86/CmztZL66SFF3PI21a/pE/ZY8Jw+Cf2ffCNjANq/2TayN/vNChNfPcRVLU4w7n2HCNG+IlU7I2vjJ46Pw3+G2rawieZJZwM6J/eNfnn4u+LniDxfr0l/daldNIz7l527f9mv0T+KXgeL4j+A9T0WRti6hAYt3pXwb4v8A2XPF3hbxBJZ/2XJNHvxE6fdZa/IuJKeIco+z2Po86jXbXJsdr8Gf25tW+H+hNp+qQ/2okf8AqpJCdy/7PFdp/wAPIP8AqCw/99PWb8GP2BjruhNdeKGktppPuRI+1l9/lrtv+HePhXH/AB8XX/f5qywtPN/ZrlenmRh6eY8iszm/+HkP/UFi/wC+no/4eQ/9QWL/AL6euk/4d4eFv+e91/3/ADR/w7w8Lf8APe6/7/mun2ec90aezzDuc3/w8h/6gsX/AH09H/DyH/qCxf8AfT10n/DvDwt/z3uv+/5o/wCHeHhb/nvdf9/zR7POe6D2eY9zkdc/4KGJq+kXNq+iw7biJom+Y/xLXzDrF4mo6pPcJHsSZ2dU/u19l/8ADvTwr/z3uv8Av8a+VvjR4Fj+G/xEv9Jt2Zobdvkz/d3NXh5xRx3Ip4o83MqeJ5VKucrRRRXgnkn0F+wZ40jh8X33h2+2vZanFhYz91nZlrtPhv8As7Xnwu/a0t5ljaTSLqG4lil2/KrYztavnL4L+Jz4O+KOiakr7VtbpXav0n0549SsrW62qWkiVwcdMivssjpwxVFKe9Nn0mV0416SUt4M+aP20Ph9qvxT+J2i6PpcEkrbQzvt+WMYbktW3qvxF8O/sZfDqHRrXy7zWpE3Og/jf/a2/dr1v4seL7P4beCdT1+SOPzrWDhto3N7Z/Gvzz1jUNa+MHjSa42XF9eXkvygKzf7taZnUWDrOdL3qk/wRpj6kcPNzh8b/A3/AIj/ALTviz4j3kjXGpTW9pJ923jb5V/GuFk1C7k3M1xcN7l2r3rwn+yJZ+B/Dra/48vFs7ONd4tEbbI3/AlryX4oeNLXxTrTLptnHY6Xb/JbxhV8zb/tN/E1fO4uniEvaYiWr6dTxa8aqjz1nqx3wf0e88XfEbSrK3kmZmuEdgC33VZWav0ssrdbW2jjXhVXAr5H/wCCf3wgkutXm8UXcO2OHdHbbl+9/C1fXq8ivrOHcPKnh3Ul1PocloyhR55dRaKKK+kPZCiiigAooooAKCcCiigDyX9tH9nu1/aZ/Z917wvOq/aLq3JtpP4onBDcf981/PT8TPh/qHwt8dal4f1S2ktb/TZ2iljkG1l/ytf03dq/P3/gr9/wTYX4y6HcePvCNmq+INPQve28a/8AH2n3mb3b5RXvZLmCoz9nPZnyfEuUyxEPb0/iX5H471NY382l3cc9vI0M0bbkdPvLTtS0240fUJra5hkt7i3ZkdHXaystV6+y3PzjZn6k/wDBNj/grza6zpFv4C+KF4qeZF9ltdTmk+VgV27Hb8lWuX/4KI/8EiNRu72++IHwzaTXrHVGa8ntIxuk+b5vkCr92vzgjkaGVXRmR1bcpH3lr6//AGGP+CtPi79mie20XXnbxB4V3bXilbdJCP8Aebc3/Aa8atgZ0p+3wnzR9Jh80pYmmsNj9uj7HyPrGj3Xh/UprO+t5La5t22PG67WVqrV+yXjz9nD4Ef8FSPBzeIPCt9Z6P4mkj+UoRCysf70Py7vm/ir88/2rP8Agmp8SP2WdUma+0qbUtI3N5V3aL525f7zBd22t8LmUKvuS919jix2TVaK9pT9+HdHj/wd09dU+KWg2zLuWa8RMf8AAq/pG+GVt9m+G3h+P/nnptsv5RrX84/7PsbW/wAdPDCSKyMuoxblK7dvzV/Rx4b1FNK+GWn3Un3LfTY5W/4DGDXi8SS+Fn0nB3w1JM3j0pu1T1Va+E/i3+2d4l8V+Jp/7Juvsemxv+5UJ82P96ux+BH7eU2kRyWvi52mjX/VTxxfMP8AZ2rX57DiDDSq+z/E+ijm9CU+Q+vM49KXd714b/w314H/AOfi6/8AAZ6P+G+fA/8Az8XX/gM9dn9rYT/n4jq/tDD/AM6Pcs+9GfevDf8AhvnwP/z8XX/gM9H/AA3z4H/5+Lr/AMBno/tbCf8APxB/aGH/AJ0e5Z96M+9eG/8ADfPgf/n4uv8AwGej/hvrwR/z8XX/AIDPR/a2E/5+IP7Qw/8AOj3EfT9a+AP22LNbP48Xyr/y0gR//Hmr6N/4b48D/wDPxd/+Az18tftOfEjT/ip8VJtW0tpGtZIEj+ddvzLurweIMZQq4dRpyu7nlZviqVSjaDuee0UUV8WfMArsp3L8pr9Mvg9rX9vfDfSLgc5t0T8lAr8za/RH9k26+2fA3SZN2cbx/wCPV9VwrU/fSj5HvcPy/eTRX/ab+GGqfFvw3p+kae6xQzXBF05/hTB/rXNrpvgf9jjwl5rC3m1hk4J/187f/E169qfiqxstXh064uo7e6uuIQ7bfNPov95vavHPiB+xLY/ELxDNfXWsXTSTNu2uWYL9Pmr6LG4Wal7ajC8336Hs4mi7upSV5/kfLXxw+PWsfGvXWmvJGjsY2/cW6t8q/wC1Wt+z5+zPqvxj1uGR4ZLbR1bdLcFflZf7q19N+CP2FvCHhe6juLmOa+mj5Xc5Vfyr2LTdGtdDs0t7OCG2hT7qRqFryMLkNWpV9tjGedh8onOftMSyt4N8J2fgrQbfTrGJYre3QKoHf3rVxt5oHyjmhm4r62MVFcsT6CMUlZDqKKKooKKKKACiiigAooooAKbIiyRsrDKtTqKAPz3/AOClH/BIfT/jHFfeMPANvDp+vY825sY4/wB3df3iFX+Jua/JDxp4L1X4feJLrSdasbjT9Qs38qeCVdrRt/dr+nT+Gvm79tP/AIJreCf2vtGmluLdNJ8RbCsWoQR/N/wJeAa9/Lc6lS/dVtj5DOuG41r1sNo+x+A9Fe3ftX/sEePP2TvE81vrGl3Fzpqs3lXturSxMv8ADuZV2q1eI19bSqxqR5oM+ArUKlKfJVVmdF8Mvix4h+D/AIkj1bw3qt5pN/D92W3fa3+7X6Dfsvf8FyjcaPH4d+K2krqlnMvlG7j2/MvrLub5q/NeiscRg6VZe+jqweZYjCv92z9mLf8AYl/Z9/bD1Ww8XfDnVNO0/UrWVbpotNZUj3/e+dcV9qHwr/xb3+xfM8xo7D7Jv/vER7M1/Nn4D+KXiD4Z6pDeaJqt5YTQtuXypWVf++a+0P2cf+C63j74bLBZ+LbW38T2cfyec7+TJGPoq/NXz+YZNWnG0ZcyPq8r4hwibVWPI5dtj2r4qfCPVvhX4muLC/tZljjfbFNt+WZf7y11nwQ/ZM1/4xpJcBf7Ps4/uyzq22T/AHa9U+BH/BVj4M/tDpbw3F5DpmotxIupW6wxof8Afc19MeE/Emh+ItOWXQ77Tby39bSRHX/x2vzWXCKpVuate3Y9PC5dhasueFS6Plf/AIdvav8A9Bqx/wDH/wDCj/h29q//AEGrH/x//CvsHAowK6f7Bwf8p6X9kYbsfH//AA7d1f8A6Den/wDj/wDhR/w7d1f/AKDen/8Aj/8AhX1H4h+Jfh/wedura5pOmn0ubpIv/QjWfpnx38Fa5OsNn4u8OXUrdFh1GJ2/Rqr/AFbwv8hn/ZuC+H9T5r/4dvav/wBBqx/8f/wo/wCHb2r/APQasf8Ax/8Awr6+hdZ4w6srI3KkGngCp/sHB/ymn9kYbsfHx/4JvauB/wAhqx/8f/wrwn4sfD5/hf40uNHkuI7l7f7zp92v0zmfbGzH0r83P2hNY/tj4xa5KrbljunT/vlmrwM8y/D4aknTWrPLzbB0aME4I4uiiivlT58K/Qz9kC3+z/AnSV/3/wD0KvzzjjaRlVV3N6Cv0m+Aek/8I38JtKhb5QkQds+43f1r6rhWP76UvI97IY/vHI+a/wDgsl4rvfhp8GvDfizS7qSx1bw7qT3VrKjbWDbNv/oJNekf8E+/2ydL/bG+DUGqRNHHrVgqQajb5+aOTB/oK+Ff+C7n7YWnePNX0r4d6HdR3C6PObi+ljbcpZlZGT/gNfPH/BLD9qG8/Zz/AGn9Hja4k/snXJVsbiJm/d7pGVVdv92v12nlcp4HmfxHLUzyNPNHCL9x6M/fMdKMZqG0vY7+1jmibdHIu9SP4hU1fOH2gUUUUAFFFFABRRRQAUUUUAFFFFABRRRQAUUUUAYfjjwBo3xF0GXTdb0+11KxmGHiuIxIp/OvzJ/4Ka/8EgdD8B+AtY8f+A2ks4dOQ3V3p5+ZSM4/dqq7Rywr9UD8w+tZfjHwra+M/C99pN9Cs9rewtFJG33WBrsweMqUJ3i9Dzcwy2jiqbU1qfzFyRskjKw2svytTa9X/bQ/Z7v/ANmv9oDXvDt5HIscdwz28hX5ZEb5vl/76ryiv0KnUjOMZRPyGtTdOo4S3iFFFFUZhXovwx/ay+InweuI20HxVrFnDH/y7pcP5Tf8B3V51RUypxnpJGlKrUg7wlY+8Pgv/wAF5fiR4LWO38SWen61Yx/88oNs7fizV33x9/4L+3Hi34afYfBPh680TW7kbZbm7dJVVed2AvRq/NGivPlleFcufkPVjn2OUOTnOy+In7QXjP4qapNda94i1TUHmZm2zTsyr/srWFofjjWPDN4txp+pXlnMvzK8UrK1fa//AATm/wCCQM37T/hdPFni7ULrR9DkcrbxRIrSXGOu5W/h+7XvH7Rv/BBDw+3ge6vPA2sXiaxaxFobWWJFinb/AGm5as6mZ4WnP2JvTyXH1aX1hL/M+ff2Df8AgsJ4u+CviSz0XxreXHiDw7cSLE8s77p4dx2ht7H7q/8Astfsb4A8daX8SfCVjrmj3Md5p+oxLNDKh+VlNfzReLPC994H8SX2lX8bW95p87wSof7ytt/9lr234Gf8FKfit8APCEOg6F4guY9Mtz+7iYLtX/x2uXMMnjXXPQ0Z2ZRxFPDN0sVdo/fzxDHM+g3i267rhoHEY9WxxXw94g/Y+8d+IfEl9dNprp9qnaTJ2/xH/er4ssP+C3XxitI9sl5HO3q7/wD2NLcf8Fu/jFOcrdxR/R//ALGvmMfwZUxlvaPY9TF5/l+Itz30PtrSv2BvGF6485obVfVk/wDsq6zQv+Cey6cytrfiTTwn8SoxjP8A49X5p+J/+Cwfx01/d9n8Y3enK3aFUb/0JK8v8fftqfFD4nxsmt+MNUvlk+9llj/9BWssP4e0V8Z58s4y6HwU3I/YjxJrn7P/AOyVbPPr2uafLdQru8u4fz9zf7O1a+Pf20P+C4V9400y48OfDWyk0exZfJkvpGDGRfu/IVwy/LX54XmsXWpHdcXNxcf9dHZqrV9Zl/DeEwmyOHFcRVpQ9lRXIvIs6xrF14h1O4vr64kurq4ffLLI25pG/vM1TeF9Uk0XxLY3ULbZredHT/eVqoV6J+yn8H7/AOOnx48O+HrC3kuGuLxGn2Lu8uLeu9v/AB6vcqSjCDbPEoxlOqlH4mf0I/s56jJrPwF8G3Ux/eXGj2sj/UxLXbbflxWL4A8Mp4K8FaRo8Z3JptpFag/7ihf6Vt1+aVPidj9poxappMKKKKRoFFFFABRRRQAUUUUAFFFFABRRRQAUUUUAFFFFAHwj/wAFp/2JT8dPhSnjTRLXzNe8NofNVF5kg5Z2P94rtFfjHNC9vIySKyPG21gV+Za/qA1LTodXsJrW4jWaC4QpIjfdYHtX4of8Fbf+CfF7+zh8Srnxdodq0vhPWpWlYoP+PWVvmfd/s8ivqMjzD/mHqfI+F4oynX63SXqfFlex/sMfC/wl8aP2gNN8MeMmuI9L1RHQSxT+U0b7fk/8e2145W18O/FU3gjx5pOrQu0b6feRT5H91XVm/wDQa+kqRk4NRPi8POMaqc1dH6AfHf8A4N//ABJoLTXfgzXLfUoT/q7N4isi/wDA2avkX4v/ALB/xS+CEjLr3hW+jWNvvwL5/wD6Dur97v2bvjBb/Hf4J+HfFNtIrLrFmlwwB+6W7V21xZxXkbJJHHIrcMCK+Rp55Xoy5KiufoNXhfCV489F2ufzCaho95pMm26tbi2b0liaP/0Kq1f0J/tHfsAfDf45+DNUhuvCul/2xcQt5F8Iz5sL+o5r8Gvjp8H9W+BfxO1Xw3rFtJbXWnzsmwrt+X+H/wAdr38vzKGLul7rPks2yWrgGpN8yZ++H/BPzxVo/i39lHwjJo7xNDBYxQSrGR8sqoof/wAer2e5nS0gaSRljROWZjgAV/P1+xx/wUb8efsaM9tos0epaPI25tNu3byFZurfLXq/7Rn/AAW++I/xt8F3Oh2Fjp/hqC8TZLPZO/nMP7vzV4WIySu67cdj6rC8T4WGGXP8S6HiX/BQjxJpXiz9rDxRdaL5f2Pz/L+T7u9WZW/8erxWppJLjWNQZ3Zprm6fcx/ikdm/+KrqLv4B+M9P0v7ZN4b1SO127/NMXy7f71fVU+WjBRkz4OpKVabqxRyNFXrjw3fwfK9rMn1Wmp4fvpPu20zf8Bo+sU/5jn5JlOitS38G6rdNtisbiRvZa6Lwb+zn44+IOsQ2Gj+GdWv7q4b5Eig3NUPHUI7zX3mkadR+7GJxNFfX3wx/4Ip/GP4gvH9psbfQUb732/fHt/8AHa+rvgF/wQC8OeHriC+8ba1cajcR8taQKjW0n13LurmrZphqe8j1cPw/ja20bep+ZPwX/Z78WfHzxVbaT4Z0e8vri4farqjLGv8AwL7tfs//AME1f+CbWl/sd+F/7U1QR3/i2+TMs+P+PcMOUX9K9/8Ag3+zz4P+AehLp/hTQ7HR7fGCIE27/eu3C7a+azDOJ11yQ0R9rk/DtLCv2tTWYuKKKK8Y+mCiiigAooooAKKKKACiiigAooooAKKKKACiiigAooooANvNcn8ZfhFo/wAcfAGoeHdctY7mxvoyjBh8ynswrrKKIylGXNEmcFJcsj+fv9vz9gbxD+xt8RLiOSGS68O3jtJZXiLuVk3fdb+633vvV871/Sn8evgJ4d/aJ+Hl54b8SWcd3Y3SkAsu5oWx99f9qvxO/wCCgf8AwTX8S/seeJJr63hk1LwncPmC8jVtsOeit+e2vtMrzaNaPsqu5+b55kEsNJ1qKvH8j7E/4IGftL/8JD4I1b4e6hc7rnTT9qtS7dIvlQItfpKq8V/OR+xp+0Pdfsx/H/QfFFu8i2tncIbyJG/10X91q/oc8AeMbX4geDdN1iyljmt9Qt0mRkPHzKGx+teLnmF9nW547M+j4XzD22G9i94m1jIzXzH+3n/wTZ8K/tmaR9qYR6V4nt0KwX0a/e77XA+925NfTijBoxXk0a06UueD1PocRh6deHs6quj8GvjR/wAEh/jB8I9UmVNFj1SwVv3U8E6s0i/7q/drkvA//BNf4vfEDVks7HwvMkkjbc3DeUv/AH01f0I4wP8AGlHT0+le1HiCvazSPmJcIYZyupOx+c/7CP8AwRKtfhdrNp4k+Ikkeoajbt5kWnq26OM9tzKdrV7t+3t4j0bwt4StvD9npumLcXn+tVbdF2xY+n94V9MaxqUek6Zc3crfu7eJpG+ijNfnL8f/AIlP8UfidqGob99tvKW/+5u+WviuKM4q+xs5as6cXh6GBw3saS3PPG8NabIPm0+xP/bFP8KT/hGNN/6B1j/4Dp/8TV6ivzj6xV/mPmeUpx+H7CP7tjZr9IF/+Jr61/4J9fA2O0Eniq6tY4l+ZLUbNv8Ass1eEfA74VXHxd8eWulwozQ7t87j+FN3zV+inhPw1a+D/D9rp9rGscNrGsfHfA619Nw/g6tWp7ersj3slwfPP2z2RrDpRQOlFfcH1gUUUUAFFFFABRRRQAUUUUAFFFFABRRRQAUUUUAFFFFABRRRQAUUUUAFFFFACFc1ieOfAGk/Efw9caVrNjb39jdIY5I5kDda21bdSmmnbUmUVJWZ+Sf/AAUK/wCCLN34LF54q+GELXemrmWfTP8AlpCP9j7zPXsX/BFL9qu8v/DN58K/Fi3FjrmhsWsorlWSSRPmZ/vf3eK/QfKkf/WryLx3+xz4T8T/ABCsfFmn2i6L4msJVb7ZafuWnTcGZXwPmztr1P7S9rR9jX+TPB/sdUMT9ZwundHsFFRxbhGu47m74qSvKPoAo6CjNQX15Hp1pJPM+yONdzMf4aAPCP26Pi5/whPgSPSbWTbfaocDafmVR979DXxDXoH7SnxQk+KnxQv7xmb7PC/kRJ/D8vy7v/Ha8/r8wzjHfWcQ2to7Hw+ZYr21ZvoFWNL0ubWL+G1tY2kmmbaqIu5qrqrSMqqu5q+uv2K/2Zv7Kt4/FGtQ/wCkSDdaxOv3P9r/AIEprHL8DPFVeVGWDwssRPkR6P8Asq/AWL4O+DEkuEU6pfKHnb+5/s161jik2c0H5Tmv03D4eFGmqUNkfb0aMaUFCI6igHNFdBsFFFFABRRRQAUUUUAFFFFABRRRQAUUUUAFFFFABRRRQAUUUUAFFFFABRRRQAUUUUAFFFFABQeaKKAGlcrXi37a3xXHgD4XzWcL4vNWBgUD7ygjrXs7uqRsx6Lya+Cf21PiY3jv4uXFsr5ttHJtkx91v4t3/j1eLnmM9hhXbd6Hm5piPZUXbdnjskheRmb5mblqKK9L/Zo+Alz8a/GUayK0el2rb7iT+8P7qtX53h6M61RUobs+Op05VZqEDtP2Of2ZX8f6xHr2rQsNLtW3RI4/1x7N+lfa9raR2lskcaqscYwAKpeG/Ddp4V0SGws41ht4E2qFXbWiOOK/TMtwEMLS5Fv1Pt8Dg44eFluOHFFFFekdgUUUUAFFFFABRRRQAUUUUAFFFFABRRRQAUUUUAFFFFABRRRQAUUUUAFFFFABRRRQAUUUUAFFFFABRRRQByvxj8YR+BfhzqmpSnCxwkfnxX5q6rqEmrahNczPvkmfcxNfZv8AwUJ8Y/2J8N7PTVfa2qSlSP8Ad2tXxUqtI21V3NXwPE2I566pdj5PO63PWUOxseAfBV58QvFVrpVjG0k1w/zbF+6v8TV+iXwT+Etl8IPBNtpdqi+Yq7ppB/y0f+9Xl/7FHwBHgXwuNe1CH/iZXy5QMv8Aq0/+yFfQA4+tezkGV+xh7ae7PSyjA+yh7SW7HUUUV9Ke0FFFFABRRRQAUUUUAFFFFABRRRQAUUUUAFFFFABRRRQAUUUUAFFFFABRRRQAUUUUAFFFFABRRRQAUUUUAFFFB6UAfFP/AAUP8TfbPiXbaXvytnCkuP8AeFcv+x/8FT8VPiHHcXUe7TdNbzZcr8sjD+Cof2trx/Fn7QV0kf7x2WK3X/vplr68/Zl+EcXwm+Gdpasm2+uFEt0f9uvh8Pg/reYyqS2iz5ejh/rONlOWyPQrW2Szt44o12rGoRR7CpqKK+4PqAooooAKKKKACiiigAooooAKKKKACiiigAooooAKKKKACiiigAooooAKKKKACiiigAooooAKKKKACiiigAooooAKR/uH6UtDfdoA+O/hh8Nv+FmftYatdTL5llpM7PKG+rKv/j1fYCjav6V578Cvhx/wiEmtX1xHsvNQv5if9zexWvROAv415uW4X2NNuW8nc4sFh/Zwv1Y6igHIor0jtCiiigAooooAKKKKACiiigAooooAKKKKACiiigAooooAKKKKACiiigAooooAKKKKACiiigAooooAKKKKACiiigAooooAaiBBwMU6iigAooooAKKKKACiiigAooooAKKKKACiiigAooooAKKKKACiiigD/9k=;" parent="1" vertex="1">
          <mxGeometry x="608.71" y="365" width="47.78" height="50" as="geometry" />
        </mxCell>
        <mxCell id="R6fphjBCiR-DiBrCDHX--88" value="&lt;font style=&quot;font-size: 18px;&quot;&gt;&lt;b style=&quot;&quot;&gt;&lt;i style=&quot;&quot;&gt;HeCiX-KG&lt;/i&gt;&lt;/b&gt;&lt;/font&gt;" style="text;html=1;align=center;verticalAlign=middle;resizable=0;points=[];autosize=1;strokeColor=none;fillColor=none;" parent="1" vertex="1">
          <mxGeometry x="575.86" y="328" width="110" height="40" as="geometry" />
        </mxCell>
        <mxCell id="R6fphjBCiR-DiBrCDHX--89" value="" style="shape=image;verticalLabelPosition=bottom;labelBackgroundColor=default;verticalAlign=top;aspect=fixed;imageAspect=0;image=data:image/png,iVBORw0KGgoAAAANSUhEUgAAANYAAACfCAYAAACFtCeKAAAAAXNSR0IArs4c6QAAAARnQU1BAACxjwv8YQUAAAAJcEhZcwAADsMAAA7DAcdvqGQAAGGwSURBVHhe7b1nlGXndSW2X86hXuXcVdXVOTe6kSMBEAQJgmAWKInUjOTlsdeyPcs/vJY9y/byL49neXl+WLZES6MZaSiJEiiKpEgCJFID6Jyqc3dVV8755fxeee/vdYEg1AAbQFcH8B30xat37303fN/ZZ59zvmRZoaAqVanKTRXrtc+qVKUqN1GqwKpKVdZAqsCqSlXWQKrAqkpV1kCqwKpKVdZAqsCqSlXWQKrAqkpV1kCqwKpKVdZAqsCqSlXWQKrAqkpV1kCqwKpKVdZAqsCqSlXWQKrAqkpV1kCqwKpKVdZAqsCqSlXWQKrAqkpV1kCqwKpKVdZAqsCqSlXWQKrAqkpV1kCqwKpKVdZAqsCqSlXWQKrAqkpV1kCqwKpKVdZAqsCqSlXWQKrAqkpV1kCqwKpKVdZAqsCqSlXWQKrAqkpV1kCqwKpKVdZAqsCqSlXWQKrAqkpV1kCqwKpKVdZAqsCqSlXWQKrAqkpV1kCqwKrKp0q08u/qttaie5TLpWvffl2qaxBX5a6TVZUtl8soFItIZrLIZPNIpjMoFErIF0tw2m2w2+0IeN3welzw89Nus8FqrXCJxWIxn59ESqUSn6XM+ziu7fmV3FJgvf9WN+PlqvLbI9KfIoGUyOQwMTOPgZFpXB6awuxyggArIVcoG7BZLBXw2O0W2Kw2uOxW1EeC2LCuGVu6m9HeXA+vy2mA90l0cFWfr3eNNQGWLrmyUiKi8yjkYigWkigVUiiVM9xy5sWdNjesNi8sNg8crlo4HB5YrHpR6yd62ap8ukS6JFaKxpMYmZzD+asTuDg4hZnlJFYsZCWykMPthc1m599WgsUJKbR+J0Yplooo67OQQzGfh4NM1loXIMCasG19Ozpa6hHweWClzt1MvbupwNKlisUcsqlZpOOXkEuOohAd501igK9I7kwTTLQkTgdsZM9iwYVi1g2LvZ6F0waHpw2eQCfc3mbYHa4qwH6LZRVQi9E4Tl4cIZgmMTobRTq/Ao/bA48/wE833NzsTlcFWGSm1d8WSzTu5Qq4CgRULp+lm1hELpdFNpNGqVhAxO9Cd2sN9mxqx8bOFgT9NPQ3CWA3BVi6RKlUQGJ+GMtXD6A8fxqW8jwtRw4Il+EO21CSL+q0wlvjJkPZSNn8Dam7kCsjn2MhZoFc1o58KcxzdqCu9Un4Q13GAlXlt0vkzs0vx3Ckrx/HL41hIZ6Dy+OHzx9EqCaCcMgPP0Hgctnh8zjp6VTAYHSK2yqwcnl6TXQRFXfJVcwTYFnGYtlsBVzJZIIsloPdUkJnvQ+P7d2Azd1tvO4n17lPDCzzEvkM5s++hfkffBcrMxOw+W2wNTjgaCOIuvlZY4cr4ICXm41U/H7RNfJZBqGxPNKxHKLJMi3QBjSu/xoamu8z1qjKXp9uWVXDHJX/MmOnnxzow9BMHF5fAI1NrWhsrENjQwjhgAs1fodx+5SHKBRpmIsryORKSKRyyKcZdhAs+VyOIOMFjdpYYKUHVLY4UCxbafCtJtmRzeaQTiWRTqcQjS7DYy3gs/eux707NiDgZWjyCdjrEwNLlDp/8g3M/tUfozA4SnMDWIM2OOudsDY74Ls3AFebEy6vne6fDVYGlFZZGG76XBXRtixLNkV/OprB4hJdylIL2ru/itaOR2lFglVwfYrFsNRSFIfPDuKtvmFkilYCqgkd7S3obq9FY9iNsEdZPZ5LjU1ksoy7CIiFeSzOztFbmkM6usQQJIpcJkNjXzBtSRYB0OGEky6jzR+CLxzhZy1s3hpYnD4U4aB7WEAqmUQsFkU5l8C2rgg+s38zWuprTRbx4+jdJwZWYmoYY9/9t8gcP86rEVV8BpuXQWTIAUubA/F1Dgwz0Ixly2iJOLChN4xwvQsuH5nMyYKyCWACFjder0j3MJcpYiGWwuw8LUouiNaer2BDzxfg9bAwquD6VInUL1coYGRiFr84cgkDk1EEwvXo6elAb0ct2uu8qPfSA6IRzjJGWliOY3pmDlPDQ5gdGsTS5ASi87NIxWJ077KG8Qq8poAqjVIyzM7fuuz0luji+X10KWtq4K9rgK+xFe6GdrhDDSjaA8jSdYzHE0jEFtFV58RT927G+o5mA66PKp8IWHr4yddfwtx3/z0sJQZJYiMGkBanBTafDRO+Mv7s9AT6Lmfh8YVhs0Txtafr8cwTrQjXElwEn8st95APTsCsPn+BtJ7M5LDAQHN8LoV0ogGbt/0+tm/4PJyk9Kp8ekRAOHZuED984zTyFi/aOzqwbcs6bG33o4kM5aDhLZZKmI+nMTI2iaHzfRg7cxazBNbS/AISdPnSVOECdWhFCqQUOq8rA1y+ptryhlaKRdj43U7/0MXPoMvFeC2MYGsrQt0bEGnphqumBTmbH/FkFssLs2h05/DVp/ejvbnhIxt02/9Kufb3RxLhMUvFn3jjnxA7fw4WB8FEQFndNqy4rYi3W/DX52fw2pFFNNAqvPji7+P8+UFcGZpHT4sXPpcNJbLYCgutbKFlYRmU6StrW5G14Xf+hSKpLJGJYWx6BA5XPerDHcYKVZnr7hbpTyKdwdsnL+Jnh/ux4gxg65aNuG/XOuzp8KOBoJIGqM1qYGQcZ48cwelXX8HFd97B0OUrmIpGEeXxgttJ184Dt88LD+Mij8cFN/c5ndwYz1vpCkpfrATcis1GZrIjSwCmqXeJRBKZhUUUZqcZgixSFzPwUncDgQB1zY/5WBpjY2Poaq2jt+T+SDr3sYClQsmTvvv7r+CVNw+ibyGOmMUOly2Hsh1IRaxYsBXx08MLWI6Kkuky8iUmJsZpodLYtjGAjmYfFGIpRapsoTKF8odNhocbb2Fa0HN0L3PWImKk6ImFUTTWbkTQV/ex6Lkqd4bI01mOJfDa0Qt4+9w4XbNG7N5BUG1txoZ6N7z0fHKs++mFZVw8fx7Hf/kqzr11AIMXLmJ6eRlJeUV+L7xBP0KhAIHgh1+g4qb0u4ub02EnmOhCvifxJZ3SvS3UnTK3AvUtXS4hk0qhsLSMAmO0UjHD31oQDAioPoYkaSwvLlBf63jtG28C+ljAUuv36b4z+N73voeLw6NYYgAY9UaQpuUItaVgjfAFSOHHr8SRypDB+PDzDC6z2TQLwoYvfZb+85Yg/HQHfRE3A0onXB477A6CRf9YsHoBAStPxsqWi0iSwucZqKZKRbTVb4aHFqXKWnefyD2bXljCP7x+Gsf75xCpb8G9ezfh3g0RtAUZd7NKM4UShscmyFKHcYqgunz0KCYYVy2jBFIH/ARTXV0NgsEgfGSSQDCE2toIujo7sa6zy3y2NDejnvvUw0KGmq4QFasS0xepV0q6Wfld7mOeW0qZRBrvcjRGtzEDq9OOSE2It/NgZjEOO/JoaawjEZA5bkA+UoylU9Xgdur0Kfz5n/8HjI6OmlbtKB+mo7MdW3o7sKf1LLq7+P4EzMs/m8Kffn8ChZJ6VfAlSik88XgQ/+a/346aeo95ydXrroriqxJBlM8ykExnMU93c5nsOBvN8QVXkEw58cCub+OJ3S8SXL5rv6rK3SBqZ5qcncff/uIkhuczWL9+PfZu68Ruun4BGtUS2SSWyuDKlQH0vfUG+o+dwOToOBZpmFfU348MVVNTg1AwYFy99vZ2bN68BT29vQZYPp8ftmuejDRKepXNZrAwP4/BgX6cPnkCpxifJZJppHIFkz0UjUk3pYkW6nKIoK7j9eu6O9G6bRcauzcyjqPeLS/i2cfuwcaerhvylj4SY8naXKH799f/+XvoH7hqYiG9gNOpQLAGAbLO1j0JdKzzIkBgtXf5WAg2FAiMgG8FDz8Qwe9/s4f7/e+CSiJclYplFNSgV7jWcMy/C7x+jluSL5wqAFkanVQmj2gyia7GbQgH6qusdZeIXLDx2UX845t9mI6V0bthPe7f2YltzdQVJ+NtHp9djOLc6TM4+eovcPHQEUzOzCCGMqwEVF19LRobGtFYX49NBNNnnvwMHnn0Uf69mexVx9jKQ7dP6Xi1b1U2gcxF3QyHw+js6samLVvR0dZOXWNoQZeyYBq6qH+8t9xDKhNDD+piNgsLQVcu5uH0OAnmEEOfEhYXl9Db3UFX8Z93un2/3DBj6bSl5SX8P//3H+MQA0mJHlwJBgdv5CcdN9RY8eIXp9DRQYviZvBpEcOtIBorIJ8royZCAAadvwYqiUBV5IMX1QsjXzTAKvF+eVqqReQwlSBzpdVfrIzFeAHZjBsPbf46vvjgv4LL5b52larcqSLQjE3N4ns/P45Y3o4NG3vxwPZW9FAfnHLNqODTSwTV8WM4d+At9Pf1YSYWR44xkivkR1NzEyKhMFpaW3H/A/eTpTabBMNH7TggHVYYs7S0hIPvvIWXfvBDzM4vmt4aRRr/ayeRuYoIU2/r6Go29KzD+n37EaipI9su4zMP7MSO7dt/I2vdMGPJ4rz15pt46R/+wRSEy+VikOiC1+eF2xuAm98jzjn0tOXpl9JaMMA0VoMFFwg4aHGUsWFByN+lCExlXkftVnL/iqTbbLaAQkbAWjFslVgpIJ7nxsJIZAqm0TCnRmTum5qfRGN4HcHc/htfsiq3T6Q3IxPT+I//dAzRggvbd2zFIzta0Mv42mGzGtYYmZjCSSr6yZdfQf/Zc5iJJ5FzOxCoj9BId6CuJoI9e3bji1/6EjZt2gy3m2EE6/yjeis6X6zm8/nQ27sBrS3NGLhy2Qw3cdJAFxl3ibkILdMWZsnmUEqlTfNRfV0tAn4PpqcmsG5dpzHoH3b/GwbWMqnzpR/8AINDwwSN3dChS2lNtxcOu6PyQARLs3cJXq9ARfAQ9bIA/GfaEsrqGCm3j4UpMOl7IVtGJplDJp5DMfOrQWMFSxmplRLmaUliuTyShSIyeTIgL0DPECn6zrHEMtY1b0LAG/nIhVyVtRcxxOTcEn7w+hkkik5s37YJD2xpRFeN0zT4plivI6NjOHbgDZx94wCG+q9ikW5Ynsa6oakB7W0daG9twZNPP4WHHn4EkUilnle3jyv6rYCpnh2NDXU4feoUcjTWLgK2RLbScTmJ6t/qoAdFKw+714l6uqPpTM7EcvX1H56ZviFgqYAmJibws5/93NCo+vvJ/XMopXntIR20BGm6cj5LDGEvH4ugMS6d6QhJZhIr8buSEnmyknpXmESFXEACqpSpeKTKCDJURZrASpTp/hFY8TyBl4dJwYqxy6VKOn4xvgCfI0RwbYbd5vxEhV2VmyvSmQW6d/94oA+TMWDLlg14lEzVGXaYZhaBamh4BCfpBZ19402MDA5huZDHSsCL5tZmdLS3Y0PvenzmM5/Bjl07TQx1M+tX1xJ7NTY1Ixjw4fy589Q7q0mKKAZT9oBqBit1zkqjTo1DuD4ID0GfJ5M1t7SYcz/omW7Yh1I7VJybhOxuUuhiHvmmolCNe1lejuHolTxmp7KIzecQnctWttkslvk9NptBYi6D1EIW6YU8UuqytJhHUQ3FvK7VSXp3WZG3ryBeymOJ187x2jlSlHonr4qFT22ni7lizeHU1V9idPrStSNVuRPExON053504DQGWfc7tm/Ew9ub0BFywEZFTBNUVwcHcfzVX+LMmwcwQoAtUZnpeqClvQNtZKpNG3rxzLOfw5atWyse0RoYTV1TIc2TTz+Dp556EqVcmsDxw7XaGGy1IUnyUE/4ZcaIMyOjcIKGPr6IWIzW4kPkhoClmwg8BVkUIYAUqYBU41zUUKwbL8zPYXp2lgVqYyDKwosVkFrOI0HgxAmgxEIO8SX+zS3GfWItMVqlpwWpk36s3L8475MkUy3RSixnMljKZwnaynNILJYVWpoVvvMKXGS3hdQ4Tl99C5ls6toZVbmdIlClMlm8ffIyLk8ksIEA2buxAW1BWnce1zD6q1eHcPy1103mb2xsHDH+xhryo5UsJabasXUTvvDF5/l3h2GVtQDVqujaYsMnCSy5nWUCPFBTz1CnwkYrakTm7dPJJGZHZlBIRQF6ULHosnnXD5IbApYuoCB0hQylnsVKOih7l6dfmmHgFyXlLywsoiYURm3zBownWhBLlpFN8ng8j0yMG0GWjpJ90gIUkcKHVoLD5qC/7COonKwQawmLhSymGT8JUJmVfMX1q2RFjdiutc/pkwaFbmgBZ0fewPmRQ8Y/rsrtFfXrO3FhCCcGFrBu/UY8sKsdPYypaAMN4Pqv9OPYq7/A2TffwggZIErPxxkJoau7Gz3dPdi3dzeef+HLjGHqPzSGudkiED/26MOM9+MmOeINhHh/OYDUTYY+eRr66NwC5ibnsZJPYmFu2pDLB8kNP7nJ5hnDQd+TF1QBatBYLBZHIpkyvYZrGdx5PF4kUYexZR/jojJyjKMUS5l4ivFWMV9B+YouR1AV3CsmlkpAvSuKdAFLWMrlkCrlwNDsXaHh4ovSsskNpKso5rI7xF4WRNMzeOfcS5hZHP1QK1KVtRWV/fjMIt4+M4xIYyv2b2/D+oiT7h/jY1rIYQLp9MGDuHT4GCanpgiqMqwBP9rXdaG5qQn3EFQPP/KIydqtJUtdT9QV6p59+xH0e6iraQRrIjTejAep92WylvqsZkkic9MLJgyKLc+bWOyD5IZdQTspQpuoUuxVUBo8FiVjpYyf6nDayWAERCqBdGYFVxcimE0wXiI5mWHS1HdtamTOFchOZK1ojlaA11kiM83SnZzLZRHP8LqlLGMqsWTl/gKTNg3sNK4ggeUgqCwEmt1Z5t9lDEyfxIGzf49UNlkF120QlbnS1q8cOoeyuxa7t3Zga6PbdFGStR8em8Spw++g/+gxjI/T/aNyKqZq7ehAfV0d9u/bg0cfe8z0rLjVoJKIHVva2rCOIE8wfvJ6/XBSr9V5t0yrXhS4aBxiCzEkEykk5qfJwKkP1LUbZixZEZ/fS7bS5ByVTQkLTf2krippFmqCAWtcDBZbxmLSiqNjQZxdWsEI2WrWVsY0Y6gZIn+GaBvj+aO5JCb5cLPRFOZTeSzQVZgvpgygVp9XgFI561OsxbjSAMzlWoGT7qNYS+CyE1x9wy/j6KUfIZuvxlu3UqRcSle/dfISxpYK2LGlG1ta/HCrnYqGeIxAOnvkEK4cPIqx4VHTLomADy2tbehsb8NDDz6Azzz5FJW5MufE7RKf14eeni56VVmjdF7qvEQT1qjTrjy1VJzEkcyQvdLU9dgnB1aYlqSWlkXX8VC7d+7cgZaWFn5Xm1QOuUwOGW6pFG+YSCKZTGM+6sCJWeDYUgrHl1O4xAcaTmUwxhhqKlPERLyEqXgRMwSe0uoJFrgSFQKWylfZP6fDDLEhKxFY/K5PJ4GlzUU3kkaFloUM5qbbWYrh4MW/x7nhtwyrVuXWiJRrZGoOpwfm0LW+Fzu7alDjUo+KIuYWFnDh9Cn0nziJ0auDdPOzKHpcaCao2trasYt69MAD95sJYm4nqCRKlHStW0fDLbIow82wRk9ko+JZuU8Q0pB/EYhGHS8v0y00v/zncsPAikRqsL53Pay8eW1tHX73934P/8v//G9YKA/A6a5MOVUk5eeyOeOLisFydOuSSfrd0RIGF4q4Gi1gKFEggxXJVHnMp3OYy+exrPPUnqW2LwJLYhiKm8qasaPZ3gUUweS+tnk9AtcKwU4GI7iWM6N4te+7GJu7VAXXLZI06/z4+WE4ArXYtbEFTX5rJQ6Jx3Dp3Dn0nzqNsctXGAunUaCCRpqb0NDciu1bNuKxxx9DMBC4dqXbKwJ2fWOTAXmBimh1+mjUNfTEZsZ2SRkLBFQ6kTZdoxLLS79yrd4nN9zzQl3speSHDx9GfUM9PvfMM9iyZSvuu+8+7Nq1E+1trQiGyWo1YR5vQHNLE3whJ5LWGeTLeQMY0yeLNqC4QheB1yrxb2UZVzN9AtMqoMRSut/1Np2jT7GZPt89lzGXWC6Vi2Jq8Qrq/J104zVvwdqmbH+bRcbr8vAETvbPYuPmXuzoDMC1UsJydBmDAwM4f/Ikhk6fxdTcPHWB7lVtBO2dXdjc3Y4vPP9F1EZq75i60XMsLS/jyJFjjK0c1E4L3b4Y9csKl6gjmzcDcj0BPwLhAIJ1Dejq6TXAe798pN7tGv8yzwJSAuLhhx8y39UG0Magb9v27dh3z17sv3c/HiSLPfTwA9i+cysWY3OYWhg1LdnqxmLKUCDgE+pFtE9Pa2YtVQr9GrCu86ykVwvsBIlNI0L5W3MpgYybQKbN7VJ3KyvS+SjmlkfgsvkQCbSR8XiwKjddsrk8Xjt6HivuMO7Z0o56t8W08YyPjeHK+YsY6TuD8dFxk+0FY/SWtg5s2bgez7/wJTSRHW5lSv1GZH5+HseOHacCyh3k+zFsUVOBS4+ZznNfCV4Cyxfyo6GtBT0bNl8XWDf8VgKBUupf+epX8Pijj5pAT/u0qXDUPV8ZndbWVjNOprW5DVt7d+JLn/kdNNW1YUX9AvPqRVzpeKv4VZ15i6QudVFSuStRdD1m9dD/a6gPorktiMZWP5ratAXQ1MrvjUHU1fhRFwqiqT6EttYAOtoDaGn2omgfxaGB7+Lk1Z8gz4D0gwLNqnw8UXmq1/rkXAydHY1o8FmQSkQxMz2NEcZTs9ymR8bNvBRFhw01Dc30bNqMUW5pbrnjQKX30TyEq7PqKrbSWC0bA3vnNY9NxCU3MFvIwctYRN7Q9eQjvZkKorurG0/TDQyGQmafHmZVYVeBtrpptOWOjXvx6J5nyDROYwEEHgHLjLu65h5KdIlVtV99Vh+D3LaWCJo7/aiptSMQsJMl7fD77QjxU3/X1DpQ3+yk325HuMEGf9iCAB8tUgfUNTIGC8dweuLP8c7lv8RyfNpYnKp8clGdq9fNpSsDcHn96KjzopROYmF+ARPjE5gZGcb08AiiGv5BvfHQ8DW3tGLH1o3YtHHjda38nSCxZMoAyiQuqMOaklqG3bGqlARXkZqaLxYQqG0151xPPrLJUIE4CBi5Yr9JdFOvx4fH9n0WbY2dDGjJWgJUUaCqfIq1DODek2dQFycfA8hQjQ8uvwBdAR0hbAC4emvtlyepRjyXU4VQcSHpHtPKrJhsoS9YRjCSx0jsxzg2/B8xuXCZ9yy8awyq8vFF85AMjk2juS6IgINxFYP5+dk5zBJYy5MzWJydR04153IgWNuI2pAP+/fdc1sagG9ElE7XYEa7y0OPzAsPwwo3Qx3pu0IQibRGncSlr+Ga0Afi4KZx8Qcpqgqwu60XT937PB/QZRir4vZVHk7bSrnSW12AkqiflrqVqLeHztWx9wJP1/zVVgGYIT5uis9UBgKX3bkCB8Hl9RFgoSTm82/h4OC/x9mRV5DJfnAbRFV+s0gJJ6ZmTK+bhtoAMok45mbpFk5OYomu4OL0LFKZNAqsHFcwhCDjkscfeRitjLHuRFBJlEqfnV+iQa+j1xNGTdDP8EcAc8GiTg5UMvk7yheozS0Urqn88Dpy04D1YaKh+4/vfxYN4dYKSExaXQ9aOb7qna2qudxGEGzaoWMGfNyvNi6l5NUgvSqqJFkNAyhuBmjc9KlkiABmFXt56BYGsyi7r+Lk+J/icP/fIpFaqoLrY4jKTL0Q1IFWQyc8tjKW5+cwMzPL+GoGSVr96NKSmVahRGvvo2++qbcH+/bvN+HBnSh6p+U4XdlYCqH6VhqLGjNWq5YurIeukJmGQht9wQKVK1ij7nsfzLyfGFi/Yo7r30Ci2KyOQc/m7u38VmEhAasol9C4hRaC5VesVSzYzRzbhTzPK/J8MwZLL18BmID1XnBJDMCIKJMtfA+4BDa1fVV6aKzA4y8jVJfA0NJP8NaF/4jZxWHen15zFWAfKiofpdY1weZiNIHLQ+O4MjhiGlPzmRQWCaxZMlaCgEotR6F50Vm1sDNO9tD1s7kDGJ2aM4sdZHkNXetOKnP1fVUipuwMora+AQ31EdTW1NAl9MBNmGgJIGXDV+xUKG6NrW30cD840/yR0u2fRASueDKKvsvHUCjlGAtZqOxWOJyV4ftG+Y0xYwxncZkeFqvLshjQ6t81RlJ18MO86KqsgluV9d7q0nnmk38YRlO58D5ONxUkMY7phXG4HTUIehsIxo8+3PvTLipPjbuLJpIYGJk0c6u/eeIS3j5+HkszY2isq4GDDtLUxCTmCK5SIoEo3cBEMmksu7MmbKaMnk5acebqDAbGZjG3GKUiFw0o1QBbMYa3t9zjiZSZPLRs86K1MYy6gJNGJEvmXUaR2/LcAlIaqu92IkLQPfjIo1jX1fOBz13R3FsgAlZLgxpsw4axaLAqLmFR9Kq/xVpiKE07XKK/a712joUMVmGuVbdQn+r5LtdQnXW15Qtls2kf9YAKcQ2A19579fUFLsVgcg1rmxkDuE/ixPBfYGjmlGGuqlREgJLyzyws481j5/Affvgm/uInR/Fm3ximEnSH4GJBF2ApZDA9NY2p2TkkCapCOoVMKs16ooGjfy620kofBdb1fDSNM/3j+PGbp/HH338Nf/r3r+HAifNYJmhvJ3vp3kOTdGVjRdTU1aGlVssEkWWpPHQCkU9nycBZE1+V3A7U0Fg0NX9wRlByy4AliYQiCAfC5u9VV5CuugmEK+5hZcvlKyDJZQWuSjtXISeAXQPZtfNUF/II37vxn5F3P6/9sfpdovJQ9lAxWLCuCFv4Mk6O/hn6J4/wmX67M4arDKV44wCZ6c9/+Bb+7s1LmEk70dy5Hnt3b8cTD+/Brp4Ila5k+oVOz8xgkS5gIZumW5iF1qGibaMX4jDzQ8BqN0voaEamoItgs6s+szh/dRL/6ceH8Wd//zqOnL1Mj0aAvLUuou4VjSdw4sIwLN4IGiN+NNWHqR8MRaicFr6LeruraSHP+MLtcaNjXTfq6S5+mNxSYAX9YTQq989yM6yj9iyCq0ggmc63BJAAk80JVARXjiDLCkRy8SzIZwmsfIW5RC6rIHuXya4x1XvlQ6tIBocnuLxl2IJDODP5l7g6dZIMqJHSt65y7xSRUmvox4mLg/hPPzmInx4ZRNZeg3337MITD+7EZ+/vxeO7WnDfOh9CzhKNUA7xeBSLjKlS6bSJQ7Tih5ntiGXr9moedboGFjvcNGK1Phsawh501HGrdaE1aEXAWcbFoUn85U+O4B9eO4ahiRnWKSv0FojqWL3y3zxxEZPREuprAuhq8JvZb9UInOM7ZRgTJuJx5HhukW5gwO/Fhk2b4PMHrl3l+nJLgeVxe/nwzSx067uAMMxFgKh9q6BeGHwBNb6lNdmMACeWyrMQCBoBLE/mypPJStyvNH2ZLqIBGIFmNnPNynY9oEm0T/d+9xg/ne4SbIGrODv9nzAxf5m/5Qm/RSIlm1+O45VDZ/HDAxewkHWhp3cDHn9gK57c24H714fRHXEgaNdkQAlkk3HWj4CVYDxFF5AWvVjIs65oDVmediJLPRNsDiej5gJ/l0PIY0VXWwO2bFqP7Vs2obu7E+0NdKsCRGEhhXdOD+JvXz6O84NjrL+1L3/p2tWxKRy7NAVfsAbr6t1oqg1RN0pIp1JILkUZW80jyb81DbVTHRaam7Fx01Y4yMYf5gresuRF5SE0xfAYLeIhun9F006lmEdD9E27Ez8V/5hQp1QJap3OyjxvZTKWAR6PmVGdxkU0l6ZS6NoVVjNgu8ZwOkeVvMpmq5tAakClYwKYqIvnm87AjkX6/DOodW+hYoQ+tPA+DSJASYkvj8gtO4SBuTzaOnuwb89GPLKtEevraKVVB7Ru8XgM42OjOH36LC5cuGDcP1l8zU5c4nFGXRV3MJkxDaqexgjc/hoCL6YahIfXaaWbtamnDe3trWhta0GgphZFmw/2Epkun8HMYgKn+6fhc9uo5EHqxNqs5qn3nplfwj++dQ4FewQ9rSHspXsb9Hno3sYx2D+A4XPnMX5lAEkycd7Fcgh48cznnsU9+++DBv1+mNwyYFXEQrdhEcfPv4NMrtJ1RO1Pyg6aLKEARv9bSi9waKZd7ddmgENA6FPMpbJWga+eW3EjKxWg/xvg6NOAqwK0dzdzrcrflbMrot/oukXEUMpbUeffwnuvzQxBd4JIuRKpDA6dGcA/HSRLu0LYtqUXD25vxdZmNwIOlitdInWqHR4ewqnjJ8zohuPHjmNuYZ7lXaR3IU9DlnAFDksR5UQGxWzeACJcF4bV48cMY7ACWU4dr5XU8NGlqgv7URP0oTYSQrCmhu5MDa/H44UsMtkcRmeiymqjiddQ9vBmit5bMeQvj1zA6GIBrY0h7FsfIegjxsiMjY6j/0wfRs5dxMLiEpJiK4JqfXcbvvGtb5spq3+T3FJgSUE1m9Kxc+8gmlgkOym9zYdgBToILjs/nU4pPhgArxirp/YoZRQJpfewTQVIOm+VbcyFKJX2sGvnvsfdu/Zhvpt917bV76vXNp9UkExxGq58AAFfJ++/NlbzdoqUK8kY4tUj53HwwjQCtc3Yt3sD9vfWoS2kTqdAJpMxSy+dPnEcxw4fQd/pE2bO/rmFyrTMiiOK/NR/FlK/QymLTA6lXMG4SjUNNbDQ/R8a7DdzpWskbpHnacyegy5iwO+D1vqt9TsRrgmi5K5BrmRHKR0ziyNMLSbhd9nQ0XzzJpbRe2dyObx69CJOXV00K4rcu7EevZ2NZmZesfDFs2dw9WQfJoZHECMjlxgrNpJpv/ilL2Pnnr039Cy3mLHoKpQKOHHuEKYXx0zPYQFHbVmGtchWLG+jxFpFX4UgylXFydIp5jJsQyAYtiKIlIaXrDBGU03rlfkXz1kFWOV84/IJONfA9t4YbHW/riX3VKAtrmQRLV2Er1gPv7edzPXh1H83iZIUS7EkfvDacRy/uozObrLUXrp/HWQRzbnPEkwkErh86SKOv/M2Th86jAv9lzE9S2PodKO+pZP15GKsm6bxKsFirB0LkGLV3PtkLM0FGK6NwO7zYXRsjKy3hCxBp6kcMmS5peUYrPxNMCjj5WP8xfiNrFB2BZAt89rphMk4Dk4toas5iEgo+InBtcrQrx89jwNnJxCiG7qntx77N7aZjrbpbBaXLpzHhSPHMXT2AuYZO2acdjP26r59u/DsF78Mvz9wQ0b2ljOWhcp+eegcroxdMIylmMoASowlgHGfGnDzBAqNBf+WZWSBslAEBNPjgv/0asoo8k8DMNWtaeqXBWUdW3i+RefquBhNh3iejpdLjBn43fxOzGfAVznHXEc/41Yo5ZHKM7C11sPn0TAHKd3dLXJ1hiZm8aMDfRiczWP7ti14aGcbNje4DUsprTwzO4uzJ07gxIG3cIYu0eD0DFYcHjS0diJS38h4K4c4XfocLb+aSsxKHSpv1q9S9RYBiPuCdOP8IR/GZxaQZtxid9hgKZbhcLlRtlixFI2zjopmCR7N7uUnqLUiY9HmQbZgRTGXNlM6zyzE0E53LRT4+GuiCVQa6XzoTD9eOz0Kf4Bub2cN7tnUgrDfi1whTxeQ8ePbBzFw8hRm5+aRYgjiCPiwvrMNz73wNfSsv/6gxuvJLWcsG5Vzen4SxxhnqReEFNj0viC4BCqtRKJe6sr05dMFVoDNAE29IlR/xg8XeGQkV91DAYFiypzHlc7XWke6tgGXWowFGB4zn2af/n7PJ/9VznvPd37milFkCosIOnvgcd05o10/jkjph6fm8dODjB2yTuzYsRn3b21CV43DDOZTI+j4+IRZoOAYQXXxyhVE8yU0tq9DQ1MrL5BHbH6aMVQKTfV1dOsLyBJcNEtGcVVkZjpmWkQtqO2jpQ/Vhhn8F80KHS6XB+l00iQ6nBrPZ3OarKLbaTPzsmthDZ/LCrfXjUzZQXDRuBFcsWSW+pDDutZ6nvPRpxJX9i+TyeLw2QG8cXoMTrcPW7pqcd+WNjRFgub41PQ0+ujuXjh4GGMjo4hzn8WnLLYPTz/9WTz02BNmzOGN3vuWA0sPpvTsa4d/RlCw5MhGSlhU3EGLibc0QligKyRYcVn18eMxfq+k6cUuFb1f/b8+LLKcPGByiESdXl8VLuwaoBEkH7atAuzdffputjJdF1rc3CxqXRvhZIB/N4JLqxheGhrHjw+cRcYaxD27NuKBDTVoCWjaZ7Ud5jBw9SpOvv0OTr71Di4ODsEaCKNz/UYCwoHY3ATSsSWs71qHL335K3jqmWdMT3bN6S/GMkUiZWSRySo6+Ckg1bbUmrXNnnr6KXzt619HIBjE5PgYotFluP0hupZeGlDGUj63SQq4aFUDjKvKjAnSZC3TC0ddi+JJhH0utDV9tGVyTUxFUP38nVM40DcGm8uLresieHBHJ1rrKmMKtS5X37GjOMf3Hu4fMFObl3weBP1u7N+9F1998Vt0WT9avd8WYKkr00/ffok0n33XFRSodGy135jAlqd7liW4TFqe56ltRDUoYOlPU5EED6uBoOBxqwBFMHG/zSKgVQpWKNPpAt4HiTle+dPI6plmHwOwdH4OZVreiH8zn+2jLfR8O0XvL3ft8sgEfvjGGdPge8/ujbh3fRj1XjvfT1NCZ3Dp8hW6QW/hHC12/+QUgh3r0NW7ieyUwNLkkEk8PPXUZ/G13/km9uzdx3goiKmpCfSd7mP96TosJtaBRSjN5WGncdJawKFGMlauZKbF+9yzz2Lnzp1o62jH0NAQFhYW4AlGWHFu2GhkNWGRYhgnPRc39SFdtiGZodegPnpkuSwBuKm7lcxxY6xl3D/q2IHjF/DK8WECOYze9lrcv70DnUqs8JxoIoW+UyfMulyD5y8yrkqh4Ga8FySrbejB13/v22hv7/zI9X3LgSURpb5z8nXMLswYwIieBC49u8hDBsmhFfi5I5UoIkuTJytVtip+ovmTm6c4ij+1yickq9gYWJVXyGxEk/0aqAzwuNnMce7jqQKdlTf5Z5v2X9uEKo290Z+GAfm30s6J7CiPWxHy9dDXvnG34HaKEhXnBsbws8MDsPrrcf/eDbinK4wI4xkNg4jG4zjXdwaHf/EKzhw6irl0Bs2bt6CttQ3RuXHk4kvYunUrvv7NF/H4k0+irraSoaskeYp488CBSjnxu4pcMZzK0MEyVx0EwjXwETAXyQSRcAjrGadoOufdu3Yik0oa1rO6gwSkDQGvC+FQiEznIrBkSQmsvAUZAlOSYJzmZczd3tr4G1lLoFJn31cOn8ebZ8YRCNUYpnqITLWuscY8q3qMnDt1Gsdf/gX6z5zDLN3SvMeJYNiP3q5OfPkbv4MdO3f9xntdT24LsJTpuzh4FpeGz1fS6fTzpKNy/+QSqqIUI2oVffUZTCfyhpGsVAQViAELt4rbVq5cg5uNFW1jbaoc1PalqlZOUfGDKlkgeS+APmxbdSt1z9V9RVrNVG4afmcDAv6ej1Xgt1IEqqvj04yprgDeOty/pxe7O4MGVCrkeDKJM1KsV1/DuaMnEGUltG3dCR9ji/mxfrp0eTz86OP48te/id4NG6Glm1aNiT71/cI5KuT8vPl7dbSBlNpG11M2UyNwIy1NSBQsuHS+z8zsVVtbi1AojO7ubkSXlzBBhvSFGuAkmGprQmZwoUbtOliH6bIVy3E1QGuelCKWaYy3rG8zU0J/kGHTe88uLOGl107h1MAsAmTXHV11eGBnF9rrw0bX1I51/kwfTr72Gi6fOIW5RBJZurz+oBctZLPnXvgK9t/34K+980eR26IZetCtPVrzyG2SEWZkZrGymf6DNFCZjPoPlulO2GBxWJFM5AiwAvKxHDLpItLZIlYYKBf5qc1CyhfqTL9Dbha6I1ZeSNMsqlgqsZcAIkta+bSXi9zIhvz7/ZuN17JLQfgpUEpJxIap5CQujf0tn2fcKJC2O1GkXKPT8/jey6dRdNXg3l09uEfpdJcM14oZBnL2zBmceP11nD16DFG6Xhv3PwgvWWN+9DJWGNd8/rnn8cJXv47Ga7MpvV/BaiIRs3SpTJjS7/IweFs6ExYUxGgEgmaOLbIuOlubEKN9/PFPfoKlpUXz+4b6enzpuWdRH3SbdHw0mcNyNI48QaTn99EitkVcZMkgnG6P6cWxEM+Z6ao/qNzFmAOjU/juS2/gzPCSAfA9vXV4bP9GtJmYSu+exrkzZ3GKBuXyydOYZVkore4JeBEOePDM55/DQ48+8aHg/U1yWxhLUmC8cvjMAdN9xELtXQ2AxVrUa1SmSlPPC+4j+NLpvAGak66YVa6dKIznm+nTWAmGoRh0rvAiDgLAyeo1YOKm8ULqiS130cZ4iU4lAVX5LiYy+39t0/WlHpXfm+fip+5pobJk4nPI5hdpXffQot3eaZGvJ1LKidkF/OTAWeTtIdy7uxd71gURpDegYwvLMcNUR19+BZfoAuWDAfTueYCGKoO50Suoj4Tx4rf/pWGrD5r2WfsENj/Z4MTRIyioXvhdI4tNzkflVVC50wtRIqC+GRaXD2Njo3yGopnJy+1y8/cB1ISDOHnqFDz+ClvV19XA49KqjxWdWM6p/UmzJKvDdga5xCI293YZNlkVAU3p9NMXB/HS631koBJam+qwd0Mj7tvRjVq/x4QZC0vLjKlO4fjPf4Yrp89iNharMJXWOq4L43Of+zyeee5L785C9nHl9gGrWMDpS0cxNUfrQ4wopW7AoXfhJh/edHFyUaVX1BG3hEw0w8rjfp6gGJlRAiuJrp6SHwKMWnl5zEkwil0qAOHGvyvu3DU20vV1pvleAZZYadXlo601VG5+z83O46ubuafiLTKWjcpUU7OV8aF6yd05skir/4ujlzGXceCePZuwl6CqcVeYKkb37+zp0zjxy1dx8eQplGvCaN20A4V01CQpND3Z137n97DnnnvwYSsWSnTM7/Nhka7g0PAwfOFa5HNZsobmMZKyl+GQS8jz3ARPuKG5kkjRrLjRKBoa6hAisJRql5s9ObNAoPnJUBEzmYuaXxys72TZghiBlVPjM4EbXZzBxnUtCNEgSMRSE7OLePngGfzi2ADS9FjWNUewf1s79mxqR0QNz7zv3OIS+o4cwclf/hIDiqkSjKncTtPW1lgbwqOPPY5nvvA84zy5ix/83jcitw1YevBB+vEXr543FSBRZ9xKUEwlFzjonpiOuQRdib52PlNAlu6CmfNNfKTziABZIruVLMXztIaX4i6BxyEm5N8ak2LXPeRjanyKwMO/5Qo6BBYDoFW2Eovxu4B6bX8FbASdYjr+TrGdtZRDLDFtGo4DwXV8DjmLt1+0CIEUrH82j23bNuK+3gjqPHw2vkMyk8OF8xdw5Oc/x6UTJ5GjAndv34MsGUCg6uruIVP9ATZu3GR6TtyIiKWC4RDO9PWZdik1vKaScaPsRdaxhe66Q+VO4xeorTerzxfo6l26dBkXLg+YnhetzU2oq4ugf3CEHofdJDnCoaDpYqSGZhIW4gwNkunKWLnY4jQawj60073M0c08cPIC/u6V47gwPGdcxo3tdXhoz3rsYCzmIxvlqRPTc4s4efAgTrzyCwycu2CSNHmf2/T2CPHzqac/R6Z63sR/NyN2vq3AWlxcwKlLx5DJZSoMwvcRsGQsWH5wMB5QMkM6q33lFRtyjKc0Ib2LyOERHuCJBA9/BqeVSm9OlJUk0Bg/aZE8lVMFEATXNaAZ8PEmyiCKheQ2ms2AqbKJBQVIMZXY0OwTmwn5/LuYSyCZjCJSt5P++O1dYFwKp+D+bP8I3jg7jU2bCapNdWjxyxljbJjL4QqZ4vhrZCoG68VQDdbvuQ/J6Bxis2MGTN/+w//CLGPzUSZ80Tv7/D5kMymcP3sOYbp8Ygd9l8FjDcCqBuMcWcwpcDUy7gmyTp2YnZ2iC9hnui6FwhHWbYbgyRFUAdQSXG6CwjS/8D7z6RLiyTy0ZmExOccLp5FmTP6j147j54cumM7A9WSdLeuU+dyEDW31NLRWuuwF06n2xJuv4cyrb+Bqfz8W8gwr/G6ypQfNDWE896Uv42nGVZGayE0BleS2Akvz+528eBTzS3PmhaTzQlClLUvWkG4dwWWAxUPqAlWktcsTXBm6hi4tREc30bh6VHYlQqwaV8IKVYLCqcwD/2kcv44Z1hHAeEwz8yppYmIn3Yv7VkH1rkuoT/1m9W8eMyDmJ78aAOfTs/zDibqG/Xze2zdHvIA1Rlfq5cOXUNvShX1bmtAZrqxOr6EdQyNjOP46g/XDx5BzutC4eRvSZKrk/LjpFfHN3/uOSbF/HMVSljdCS99/5TImp8gmLZ2mp4SW0FWVFlVmjH+sdOOsHiddxjpECB65e8lUGn1nzuCMWGR2hvXt4bXq0dQYMb3aFWepqJezK4jTHdRa1OX0Io3EJRy5MIWJ+bjp6qR4avtGun7be9Fe6ze/S5CVrvZfrSRo3nwLw6OjiLLuLIy3lKRoa27EU597Dk8983kE6JLezLq7bcCSuJ0ejExexcXBc+alpKxaX1iJDOmwdtjUh5CWR8cEMPXVUhJDbVvZAn14Ew8RjARMhUgIDoFLP+d5+VwZrpXKd8M0BJMYyLAXj68QdGIlN5lL+528zirAtF/fHfydcRl5vmI9dTS1M45wSGHUzSc6Qj+9x2w3y+J9FKnETim8efwyYuUA7tvdjY31brhZbmKPyZlZnHz7LfS9cQCxfA51m7ZR6ROITQ9j86bN+Mo3f9csqfNxZ6c1rMVYq6GhAWdOHDPjs+qa21kXNIAaWUxoaBYkpLNkmhxWHHZ4gmEDCBMnWWyYnprE/NwsQpE6tLY0obGh3gyUlCsobySaX8FSQoMpWe7ZeSyQ7Up0Gxvq67C+txvbN3dh1/oW1AcY77I8Zpfipo3q1Ku/xLlDhzE+PYM4L+QK+hAiW7U2NeFLX/uGmRQmcIMdaz+K3FbGcrrctCw2HDr5JtKZjFEQmSd1azLnUEfNXG5kJbOSIwtGfQktDLrIN8jQgqUYqHoIihW6FvZiwQBG56hbjYVA0Hf1zXWTHQ1D8XuBYCP5VRiM32kGCRoyIPVKlShoaGlXw1z6fm2fAKdrlumPqB5MOp/PtVJKITEzj3DzXri8t94lVLn1XRpE32gSm7dvxN7OgMkASsGi2TxOHTuB07981XSurdu6hwpJIE4NmhVivvNH/yU6OjQ0Rm/48UW/r6urR219Pd6m22W1O9Ha0Y18IWP6IOZ5TkYueCKFlWzarOvrpkKrUThIV9LjD5vh/W6PFqTrILgazRTjDoKd1WeAtazmFho2ZzGG+NICvDVN2LRjN5mqFesbA/C7HWYmpaujE+h7+030/eKXuNh3BtOxGFLXkhRy/3p7evCN3/8DM8/hJ83+fZDcVsbSC0WCdZiZn8TAyGXqgdovKm6XhH+Zc/TaaixW9k/uoRn4SLCJ1tRwmCVyBByDRLl8VH6BQT9UmRULGoSnq/E7L51hJa3GWMYN1H7el5cz54vVNNGN2tJMOxgvpk2iOedXeEzsZdxD/sbJHybjC/yxB6HGbbDdwi5PAtVyPIFXTwwhUNeMezbUo8VXGT+WpSL3Dwzi9JuvY4IukadrAy12gKAaQktTA373O39oEhY3i2V1ncamRjgdDvSdOmnWHa6pb1JF0hUv0sBpcUC67KkULPm0KXib06mXMBPNaPIZDSupb2xCE1lLo3lNNzZKnMZwLl4w3Zs8+QWkl+fQvK4HmzZ0IOIl+Ap5TM0v4TLdynNvvoELBw9hhK7fsjKUZCh1UVJ2cOfOXfjyi9/E9q07TCy5VvV0W4El0XTSzfVttLjHsagV8ljIZngHX7gCDik168B8VkClwtB8dCvXFEILiKdyaq+i+3atnBReCaRWIklgKFwDQk49OVJkI55jemXIigqI/K7jApSAY+F5ZX4KlJW4jMcJ7nQ0z8otw0d2qzQgV7aVYhYxgstfuwX+mq41q7D3i6YoO3FuACOLBeza2oVNDR7T104Lp80sRHHi8BEMHjmCst8PV0MzlmdGTUbtha9+E9t27PjY7t8Hia7XSiZUmrzv5DEkCKJwpBYurRLIfSUWdJYA0+KEhUyKdpDeBssqm06ZST4ldU0taF/XgbCXXsi1Oo7RM5mN5ektZODOEVhL0yznOqgL1OLcHIYYc1165x2cf/sA+s9fwPTyshn2oZG/IcZUEQLr/oceNomKnu7eNQWV5LYDSy8X9GsCjzIuDZ1Dhm6ChLoqTJk/1FBs1tNixSiBIV3Q3w41WPGY4ogiz0swwC3x0yVFF6jEPCWCkK5ejoQmr69MV0LsJKYTCHXOqmpZCSQxkOIoG5mPIQpsAhpBBlasUlLL0RIrjb8lKL10WcWgekw1YseXo7xuCTWdD9L6eisXXUOREdIEMD87eB5tVJY9PbWo8dDgcL9S65f6h9F34FUkYwk42zr4fDOwFlJ45tkv4L4HH+Izrk37m3osdPd0mzaxU8eOmDndnW4vvD5uap8iM+VYbxnGW5lsxozo1exQsRjLj5XUvm49Ovj7EF07DT+RxMhYMwTWSiYGd34eS/MTmFuMY2liGAOH3sHVw4cwcO48JggyJSjgc8NPMAV9LrS3tuJ5xlNPffZzaLq2fNBaG77bDiyJXrSBbsz80iz94wGCQ5k9KjTdPRmsVVdMZaECMQzG78YtpPZbNMqYQNRqkYq5iAvjQtgIHrl8efKRsoA07hQCkughTLFCphOA9LeSFabvIYHE2NsM+jP9EfULXZvX1PpeGiOUJTtGkxWmMtEej4FbLlVAbGkSvtouBBs28/luLhu8X9RWdOrCAMaWi9i7cwO6amThLSYLNzlf6WEweeI4LPUNyHJfZnEae/fsweef/4rpRb4WYuqHmxqXOzo60N3dhbGxEYwPD5kFFMQUHsY1Po8bZcbFSp8LWJlc3jCW2s/WbdyOdd2dqCGw5Kmw+LFEL2EumgXSi7BnlzA3dhXDx05h/NwFjA4PYyYeQ4Jnlgkkb8CHsM+JGrq9W7fvwFe+8TvYf+/9JsFyK0AluSOApRfVcj9yCafmRzE1N84wR0kLwUDIMmeZc1f/rmQIfwUurY1syos/ShIAKbpwipUc/C4mEluRFOnWiaEqMVhJlcZzlY63EHQazqJaTJP58gSoiycJ0NrHpxA8zTgjffInyKYY4/H3ukaOv8nys5ihixNfRLhtH9yB+jWrRLGSJpo8eKqf91qP3T0RhFx8Su5P54sYGBrHpVPHkYrHYYnUIbE4hY6WBnzl6y+iuaXlliiXibkaG7F12xaTOlfmb3Z62szTl6cXoQrT9AyaP6NU1PrVGcNoG3Y/gA09nfDTpVDaXJ17Z1jWc/NRrCTmYMssYGJkDOcGGEMxttK6xlbGY166faaHvN+Lzq4ufJbM/PSzzxHcGo1wa5tC7ghgSfTSNcEIOpu7MTY1wvhgyhSoEhpyBaXdOkeblEqiihO4NKy/4h7KDapgL0dgxVl3YimGx2Qw/p4VqIy7gGIn0vQ3jaWpYBu/63cCl9hJ4KIRNYBy6gDBaYad8JisqJhUHqIGYgqwApfyJyvc8ql52LwNiLTtNvPqrYXoPYfGJnB5IooNWzagJ+Iiy1YUZy6Zw+UrA5jqvwhrMEQ3KwlnOY1nvvACdu7eY1jjVonqS12ENm/egs1bNpPdS5idnTGLKGiG2Uw6gVwmbcZaKc6qa27DrgefoB5EDLD0ezWvTCeKjKVmYUvOstCXMD4+hZloHA6PCwG6fV63HV6X3TQbPPH006YD8Y5du80qo7eKpd4rdwywJBWXsAk97b0Ymx7F7MI0lZaaTC1iERtAKbGhIloFgdiqstm48TyBy0KU8Vy5hAJXUokN/kANynK/NXBZv5f7JwXVNADKJsot1KxDxBCxV2GhNF0+xU8Cl4XXE7jkGsoNVDwmr1UjZK0ywDrGS63Q+hbScUTW7YMn1LQmlapeFmcuDyEND3ZvbkeDu6I8ilFG5mMY6h9gTDWPstODLGOrTRt68ezzLxh36FaKnkmbxlg1NTVh3737sYPuWZCsIvcvk0qZtq5CPm/OW7dxG7bf/zi66jzwsE4lSVbIxGISC1MTsMTHUMpGMTYxhXgqB4/LYXppbNiwAU8yhvrKN1/E3n33mq5JH3fIx82QOwpYEhVETbgO7U3rsLA8Z8Cl3hZiGamtkhjmTyFCe3h+Zf5BuoP8FJPIPdRRuWzECZIEREwz51L5XXIDhTuBixWm5IXcxFypMuRBl82SqUiEJrkhxkvxu9w8MxMUxRwzoOI+HtfNlNtQrGXAx33FTAKOQB3Cnbthd9z8JEGKwb56cvvrWrCto4ZKKG7lfhqB4ekopkeH+fB5lLNxsmwOjzzxGfRu2GTK6HaJ6kpZ4KbmZuzctQf79t2DTZs2or6uHm66gFbGyht234/te3ajPegy7ZYypsvZEkanFxGdHISNbJVORBnrlujurccjjzyMpz//RTz59DNmUGIoGDS6cLsAtSp3HLAkmjimPtJA5tqAdCaJydlxumVqYpRic1sRcLgZIPAvlqF6a6yC6123kMclIr08ARQtWpCh0rv5t2IlpdfFPgIHwxIC2MIKsyBHSKpxWHBw6Br8vZIWidQK5uL8HfdpLnIDTh7TU6nvTmXx8sr5VjKKJl2JdJG1wppW++ZW9MLiIi4MTqK9qwPdtT6TlpbrHOczGCWcp9tEQBUSi1TcWjz0+JNmbNLtVjiJARjjIrlpSm7s2LkTW+gmajxWc+8ubN3QiTpPBRxmopdYBqNDw4hODMCWW0YikcSO3ffiuS9/DdsJJnXFupWJiRuR22e+PkRUOMoObV6/Df/6O/8GX/rMN6AV+zUQUlOD5+naqWeEPnMZzbNdQCqRQ17ooGgOBp/fBl/IBbffBa/PRrfAjhVawOmCDWcyTowlLYw9AOKWvj0ZS5+ZiltYyKwgoeMEiHw7RUkeXtqmtkyy1vA845g5HiKixF46rtjLJaDz94rNUtkyFofPYOSNP+fzLeuxbqrME1hyddVGo2eQiJ3TfM4k7+1yOc3wdrethPbOdtMr4k4TAUEpf8VgWubH6m9AS0cH6tUbnyKjmeP+pcWoWYsruzBD1zxtjGRnzwbThcrj5vtfS0zcKaCS3JHAkqiQVPB1kXr8wVf/Ff7Fl/8rtDdrUg8pP2MYgkrtTWqszZBJ0kRBMk6fXVOmseAtjLM8XgeCYQIr6IE/QEXzOAgwDfcGrhQcOJ9xYLpopSIqo1dGMlVGitfSSpJyB6PEwzJBJ3dQDc6erAVBoihERI0tr2ByQdMrM/7iMTGbgCb3UZ96hgx9yKF3foShl/8E+WzCKMrNEKXZF5dicDKmDLkZW7KczH5ePp0vGDbXiF63vWQSLZ1dPUaB7yTFWxWViQYfHj55Af6GdrQ11cJHb0DPKrZaSmTMkqxL40NIxZYxvxyF1xtCE1lKcie+k+SOBdaqqODqahrwtWd+H//dt/9H7NmyHy6HllmpzIxbzFV6u2dTZC6CK50sUqHV071MS8agmT6bn2jw0mf3BcReDlpzRl8OK2Zgx9mcE1fyDgbIdAEJoJQSFpoZiMyYIfsskcmiaYKY91MVOvl/N0stwMqPx+kaEnzZxApjLvXiIGvxN065gvJcs3QfySz9r/4V5i8cJEBvzvJASujEY1Hj/mpoxKpIEdO8b9niZFynuQJLZpRuuK7OnHsnitLup85dxvhyAR1kodaw27j0KqcM46ipuUVMDV5GYnwUqXgS8USWDNyJIFnuTpY7HlgSMZem23r83s/iv/39/wlb1+8kK2j1kYrCV2Ib9XgvmlmdUgmt08QYh8dUSWIqf9ABj1jL56Y/7jKAs7kYc/HawysOnC25MFu2gXEy0sbFLJveGuplM5OxYInMtULQKX5SfKbZE9S3Ik+Gm4+uoEQA2sRsZC6nAEagCmBOfk9Mj6D/p3+CxOyweZ9PKpojUDMWCVSacGVVxFjK85QtGjVW6YERCvvJ1pWpvu400fONT8/i5KUxNHdtYkxdZ9ri9Kxq25qPJjF89Srm+s8jtbCAZD5Dg2HFhu27TX/EO5WtJHcFsCQqRLW/dNAdbG9chzJduBKt8yqoCnQLFR/lGXul6dIl42QxUo7JKFIUdzldjDnoHrq08W/1N3QqTU33cImKeLHowlDBhVjJijRBUZBbSHAWCbQZss8UY7AyweXgfeUaeglutxSZ910mq+lZFOjYCXjTEM2vSsM76a4uXTyBuTNv0kXkhT+haM4ITe+srOd7VUvA4j+yNZ+ZjK2OVx4zxP3mrtZxM0SgUk+M42f7UXKGsWFTLzoiNHg0FDqWYqA6PjmFkcvnER8mW2l5IBZ0Z3cX2js++jx/t1ruGmCtipIa4aCWsrSZRIYWT1C8pbhI7VoailWiC5ElMuQa5khBlZiLYGCl2Z2MP1x2uMhiHq/TAE4gcxBgRQJseMWGcwRYf8GJaTJYmvco8h5FMtYit8mUhj8wliKI1KvDYwDGByPAMgReKcG/xVjEjzbFXlb+Pj+7iPFX/w7xqavmPT6JqB9knsCyaFzZauqTor/MFNx8LnrHyJOJLU6fYe07TRE1+PJY30VcnU6iZ+MmbGrzo8a0xLM+aRQmZ+Zwpe80Zs70IRGNIk1N9fkCuOf+R81Qjztd7jpgqf+d3+8n85CB3FIkKlBWqzxWxlnpu3qki8EELrmEGsMjcAldUjIN9zfgEoPRJXTyb6fTbvbbuCUsVoxbHDhvdeHiigtTBBsvaRhS4Bql25ckS9muxVNiLRcBaAAkoHNbIdhtZDcXP9WQbCVzxi6dweQrPyCL8kKfRPgeK2S+Im+mDsgCkkSVKdVUGeTEumU7XapKEkAscKeIBj2evDCAt/sGEW5qx7b1jWjz202iRf0c56MJXDp7DqMnj2FxbBwxKw2j04GNW7aavn8KDe50ueuApWHgNcF6so2LQLCQeYyekaWoSEqZm8QFK4+MkidbKR2vnuxSQJ1X6VuorJlmgHIQnNwEKoeNoLObIF+sZqWvn6erOO1y4oLdg8tWJxbJeMKnenOMMu7SVIamqxPv5SZTOA36GJ/RLRR7KfWuuMvFe9vyBP1yHLOHfojU4gfPi3cjIuOiKZ9T6SzjwOK71zLvdy3myhFUOTJWjrGeetzfCaLnFMgHRsbx87dOwxlqweYNHeiqZV1eawxO0wW8OjiE/pNHMXt1ELEcjYfXg7qaAPbde59pdrkb5C5kLCtCgSDcHidBQReOABBzqTeFFCtHRkkul5BJaswPXaK0FgqvzIch/TOrmTipmASW0yMQyQ2sxF8OFwFFttJ1tGmiIo1mLvmsGPO5ccLlQ5/DhTnebJHccLVkQTRngYVsZScJKe2utiwNNSmTqVIZAkzg42YnyCz8XL5yBUt9h6jslRmHPo4IVJrsNB1fMi6hwC5RH1z1bteza4RZhmy7mMqb0dl3glRANYl/OnAGvkgLdu7chG3tQfgdihaVkc3hSv8gzh54DaOnz5K5YsjSgGoo/Z7992Hztp18t4rhuNPlrgOWCtbnCcBpd1XAQW1yeWxweS0GYCSdSudaAiwdI6AyTu6wvRtnmenUqHwClzrvOgUm9dhQf0MG+XIVeRej9AaI/KrfCbhFAnmKFX3a7cEZUuVlhx2XCMRpnm8mqyGgHGQmL/9W7w47v5cEMIJKQ03MhJOLGQz/098gPqlY62MCi3Ghuu4kY1HTU3yVj+RK+VkeZiiN1c5Qz4EY48V4LGaU+naKynNydgE/f+cM8rYANm/fil3dEdMYLKioZ83w2ATOHXwb/UeOYXZ+AWl6ER4atJ6uDjzy+JMIMASoAmuthAUrxZLVFvsIXOqKJ9dODOaka+hmbKtEmN3mRG/7FoS9DQYk2lQxApcSGVJApW8rQ/4rrfc2Tca/IqDQqxMwCIZVIdxMiZWovAt0IS94vXjH7cVrbifO85ly/I2FIFrthWE23tShbKHcQjKohe5i9OBhDL7+Q8Z/qWtX/mii56ytq2PsmMPycpTxZKV9TF6gj+XgomtrGoT5TmmLD1NUaM1Q+3EZ8pOK7qv2qL/68VtYztrRvWkj9q6PmKnZZAw079/E3BIuHD2Ey0eOYm5qBkkLy80vF9CPZ577Mtat675rQCW5+xiLm9fth8NemaXVjCgmGFweMhYB5vIQdFIuAiwUceOBvQ9j9/rHUKZCKxWvNiAx1upmxlvpn5jJ7FPjJJVBriOBoRS6SekTZMrG8YjZ9P8ifxRjnHaR4PqRz4e/D3gwSAtM71DaBAfPF6icvJaTcV5lok/+jmCY+Jv/FwOnfkhwXJtE5yOInlHjnJQRnJoYRypPZmYcJyWtYRnUBN2waaIeh5tsZsfgbAIxMtvtEPXCHxidxF//9CA9Yi82bduK+zZqXg4ZMNYJj2sGpb533sSZt97B2NAwFvhetpAW/g7i/gceNb3Vb2dP9Y8jdx+wWLjhYA2C3pp3FVKKZqNbZld2j6zl8qp9yo5IqBa9nVtw/56H4LSGUKSbZlLyVPBVXTauodhL7iBZUN9rQhHeoxZOB9HJIjJZRrpyWnCcht9spp2I16m4WHT3+LtzHhf+OuTFyzUeTNDV1HgtDUVxEJTqkeEmqBz8btPvhmfR/9f/Fy5e/SXdxORHBldNpAZe3m9sZNgsnK1smq7h4XvUhpzwMeC30wBpzsWppRyGx6dMAudWirJ/l4Ym8JM3TyNddmPzju3YR1C1BipMpbT6zOw8zhw6iL4338LowBCWCTSbJn4J+bFzx04zkabWw7rb5I7s3f6bRH3lzvafwuDE5YoVu6aT5m/+My6i3YbNXTvx+UdfQEdTDxX4LKYXRg3X6LhAsbq6iRRSOqc+gZol6CtP/h6ef+qb2LV5D9Z3bEZLYzuC/jCZ0EnWK5j7awFw0ymQIoUtmesAGbqRU7z3RMSLTMCFQLYIX5ZsRVBZeVyNxuqdIcCVppcwUTsDS30t6sw01Tc+wYlcVy2affHSJbS0tqOuvs6M0lUvd03OEs2UkEjmzPCVeKYIrYC/obORYJSxWFtReWqq69Pn+/GTt8/RjQiTqTbjvk0N6CDo5bKKYTXf4enDB3HytTcwcOESlgp5WMj6NUEPerq78MLXvmFmkbrZE97cCrnrgFUBkgXjMyM4fvYw/6ZCC1mszFWl1KeTruLT9z6P+3c9/G7P+AtDfUirGzvPlVsnUGnT+QKFwGW3uPHcI9/Aw3ufxPaN92D/jofw0J4n8dQDX+T2HPc/jt1b9mFD12Y01rch4A2ZiUeV+CC8KtckaFK8ZqYjgNnusBmG4s3kTTJD4JKboM2Z47mZLCbaErC4AqgNdELzLN4IuNTxNpmI4+iRI2RWuwGXXyxFJWTYaO65mChAc5uXsgnMxuiI2ctob643inoj9/g4IlBpYph3Tl7Ezw+dhy/ciC07tmIfY6r2oOawqLiHk9PTOHn4sJlEtP/8RSwWcigHvASVl+Vaixf/4I+wZetWGrq1nU1preSuZCwphtqmzlw6iUQ6QQYhIqiwApmJmSibOnbidz7/L8wkNRWgOXB1tB8zS+OGYQQkiXpsKFGh7/o74KnBZ+57Fs0N7YYVpKhadFqWPhQIobWxA5u6t2PPlvsJuCfw2P6n8ej+p7B/+4PYvH4HGiKNBmTJVBLZfA6eJj8Km4OY4WfcayXTMRYSYxHYIrwVKn56swuzjimeX0SNr5lAubGlgaR0Z8+ewfjEJJqaGs16VR6320xyqSVLkwUrlpOVcWGZTBqTc1EEGYM2N0TWhAUEqqVYHAdOXMTRC+MI1bVjy7aN2NcTRqOv4v5l+b6jY+M4Qffv3NvvYODSFSywnFb8ApUHzXyPL3/9Rdyzbx8Z+O5YNfN6clcCS4WtKdPC/gjGhyYxF53jPsVNrAQqq8vpxne++N/gnu33GXDofAf3LS7N49JIH/IMksRO2t7N/tEN1PemSBuZ6QuIhBvM7xS/6fO9m5RSSq3RsH6vH7U19eho7cLmnu3Yu+1estwDBKMPl65cQiyegMvvRLgngHxnCLMtfszUuBCnomW8dFmtJZS21iLfoHnz+pEig4W8LfA4P3zaYx1zudxmkeyDhw4bJayrrTWrd7gY6LvsfE66hprYSKvbl/NpRJMZgiuO+rAXdeHATQOXAKWk0ND4NF45dA4DE8uItKzD9m092LsuhAaz1rFS6gUMDg/jFAF19sBbGLishbRzsBum8tAI1poJYB557HHTK//D3v9Ol7sSWBIpdWtDB86fuoyBoX4U1UrLCqaqYkfvPWYMl7KHq5WjHhsOhwtnr5zAQnTegIjqaRITq4ylU3dv3E8WeoYVW5kXUDHLeyv4epX97j0INs02VRdpQFd7DybGGQNduWym9bJS2WsbXfA3elFu8SHbE0JuRwSFvS0odQZM0sVizWMxOYREahk13k743B++UruAEQyFcPCdg5iZmYHbTVYNBcxIYRefJegiQ7rInjktjMCXzKfIYBmMTC6Sme1orNNEKxVj8UkkkUrj2Pmr+KcDp80Qm9aezdi3Yx12t/NZ1GpNSWVy6B/ox7E33jBMdfnqIBbpYTiDPhrIyjTTzzz3RTzx5NNmNPAnfabbLXctsFTwCpCPHDqC0f4JxkZObNq0Cbu33oOvPfNt9LRvNGyzKjo/4AuamOPK8EW6XVmTQleWUFNviekiwUZ845k/wPqOreZ8uS6rgwgl769sc8614+89pr+9bp8ZM3Suvw/TDNKLhRJyvJ+X1jtAtlJfRZvHCWvYDg+/q5eHcWctJSrnJObjEwi4GuA3ywNdvxOt9nnoopZKeRw5eszMke4mc4XCQd7HR/eXwNMEnow303mbmddjhcylhekGxuboORfMCGS3q9J0cb17XE/EUNoyNBjDk7N49ch5HLswRuapR+/mzdi7uQUb6+g+2yuTqS7HYrhy6SJOvPkGLh45hqvq/0dXVfP/aW2qOrqwTz79OTz5uWfN8KAbfY47We4IYKmSJCb2qeww3z+sgPWbyclxHKBLEVuOYUPnFvzrf/U/4OmHvoCejo2GPd4v6guoSWo8TsY78TgWF5ZQYGBFw4lwoAaP7P4svvDY19/17bUJXKvy/uf5sOfTsXrGW26XB2cun+L9Yny/FcaEZeN6erw2glIrtzPGShfJjHTL6M4qzrPaSsgWZzAXG0fQ3Yagr4HP8SuAv1fEWvUNDbh04QLdrFGktXaYky6qZp2l5fc6CGSCy+F1owAHimUCrVRgDJhC/8g0xqYXjIHyqYsYz33vO73371UwKZunpXeujEziUN8VvH3yCqZjRTS0yfXrxd7eWqwL0xUlEyp7Or+wgLOnTqHv7bdw7shxDNLIZBw2+AUqr8PM3PT557+Mx596mqC6+at+3C65Y4C1sDCP8+fPYoAuQo6WVwWskbIm4/c+qVTYIn7205/h/LmzBEcBjU3NePZzn0dDfSOPFxGllZS8N6ukTym6JqlByon+viEkl/Jw2rx4/omv4yuf/RYaaht/rXI/CbDkfra3dPINyjh7/gwyuawZYJnJ0YovZQmyokkyKNmg4S45jYY2jdgrdFtpaFbsqPGtQ2Ookoq/nug+Gkah9zxFBZ6dmyc4aSzo5vr9XsMAXipymEzpCXgAhw/FFTIlf6uxYfMLy2TwKVwcJEvSQGlWWsVLhUKRsWjedDVKpDJYiicxPDGDvkvD+OWhszhxYRRTSxm6co3o2bQReza3YXu7H400GEqnZ3mdyakpnD561DT8nj99FkPLiygJ6HT/5Io2NTbi2S++gIceedRkbj+sPO82sVCp/7nm3gIRO6XSKczPz5v44J0DB9B39iwSyaRxY9paWtBMa1bX1GhchUhtHTSzj5IRS4sLOHr4MM7wfCUiNISCZh5f/+pXsXnrVgwzQD508CAefvhRPPX0k4x7fn0edSnMP7z0El76wQ8wP0tFJBC/851v48UXv/Wh8+6tVvzq52rRvf/7+2V+eR7/55//b3j5wI9RLGXR2h00PURy6bzpNdLZ6UdLs4dAcJKBKm1sulTA04b7ev4QG9vug8P+wRky3TeVSuIv//Kv8Dff/z4VN4zOdd3Yu3sHHrh/Pzo6yNJutzl3LlvGlZkMBseWMDc7h8TSPFKJZRqzNNKa6IOi+c5rAl7DYMo6aDSv2sS0eLamKAuGIwjU1KOB9dOzrgEbmzxmXkNNV6ZUunp5DA1eJZjOYPDkaVzh37OZDF1fN6/rMUDXHOpf+ea3sFdrHTNe/jSBSnLbgCUwvfHG6xgaGsLIyAgmJ6boklSWadEKGsFgkHGHVvQTyzhpwSuDElXTKYJPo0+pUgQV/TjWidjBR/dHI2azrMRoLG4m5f/DP/pD3HPPPlp/sUHO/E6V/v3v/x1GR4bIHDGkshms6+zAt7/9HTNP3eq85opZ1LCqOEbbahbtg4C1Ku8vUn0fGruKv/rx/0dw/Qj5chIt6/wIhF2m3UvHIzUuWnDNWOSC260hLGpbYwxl68DWti9hW/sTLIcPDup1jfHxcfzJn/4J3iJD+MhUmr9vOw3Nvfv3YsOGjaipCZt2Mo2Onk+VMLaYwdR8EguLUSTJ8EmWq1alL9LwiM2IJ9PcYEZak+l1zUAohIa6GrQ1BtEeYXxEhlJ+Qj1QlNLXGlxXzp/HQB+9jytXMMp6TpABtdpIyO+Cj3W5cdMWfOGFr2Dr1m3vlumnTW4LsHTLn/7sp/g5Xbm0KmN6FolEwlSgmwosF0aZNFWsslZq+1FFFxg/5FjpclWkXqYnOhVNrqAqyEXwuRlLKMbQ+ZqpSTOvPvTA/VhcihLMUwTwJIaGRwxTeljJsViCcUnWKJAY8uGHH8LOXbsIZIeJW2bm5sy8dTt37UDP+l6EgqF3Exar8mHKvipyXzX56FsnXsc//OJ7mFkaRbjJilCNg+9HFs0Xycg2tDZ70djoNuDSjFJmnsJCPXobnsK+jc9TOa+/Tq7upXuMjg7jf/+3/84snq1JMMX0Pd3duGfPLmzbtpUuc1NlsTVeQ1OLxbIlLNElXdKCDmSlVForgBSNO62nd9CYeRh/icUEjFqfnWCyw8tndeoxBCiW3yJd88GrVzHC+w4TUFdHRzEXjZkFvn2sE7+G5pCp9uy9F1/40gtmPvXrxcGfFrktwMrTb//ud7+L+ro6bNux3WT2/uZv/tZUZHt7M6L09RdYUQKaCj+fy5sAW/GWnwFuJBw2azA1NjabjN7YxDgBmjLnyepqVX21GZepaNoUcOcJVLmNlTasEmrCIcNC0eU4csW8UUq5p4qp5JrIwiphUBlx7DRr7O7cuRPPP/8c1q/fYLKFHwSo94qK971FLMs+NTOGN469jONnjyBtncSKc5nvp9HOfA7GV+3tcoV9NDJiLpYXY69MyoaNLU/jwa3fRENYjdfXB5e2y1cu49/9HwTX5Su8hg9evx91DQ3YvmUTdm3bgt5rs8+qB7wMikRlVKAl463MvH0kUsZKjP94G80J77au/FqGVGWVZT1Gl5cwPDiI/iv9GL/aj+mJCQzNzBFsBdMFLOh30/Wzwsl6vPeBh/H1F38Xdax3yY2U390qtwVY8sNnyQRq0NRyLxqI94//+EO88sovqEBp03lzZmaalcfKNEzSaFhkG92aTZs3IRKpNQCbnZvBP/z9S7hw8RIWFxeRiCcMaJwuF3IZja7Nm7WaGurrqaztlfiJLuEEg2pNHxYnW0UZD4jxxIxSNJ0vpU2lUijkqRyMMwS0des6EamrJXu14+tf/xq/r7thYL1fVgGQyaUwuzSFgfHTGJntw/j8EJ8nxlgmi5qQF1t618HuIoPkF8ngGbrJNqxvfATP7Puv4fdqnqjri4zEpcuX8Rd/8Rem8Vjun9jLzVhTGcT13V3Y0NtjltnRWr9a2FrvLSOmd6+k9yvX0uPL3RaQZJQyfLZkIoZZgmdqapJu/ChmJsfN4m+a8y+hdYbpT3jcTnhdDnicdjP5i+ZVf/jRx0x9f5oBtSq3zRXUTVczbqq0k6dOElw/wkMPPsg4yYPXXn2dlTeDlpYWPP6Zx80i1MFQ0Ci/fifl+elPf4rXX3/dAMZO5V9cmMdVuiPLS8tGMTYThI899jjWb+jF6VNUXsZySjUv0UWZmZ4y7qFcPoGkd30PA/51aGZcorT8FVr9tw+8hTles7d3A1781otopUuogYU6R2nijwOs633PF5QYiCOaXEBMiQTGOQ67B431TWSSNGLpKaRyURqkLMK+bmxsu9f0Lvkg0TVlnCYYc/39Sy8ZgyVDoZ4amshTcajKsr6+wbxLa1ODWUQgFPSbxJFDSSLDZOpPSSalq6ffR1luS4tLmJubpSFbQHRpCbEowZTKmCygkhwyhAKUmyzloYHbs28/Pvu5z9ON7iF4174D8J0ity158V7RI0xR0RcY9/QyyNacccoOaoovH5XgeokDuZM/f/llKoIXu3fvptK4kE6nceZMH/pO9dFNrMfDjzxiwHDu/Dn8+Z/9GSYnp/jCjNXodsVicWzYuBEvvPA89u7dhxCDcidjLnMfloiuvzA/xxhrHg206i3NLcairxaXnuNmAEvy/n2r1139rKzNTN8M6jCs9q/f3Il29ZoCxC9efRXf+8//GSOMLWWAxOgmMUQ317C03EUlfljOYjXFnmJwXsS44OqKlE8nkWT55smcin/V/qe4UADWrSqMT4YiqFx2KzrpIaht6qGHHzWJqBstr0+L3BHA+jgid1KNvGoEVbJitdKkgGIzgUD79Hp/9/3v46Uf/hALM7Nm3JZcvPvuuw//8o/+0AT2q6BdK7leEb9/3+rz32zl030EjsuMt376kx/j0OHDptFWbramkrNec/8qXZsqn2q6eFf0nNeArd8oFlMyyeznqfyVydy6CCh1VG5rqjMDEx994kl0dnauedneqXLXAmv1sX+TIuq8v/3rv0Y/A+z48jJmZ2dNZuxbv/st7Nix01T8zVbm98uHFfFa33tVBAwldgauDuCN19/AiRMnMD4xYRI+Ej2H2qjMKOrr9PIwwFIXFb0LN53v4PkuxlJKBK3v6cYueg7bWaad67oM+10vwfLbInctsG5U9HpSIDWQKg6IRpcQrqlFc6OGd6w9qCSrRXyrQPRBoufQJpdZ7YgXL17ACcaegwMDdMWnzfI4asN6V/i8eubVp1aKXiwX8PtQz5ispbXFJJO0+n5neydq67TY229HcuI3yaceWJ9GUczFqvvECqyq16r1c4wjB8noajCfnZnH/NwclqJR00DOs0wcFiEr1dZGTBaxuaUV67q60NzaanrSK2VfBdOvSxVYd6FkMnG43Te3w6rUQOl0zdIr9zCTUe//oo4YF9Gst6WkBxlLmdRbxfZ3q1SBVZWqrIH89kaXVanKGkoVWFWpyhpIFVhVqcoaSBVYVanKGkgVWFWpyhpIFVhVqcoaSBVYVanKGkgVWFWpyhpIFVhVqcoaSBVYVanKGkgVWFWpyhpIFVhVqcoaSBVYVanKGkgVWFWpyhpIFVhVqcoaSBVYVanKGkgVWFWpyhpIFVhVqcoaSBVYVanKGkgVWFWpyhpIFVhVqcoaSBVYVanKGkgVWFWpyk0X4P8Hv6sWfmHZvhEAAAAASUVORK5CYII=;" parent="1" vertex="1">
          <mxGeometry x="325.98" y="247.5" width="74.02" height="55" as="geometry" />
        </mxCell>
        <mxCell id="R6fphjBCiR-DiBrCDHX--91" value="&lt;font style=&quot;font-size: 18px;&quot;&gt;&lt;b style=&quot;&quot;&gt;&lt;i style=&quot;&quot;&gt;LangChain&lt;/i&gt;&lt;/b&gt;&lt;/font&gt;" style="text;html=1;align=center;verticalAlign=middle;resizable=0;points=[];autosize=1;strokeColor=none;fillColor=none;" parent="1" vertex="1">
          <mxGeometry x="300.86" y="212.5" width="120" height="40" as="geometry" />
        </mxCell>
        <mxCell id="R6fphjBCiR-DiBrCDHX--95" value="" style="shape=image;verticalLabelPosition=bottom;labelBackgroundColor=default;verticalAlign=top;aspect=fixed;imageAspect=0;image=data:image/png,iVBORw0KGgoAAAANSUhEUgAAAYMAAAEiCAYAAAAbJL5ZAAAAAXNSR0IArs4c6QAAIABJREFUeF7sfQecXGW5/nP6lJ3tm02vm0JIIQkhFRLSSODSiwREJYqASBP83yugIKKAXhQREEQvCFwRIig1RCnBQEjf1E1PttfZMjv19P99v+/MZoNilkgJ5Bx+IZudmVOec+Z9vrc9rwB/8xHwEfAR8BE45hEQjnkEfAB8BHwEfAR8BOCTgf8Q+Aj4CPgI+Aj4ZOA/Az4CPgI+Aj4C8MnAfwh8BHwEfAR8BHwy8J8BHwEfAR8BHwH4ZOA/BD4CPgI+Aj4CPhn4z4CPgI+Aj4CPACHgVxP5z4GPgI+Aj4CPgE8G/jPgI+Aj4CPgI+B7Bv4z4CPgI+Aj4CPgh4n8Z8BHwEfAR8BHwM8Z+M+Aj4CPgI+AjwBDwE8g+w+Cj4CPgI+Aj4BPBv4z4CPgI+Aj4CPgewb+M+Aj4CPgI+Aj4IeJ/GfAR8BHwEfAR8DPGfjPgI+Aj4CPgI+An0D2nwEfAR8BHwEfAY6AX03kPwk+Aj4CPgI+Aj4Z+M+Aj4CPgI+Aj4DvGfjPgI+Aj4CPgI+AHybynwEfAR8BHwEfAT9n4D8DPgI+Aj4CPgJ+Atl/BnwEfAR8BHwEOAJ+NZH/JPgI+Aj4CPgI+GTgPwM+Aj4CPgI+Ar5n4D8DPgI+Aj4CPgJ+mMh/BnwEfAR8BHwE/JyB/wz4CPgI+Aj4CPgJZP8Z+OIjcCEg1R4/bAjSelCTZElTZFOLFEVfWrOmBYDzxUfAv0IfgZ4h4FcT9Qwn/12fQwTmjR460DDt+4tz82bYmXRYcR1BhGtp4VBGDgWbEpb9TiS/4MXckgHr73/iiY477rhD3L59u9DS0iKUlJS4S5cutT+Hl+2fso/AESHgk8ERweZ/6POAwJxxI76Ro2qPDhvYVwzYOhQzBcXVYZoGDElBSg45la3xVChS8Le5cxb8ONHRNrezrfWkhvo6Rc8YRjgv0tAaT2xJwnntpb+9V/95uGb/HH0EjhQBnwyOFDn/c0c9AhdMG3+lJiqPlBbkY3BpIQbkB1GoOjAyCcQSSdR3GmhKmmg3HAjBcKo92hySXQdhTQMEAYm0jrQNqzWZeUcN5F62fMOGhqP+ov0T9BE4QgR8MjhC4PyPHX0IXDh7dg6A3lpA7o90ZkiOa84UJHlJTjAIQTdQoDiYecJxyFdc2EYGgiCjMRrDpsYGVKdTKCwoQL/epejfpx8kWUVjSzu2761EfVusI5lxz3px7dqVR99V+2fkI/DxIOCTwceDo7+XTxmBBePGhQOFch/RlgbBxZigqky1DGuUJqvFguvmuJaeExIdKRyOCI4rICDJcFMxFCk2Lj19Plpr9iMkiZBdAdsaGpHQgjhl1ixoAQ2GaaG5vRMbtu3A7romxC2YGUivtLTH/mzqZo2kCNXIoP3VrVtjfhL6U77x/uE+MQR8MvjEoPV3/EkgcN7MyUMFQThbleV5rmuNlBy3lyxAUyRBhuuIueEQwqEwcnNCKIwEoQXDkNUA8nJzEZEFiIl2jCjNR3TvTshGBrJtw1YCMLUgNC2IeCoJ3XGxbc9eHGhqgRDORxIiMqJix9O66VhOJhjOaU/rbnMG4ntxw/5zfTpdvmXLluQncb3+Pn0EPi0EfDL4tJD2j3OkCAjnTh9XoruBk4KyeIHmYmFAFYslOFIkqCGkKuhbUoi+vXuhV1EBehUXIRQMIBTQILsuRFGEYTlwLAOipUMy04g3VKOzoQZhQYBsO7AEEYYrQBBEQBBhwUVnOo2UIyBpuYjpJhKWg2TGgG4YSKQNdOoWDDnkJm1X121nR1rP/MW2zNfbc4Qd7723K36kF+t/zkfgs0LAJ4PPCnn/uIdFYEpZWW5+YegcVRCvLciJjAqrali0DKG0MB8jhg7C8cOHok9RAUIyIAsOJNtAJpFALNaOTCIJJ23AMk3YlgE4BgTHRkACBEuHYNlQBBGiS80GAhwRcOGyc6L/uy5gQ4QrSnAgwSaScFykLRNx00Z72kBLPIXmzhTihgVHDditiUxHNJ7YJYZzf1lvdizfsGE/hZH8zUfgc4GATwafi9t0bJ3k7NGjcwTZmBMJhm/QBGFWv17FouI4GDZoECaMOw6D+/dBrqbCScdhJzthdrZD74wh1d4KI52CIopQZQWWaUF0XIiCDVFwIQkuXMcCHDL7IgRR5Ios9B4GcbceNEEARBGu68KBi2zDgStJsEUZlqggaQGduoG2VAZVTS1I2EDSUdAQS1oJy1nVmTEezMj2ipXle6nBzd98BI5qBHwyOKpvz7F3cgvGHTcGtnl7r6L8BTmaEinMCQjjR47CzMknIhLQEJAcZBIxxNuiiEcbYcQ6oDoWFNcBlYWKFBqCwP4zBf5vwbUhuA5b7hMBOILAyMD1jL1suVDpZeYdAC4RgQBYsLmvkP2WUBTJFUAJada+JsrMYzAFESkbaM8Y2N/YhuaUiXbdQruNdDQWK8/Yzj21W/YurwCMY++O+lf8eUHAJ4PPy536gp8neQNywL4wTwveWhAODO2VmyMMH9Qfp5w0CQNKS2AnyAtIIt5Yi1i0CZaeguTa0EQiAVrUk+H3QBIEvpr3XiPTLzAuoN+TERfgCi7o9+QNSI4A2RXpXXDoG0HOgkA5BG9/rgs3SyaeD0GfFNkbuOdAhOBoIbSlHdTH02joTKE+oSPtAM2dyXRrMvlbSQk+1Ll+y74VxDP+5iNwlCHgk8FRdkOOxdOZN2lonuQqPyzOy7s8V1Vyywb0xeypkzF8YB9orgkz1oG22jrEm5oQNNMUwWdhHzLfLOxD5pglf/mKn4I9FN4hBqDwjyiIEFz6vQhBoKSBC8exPI/BgCtIcAS5mwtAfgXfuGdBfxNHCLDpH+ydPLQkujZc12Yegi2pSLgS2jMWdCmAmAlWkdSuG+gwXau6pX2fLkl3v75h+9OglIS/+QgcRQj4ZHAU3Yxj8VQWTZo0TFWNe/JU9YLCSAQTRh+P006ZgVzVhWTE0F57APHqGggpHRqtvl2LQvlwXJuFfSSJo0ahG9qIA6giiP64Ir0uQZJkiKLMfkfvEmnlb9uswsi2LfbzQfN/6F3IfkG4D8D/MJKgw7B/kMvBQ0sUOrIECSnDRtIwYSsaMoKIho4k6jqTaEhk0JLKxJOu/OuOdOqBtzbvrjsW77l/zUcnAj4ZHJ335Zg4qwtnzBjoyPbv8lXh1JJISJpz8ixMOH40ArCgmAk07dvOyCBs2whBguC4cCgJLHgrfwrssCdYYJ6ATat4SJBlBYIkQZApSSyxPIHgxXxch/kNEOhv+oxlwjIML/hzeNi7IlEeIWQJiOcayGcRYJgmUroBQwBsWYMhqWg3XFS3xdCUSKEpmTEbYol3kgHpihWrd1Ye/qj+O3wEPnkEfDL45DH2j/BPEFg0ZVz/oKL9T0E4OL8oIOGchadh5IgRcDNpBFwDmpNB5aa1ENOdEE0dcrbQh1b9bPlPC30BjkMRe75iJ8OvyCokSeGVQBIz+9xjYCt5ivUwJmEJZVkUYZNonZ5hFUU9+TL8czKg6iTKQ1AoSoDpOEjpGda/QH/SNuCoQda3UN/RibqOTrQSObTHKzKOe9nyDTs2+g+Jj8BnjUBPnv/P+hz943/BEDht2vGFYWi/7VdccGaOqsjnLVqAoQP6sZCPbJnQBBtWcx2qt5ZDs3XWI6CqCgzLhORKEFi2gIf4qd6H/i3JEiRFg0ThIMobkM33ege4madf0CsU0+H0oYgCLFOHmfkYyIDyFSxnIcB2gVRGZz0JVIrqCjIsV2AlqY6qoTGexI66RsQE1amKdpS3mOZXVpbvrfiC3Wb/cj5nCPhk8Dm7YZ/30yUiyFNzfx1RpIuKQipOm3Myxo8aBU0WYRoZBAQXqplCdM9OJOtqERJs1jRmiTZABt+m6D4nA0YIogRRliEpKkTSH3J4jRB1HlMnMVUNURURT//SRmt3TgqS68AwDCZaxxPEh9+6ewYeHzFyYTkD7q6wP6lMmuUNREWBadoQvfNMUze0FkCLYWPdnkokIKO2PbGtVXcu+vu2PTsOfwb+O3wEPhkEevL8fzJH9vd6LCIgnD55wo8LA8rNA3sVKqfNnonxx42AbVmQKNkLB6pjINVYj8bt2xA2TaiUKBZIMsKCJQIyj/0ww0t5AUklElBYz4C37udmn8JEVDXEPAIWJGJ/c8+Afkt5AxumocMxTZ4Q7sEd+SAZsEomFoei3gROOkQMumEhblnMS5Do3Gye36CSVVOUkBBkdDgCdtQ0oCFpOAfa08tb0+5la3fubO3Bafhv8RH42BHoyfP/sR/U3+ExiYA4/4Sx5+dq0hODS4tC0yeMw5yZ0+CSNIQoQpZFuJkkZCOJ2u1bgfYOhGzeSEYG1xYpeUxGnHcFk+0VFRWyqjHvgIdoeLUQs83MKPNYvvcL7hGwxjNAsE1YpsEG3VAymTeqHcnWjQyYZ8BJwbSBDvI6vJJUyldIVH7qWnAlBWlXQEYJsITy7sY21KcdNHQmHu2IN3/3vV1RX9voSG6F/5l/C4Eje/7/rUP6Hz4WETh/2okTVNl9oTgcHjzp+FE4Y94cqEwYiKL+DhTRgWqm0bRvF2K1NQgBkCwbVDnKuodp/c1W1pTrdSHIMicCShZTGSkjA17yycnAW+qTI+AZejLIPETkwLZ4roCqi6jU9EipgHsGnr9ASQrGByIsF4iRmF02aU2SF9Ts5vL3UwmqKciwZRV1nSlsp87ltJlpiCV/+Fr5znuOxWfEv+bPFgGfDD5b/I+Jo88G5JIZJzyWJ0tfGT6gv/jVi7+EgCzwFbkISK4FzTUQ3b8HLQd2I1+VYGTSkKgslJGBAIlV+1BXMe8iljWN5QkcgbwCHqWhjVb+vPCfG2VeRpQ19byKyDJ0lp+g43Plie408lFvicNIikpXqbKJToS8F/JhOk0LacvmnovXqEbHsywTsiTBoNCRrEGXNexsbseBaAw1nalYuylctmzj9le6tTV81JPy3+8j8JER8MngI0Pmf+CjInDmjMkXRUTnN6WhQN7ic8/EqCGD4Tq8aYyMaMg1ET2wE7HqAwiYKQhWBoqmQmc2nSuLyg4lfF0Wb4coQwsGmaIotfHyfAH3B0TmRdCPDiMR6jimY7DQkmvDMS1YRpodX2Ik4RxsVPuoF8bez8mAHZKVrAoQqd/AdZj8ddI02fmajJNc1iynEHnZpIkqssRy0hGQUELYWRdFQ8rEtrqWBiGoLnpl7fbNR3RK/od8BI4AAZ8MjgA0/yM9R2DRlCn9wyr+UqTJk2adOB6nz53F8gCCbUGwbSgA2qv3Ilq5GyHXgmxmEFJEpEwdtqSwlT89pLLNk782/VtWoYVCrMGLGs2Ye8GtMRejYAliHvohw0xvcSwTtm3CJuPMhOsohk9W2WFhJ1q9H9nWLUxERyQvhiqZXJepmiYMyonIrASW6R6x/gbSx6aEucCT54EwYo4ASw1h3d5qNNuie6Ct85m/rN5ymT9J7cjuiv+pj46ATwYfHTP/Ex8BgUUTxiwpzgn/ekhpiXr5ly9CflCBYKUQViQ4bW3orGtArH4/FMeAJJL5phU8/5OtzqHDZR9UVkUkK8wzYGRAv5B4hzEvDyWPgL+f+QjUlGZbbK4B6Rhl8wacLLgXwQNLWe/iX1+c17GQ9Qm6Pn8wc80VU4mOko6LeDrDJDFYCIldBMWUsjVJXRzGiMJUNNTEUtje0IYGA/F6w/zy6+9teekjwO2/1UfgiBHwyeCIofM/eDgEysrKtPGl+a/nKdLsM2afgvknT4FspaGYGejtLYhWVkKPxaA6OpQe6rZlE8VqMMBIgfkCXkdyl16Ql6QlQjENPuCGSEZm2kTcEGdNv9M1w6BnZMCv+WDN0j/HQAClvhO2jWRGZz0PjNyyH+2SQ82SAcXDbFiygpQcxqaqelQnDVTH9V0dhjJzxYYN0cNh7b/uI/DvIuCTwb+LoP/5D0XgzJPG/0dIxtLBpSWBJV86H4OKIrDaomitOoB0WzOTmVBo9CQslvjtMpj/AlMyqQ7lBSSJNZnJiuaplVK83oVrO1x8jqqUsrIV2RkHzGPwpCyoKungur6HXQZZoTr+tcnu64Onm52SFrdspKnx7DBkQNRBVU0uqZ5CQloOYfXuKtSmTcQy9hUvrN70W/8x8xH4pBHwyeCTRvgY3f+CcePCspN6efDAPqeeePxIXHz6fKiZJKo2rIXZ2oywJMCxdWbAyVj2dGNJWq/bl3kErByIJKp51VC2moh1GLAYPd9zVx9BdoVOpMIVKg5Z6x/uPLrCSTQPwdtXF+l45a20UxLWjpsOdMvuSmCzRDYvczr0MC4bsMlUTw1BodnKqGhoRWWczUR4s27lxoX+DITD3Rn/9X8XAZ8M/l0E/c//UwQWnXD8jKBrLh85Ykh4yeLz0S8nALOhFs0VW5BDmj1mBrIiwXQsb85Azx5FShCzhDCrBvU6fhkPcMvO9sJbglnnMl/B82a0LJFkmxAOkkHPROr4Xj3iYmTAf3MIGZDH4dCYTAGdugWTSmK9aqZ/RQYsf0G9By4nhDZTwIaqOtSmrfaoLpzxytry9/1HzUfgk0SgZ9/AT/IM/H1/IRGYO2roDyeMHHFbv96F4tcuPhtaqhMNWzYCLU0IWAY0MuQioLOmre5p2X8NBx9dwzeuBeRJQTCTf/AFLlLHh9sc3Pi/eMKYP/rcMzhSMjg0EUxXQl4OJY/TuoGExX5zKFlkz/mQ82IFsmwAD71fFyRkJBWbauqxvzODDkH7Y7295rIVK/wJaV/IL8tRclE+GRwlN+KLdhrnT5v4Tq+c0Clnzj8VsyeOgdNWj+qNa5FDYnQ0HcyxebmlxEXnet4B3CVRxyHzQkG8hseL+1A+lgbgeKJ0WWyprv8gGXSngI9CBgcP2kU03sqfTUxmMtYuUroJEqWj1X524xVSnmRFtxvOQ0dZTwNsahqRQXU8g821zeiUQ7GmjvSJL72/ce8X7Tnxr+foQcAng6PnXnxhzmT2sGFlpb0LNxYGpMh3rlqCgZEAYpW70bK7ArmCDYWav2yHibY5NHimx+nb7Ere6/r1EMtWajLfwGtFpvGULtMy8jYmX30wrMRIoVtRUE+/CN09CU98gh2A1vZ0PTRfmVRKk7rOZKt7Rgaezp3NBfSoic6QFXS4EiODzXWtyMihxS+tKv/jF+Yh8S/kqEOgp9+Bo+7E/RM6ehE4feIJ3y2KKPeOHtZfuOpLFyDX0VG3aR3M1gaorgVQwxkljakZiwqDutK4h7+mLgPOpegOfoAZ+ywZ0KxiIptDw0Q8n3AwcHQkZPDPuxKoHogTG/1NU850youQV+Dy7mfmT7CZB/94jczXoW5p1+FVVYILS5ahB0LYXNuC7fXtiLnqz59duf67fhPa4Z8R/x1HhoBPBkeGm/+pD0FgUVmZ5gSlNWWD+ow/ffY0zJ04DmJrE6rL10DVExBcMpK0spdpogAEh9f+f1iZ5gcP0z3p64244YaW2duDZEBEQCMys15HNkPQvd/rUDLoWUUTb2rLhqpI/pQdnTfAUa6AlZMarPTVYS3H2RGdHhnwtx+ysXkLbGgPkRejFRiSiIwawq6WTuyJJlCfcN5d29g2b+/evbr/8PkIfBII+GTwSaB6DO9z0aQxwzRJ3Dq4b3FwyUXnYlRRPpIHdqF5zzYEBZr/aEEklVG2YhaYnHRXFdBhcCMTTHIU9AGJJCVYPvVgHkAQZK+IyGESFTT/gLqOJS8ez+WvSeHU5mlrClG5IjJCAB2GjZygzDwX0TagUuzfsph2EJektiFIIiSHykCz9pxTmC1wIjBsBynTgk66Q7LCJCeYSF52pELWk/mH0lIS2JPgilyuOyvRbYoqmgwX5dXN2Nee3puQ5VkvvVde/0k+XheSozZ6tLQ/GHQnAdjQdbCDP0UicOPxD1P8pk/RRu/P/sx/E4ls6HLlPvzzQGTDv3YV45MOHjudhkAyVdlDRgDXL8M9sifEJ4Mjw83/1IcgcOn8k+eaHbHXjxs+WL7iyxehVLDQvr0cHfX7oUoOq/YUXS4+R+t2R+SJ0548iFkyYCto12HDcHjOln4S2NQyWVVYboA6lTPsWCZkkscm8TiTG29XcuDKDiyTlCwCSIVLsHxjBUYM6oNRA0uRidYjYJsIUagmmYZIE9Y0lU1OE2hqWbeuZcoRkFw19RNkbIeVklL+gMiIrrEnG3OUyLPIzmzw8hu27SIhBrH2QA2qdTHeBnfRc2+vf68n+/yo7znv5OP6yI6ywHacqSKEXNvSRY2GBsF2XMd1BZc2avcjIu0mFc74XBZoVoNLzMrCYZJ3O0VITIScPuNpOHkuIEXD2O1jP1CAjPZvMx+JjsY9quxgatoty//w/XJdc1cQBME2TYGPPpUcUVKcjGFZObkF1Wk9884raypWg7d8+FsPEOjJd7AHu/Hf8mkicOGFF0pLly5lzbif5nF7cqzzJk/61uDi0l8N6lcofuWSsxGMtaJ+42q4qTbI5BmQoXNFSC5XBvooZMAtP5lkWuHTrGMJEhlS14VtG5ADMlIkRKepyAgqokmTKaIWBSQEWcEOmXH6z4KoABmTJLGDyOT3wYtrypFJJTBr6mQM71OCWPV+5Ng6cmkcZybDpqrp1CAnUWiIL/XJdJEgnW05yJhUHcUJjgiC9xb08Pawc+PEyEJXrGOaeikEpKQANtY0YWd72qkzhW+99v7GR3tyH3r6nvNOntTHNc1rNEm4UHLdAaZhBLgz4zBdJ9a/wa22V7hF/6YsD++v4P0dIvf2vHPP2mxbtOHQuFKWD+H4s5ovDxsK49Ef2r/kCJCIS7pKhXnsr1uPoHdJ3thTNqSIVGr5/qgb3aLmE4F1ptuirHR0JFOrLS3w4Gvvr1vuy4Ef/onwyeDwGB0177jw5JNLBM39lgBMcwS3NpATvO+pP79xVM3NPXfiCT8fMKD3DWOGDxQuPn0exKZ6VK9/D0HXgCxyiQgyCkdCBiwYIxhkOmBBA1yNkYHk6lAVARk4oOiFECmEXNAHf172JkaVFmBs70IomQSvJhJJ3I4EpV0YkgZTC6M9WICn33wHkbxCdMZiuGDhAowqyUfrrq0I6jGEqXeAlFBlFTqN4CTRUduBZbtsohn9zEYoePmDLknrDwjSfeiDlBXW6+qI5mSg087DeSxMtL6xHW1a5IGX315148e1CKDnybZSD4cV+SzIUAPhEIYMGYKCgjx2qjLNYWAzGrqpMTFjzQNlXWTA3v2POReHiFsklVgRgk3osyV9F8FQ7sihBQLz9Oj17vVZ3A9gyffubeJMIlxmREvNfbwowIVuGAhoGpLJNGpr69Ae64SsKG5NtLkpmJP3X8+/ueKpjwu3o8YgfMwn4pPBxwzoJ7U7GiSfA/XpvHBoIak4i6qCprb27YIUWvzi39/f+kkd96Pud/HMSUtzctQLFs6agYUnngi7vgoNm9cjAB2SyOPhIksaZz2DrMro4R9FijBIjgWXJonRlDCBQjFkEExmOFKQIBf3h1DQDy+tWIW6aBST+xZjQkkEITPpNYTx1SwZ9IwSRGjAELy7rword+6BGoogo1vIkSWcPWsGRhXkoHXPdkh6AqoAGDQmEzZM14FpuXAcWsnSvAT6m4cy2EY6Q1nZicNfljejmT7IDaDXqsaE+BK2hOq4iVW1UVQ58t8QzDtz2bJl/3YSedKkvqFCK/fekkjkmpxwWDhx3nzMWbQQA/r3h6zRXGkvGZ8luK6Q1wf6PNhpd9P16P7AEBnS3Apm5L1MSzZrT7Extuxnrh1/PZtL+aBGCCvRZVb/IAlR0yIvw4JrmkjEOpBOpWGbNjKZDCp2VOCNZcvR0R5FtKWt0RWEi15du3HlR32ej6X39+RRPZbwOGqv9YK502/KFXBvQSgoOY7FjFnCdtyE6byy9M33zj5a3OCrzzr13Vhbw4yrL7sUEwcNRqZyL9p3VUAlMpD47ICDZOB2CxMd/lFkAQpKylJ8XeIhBgrOUE9BRpRROGAkIgNG47FnX0JNRwKWk8b43ADmDumNkJ6ASWWtssLCO4Iahh7OQ/7I0XjgmedwoLUVl331q9iwcRMO7NmNEARcsGAeThgyELvWvQ+7sx2iTQqkZNwoJ0HVULyeiZ1RVgjJk9HmpitbbXS4x8rbi7fi5sbR80DkIGriFlbWt6I5VLg/npd71vLfP7P9cHs83OunTx09pSiY/7IIt+Tciy/G6V+7AoKkMGIjuW2S3Wa85iXLs3eH23JKl7NAkWeeec7jgzacDRdyeMKfV5BlDfrBrnHGCYST9I8xT36n/1EjlmVl2Hxrh3mYzMvL6GhuaGDzIhg/uS7ira144uGHEG9tcw9UVz6zfOueSw+Hy7H8+uG/gccyOkfPtYtnTB37ZEkgeGlxKAiLpfEAS5TRFE9WtomJsStWVCSOgtMVvnHWor2pzvqhN1x+GcaUFCGxdxc6D+xGUDBp8i9b1R8pGbAvObPFFK83IagSUlTdk1uIosEjkNHy8cLyd7GvPgpbkqAIOo7THMwd2hdhM836AExJge5K0CUVpceNxxvbduDtjRvRf8hAXHX112HoGTy/9Hns21eJkBzG3BkzMXpAP9RUlMNob4JqG5Bo5c8slRcuYZVJ3Ch1rXSZkerZwByWSSWTyAwnxd55jwTLhchBNBgiVta3Y78UcsUp83Y29SlbmZGkPxeE9XVvnnde65Hc93OnnHB/WFO/PXjEcOmGH9yOov5DAMrDfLDsNbvzQyz9Qe/ggwTQdS4uF96j8lqiCd6XbfKhRt7oUlHUeKOeQ6Gfripdvgtvx5xoD71Cnmfgb8hWdlFHe0drGzrb26HKEizTQk5Aw4plL2P5i39BZzy+P5ZKzXmtfEfVkeB1LHzGJ4PPyV0+d/bUu0oCgVsDbD3kwnRsKOEIKuub32qwhIUbNmygQPhnts3+wx+KA7W1J4XfXfNMsd6e+61LzsaoXjloq9iOVG0lAh+8+b33AAAgAElEQVQDGdDX34LFh8W4AnQIkPOK0G/MiWi1BPzvS6+hob0DFELLCYcQb6zDhMIQZg7ug4CeggkJuhpC0pVQMmQ4kloIv37uebiqiPPOOwPTpoyDKDqIRtvxxFPPYl9VKxQxiLnTpmHelAnYu/F9tFXuB92DoKrAsSk5SnOcSYHV8sId2YlmFAHvKRlQPQyFwGQ+P5lCRYKnZCppiNoK/loVxW4xhJzzl2BH8RBXN/UkHH11SVi7X9WM5StOPbXHVTOzBw8OlPYueDsnHJ4655yzsPjqqyCIgW4t2R/0aLxZ0h/ydPGQWLeZPdkEO4XuDBNhRYCbTKJ89bvYv3sHS8afNG0m+g0bDjGYA4tCbY7LJsBxD4sn6LuI5hA24JViWWUPtkDw3plJJtDa2Mg+SxLmmiSis6UBv7r7bnS0txnttv6ll9/f+pfP7EtylB/YJ4Oj/AZlT+/C02aXOcnU84WRnLEQHEELBLG/uqZaCIa++erKtVQt8RlsrjBz3Z4haUk4R87EFxfXV5fhT3/OL6jdjbtu+Ab6hIGmzeWwmuuhgZrNeCUQ9wx4WMARvVnFPSgupfdbCqBT4lDLQaRkAHqVjcbuhihefONtNMXaQHM0z7vwHGzZsBGVmyswdVApxvXKRdAxWdI5IQZQMKQM+YMH44mlz2NXbQPKRg7GlVdeChkZuE4GgqqhrUPHM88vx46KKqiQMWvyJMwYPxqphno0Ve1HsrMDQVGA6FiQmeyFVyDJYv58vcqv8vCb7SVRFVthzWdUVUSVOIJAtK+g3Q1gRWMSGy0Rztlfxo4BxwFSgDK+CEhKIleU3tFs4wnLib31/vTj2w53xDNmji3Ih1aem1cw6KIrvoGTzz6LEVf3KM7BU+8eqOGd0tk2am64D24frJ5yXMrluNi46j388YknULtvLwoiOSwM1RZPYPqpc3DRV7+GfoMGsSospi3FJMm9sFO3zu2DRyEi6BaeYy9wZSvbNFBfW8M63Hkq2oaTTuChu+9BzZ5djhAKXP+HlRsfPBw+x+rrPXtaj1V0jrLrPn/eKRPsjPldB9ZE07GqFUX92UvvrHnzs6iSOOOVLQWxfsHF7YH8axoNo6yPYKnHtTch+vAvUNZZj9uuuAR9QjJq16+B2NEK2c4wSemDYSI+T4CHQzxDcBi8KUKUIEMRKUDfEeMQKB2IVeVbsWLV+2huj6KwJBcXXHQeBg0bhLvvuAtaCpg0pBTHlebBicchqhH0HjkOQnExnl2+DNv27oEjKrjq6q+irKwXJMGAJJMtIVltDQldwtLnXkX52m0IiDJGDx+OM+fOgWhkULVnB2JN9ciRHCgU+mBzlblhIjIg4yZ6EtqHe4wYGZBmk6VCcCXWb0BkQMaMQimtloq/1XeiHArcsy5lZOAEcqHbCgpL+iFjmq6LTGepYq3Mj9X/SjTa3/pXnsLis+aWSp2prZoSKLn6v/4L4+bMBvkk/7gdSgTsdRb+8t57CBlkE8J8L7wKyMCODWvw07vvhaqouOqqb2HU+BNgZTJY8/eV+M3//AYjjxuFm/7fzSjsN5jNu+YbN+7cM+A0cej2ATJg5aWUq7ZRV10FxzZZ2Mmlvx0Lv7z9h6jZvQvB/Nybf79izX2Hux/H6us+GXwO7/yiRWXasmV7jc8iaTz3jTVFYnHfUzoE8co2ITAvKWiSEdKQ1xnF8XW7YT71EPrG9+IHV16OfloQletWQ6Xkq5mGKJHrLzIJClZ7wwpCeIqyewKSmwPPqHT9LcASRAR7D0Tu4OHIqBG8ta4cqzaXI6PHMWRwb5z1H4swZNgQ7NmzHw//8hGUhoowcXg/9IuoKAgEUdq/DCjsjVf+/jZWblkPQZWxaNFCnDp7CmzEIFLdu2OwsA8gQ0IQlqnglRffwNrVm5HJmBg2aBBmz5iKfoW5qN+3A7H6GgjJODSJ6uSzq2ZPbUmg0BE3aP9841fJGrIEC7KtshJLWwQjA0lwYDsi4lIEy2tj2CSF4M6/EJX9jkNKCyEZzoGZF4GtqlAFAVJnDH0lqS6cTv/Fttwn9PrVWyouuoiek0O2s+ZOKc2XA9tVQSlacv2NmHLaadQodqjJ5dlb+mynlyfOB/O7shuP2x8M5nhm3CundW0bbbVVuOf730PGFXDzrXdg4PBRXlKdWWqsfutvuO/uO7Fgzqm4/LqbIYXzWQI725WeRa4rHfOBY/N/eiWtlF9xHDRUV8EmEmBnZ8M00/j1j36M+r17oIS1m558Z8PPP4df+U/llH0y+FRg/mIc5Mx3N0+tC5b+Z0wNzEtIUjgjiIIlKEhBwCArjnH1O6H/7j6UtlXiR9dfgV6ii5oN6xDobIdkZfjqTZBYqEHy7CMRAov5Urmn16fK1p42EFA06JYDQ5BgyDJ6DStDXtlY7GuI4tW/vYm6lihSegJjxw/H4kvOg6YqUAI5+NMzf8b61RsxIK8Yp86cjqK8XPTp0x/N0Xa8uPx17GuoQsyIYd7CU3HOOWfAMlOQRIsZKMEL2bCOYJtWnBrgaHj/vQ146aXXYLsBhLVcnDztJJx0wmh0NjegZud2GLFW5FAbg5mhDggIjgMTCgSZ8hs6BJLEoOt3s6WWZBDJtvI1MJEiJVxZExWTuKD0M0+4d0pBLK+KYa0QgnzGpagZOBYxUUYylAOnoJApnNIm2zZCrkt/TEnP1OWbseeKEg0PvDV3el33J/Dcc8/tFUi0bs+RAsVLbrgRExfMhcLCRNnBPR5HAVHXdasFCBkIGAagN2sPplp/qtphiW4eFsuGxCxK6AvURGbhhf/5Df747NO46bYfY9LMuRAkma3YWbjPdpjsx9InH8PLS5/GLd//McZMPwWOSJIilINxWOc3lUrQ/yXWZCgwhQ+RtXYfTF3zfDI1Htqor6lmXhrLOTgOHMvAL+/8PhoO7CFmu/mFdTt9z+BfLk2+GLbKv4pPBgHh9PcqBhpa6LIONeeKBqgDk0oAGVLWpLwiW8lK6JuJYXzDDliP34/ezVW489ol6K26qFu/FoE4kYHO7J5J7a3UYEQGhXkHFE6g6iAHTMXA0yoi82I71PUrQynujaJhZUA4F6sq9uDddevR0dmBUEjBjJkn4tT50+E4GQTDuWisa8PDv3oCVsbBaaecgqlTpqG9I4bNW7djQ3k5OuJtkDUXM2dPwbyFswAYkCV+LtTUxpfHPEQjUJuyQ8ZchggZu3YdwNKlr6MlGoemBjBi6GCcOn0G8gIyGvbuRmddFWQjiQA12LnU56ywmQ2845YnhKk7mZciebX3rIaeS3IYIiC7YN24lpePoBx0u6jizaoE1skRiP9xKfYPGI24qCEdyAHyCmEoKqjlgSylAgcqHdO2EHB0FBnp5X0z6V9ZddXvrLjoVFZxtnjxN0rd5p2bI1Kg9Bs33oQTTpsL5RDPgJECgUANjeWgFg640wB3tOtCJi0m2eIYUQEUywO5VBtK94+uzUS6qQE3X3sNTph8Ir76rRuhhPMY1ZO3w8eVyuyt8dZG3PW9m5CfX4Dv3v5DSOFc1r8hk3yIa8GVXBANEDu6FEKTRS+tkBUhpMEVnBgovNdFBoQ1SYJbJn75o1tRu383ZC1409PvbvY9A58MPhlL+YXe6x13iLPPumROKpx3e3vSnWxKQS0myMz4ZCiUQXoxVG8vCuidiWN84y5Yjz+Avo17ccfVl6NfSELd+jVQY22QKGcgOizUw8SmqZyQhaA9CQb62aZKIZGtIEn9U5cDyO03FMUjxqKyuQ2vvf0O6hobkTLS6N23Fy780pno178AwZAAlqyUNGzZuBdPPv4CRDGAkyZNQGtLCxoaGmCSgJyeRjii4UsXn4Pjxw6n6nRayh8citPVasvUhbxkKRe3k0SFGaP2zhSWLXsTa9eWQ5UCCKthzDxpKqaMHQe9vQW1eyuQ6WiGo6egURUNCfLZLiRRZgSYLdynEAYXpuOGTHK4sB51VJN3QD+LzBiKiDoS3qlJYkOgCDhjMfb2G4GEFEBaywHyC6ErKicZh+QZbEZETKzDMZDjuk6gs6Otl9HxdDjW9Is3zppffdVVN/eK7li5sU8wr99XrrkRE85YAKn7wGjuIVB1Gukgkb6PDthzAWGK4zoK2XyZZD8YrzmMhARXhkvznjXCKYNX//AUnv3Dc7j/wUdRNGQI936YjiDv02DPjU7hHBErl72Gn937I9x7/88xcvxEiFKAxJ6AgArXIa+KSIb3ddiSnM0xez0IXqUTkwX5RzIgAapf/PB7aKjaS8/rTUvX7vXJwCeDL7TZ/tgv7uT1FX3aFe3KlJJzTasjF4tyCI4pwBQBS1ZhsvA4T+6ROetlJHFCtBL24w+gd8123HHFZRgcCaJm3WrInVHITga2SGEPCkdIzODRypBWi2R7SNJBkRUm75CmdXhhMfKHDIURyse7G7dg7abtTBo6qALjJ47FwkVzkJMrQ5Qz0I04VE2Ca2uorIzi0YefgePQfGWThQq0gAJNlTBpwngsWHAqAiGZGRmRAjmaDD2TgUSZ43+ojnGZ5g4JxvEmLBKYBkzLwfuryvHO22uQjJuAJWH4oKGYMn4s+pcUoK2pFu3NtdA7GiHaFlRJgUghJxtdRjfbS0AKquQVUBiEmudk1oQlwJBImdWCI8to1iX8vT6F8lAp3DMuwv6+w1hVFPcMipBhngGP+FL4hkJU5GHYgsVKNnMlDaF0p93LiG2VG+ruGFixcb/0/stv5Kb0XlfeeAvGzp8PhS2/s6EXRgYZ13X/7rruRlp0i4K7AMBEx7UkCt1kYjHs2bYVWzdtQdWBaiRbYyBdOSWoIBhSkGhrgaIG8dVrr0dx71LkFhYwg87CQCwMaMAxDXRGo9i1eSsef+Qh9O7XG1pOHmKtcbimA1GRUNS3F8qGl2H8hAnoP7wMYiAEUVK7wlJ8oJEXJvonZOAaOh665w7U7NtJsuI3PbOqwicDnww+dnv5hd3hnLW7T2nLLf5JrYlJZiA3kDJoFUvKC3xYC1PdZ3EVWhFS3beLIj2JEzrqgScfQsnutfj+kosxsqQINWvXQOpohOJm4Agm+yytCinZysTZKE5PBEOzfx0ZdjAXkf6DofXqg82VlXhr9WokzQzS6TQGDuyHs886DUOHDYRlkZqoBcdNQ1FdWJYJWQoCTg7WrtmGd99dB1GTMWjQIAwZ0h9Dhw1CWKNwDzWMGUwag10Ca2Dz6tuZPT20dJLKIKkyRqZGJpu3ckiKBsOQ0Bm3sOyVt1G+cRsrl5UFEcMHD8a0kyaitCAXiboDaKw8ACMVhyq4UFwuvc0G2DCvKDuRIZtAd5jHRHX0hkR6PTYcWUVtysX7jRlsLhwEZ+EFONBrwCFkQJ4ahZXY2VOHt1eSSQN+KO6umS6kDJDrJtDLjHcMa63ZpT/507Glsc7QN6/5DiadtghZnVH+UDOCT8J1N7muS6M2VVFwTwHcvq5jCTsryvE/jzyGPTt2IjeSi5HDR6GkoBhBRUUi1YGGumo01dUgmdaZpHfv4gLMOGUWJs+cgyGjxsAyTezcvB7vvvk6NpeXI9oWQ144gHBOGIPLRqK4qBQizYG2TByorUJ1TTXS6RTmzJ+HL3/9Gyjo1bebFhKXNmGhxg/xDH555y2o2rsDoUjkpiff8cNEH2a4/ATyF9akf/QLO+31VYWZvNKvVauha+Nq3mBLCSJpWVBUCRkW63XYl5Q6RrOtn7TypLh2XjqJMZ0tUJ75DYq2vonvXXYhxvXvh7oNa4C2BmgOJwOS0RAFla+SRQmW48BwXLiBMOxwHrTeA1CfMrB62w7sOrAPWkhFIChixowTcfIpUxEOyTDMDBRFhuOYkBWBVQDR8tAyXShyGAI06AatLClkYUNRRNiWDtcx2eJfJttBkgssZEXhLi5v0CV+0K18khK7LPHrmEzbiKpdLNOBJAdhWICm5aG8fDveevPvaGpogW1YzDiNGjYMJ44YhZLcHCQ7ooi31MNJxwDDYAlR8o5YDpbw9LouZFdnsXdHUKBLBiTBhi4EUZVwsLophYoBY2DPPQs1BX0RF9WunIGuKLBFlpFgq2Se/yBJbC42reqAxvI7BnKtJEa0V8N9/B70/z/dnm9ffR1OXHA6I7IsEXg+ApFBPeAmqJhXgDOYpGJjbc245we3oqqqGpd//QpMnXkyIoXFJMcEkQkAOnj92T/gmd8/jmu/+59oicVZeen2zZtY5Gf46HFIJVPYW7EJffv2wvHjxmPctFOQaovi9799DHf97L8xaOwJvISV1fmaLA/wxuvL8OorL2Pe/PlYcu2NEBWNCdXRvAkmmEfX65EBkSgLS9kOyDP41d0/QP3+PZR2uOnZ1Tt9z8D3DD66cTyWPrHg7XVjEnmlt7Qg56xEKBKO2WSUuFixKbowmVNAq3laeWbrvGlWGdcHipg6jou3IfT879Fr0zJcc+Y8nDRqJJo3r4fVWMWSmZQzIHE5CCpMnUIvCgkUwAlGoPXqjdp4Amt270FVtA2GZSIUCuDECWMwa850FBaH4UomBCfj3Zas+NlB5UoeL8gKFNA6R/LUg6h006uDZ8U73foavGE3XOciK6bWXYGTD6vn+VQeziE3iY3HoWvxYtkZE6jcW4033ngH+/dWw7EEBOUgCnMiGDawP4b07YVcTYSTTiIV64SeTgEWYwOGqUzpZiMBGQosyDAV0kFykYaGvR0WVjWlUDXuZCRPmoOmwr6IQ4IZzIOTl48MyTfTGFGvOJ9VY1EIzpv0plCIip2vjaCtoyxaA+3Je9G/pR43fPtaTJlHpaUUvjl43eQZCEDSdR1REBBxXVejqQNvv/YK/uf+n+P7d/0YwyZMYkaZkv90HZQcFmwT/33LrWisrsQ9jzwKOScXNRWb8McnfodNmzYjkl8A06D7aGLWnDk447yLUDh4OKL79+HGq67E16+6CrPPPZc9JxRSpDwEEZWZTuPNF/6E/33ySfz4oUcwcMSIboIUHvllPQNK/lMXMiWQTQP333UbGg7shijLN//vqgq/msgng2PJtPf8Wic9+qgiTFwwA3LwZw2meGJnfiESugNB4xPBJBo7Qkt/ShCyCAIJSPNRIyzWzcjCQcDUMTKdRN5fnka/za/h3BNH4vSZ09GxfQtS+3exDmTSn9ddEaYrQ9Yi0G3AFEV0QMPmqmpUtzWBRCNy8yIYMXwoZk89CUNGDoOlJ2DJDhyZSgypypEMOxllqkjJkgJf47PpOUxIjWL0tJLnZatMzYkt/rM9ANkRmXz4ykEyOKRqkQHJO2tZG5lHBgKTiyCCYatxkrh2KORFlUcK9uw6gHUbtmDf/kZ0diZgZQwERRlFkTyU5ucjLxRAQJWZh2JZGWgSEIaFcKYDiqPCIrKUU6wDOSWEsbUphXUxC7VTT0Ns/Ay0RnohLkqww/lATh50iZLPB4eAMpPO5kbwpj7K1dD1UZ4mV3cwvKUeod/fi95tNbjhmmswZc4Cin0xraVukkBpAVS67wQEOArzjiwLD//3z9BQsR0//s1vACXAmvYoREX93bJtQtKTuPmKqzB9ykmYddpCvPX6X7F82cuQJRGz5s3FjNlzkIjH8cay17Bx3Tr0KumNhWeciemzZ+GHt9yCwcOH4Vu3fA+mqDAPiWWYqOPcsdCyby+u+9rluOLWWzHn9NPZfWXT8rxcD3kGdV5pKZEBqybyyaDHxsAPE/UYqo/njaNHj1YrKir+oRHo49n7R9vLtFWrggpKlkTzet/WJMq9OgVBJP0eKDTqkY+oZKthmyphOBmQVAJVqzBBNfZ/B5RSVGwbw1IZFCx7DoM2vYjZAwvw5f84A/Ed2xHfU4GAaDM9JVMJIOnIiCZ0VLa0otMwEdVNtGVSyCkIY+LkMThp8gno37cEmlfdQ6twSliDygqpusQLhwjUN+uNz8wui3l5KF/Fk/HjbW3dPIGswWP6Od0f/w+OW6PBKhQiOqgvxBbA3oAW1k3NVKJIYoNyDjKbuEZeD63zDcNFS0cS+ytrsWv7LtRV1aM12g4rrUOVZARVFZLoIqhRw5iDYUU5GB6WIGZEuHIQuhhn9fpxIYJ1NZ3YaslomnsOmoZPQmuoAGnqRo7kww1HkCEyEg+dIk1EwLwD6maWiAxMSLaIPN3BiJYG5D5+D4o7qnHtt6/F1FMXspnN5Pl5G91gnRxD13VVVhbLoHTwwE9+jJa9e/CjRx8FFBJNJA9SgCmQ2IeNVGM9br7yKgwdOhTNLc2IRlswZ+HpWHjOecjv1QtKKMyS2ulkHFW7d+Plpc9i45r3MW7ceMRicWj/N8Py9p/fBzcYhg2FVUXxa7HQsn83rv/aElxxy204ddEiVqLK7k9WC6lbnwGbU01zJrJkQKWlinzzU75n8KFGwieDj2Y/j/jdC8aNHBLQAvdokjzJFfFEsjn2s2Wf4XDz2W+v7R1X8/+rOZj39USoKCdGhk2TmR2l2m7XoCAwfzyo7DErD2CLAhSvrputysgzkExQarZvZxKD3n0dpauextRCFVd/6SLo+/agaUs5wjI1jwEJScXWyjociMaRklSkRAG5hUGcMOF4TJk6Eb17FcJ1TdhWhjcXedEbl8WGs8qWnspn1zr2oHeQ7enl4mlk0LnYMp+PlV35ejvq1hjMV5jZ1udsnsAzNl5SmXkIWSWGrmPT77wuBabdT16IwEpJaQiLLKvIGCbinSnUN0VRX9eElqY2RKNtSHZmkEqkoMc7MKwggGn9iwCK0CtBGFICcC20uxGsru7AHiUXLad/CVX9j0N7IBcZUYEYKYAdykGGPJ8PVEKx9g1P8p8a6ailj5LcOaaNEdFaFP7uJyjuqMHV192AaaeezpREu3EjE8V1HUcWeZKIS0O7Ll7907N4/vHH8PBzS6EE8yBKGo/Xkxuhx7F3/Vr85NbvQ1JlDD1uBC5ZsgRDjxsPQQ2xRD0J+tFKnoiT3Q09iVUr/oo//eEZJFpjrEronocfRF6/AcwzICVXVsjl6tiy6u/4yW234fZfPITREyd5RUSenhGFKy0bdbXVEB0eJvogGSiKfNOTfjWRTwZHbMU/pg8umDTigd6RvKsLwrlyTWNzKiUKZ72+bgvpCn3q2xkbth63Xwr+JCpHFqbU/ECKSh+p0sVkEQ9WOukqPM3JVthMhI36AbjRyZIBk2fz9IXo+1oST+C47WsRfv1hjJfSuP7ixQh3tKF2/WqoZOBVBXtaO7DhQD0SSgD9Ro/B8SeOxahhJSiIUNiHr8ap14A6WcnG0v6pXFKk8k5BYn0KvGuZErXcA+BjFXlyl4d1eJyEIki8l4FFzL18hxdD4QMq2R+H5UBoSI3HDqSe6fk9ZAMZ93klsa5ATh3pKWV7brM5Ck9Jh4XVHEiUbLaotJPYlE6EClkJP4l5DY5F9fIRvPaXZXj/nRUYP7AYk/sUAnEiQgmmkgJpFjVbQayq6cSB3BK0nrEYB3oNRUzNZRLcQm4B7GCYLeG7Bsx0m5aW/Z1C2FG1jQAEbQNlrTUo+d1dKGmvw9XXfQdT5iwCJQa6bayCVgAVQLlUs+uNt3RQs283brn+Kpx7yWU495LLAVsGSU8ICvD+G6/jud8+BiudwTmXXowp8+cjmF/E+j9Mw0FAptCdwVVHRZUVE9BhaVJdtLoKr/zxWaxZuRL9hg7BkuuuQ78hw+HSQkSSILgZ3H3nbYjW1eDuXz0GJRTh4T/GxdQLQkRjszARJZCzZOCaBh6gnMH+PZAV9aYnV231E8gfYnF8z+BTMsWnnTj8T0NKSs9TBUmoa2q1M5AXv7ph09JP6fDsMBe6rtSxftfU1mDu/U0ITEoFI0KHTUaeh1s+kDblIfauE+Tra/qdzGb0UuLYKzE1HYQlAZFUJ4Y37kD7Iz/E7KCDmy46H70FF5Xv/h0h14IhONjSEsPGpnYUlA3Ht2+9GUi0wLE6WLiFLIpruVBlDZaeBhSRN1NRiaTpsERiRqYRlCyLAZFZ6WwtjkcA3qKf+QGuCJUmmokm7JAAwbQQoimMrKGVch+0fCZrQqEOKh2lPIAAWZXZXGPaKAxBHbEknyDJVBLLpSZY47DXQ8Zx4uh1VfJQWahADWAU8+YMxZLwigzdsBCSwnANCS++uAzvv7UCk/v3wbiBvSGnUnD1DOmnIiEDlTrwdn0nqvuNhr7ofFRFeqNTDMGWI0BuAYygCoPKZF2SgeZEydIoFBoiQ+rpQDEyB1iif3i0GoVP/ASlbXW48ts3YPq807tCRB6XEBnQNDXNJZEmL43ClIjMNO655SbUVzXg9h//FL0GDETGTOGNZS/j2d88gn65BXC0MO78zW8hBzXmIZESKxMjtTIA/SEjLmmAHGCLd4kUbeFgy6r38Luf/zegp+EEVFz1vVsweuJJkCwJ5e+uxL333IGLllyC8y5ewp8V9nB2k8KwLNRWVbLQJVsEOA5sPYPH7rkLlRXbIWraTU+v9ktLP8zm+GTwKVnjeSeUna1CeDASCBVEWzvWQQpe8ObOnUc0mORIT3nWik3nNmnhe5K5xSNiNAietZIqIHmBbhGTD909vZ31FrAuWW6GSY6AFtQkT1DiWhjUshuZx36KMbEaXH/uIowuLkbjhrVwY60QNQXljW3Y2JqE2qcvvnv7fyLRWIl9O7aitq4esYzJvBJVVKCQB+BasGioujfRSnZ4OILCDPRzdlo6mwbAp7h7Gzd8gYCGsr59UDZmKIQcieU6ghbX/bG88+5aVBPBkQQCEYyoQk8b2L1zL/bvr0YqY0KUFB6j7qahyXMGzOfwwmieloZHUQ5JKVD5KVfkgyFTJ5eJSCQXg3v3x/HHj8PLry7De2++iVMGDsAJA3ojZOmQTBNx3UQHgIqYjr+3GWg4fhoSMxaiNlKAhByEpeQCufnQNQUGeTI0lJ7NGSbvg2wkE8Jgv/fcJ3aOETODES3VKHjibvRqq8PV19yAafP/gQzIOlNyhshApc/zwBxVkhnYtmsOiPAAACAASURBVGYVbr32O1i8+BIsvvIK/O7x3+DPzy/F+fNOQ64SwFur1uK+PzwNWQswU003RjR1mHt2onnrZqiahuKTpkIo7QObNZDRw2Rj39ZN+H/fvAo3XHUl3lj9LnY31OFb11yPiWMm4L47f4SmWBS3/+Je9O47lBc1ePTLbjtFhYgMqis93VhOBlYmjUd/cidqd+8iQb/v/HH15l8c6ffni/45nww+vTssnDF93PFmp9NHUpRNy8rLWz6tQ49+brvaZ6R2Xr0h/jwVLOoTkwNIUrW7QzKUAiyJrygPt1Flitc2zKSWGYGwuD4lGEXkWDbKOmqQ9+ofUbx5Bc4dOxjnzzoFrds2IV57AFpAw+amVqxr7oRU2g+XX/UNPPW7R1C5ez9I8M4KBCEoKlWgwjVtyhcz9U5GBhSHpxJJh9rTuPQCJW1pRU8NcBS+YkTRtYqlOLkBKd6BcWPLcNGlZ6O0MBeSZTKpB2ZAmbGkkkgiAgG2YbM+hZraJjzz7Is4UNkAVwzAIR0dReGeg0jhMx5yYuaIBefpN1ywjb3GSk7pZwqLkGgbn5FsSxSIt5jMhGwYGHvcKKT1FJor92Nqv16YXFyMAPmMNMbTEhCDhPeqWvB+RkbrjIWIjjkFTTk5SCoSLC0fiORBVyXmGVBlFd0T0jViIoDUTMdCeNkbyz2of0oG5Blkm9a446QzrQ4BgSwZ8OvjcheCkcQzjzyGFX9djrEnjMXqbeU49dS5uORLl+H5x5/Cxi3bcPdjD0HLyeWNdY4BobYK6x58EPkkDUKPzOjRGP/Nb8IsKIYkqXTDUVWxA9d/+XLcedddKBjUB4/99hE0VlVj7NAR2LyjAlfceCOmzJnDNKPYqMxuZJDtM+hOBhQ2ojDRw3fdgfrdu5GG+53nN+7wyeBDvug9MAGHMxH+60czAhc+95xUe/yUb9Ra6g8SSk7ftBBgwnJUJ8TSrvTF9AzB4a6DhQm8Uk3OHrSKJrVPSgqqENMuhlsJDNj4FtyXH8cMJYPvXv4VGHUH0LxrGxRZwK5oDO/XtyMdLmA16I2NdXDlPBQMHAahMB+GyJU7VQeQHeqg5UaIjCmTWWBJYZIrprpWBaYgssY4nYThqHqGJTrpumxk2psR6GiDmGhCaZ6Im751OUoKwzBEG4ZMsg1k3MjKuVwyQlCR6LTxq4efQH27jgSCyOs7GMHCYlb3zvIYnoYPaflodE50MMdmiWqWRGV5FSrLBXSbJJQdkKYb5TpIboIkJoR4B4yGeoScNKuyklLtmD6wFNMLiyBaSYaxI2hogoy/7qzFJqkAbfPORcOwE9GuBWCQJlyoAG44HxmZynMduJTsIUJwyGvieZ4sSR7WM5h3elexgMelFCKi5EiAuo+zXiMnQZuJ4GXa23Dfbd/D3gO7MPmUmfj6NdchoOXhifsfwsbNm/HfTzwGUdUgkiaTlUZ81Ts48PSTKNN1htGuYBATr78R4ogxjGypUqBm927c8OWv49Yf/hCT55+MugP78Ouf3IXWphZMmzcXl377OkDh+zzYE8FJgZGBabIEMi89ptJSG7ahM8+gZucOOIrynT+u3eqTgU8GhzN1X7zXZ7/9dsAtGHRFnRC8vSVQUJQgPUsWGuIRluyXvKuI5jAQ0AKUjCcZIxYuYmWc1DVL3clByLaMUj2JUc3boT/5C0yKVuG6Sxajd8BF5aY1UB0DVbEU3t5Xj1YxAieUC0MUMOWsSzFk2iykQxoSpM/jCpB1ExFFRkijObler4BD0hEGkzEmw2/LCuKmieZ4AgnLgsVIwmS6NlTqGk6nYe7djYq/vgAxegCXnnUq5s+bClsyYBGJOTYkljMho67AtWW88cZqvLDsXXTI+Zi1eAlGnTIfSUVGynWgKjLsdBphWUOOpjGviqZq8SHsJKfhwJYoUUzT2Gw0t8eQNC2kqMuaSIJIKp1EX8FFbPMGVLz+MsKZGIqENCb2L8SUokK4eidMVtkTwA4LWL67DgcKhqD9tHNQ3X8MOmmkgCjCzimGEIwwD8eSbBb2IiVQImk+e7773eVxlH/lGWQrx7yIEF0CrRdoyU7j17zKHe+eGwYq1qzGr+77KRTShFIlXHPNdRg5fjL+98FHsWHzZvz00V9DJe0k1rloIrVtPcp//SDKMmm246qCYky54TsQ+w2DYFOvgomaPbtx45Jv4vvf/z7GzpyMv/3lz3jlT0uZgmmgIA83/uAH6DO0jM2a6OoW75bVsk0L9R4Z8KYz7hk8eOcP0LhvLwxF+s5zq30y+LCvue8ZfPE4gF3Rhc+5UrSs5vo6Vf5ek5JbrLtB2BRzl7iWEO9Q5bIS3HgcfiMyoFWnzuamUzjE5GJoLoWbgtB0Ab3SbZhoViH51K8w7MBuXDx/LiYfNwT716+ElOxEc1rH6zurEQ8UocPW0Gf08Zh73X9hh2FhX6wVSQoHWTbyaWB9KIyQRnX7JIzpGTfBgUmkIElszkFzIon2jM5KXywml0EyzoBCJZT5BSiTgA1//B0aV/0V4wcX4Nrrl8CwE7xfgrwM0kiQSeKCkrAq7r7nIdQlBPSbugAzvnoV9toi9rS3I+WQ9+MgV5RQGsllk89Ex2FDZZjsgcCX0jYliAG0JRKIJtIwJRE6GW9JYmGlYDqN8UUFGO4aWPvUb9Gy7l0UZDowc2Q/jM3PgWsm4UpUNRXCm9Eo1kczaC0pQ3rB2ajI6494IB+WEoCeW0JaGN4weRcZJnfqlV951VSMQ7uNCeoig+YqFPz+HpYzuOqa6zF93hndPQM2jZR34rmy4zhc0NTbqBooWluN7153Pfr174dvXnM1fvnAL9BYW4UrL78CrQ0teO3NFXjo6T90IwMb0ONo+Otr6NyyEUogiMLpJyN/8jQ4Uggixc9kF3sqtuCar3wFd//oDlTsrMBLr7yCefNPw/SZs/HA/fdh0PChuPG2WxDKKeTNg16fAc0xYHOxvaYzegaoc5nmIJOcxYN3fB8N+/bCVGWfDP7F17wnNuDwVsJ/x1GFwKI9e7RMTPl6k5Z7b1RSclqpDNGhyV0CM4Is6ckqYbguTk89A2ZcaPXN5JV5HT8TrLMsBA0RhYkMRtot0Da/gvDGlSisrsac8RNwxrzpaNlZjlRNJZIusKxiH9qUInS4IYxfeDr6nrcYK5taEXVMViZJ3bp9QhEUyApUFnsnsTg+U5gaoGglrwsy2tMZtKZSrOnKoJQiLUJtmiIgoCQcQFlBHnpbSRx46QVse+EpjBtYgGuuvRxqkCqHLBZqkmg1LQKqIiIeTeL2O+9Dg6Hh5Mu/jV6zFuGdhiiirI7epeIm9M3PRY6skB8BifSNmM4+E6SGRaQiimhLpdGWSsGUZeYhOEQEZKgzBgZF8jA8EsRAM4Gav76ErX/+A/pbSZwyrDeG5QWZ1HfGsGGIEbxYXY1KU0aLUgh72lwkRozHATUHTcFc2H2HQLdpygJVSTlwNB6m4tLgdF84ef7TBLJHBiWUQP7W9fj/7H0HnBXl1f4z9fa7fdmlgyBNBSuCRiEWBFvsJjHGmJioMTG9fClqin5pX2Ji2pdPozGKYq8oiFgQxQrSe9ll+97epv//57xzl8VgWHUViTv+SNhl7tyZd2bOed9znjL9pJ5kIFoDQq1PME5Iv7u8cenFxj9v+jUeemQ+rr3+FzjoqKPQ1rQNN/zoeyh0d2HwoEZkSg7++39vRjAUFT0DelSsEiSSGc8mAD0Ij1YNhCgi5jMtmTwXb772Im761X+jLhzEtm3bccJpZ+JTV14FTQ3i0bvuxB133IJv//C7OPK4WQIBRuOvaLBtG6qiwjIMtO5s4qeakUTlZHDdj9GyeSNsbSAZ/LtANZAMPlRhvB9OhjwIPvG5y5qV2M+Scri2yA5iMkxNgB912+OEQKUIajiqNHmi1UIfvnpXz8CC4hKUUeXyBDVlhxlFHJBMILlgLhp2LENNrhvVUDE8WonPX3IBjOaNSKx5k7uSj63egFbE0O2EcciZZ6Pq1HPwbGs7zABJEEioDkVRHwojQLV4eqGZ3CYMcVgAQlGRNUxeFeRdj2WeSR9JJedix0VlMIBhNZWIuQVU2Xk0P/kYVtz1Dxx2QCMuu+Jz2LRpA1a8uRJtXUnWLwqHVIwfNwoHjZmIG2/8G1otHcd87ssITZ2Jxc3tMMlRzPVQH42gNh6GaxrCL4Aip2UzDp5Me0hrP23Z6MhmUXI97mdIqsy9Dz4vNYARtTWIuwbqnBzalizAG/PuwNBSAnPGDcOQkAq6kpLhImHreHD9BhQCMRSVOHaGq1AaMRb24Udja+MIdNUPQ1GOsPor30NGFAljHLqbLDTNU/o9oIn2nAx4AVZeAJA0H7eUiGfAm8sS1dmuDnz/yi9g8lHT8Nkrv8aMYsobme4WPHzbrVjw+GOoqGvA96+7HkMOHAMoOjxCOcni3tmeIbwhbGrc+7wQYkdbNp586H7cNfc2KIaBiz93GaaeNBtqRRWvXAud7fj5Nd9FtDKE7/3kN1ACYZHsiIHskyCL+Tw629u4jU8ZiPpHnm3iD9f9GK0DyWCvb/hAMtjrEO0/O8xY7KlafOuFGzz9t8loba3p6awtVFQpAQhQJM0cmQjl4/HodRTQ0r0/CiIZUJ/AhuJSs5JCooc6t4ADu5vQMfcWjEhsR01qCyaOHIbt29tQIwdwyWfPR4NkouWVF2F5LhZs3IpmJ4yEFMeBp56O6lPOwtK2TtiqjGAghNpIBcJML7DEUl8mTSCFQ5WtKcg7LqthFql3QCJtnsO8LsksoVpXMaK6BsRhCzoGYihg82MPY809d2JMXRzBsIQdW7chFAxDClGQlyDLLnKZbtSEYlwmb3N0TP/cl6EeeQxeaEuhpAYQVnUMqYhDpdktNVFpxCgRcbOXtIFU5B0HnbkicrYDj2asEhAkCY1cDlWyggPqG9grWXNLqJZKaH5uAVbdexdGG2mcPm4o6lQKuC7sQBirW5N4oakZkeoGxuNvyxaQj1Sgbfg4aLPPxtqaBnQESS00wImpDPFlUToi9tI9Z3TVHtBEe0oGVAOTuMJFwV8hN2jPdWViIFNCLh9nyaIF+N3PrsOfbr4VtaPGwuDmuwLZNCA5BhY/+jD++r9/5ibv5V/9Co76+AmQtShkVWd0FekxkT8ELeOY42eXkE93YsG99+PeeXcxc/m6n9/A6qaeHoLDPAWyVzPw1EP34k9/vBF/+PtcDB55gPDSYI08cY2ZVAqpRHdPMqDn1bEM3MTJYBM9OwNlooEy0f4T0N/LmR738upPb5WjvyxEGwanfFIOYes90qfx2a+0BFBIPpp1a0jEjGZRVEDaezJgVifrE1lMciLIZMA1MarQhODTD6Lu9SVoMHI444RjcOzHZ+L3v7kRqW1tmDb9CJw1/TC0vfwCcvkclrZ14M2uElJKJQ48/UzETzodr3akoGg6KmNxRIlnQOUVyYZNGkCkiEkrEU9GTgKSxSIyJRMOBVySqYAL1bUQlYEhsTDqg0HIlg2NpTMK2PToA9j6yINoCDjwnBwU18EBw0aiZkgjtGAYbR2d2LJxE+SiCV0PYaer4ohLLkPw6OOxeGcX1FgVasJRVBOXwTZFaZ6a5jQDpZWXLLMAX3ehhLRhw2buBq1kCGxlIg4bo6qqURsOsycvXINXLTsWzMeWhx7EJM/E7PGDUCPZsFwXpUgUT63fjO2pPA45/Agce/yxeHzxYry2ZgPao0OQP3QmOo6ahubqYXDCVSyQR41kCv2qnwxM1beF7NGY6NVA3nMyoJYHtWzIwlmjebXoKHkqazT5BL8//e63WL/8DdxIQnV6kHngrMvEyCwbXc3b8Y0rL2M/h+5kN8ZMOhizzrwABx95DFSVWNeukJ6Gglw6iWVLFuHxB+5CqbsLsVglDFnDL/7yN8jhOCR2hyO2tw1ZdtC0fh2+ctkX8e3rbsC042ewpDgBIoiBTAuZjvZ2lAr53ZOBWcIff3otrwwsdSAZDJSJ3kuE3R8+63nS2c+vn75a129P1DaOyrgBbmYKIpYL3SHNTpq9iu6A7Ag8hi17cBWSHfYNQvZyrZQ36AiWSnR/CQHbRa2VwQE7Xod5/98wum0bTj1+Gi649HModHXilZdewZ233IFhw4fhyvPOgdy8Da3bt2JLqYhnNjSjXYljwlnno+qE0/FGVwqBSBSV0TjcosH6+8TgNchrmfHtpH6koLNkIF0yIGmaaNj69COpVMCwqkoMq4xBLhUQkDUYloRCoQPbn3gY3U89jmEBB0HdwDmnzsbU6UdzkkQoCLtgonlrC+6+7Q60k26QHsVRl14OfeqxeKG5A/H6IQgqCgKuDY3kq22TuQS02mLlfFVFslBCghvGAS4X0eKL4LGULBtiAQyriMHNF5ivQNNjJ9WG5vmPoPjMcxhbSGL2QY2oUWhqLqMrEMBjq9cjYZg44/TZOHDMSJQcE/c9/ATWdpSwWW+EO+csNB1wMDKxeth6ECVVE8QzJsbRikkQ3UQTWZR5RAPZwNjOJlTfegPqEs244stXe9NPPJUws22QUARQCyAs1pJQHMeRiYPBQOL/j6i6/sfXIN/djutv+j3X7R32HRD6RNSrsLJpfO2LF2POzGNQ29CA/73tdiQ7c5gx4wScde7ZaDhgBFyjhK1rN+KOf96B5W++hkkHjcNXvvA5zP3nXCBUgauvu54FDanPQoZAsmQBVgkd7a346qWX4ZKrvo5Zp5/RUyZiZJxto7WlmeWxiZ8i4HLkcTGQDPoawvY+HezrkQb222cjcNKyHUfkw3V/3+LIB2WCKkqKzX69YsW/qwBU/ltZgoc5Az5Guy8nL2wqPbiEboSLcKmIEeluxOffhso3l2B8TML3/usq1OgB2IUMkpkMfv/7m5FLW7jo9DNxUF0ttix/GTnLwJOr1mObWomxp56HQSeehrWFAqRIhDXsCbGksAsOYeiFzDUFnnzBRKJQgq0qTJJisx3XQdDzUBMMoiEaRZAylkPBWkPOIOXQJmSWLkJu4SM4JK7gC5edh4bB1UxyovISAioc00NEjWD7lhb88Q+3oMUKYNqlVyIy9WPYmCpCjVTyCoXw/FSjF8bvxBugFYGLkuMhXSjCpPaGrHKAJOkMrWRgUCyAhsoQdDhQTBeWEkTCLiCf3Alr6bMwn1qAg4wkTpkwCHFNQx4BvNHajZc7uqFUhXHJp85CFQE8JRltWQNzH3gSO60wOg+cykS0HZV1cCtrUFTDRGZgpVNXtmGRWFCPtpS4X/QsRCyTherif78ejcmduPyKK61jTjqjFZL0puO6YUmSJsiyXOV5nipJkuK6Pm2NocgeHpj7Tzw275/4nz/9CZWDBsOj5MciUJSIHMiOiR99/SqEVeBb1/0UiVwJryxciMWPPgbLzOHgyRORSaWxds0GDB89Fh8/40wcPH0qJ/CvXX45Zp1xDs679HLYlNhI34nuMYFRnRJeeXYxfn799bjmFzdiypFH+cmASkUe8uk0ksluRhERsohE6yiZ2GaRoaVUJnKIZzDAQH7bV30gGfQlCn6I9zl98eLaTN2kO7YiclICukSYdi2iwGRDk95qQ/1zETQ79FQqRzioo9l402bgH7/GuHwrvvyZc3DYcQcj396EaJDkGyTccefDeOOVdZg8eiwu/sQZaFr+KhLJBBat2YDVto7xZ16AUXPOxdpMGoauwqJACkXg/7kRKnHwJ4RNJl9CgcRs2CjdZWRLwPVQqetojFcgTLnPJukICQXTRUsyB8hZZJ5fCGPR4zh6UBTf/Nbn4Th5eI4JjWa27McgwSZ1U1PC9T/9A7ZkgOM+fzWqjz8JmzImLBDXQYElO+zmRQGXZfIUCSXHRTJfhEEzcEUVE1KaSTsuqmUVw6sqEFKoPGVDc1SkbQnNuQRcIwXljZeQe+JhHO5mcdKB9YjIGnKyhsdeW4FEMIzxRxyCk2YeCamUgkpyGIE4nnjyBSzf1ImN0RFIn3wuttUNRqmqCma4mtFh3MMgKQqutQvxJKHpuisZjO1qRsUtPxfJ4ItXJKbNmP0EAtoaWZYneh6mS4rcwGY2kiQRUoeCKyGmaGvesgE/uOpLmHLoofjsFVehqmEIAxEkjcp4LmAWccdf/4hH7rsH/zf3TshqAE0bN+PJRx7HytUr0ZHoREDTMLihEccccwyOP3Em4g11aN2yBd/+2jfws1/9FuOPnMaSIAxoIv6Ia2LLmlX40+9/B0XX8ZPf3IRwvKLngSZob3dHOwoF4tULdJegpkg9yYB4BvZAMvi3QWAgGfRPjNwnR5nxyKu1pRE1v2zxwhd1qgGN4HqW4UCiwEGzwn6+uxyeKSjIMgKOhcHFLAavegWhu/+AKUETP/3pf0HSCjBL3VAVD5oWwvLXNuLvf7sL9fEaXHr+OQiaeWxcux7Pr92MdbaGA888H6NPOxerEmkYmkICEpwMqAZN/5mqhJIL5IoGSpbD8E3LI+SQx8SyuKqigfoMXCahZrME07Z5BUE1/JBWQm7xfLjPLcCUKhXf+OalUBULMklocJhUuHdCInKFtIkbrrkRnVIMR19yFSpnzsLK7gJMicroxNqmlYHwUyAWd9F1GdVUIEw7lY16RBI8BGQZwyqiiJPYHvUZyMLRVNGeKSJpFhDw8lBeW4L0/Icw2c3g5HFDEAho2NyZwuvbmuFWVuC8i89HNEolkCxUlsSIYuOGnXjgkSVojY5EctYF2DpkFLqDYbhVNbACEVZGFZ6iTN32kwHV6EUyiFoWDuzeicqbf8bmNhd/5uI1R0yfdV2wMpbSAqE5siKfBAkjPdejVQJDcIXdp3iYPKuEpx68B3fe/k8EI1EceuRRGDZyNAbV1zPHwy4V8OayF/HSkucwYtQIbN2+A4bpobJuEA4/choOmzYNxUwWS5c8i7WrVyCb7EJ9TQWqKipY1nv2GWejgZrD1I8wTHR1tGLd6pVYvvwNVFTE8eWvfx3jD5vKI10+p1Iuj+6uTgYb+IhawUCmBr9t9JDOLE375t0DQnUDK4N9Eq3fzy/1POnYpeu+sUmPXG/VDdETJnn8utADIZiGcH96i8T9ez4bto6kgODICHo2GovdaHx5Eaof+l98bEgFvn3dD1HKtEBR83Bhsg8xihH89abb0LS9BcdMPQJzPjYdG1auxvwlr2Czp2P82Z/EqNln483uDIrUB5AoRJMoEfW1JfZezpomSqYr5J9ZqM7j+n3QdtAQi6E2EoFrWJBUsn9U0J5JojtXgBcIIGgkIC17BsbChzGlPoivfu1iqJrNzFTqK1Cd3XJMNs4pZlz86qc3YqcZxPFXfBORGSfixY4EXD3GpSGyd6QSFhHgCD1E55U1bSaJsR8cM/kIdutiUE0lagKkp2QKtrSiIZ000Z0pQdJlxNws5FeeRXbBIxjvpDBr0lh4uoYly1ejrWBg4uGTceKcGShYCQQDHiyDNI10ZHMO/vjnuShGR6Hp+E+gY8LhaKVGelUMVqSeS2oUtgldJGjDEvcRyKiTtohlYWznDtT8/QYMSjTh3LPOWXjE1BlfqGwY5QYqAxfKknwegInwvCg7ifkTAGrSMlTTKkF1bezcug33zJuHhYueQiaTAbF/iYdBkhARTUXDoFrU19fjuJkfx6TDp2LkuPGQtRApl7D+FGDByCWxcfUKvPzsM3j9lZeRTKfR0t4NttLQddh0TFXGAWMOwOxTT8Ups+cgWlUFKRgVvnNkqmPZyCSTyGUzfMGUDCh5CUFaF45VGkgGfXzz+3nu2MdvHdjtvY3AtdfKp597yVmbELmpU442JKlG6rgsvUySDDSLpQZvf99cSgYs22zKCCgOavNtGLTsCQxe8A+cMLIeV3/32yh0bYes5OEQ4kgKQ7PieH7Rq3jwkfk88/38p86HWrJxx4Pzsc1RuIE8Yva5WNGdQpFIWgrRqEhCXyiRZm0DOcuEJ2tChoIIYp4LzTLREA6jLhRmNVIipTHhyzDQVSigyIJyEmqdPPDsAhhPPYTJgzR85RuXQNFJlJMKPTIbvrDJvWnBLMr4xTX/g04niOO++FXox8/Esu4MDApijig9kIuZI+koWhZytFKhc2UfYyoh2exaVhEKoDoSQtgx+Pe0mumwbCTTVHLSQGYz1WYC2svPIbPwIRzoFXD8pInY2tmBTe2dSJVMnHPeJzBydAMcrQjDKSBAK58SkC16+PPN81BQB6Ft5rloHjMZiWAExbAGq7IRthQiMi8ckqhgv4lyMhCJnFYGYzp2oO62G9DQ3YzZJ59897gDp3z+kJNP9hzHOUORlUvheVSQrygng7IuK4uYs1cAIXxo1m0j2dWJ7q4u5LMZVrTQdR0hVcWTjz2G5cuX41c3/gHRQfWsjssFKyE7S/54PA6S42DVCy/iZ9f9GJ/+7MU4ePKhyJUM2JbDMNNoLILq2lpEY3HIgbCfBIQSKpWHMuk00smUMDKilQGjm/xSEXE/DNEzGCgT7T3k9He82Ps3DuzxnkfgpBdWT9mqhx5OxxuHZcls0NfMp/fMYtkWITwkbB/7b3trMqi3ulC7dD7qn7gZM4fW4Ttfvxq2kUQ6twMbtm+GrsQwqn4CmrYkcMc9DyFTzGPalINxxgkn4a+33okdhovRJ8/B0NlnYUUqCzMURI515ki6QUKJZn0kfUzxg5iqXA+2maBUpesYHIsgRLNg2wY0DSmSMM5kUSQYbTAMs2RimFOE9OxClBY+jEMGB3D1ty4GRVVPdpg9zX0VV4GqBpFJ5PGLn9yIbiuEEy77KrRjZmJJZwJOMAaHVVRlWJKCouehYJqwXPJbEDNxCmoEb60MqKiNxxBwHOi04FBUJGwL240CCh5RymRENAWxdDNCr72A1MKHMEYyMWXUaLy6bj2KioJMqYhPnX8W4hUS2hLNCFVH0FA7CAFbRrro4Hd/uQNydARaP34uWkYfgoQWQjGkoVTVAEeJsM8DudURz4ETFemp+jV/CxN7BwAAIABJREFUWhlQMhj0j1+gvms75sw6+da6rtJlM665xoNtHwtF/TKAEwFU8SrQf4SEOpFvI81qr2SLSishkiOhjr8v320YfC+2btiAH373e7jgggtw2qc+CVIcZMYwi9IR1JlSNTkH2fjTDb/EuvVrccOvf4143SCh9UQ9D4ckkvxzkFX23aBGOl2fRBaqpEvV0QGjWIKmUb9G+Bj03nqSwZbNNFn4xrwBobqBMlH/hcR9e6TZjz8e72qceOtOrfrMhByUHZ10kQnJIc5LaPWLH96PZMCzQ0tBEA4GORnUvL4YkXt/j2Mqg/jJ978Dx00DgRxypTyWv7YGq17aiM5OA1nDYwG3aFDF2MFDsGHzDnTaEqacfhYaTjsPy6hnEAyiCPIUoNiiwDBNFD1CxlBAUJgwp3gOIoqCumgYEeIfsKw0WLm02ygh5bgwySxekhF0XTQWMnCffQrG809iUoOOb3zzs8ytIvKcJbSe2QDG81TkCjZ+/pPfImVFMP3Cy1D58Tl4MZFFXgn1aOGUJBKes2DRSVJw8uW0iWUc1WXUhAIIyxKL7dF9IVG2tmIenTQXJqtKCmb5LEZJBtznFiL17BMYrTmo1nU0JVJwQyEYloHqmILhQysxfvI4NAwfwvdSMYGWjgz++s/7UYyPQuqUC9HcOAZ5PYRsUINR3QhTD/sq4+XwXW4diTJRzLI5GdTc8nPuGZw4c+ZfLv7Wj6/kXpBhjEUgcCU8fBKeV8+iFOVegZ8MxFHEzJtLMmQ8xDUZrknxbJ18Ko1SETfecD22rF+D7//spxg+drxQJ6WbRasKyWG+xytLnsHvrv9vfPqSz+HUc89jchrV+tk7gR3MmHPOiYDuKXMpLBuubaGzsxOlUgkqN7iJSfOvbbKBZND3eNW/U8e+f+/Anu9iBA7/61+1kR879ZrltvaDTikOMxBgNAvNWOlVJMMXQlaWSHR4N5Gyd/Fle/gI9wwIVWkR2cxBrV1Aw5YV8P7xSxz6/8XffvyVy9EwPI50oRl6QEFQi6K9KYsFC5fhtTfXc6mAoH6yZUJRdfZUqBg7Acd/40d4LVNCwnZgaQHYjgfHpHatwwGACFVUBiJYZ0iSUBkOopK8D6h85FoccFMGNWZNWFSOkDUOFhWeiWF2EdvunQtt80pMHl2NL37hPKieyUmFiFn0n+oQeQkoehpuuunvWLctg8pJ0zDzK9/FskQOGSUAV1Zh2hYoGRgufaNAD5XtFYlZXB0KoSIYhOJY3ADPERy2WER3KYeiThpIGmTTRrXkoS6bwvZ75iLUvAH1kgGnmIWjReCoOjK5JM4+bSYOOWQUDKvA4+baHqJaEEuXrcLjS1chUXcAEjPPQkfDCOSI/awHYFQ1wAhTs5uWV0K0TkwS2J6NE1fENDGuqwk1t96Ahs7tmHb01N9f8cMbrua9PC8C4EK43ncgSWO5UNeTDAS0tIyWKj8e5RUHFyXpOyjQk/S4LGPlyy/gB9/4Ck469TRc8c3vCr9kujekCSUD7U1b8ZMffo+d8376P79DvLaBkz6dJznLaQqtugQ/glIOy2tQY7hkINHRjmKxyEgnnviwiu6/buVk0L5lM5UgvzVv2Yrf9M/b8J93lIFksB/d01PWtpy9JmP9nx2rrupSyEOWTMWpVEErAhJOE9o0hAwXrmT9e3Flk3mFMOCWi7hjYWimFfr9f8Tgta9j1sTR+PTFp0ELmLDNHEoFA5m0i66EjTvnPYxC0cAhh0xERTQE07LwyhsruARTP+1kyCPGwo2RuTvN8hQ4Jq0jXNhsWkM1aondz6K6jkhAE14HvrRy1iwha5kwSU5HFvwKFqzLp5BctwKFla8hnG7FZy46DdOOPgSaQ8nAFbLPtDc1I2jKGwzj2edfxX33P42MXIXGY09EZMIhHGg9VeOyBMlpUKmCXM+EEajEjdNQIICYHuDmMa0XiEmckVxmXBN8lVBR1J8I2B4CpRK6Vi1H/vVlGOQVEHALkGUJVXXDWC+p+P+N5S/65BwMH1oF1yXKnQ5V0WHmi5j30CKsywCtww5C+vhT0Rap4h4GrQ7syjoYIeJgkDy33tM3onEiYyJqI0csG+O6mlF5y88wOLEDR0459M9f/cmvriw/KZ7njXNd95uyLM8G0ODrRfc8SHTdIhOWiWgi19Dveeh9u0nuLRl5PHL3nbjn7nk4edZsnHrmmaiur+f9m7ZsxZ3//CfWr12Db3zn25h89DS4dAAyOfJd9EhVlss+JE4o7hQKhQIyiW6YpVIPmkgkg96y3bue+92Sga5+a97SgWTwdlGhn8NF/wafgaPtGoEpDzxQ6Y6e+uQOOXakoUAqyhIUNQSHBL+YrUtNVnpxFAQscgAj8bL+HUFf1Z6NZqheHJQ81BppjH9jAeT596C6ZSs+/7nTMHHscOSznQgFNdhuBC0dJcy960Hs3NmGa66/DgcfMhH5TAa//c1vsGVLEwwpDFRUoqjrsEhhlRzMTAJJUgOUUETUehQrA1USMhNUS+JGIUFJyYmFgeUySE+UpAnYFtMsImwWEC4kMWXCMJx9yRmIhBWGpKquB5PKRCy/LcEwDciRCBu8//0vd2LNmmZ0yxFYsSq4waBQTqX/JXl/1v2mWXJZ141q4SS3IzHpic6NSxxqCK5pQiGPA8rU1JsgE5xiAUGHRPQMjBtejSlTJkIheKgXwb0PPIJcPoHLLj0btbUB9oM2Si5CWhhLly7FE0vfRFfVaJSOPhHbJx2FhBaG5Ciwg1Vw41UoBgjpZEFzQ777muAZCLVaIGw6GJ9owtB5NyKwcTkGVVXf+/u5D5zvex/TzJ5C+tEALuXegYfhvZ8iwTeg2br/cJUtUxly7MNP2WDIhW2bUGWFBez+8be/YNjQRkw9Zipy2TyefeoZKHoY3/7RdZh0zDQWsuP7WWY1i2IUr7AIPUbfWczk0ZXo5mY/NappBULnw9wCOqc9RDPHLOIP1/4IHVu3wNKUb9/14pu/7t+34j/naAPJYD+4l8csWRdDdfyX6y39C1m9UnVVto8XqHaapfuvPb3w9AppNiFcBFG2PzcKzPRHZoE6nrIh7BQwObkN7kN3YviWtRgip/GJk6ZjyPAqSJoDy9aQS8mYd/fD2N7UjG/+4Ns44shDYZgZdLQ3Y8lTz2HFG+uQLVrsGUACb2W5akas+MY2ZfnssqwCJwr+d6G4yvsJfBAkhyQMSHLaQyyk4oiDx2P2rOOhxcmIgbDo1FDtNT5kTanrKBHBStJRSBbwzKKleHXVOiQLJgxOPH4NXiIylDBQZokGxu/7k2UuzYkyCfU86J8IG0XtUtGsFsJxdKzKWAQHjRmBw6cchHA8xKuNHU0Z3HPvIygUMvjS5Z9GdWUIGq34JBWvLF+NRxctQaJyFLqGTYZ61LHYXFGDQjAOh5Y4oSp40ThKGnk9UD2eXOBEw5eodbSyIre1sOtiTLoZjfNvQ/DV51EnyauGjjhw1rU33dRSvg7P88jh7DDA/YztWWfIUBpkTxWPmf8M9LDYiXBGZjzsOcELBp7JUy+Byzuk3prL4c2XX8IzixZg86aNTDo75KBDMeOkWRg1eTLLdyhl4Tp6mnkZ4MOjPReWaSCfzjByiMpCPMa8E7eg/dWIB42gxbYJjdF1BEuVYObT+M2116CrpdU1Jfmqe15648/9+U78Jx2rn8PFf9LQfHiuhcpD6w3trmSkSsuwn245FPsvjR+YyzLU9OLz1s93lz2QJReqTSFOwDwVWKhKt2F86zak7r4VU4xu6B2bMXv2dBxyxAToqg4nr+PWW+/C2i2b8fUffBvTZ0yHUeiEZKVAjLJkVx4JQhOZNMeXQGYlnGrKJYlet0KiZRBd3y5NjZ5I7Pcw/Ut3EA4pqKmpQiXpFXEJw4Hjz+ZFIN+1CRVkSjD0vwpM00apZKCjvQuWVba7VNkDoee0esbZP1Lvn2miTLNankCLGSwlAVJcJkP4uro6RsCkUhkOYCSdsHZ9Ox5/4hkUS3lcecUlqIlXwCkV8cLLS7HkzfWwK0ZgVXg41OPmoBCvRDocQk4NoUBlpFgV7FDIl9IWiqBiZegxyomEBckMSPUcjHK6Ubv0ccSefgJ1HW3FwdV1n/nVvPvu6/3Ee54XslGaJgGXStBmyY5SK+xuPFGGEocWfgnkh02lSrE447o+UfREMhD+0LRSMotFLv/psgJZ00H30qIZvaYL/JhPFGPhOc4pDnLZLENHafyoUWybJlQueYnmNntyUFNekmFZBoIqke0sTkqSZSCVaMZNv/kdOtq7DcvTz3rwpZfmf3je7A/XmfRzuPhwXdx/wtmc9dRTNS1VYx9pDlcf3Y2AZBLkrr/ZZH0dKIar+rVZiUxmRNAOktZ/MY2abevgzL8XByVaEC91YWhjHONGjkRjzTDMf/ppbGrfgQsuuQinnjoHbikJI70TJMBMmv/U82BQiq+lxCWDtzuvclPUD/tlX+Ly3LsnzPulJEpgDjV1KUDsoXTGs0yKaWwWJsO2PegaOayR7o1YgVC042HnJOQrwHHw751W/L/ztRAEUunxTBYrCBeSqjBRir6ns7MLxUIJskzmNyEsevY1vLriTThOEeefeTqSrQms27QNO1I5dAUrkI2NgHv4MegaNgKGEkRRDyGt6rAiFdxvIRtQqrfTRmU1hvSTBKnPkTDJt0JxES0kMSnVBvOef2BM83pSml1dVzvsgh/fdtvq3RJCZ2cMlbGpNpTTFKhHQ3bHup4Zk2SNqAwSiSByYuYfxCqVfuSngvM1wU5pleaPYTmB+6ac9BkeYx5HATVlzodloVgosrxEqVgUWUa0KXhj8xr+WgbN7tJgoiTi2JBcm0EVOmw8/fhDePLxJ5DKFNamHeVji15+ubuvj/tHbb+BZPBhvuPXXivPueDzP9pqhH7UHo4qeVmHRW/aPkoGrFrKHgI0OzSY7KU4hO/WmGxVWcxgdOcmWIvnQ16zHMNVB2GrAKloIRiU0JFpw+lnnY5PfvIiyGYaXr6DReVsUqUkBVUmj9EMWoiPlWeIu90iXjX4AbkXmFDUlXsHZyrIUP9BEp4I/mdkxsPvvpEjlqpTEhB9CA5qNEtlNis1tIUBBP2scAIsFyfKr0/Pmsw/MM+FhX1wzyY+w3NaWh7Aw87mVv6d7UjQ9Eo8/PAibN26HaVSAboahCtFkdWjaJYDKIw8AKGDpyPXMBhdtMxRAsjaEkrhCKzqKpgaIXVEaUpMxan+Lu6X5rc2CEpLSq1BD6hOdGPMtlXouuNGHGknvLgVXF0zrOGT1958+6reo7N48WJ16tSpDXooNMW18ydB9o5REamCJAVJAN1zLVeWJMe1HUWRtWpJVoOE+qESpUjsou7PtX1fbpylJHxmszAD9V3z7BJy+Txy2RyvAETJSZTWxCqxrDkkkjIdx08TQoeI2M8BHYV8HuGgjs3r1mDebX8nRJe3o7XjzwteW0UcioHtbUZgIBl8iB+Nk17ffsJ26PcktWhVkkTQdA0elYn6u/7TxzHwJ+9wqfHKiBUPQWK5UT2C3mnHRKOXQzzRgtD2TXDWrEA42YpgKolKJ4+Ym8bBY8fiiqu/DsXOwM63wGM/FccPuEJcrDeD9K2nVvZU2P33vdcQ4pFmQWUSn/PDhfAg+Nf9/J3huILgpBA5ipIcMZjZ7Ku8iZVK32yAen3G/06Rv0nSwoOiqMjnC6zFQwJ0Dk3hEcTc2x9ES1cWbqwabVBhxEiEbhCkkWNgDhuO7mAMaYK4KrrwMNACcCsrYQRJSI88BURbl/so/JiwzCx7HJBCLQvYeTIUW0KF62FYpg3RFU9CfvERDM6mXSWT3Vqph/5eFa9YpIWC27pjDck//OEPdINo7MKAMQyQJrmu3kDsOds2uwtOodUs5JMBWVJUVZ4c1CPnKqo+05OkoG1aEusDUWIVxGNefgl2vMTSFSRjYVsmDCMPwyyxhSWtmhhUSvsyu1uMp49fEvBS/qVfTirzHjjxuMjn0li7ejUWP7UIhUza29q6c43lOZ96ftXWN/v4qH8kdxtIBh/W2z5vnnLEiCPva48MOrOTrANDEkwSoWMG5765bcI7WQjViY4hoLkSAiRQxq5f5ILmwLNLGCJ7qE13QW/bgurOdujrXkNV83qMioXxrf/6AdSQBSPfDM8rst4P/Fn5v0sEHJT8kNw7SO9e/S/LcAivZwostDIQEHWx6hDb7isEajiqqtITjKhvQT8zq5WPIVYHpKm6a/z/3cqAdqPg69O0uFQiVgYE2Mlmc8jniyy7IMs6SiUbt998HzrsMLwDpyA77mBkaoajWwkhpwWRDyhwQ0HkqSushmFpGrxoBFaAxbEhUz/AXzVSL0c03sUiRsCN6WcbCulKUUXf9FDhGhhc3AF15dPwXn8ajYksKlJFx+rqKlbUVbQF6qtf/MPtj15cHmuP6zmvqcDhUeSh57ycm06nA6vXrx7e1rxtrFwqjGqoqjhDteWD2ju61c6ObilHXtDsBkclHRearECyiIdBukEGy4gTG5mc0Uj2m8eIxtrvP+xy6PbLiMLajE9pV+tI7EV3lMhuHe0tCGg6jGLRa+9Orzc05cInX36DEsHbVh4/rGHggzyvfRNVPsgr3B+/y/OkM95Ye8EWre6vrVJVPKkqYjZONVWqXe+jZMBIEtmG5Gj8JnIpnWKeTDM4VsIRzUQKTuT76xmoMpJoTHWi+rXnUPniIoxwS/jxf/8coUoJ+ew2eE4Wmk0htm+PIskl//tN1Ba4Rk8uPrttb4O1fZsFw65yVK+DkN1nn86VSjJ+n8CvmXPpiZsWMjo6umCUqI+hsIdyRyKLO259CC3qIGjHnYodYyaiNVSFkhxmgT4CDFkyEfE0yIEKOJEQDPJioOeBZvv+OXGViJnDInVSDiBSF3M16JsJ3kqie5wcHcTdAobYGQR2vAJpxSrEN23DkGw3AmYnunPJ5KgjDh/261/fnu89jFkvWx8sqRM8QxrX0dF2xurNa6a3tG2rSO9skjM7m9G+oxm5TJahtUQCtAM68oQwIukOxyWBQU+zDU+WbTiy7RE6TnYCkB1hcen5NTpR7RKlP9H+4KkAMeEEjqvXioGmJ5Zpejq3MzzLMkrd2Vz+Oc+Tb3xs5brX9scw8EGfc9/ewA/6rD7i33f2K2+OblNDC3do9aO75DgrddIL82FIBlyldUkQ2Ve05JUChSAReMmekv5Q3ZgCDjl9DbZzGLF8CcIP/RNjjQy+/5MfoHpIGFauGXYxgYBcZsru5cbzy++jifb2jDDy6a1Rfk+Pu8/W5XlluRfR6+B+UO35TV/ZfAILu9uBaMZLdf2SYXGJyLGF5IKsBrFxSxuT3ZqiwyB9/AxsHTkOyUAMtqfDlXWYQR1WiOruAahyGIYqs/EPFecpPdL9YPSQX2fXqYrHUGNKzdTsJ2k4osP5ip4aPVQeZAuIOh4qvBTqS3nU7tiMijeegbzyGcj5dGrwlIOH9k4GnufFTZhn6LZ2IRzp4HRn55C0kVUU1YFSygP5HP76pz8jkc+jGRqMhqGQ43EYhCCSZCiGhSrPS0eN/DNGsjVhZrtzLgxIBigzUB7wHIecMDwSHaWG/1u02BnSy//mSbSP60n0F8f2HM9zFUnKe6651TacZXai0DJ/0yYucw1sex+BgWSw9zH6YPe49lr5uDMv+v5OKfSzLq0SeZV0cfxlPseWfXjLWArZ90zpCZKiSVhegMv+ysWjTEDlCtlD1DMwfuMbiN53M4a3b8XlV34eR0ydALfQBjPXDUUm7c/e9fl/N+S9m8S9x+OtDeRex+hB/ewpyAvkz66yUe8A3jP17H2wvjeQexqfvmk7Ec5cD6l0BoUCMWhVgWBCAK8vW48nlixHc+M4uCedhfV1g5GlUpAShByuRCEUZfkMFvh2FV+ETuQbYi8TT7ncTpIcCTrBQJlrQiUytmBjzwWWdOCeD5HjhK4V8eFYFty2cKCTwZCXH4P14P+h0bZSaAw13nrrMyVeZySTlYiFZ9iydJVqYXoxWwx1dbSTDgpUyUIxmcQ9c+/Fm9u3o4NG9LCj4Uw8HKZK0uTiWsmMKG6ZXRFFOmfeyueX4Npr+3rjP9j38CP4bfswsnwER7sPl3zewleHr4nXzm+N107MKSHW5uHlMs2EaAntszz7cKj+38WPjWW7TCZe+b/rEcUT5loso0xs26IEBDUP41vWITj3T2jYsAJnn3YiLrroHLiZFhhGCpJb9FE6/XnKvXoD/5JEy8bAfhwqrzjemmh3m9mXz60M19nbuYoqdrlpzY1QyCiZFrq6aVVApTWaLatQXR1Pz1+G59Y1oXn0FJRmnIbNlfUokh8OMW1jtSgG4mLlxXPmXc8BXwEzd/1r4gWJuHYK8rQicPgvtGITOZs5g4TgokTk6XzVDlEHFA9DjCTGLV8A784bMcyxU6MHRxuvvfWZknfttXLpu9+aGQgErvYgneQUzGB3WztMuwiyJ9BdG7f99Ras3LAd2/UQnEmTYBx0GNpijbBJ20kNwiQGh+RBN7LeuLC0TM3tPPXJU05J7G0kB/79gxmBgWTwwYxzn77lvHmekh+5+TcbgtVf3anHJJIz9sH3XOflOXg/S0z06cT8ncqMZmpU0uSSyhLUrGTygV8VoWBFAYqE4KiPYJI8hCphUmI7qh+9HYOWL8GY2gpc96PvQFdKyOe7IDlFkDfb3jdRKntnW+9HnOsqu/qIbNZDfwRGnre9vRHvoAXJDc5eJ0ts3Hw+j1Q6x4mAPCiocerYMu64Zz7W5yR0j5+O7OSPozVaC1OTkAuRGmkNTC0GtURsZCoHCcE2Gv9dqCGJG/F0K6h85KnkI+2vDij4UznJFveNhTVkUvkUpTRqQEuuAln2MLTUhfFvPAnv7j+iwTJTowdPbrz21ltLXktL2K6L/wSq/iW75ESTbR2wjCJkxYZpZPDY3fOwcsVGJJUYUmMnwT56GusmFeUoDE9DjlY0FXE4ARlRzUK9mcZwM3/JY1Mn/2OgsfvOnuj3a++9Pfrv1/cOHHcPI3DBsi2TN+iRp7fp4eqsFoBDM0eGRwq4IMeq8qR2H4wgV6AJzOLH07LkRXmlIM5NnKdMyqM0gw2QRpCDUWYSg1c8japH70Jk5zb87sZfoGFULYzkdsAy2EydAzPjV32egS9ZLC787WfkZQhiGS1EtWmbNIJ8a0SSMKBAzOJpVLenFY3PzvVB+aLxTefgO6nRV5YRRORJQJBHJlaxDIXol4hGJle3/6WpLBq5pGpqs+UkBW6afWc6EvBMm7kaJA/hORoKGQM3z30QG1GP3MfOQPvEw1k2m0T68rEKFOM1XFKyeQwIainOgLH8/hvM5aIygMiXIukhaXPyECsFH4fDKZAlNhivL7ENqAoVDcUkxq5aAHfujRhlWqlhQw/mZJBMto6MR6sehKxMbtqxHUFPgV0oIh7TMXfuLXj2heeRjdQhNXgCpCNnojVeh2IgCIsNiYIwYhGYsTAkTYNaKqESFoa5xYWNHc2ffODEqQNEsH3wPr/1KweSwYfgJtApzFi8WJWiY/5nkxr5SiIUhsF9PkUEqbIK6T5OBu9kqGgGSlLUni5xk3KQm8WYjnXQbv49Gpo34Ytf+CSOmXUMpEI7zFwCio92oaAvyhz+HyKAlZMEB8M9L43KkNRyQhBQUlEXcVwXmqqxT4LYz6+XUGBnOKPwy6Xau4iWohlOhDNKKkIKwTfXYZYsEdkEQY4tFvewcUvdU6DRObsWXEVGPm+i0JUFMQdt3YOt0L9HsOq19XjsuZexNjAC1pwLsG3YaG72OrKKUkUtjFgVw0NLzPt12X+hb4imvt4x8ibw2C+isZjGAWsWwrzzNxhrIzXu0BkjP33VVWZNNHyFJ8k/ae9IRCS6uWYJEc/FkoVP4tEn5iNbUYW2waOgHHMiWiP1yCoxmCQ3IZMDXxyleAyFACVTFWETCMBDtZXMjTLTVy48cuztfT3Tgf3evxEYSAbv39i+oyPPWfxyw45Q3eJU/bDxnUWbPXktkkouG3r4E2NuEu4HG9ehLRuqRmY1EmJ2DuMLLYjf83cM3bQaU8YOxmVfuxRB14CZbYXkGSwux7NzDsx+U5ehqv6K4d88rWUNfWGIInSAXE/IHMuKhlLBhErWkQTl7MXg7mG2klyyTzQjjgGhVVRyzyLROVXj8ykWCqybRIqZ5e8p34rex+RVBf1hRVSSY3BhuhLau9Nwi5TsRN2+YDsIIIJHHngKy3d2YefQKTBPOANbyb4SCgzS4qmqgxmJs2sRq6zKRKwSpK3+23wYrCNhuJHC2NULUbj9RozTg4WzZl84a8r042ZXxiJXporFSlvRWaFVVUtYuuAxPHHvA3AjDdhROxShk+dgbSDCyStveXBCEYaVBgOCGFdgeLSMkC38uSNWGkON7scGdWz41Pw5c8jEeGDbhyPQn0/UPryM/furz5s3T0mNnvyDDaGaH+yUI7omE9MYsBQJDguzAQFab5ONeM/s9cN+zeQWLGrUBEUJeg6G5toxbOl8VL+wEEOkHK756X+hMqLDyLYw34CCJjmmk40iNVbFNL0sOdC3+hiVc0jwzrEdBMNRKCoxigmS6bNVmRzh8xDK/QO/3CP0h+gPofYVPgbtmc6ksG3rFl45jBkzEpFwuE/JgO6Y6tgsYZ0pGGjvzkORSXrZoQkyHFdGuqOIuXMfxXaEUTh2NtoPPAwdsXpeGRi6BqeqFkYgBJd6RkyxKENh+/P+lzkRQEMpgfErF6N06404JBrDD77z4xVatGoCXEcHGehICjTPw5o3luC+u+9AQQqgo2Y0lOPmoKmyDp2BIGxdQ0mR+bylcByaHIJBiCe2LpagmhL3NAKygapCZ3qsa1329EOj7sO1vPQb2PbRCAwkg3008L2/9pQl68YlqisXrPOCwzNqFDrDBykZkLy+qPdyMuDm4Fu6kh+C89/TKVBbUpUB2fQb36StAAAgAElEQVR4hktxrKGYxqjtr0OZdwtGZ9vwpUvOx9Rjp8HKtcAqUdmYJKQJoWQzJr0M+RRp8O2TQe+yjaqqyGQy2LF9J7Zu64CuBXDguHEYNGgQM4qpf0ASPqIkJHT3mVxMwnIKOYoB2Wwe6XQGW7dtxaqVb6KjsxVHHnkYjjn2aFTEgvy5vpSJ2EWNdJFsB52JLHIWVf1IfkJcpyaH8fpLqzH/2eVoGzQGxqw52FEzCtlANRyP5CgCsGOVKBIDnZE4fh9jT2p77+k58KB61MeQUVVKYdLGV1G6+Xc4RAWu/OJl7pBJ4+SskQeUIHQlhA3LluGu//s/FMMVaK1rgHPsSWitGQEjFIcBFSVZQlZXIVdXwdWITEaScUIMkJGtDkFhyR3TRdhMY6KOR6q6uy+af/TYgdXBe7qP7+3DA8ngvY3fe/+050nHrWy7cruj3NQRqUSRrBGpSuSjRRyKAL7yJAVE4QP74d/IcYFngR7VjckP2EOlVcLI/Ha4//gjJuzcgCOH1uCr3/8WZGRQzHUQcRTkGixz01VAMcsrgzI6dE8PLPsHsIa9qPVTQrBMFy2tKSx/400sW/YKB/jBg4eisrIKkUgUsWgcOmk90X+uA8MoIZPNI5XMIplIolAk9zFg+IghmHXKCRgzZgRcj+A5BqNuektbvPXvfupi0p0uySik0kimCrBV0VClz5P/r12S8Nhjz2Jlq4HmEVOQ/vjH0R5tQMGLcr/AqYnB5P4RnSeNpWBbeW/Tp3i3TwXpPVG4NmVyQitifNsmSHf+DSPbt+PgYTU465LzEK+thmVqaNu6E3fd+jfkrQCaKxphTj8OzcNHIK3HADfAMCYqCTmVMRQ1Fa6iCRIi3UASyvN7Ex4pqDou4qSimmxrGoPSmc8dOfaNd3sNA5977yMwkAze+xi+pyOQcU0+XvNwuxyZkVKDIAczDmhcyvBFx1h9UrBJexym3tO3fgAfLmvO+wpligOEHQtVVhsOeONZaI/cjVHZDlz9/a9jwkEjYeS7YBQyCJBevmuydo3C6p6iTMSwWuax9Q3bKbxPaG8FmVQe27c3Y+PG7di6uQmdHUkkEmlG6FBj2YMF08pxEqmursXw4SNwwAGjMHHSODQOqYcsWbBdkpoWOpn/TjS2zCtgeWVZgUNJpisB0/LgKkFYcKCrMiTLRmdbFnMfWIStSg1Sh89C12GHoUONwUUUthrgZEAB1SHCliQLFJdAifbrRsgk2bNY9kJ3PIzIdWLQa4sReGEhGjKtqI0pqKmrg1TU0LSjFemAjfZYI3D0CegYcSBaAzpcNQTP1QEtBCcShhXSYStkqEOIOFUU5HymupAUkbmEGHBsVFo5Y6ib+MWyB2+/boCE1q+39h0drJ8fq3f03QM7Azj1xQ0nro/W35uRIhVZqhOTa6NviELcAkLW0AxTaBNR85D5+R/+zXcGIyQUxW/S1Nc8GxoyODy1E6Vb/4xxLRtx1GEH4vNXfQHIJ1AqpKApFiRPJANxpe8yGRCckyWxyRZUg6Lo3LXN50vIZUtIJtPIZHKsmy8rHsJhHfGKOKqrqxGNRqHrCmzHAGv2k+4SKX6SoBo5e3HR61+3XUgmUielZKShq6sTRj7PAdEhiKuvx08IqycXLcPzG1vRWnMArBnnoGnIUKTlEFwpAgQjsKsiKFHfiL9P8Ajo//s7GTC4VHagEDHNASqcEoammyC9uADq60vRYOQRcgDdDqIkqWirDcOecgQKIyciEamGAZnLQ7YeBUJxeOEATI2MhHg9Q8WytyQDmZ9jQkgFPBcht4BKJ7X5gGzi1CeOnbz+w/9w/2ee4X4RV/4zh17ASZ3qcX9aq4S/YEkxyfBk2Br5BQitH9WhWZXMQEeHtYmoXN2/OJL3a2zL3ANG5VMy8I1OSMlzeK4Lg19aiPjihzE8YOI737oSQwfXwsySv22awgo0QtVy2eddJgNfOrqMSqK+AJG8aPbPgmc90tKEbBFFKSozlZVOCX5KZSE2XCGvBdeGopJfAAXm3ZNB7zJRGdVEQTubN5FMJBjZpHh0VXQ5CttydrYmcPO9C9ASrkdh0nRkD52BlmgMeSkACwEoFVWwIiGY9N2+ACAR+pjX0M9vLa9BqZbP2n70nNmIKgXUZztQ29EMZ+N6uIkUPMtFtG4QnPpByNbUI0kua3JQ9Dd0DW44DikUYbc1U/OtZ1xCdwlPbsGSFhacskMrA6EBq0glRK2CO8oqfG3poUP/KDLwwPZBj0A/P1Yf9Onv39934isbD92khO7vDleOdBEiiXhBRiLdGM9h4xiarXEy4PhDzdX9JRmI95n088kEhw0OCZ/vqKiGibFbVsCb+xeMyrdg5pETcenll8JJtQNOFp5NM2liyAooolgTCYLVO+mYECKLjGsImUQLFGoau54jVM7Iy5mkqT2bPSIUhWCngoPAf9jboCxeJ76c+AoCbbT7a9M7sZSfSMu00dWVgmmbbNLD6CQKjAAiwSgeeuBJvLQlhR01IxA48QxsrR2JjBqEQaJ0qg65qoYDrM0kN25F8zn0ePj046Pf049x6Vuo9U+lKJtVZyssA9WlArRcFvlCCp5GBkshdqGg5rBJK6VAGF44CDuow9ZUWOx4RugBXxKDlVUFOKzsjie7vmcBu8+ZiBZMDC1m59cUWy5+ZuYRXf14eQOH6uMIDCSDPg5Uv+/mefKRy5u+sUEO/MKKVMgmmcTIYhXgkW4AubuSbaJL9WLfz5aX3ftHMmC/ZAqoDr301PS0WCRNgU5aw5iQa0ft0w8itGwR6qwUvvfNKzB+4mjYuXY4ZoY9dNkIpZwMiDfgW2LuSghlctoeizZ+k7c86/ddzISUj29TI8gbIgmI31OwZ2c0dlsjiKvCfAEBdRVEtp6Jq//2lJ3Q+KgkF+E4SCSSKOUNtrm02ROBZL/JeU1B0442PPTos2iWa5CcNBX5w6ajKVzNJRjqFZihCFBRCcMnG4rzJYb0+3Pvy4mWxlvxXKjkbO1IDH+lpBy2PIQcA6adRdE0INshwBTX5qkaEIpACWooyTaL6UEOiAeWzHaYOyJUacV19KJJE66AlVZN1FoqKvNdXYPQef4LRxy0uN/ft4ED7nUEBpLBXofo/dlhxurV0R3p0H3JysaTc4oGj5ulQrF99xapuEXl3+0vN6ycDFSHlDJF81CoK1Fj1UWllcaE1m2Q770HDZuXY9qEIfji1ZchrBsw0zvhuUUu6Xi2Qgr+cCQLlmJxKUNgFEVA96ebexQV6vMqokfI7i3N6fJg7/ZrCsqiiUxzaDJskchi0jfOoTxC0NZcJgfii5CPgOU6UEh00NFhWRLuv/9xbOu2sDHcCH3WOdheNwRFLYiiqsHQw/AqKuGQ2JuQ8BceNb7EhPi5/5+CXc8XS0QLSRD/ayiQE0NZMLM9kpsWukayBElWQcggPj8aEdap2uXG93ZnKlZT9HmRYImHEi9lvFFW9pcvHTHq++9Wr+g8kmQ64ahKtaAU7nnxxWL57T398MPDbsgMPLZkZerdHvv9iQQfnqP2/1P14bm2D/WZTF/8xpQdNUMfSgSrhxv84v37W7FfJgPC0tu+3DIxZwm1YgPkjaO7RYzOpzD41WXQnpqHxlIHLjjrNJwye6ZQM7XS8BSHqQA6zYhdl+WwhYdw+db2TpT/On7vLBns4XF56yH5JgjXM5Yp8u1WWMqCyYESEokUCoWi0AKSFVi2A0XX2Lta9gJ4aelyPP3SKrTHBsM4agaSEw5HW6iSS4QFYkDHq+FEYzDZ9l1gxz6IZNDXl4ViPWEZyrmY9afYoF74Wpaf0709r7u5zvGK10CV66Axm3zlIDd1+tyjD27v6zn13u8TM2ce3ta27aZRg4ducmzzlmLOXhatCJ1QKhY/s7m5KTpo+JAvLHzhjZZ3c+z/9M8MJIN9c4elqS+v/9GWWMN/JZVYwC9W7HYm+/uNIelkVldyZRZcozoBzep1W2LdJfIwiBczmJDuhPXILRi0fTUaSiV872uXY+TEkTBzHbDMLBTJYIKWYlEY1lmfX6Bp/HDD5SN/6xk08W/9j7sS3YvyrLaclShkUxsimy2gkC+wKB5tBCPVSHBQdI7R3dqJex5YiFatBk1DJ8A97hQ0h2qQU4PsYWzqAUiV1bD0EMyyi5wYOv6qslTf+7Ey6OtrQBDnsm8PLwDKVhbcD9j11O4tGez+faTP4SAOD5GujuLUqPS5+6cMmfduZvDnzvzYCW0tTU8eMGKY4jlmxnKwU3ExMhQOh1asX5+w5dDU1zdv3tTX6/0o7be/x5z98l594oHFlcsHNT6WqWycnkMQNpWJ3uJTsEcp/f3oandLBv70lmDmAYvKRIApeQhrLqoy3RjTugrGo/dgVNtOjK8N4Utf/yIq4yF4uRTgZOBJJktIaNQ/4eoQPbb0N/JkLg+KmK76bev3LRl4hDDiICiw8lTLp9JQPldgYhutGljtlETaqOfrqtCgI5/I4oF7H0STpWF9eBC0U87HjvpRyGsxIT1BSKVIFF44hhIRzniiLaSqe1YHPfd/3762XJzzeTDlZvq7hf/0wHFJDNB2UevZGOmk7xuc6LrknpmTcu/0kT/12GOrZCt1/9CaqhlEJ2dggOuiZNhuSyp3a/71VV96huBSA9u/jMC+fao+ojdk+lNrpzXX185P6qEKVwuh6LxNmYjjmwhyPXLE70O9+P24DeXOh06yGlTe8S3SdDJ0B2BSmUXzELAMDDe7Ub1iGZQFD6GxewuOmzoJn734QoRJVyiXhIcCHKlEzAHorsqy3mJA/ClzeQrJyWBXob/PZaIevNJbR+KtR6ByCKGNCB5J+v8abMNBLkcrAgM2ZYWytLUqwyAkqqvCTFtY9MizWN/ShR1Vg+EeeyLahh+EZKgGpqvBUTQYJO8cjcJQNC4RlWFTos/irw7K5Lv344b18Zg9Ha23tFdEju5bONlVIqJVlvgcEfokS0IMHipyrZsmKNKJjx82eHsfT2u33c4+dOxxNdUVj1dGQxHTMLl3k82bHdty2SlPvra29d0c86Pwmb7dvY/CSHxA1zjj2sVqYmb9D3dW1V9TCMZhky48R3ueBIqN4YvlCCealSTeJmCW+8ctK19KwKFE4HLwp+uSuZvsw/Vdl/WLYp6JxnQ79KVPoualpzAk14ojDh6Nz155GYK2Ba+YgYMMbN1kgxedtHpYQpqtvBgyKlYMhGn3wydBR/t8T8uJpfwB4h4w5hG2ZQkjd5885/jy1qpMkhcOsukc8vmiMKlhFJIHRSPCGpWvFBSKNp5/9hWsWNuGroohyBx0BDITpyARrYMhkTyFwm5mVnUVHDUAixBl3JDYteIp+wfRb3yT0T5fWX/vWAY49AT+Xkmhr0/mnpIBX5kjIQgPdW4hPTS9/bIl0yfd827O/8JjDv18UHVuqo7HgvSc6LKOzkQmaQf1c/6xaNkAUultBrWv9+/d3JOP7GdmjxkT0Oriw6C4hwbl4KRwWK/1AnIqWlWz1Jo4tW3lEcff0Nk49uROJYIMedAqPpae7Qv/tWspluX7bzKg+bpJs+QeTR3fL8BnoVKdJeoUMd7OQnn0bgxe9wrCyW2YcvgEfOnyLyLgmihkW1FCFnEKnCbxXQm2KGCcCiFafLaywLmITMqj2ocnXEBDd5nVcNClhEXJSiWOgiwUTOmXisyNYbNkors7Acu0oKk6bDZLILl+GYZpwiNnMSeEpxYtwStrt6KrYihSBx4J4+Cj0R2vhUHIIeor6AHYkRisSBw2yU4Q94ETmz8v8HsjPgG9R5ZjX71cPcCrXbmq51T6MNRve9pE6tNkFTBcNARdb0hu580vTRnxpXdKQDvz5OOGlTrbl4wbOXS4Vcx7lu24leG4kjcsNHcnlnRpqZNffLG5B2W0r8bxw/i97+X+fRivZ5+f09kfP/owzzS/rNjGCRWx+KBsPhOg9W8grLmuoxdS8cZs6fjZFerU2eG1ehWSsUoYns1Ydo+CGunx974KRlrsimn728pAI4cxuNxEZrtGBpzbFGmhugo0W2VoJonTRYwCDki3wX3qQdRtWY6KZBMOGTcCl1x6EapqYzCyHXCtHIIBBaZRgkqBmRWpBR9BFNV6J4M9Ik7/5RnZPRns8i0mjgElAMFcJnMbwHY9ZDMZ9jYoN4oZSilJpMUHi4x0AkEku7N4/qnXsWFHOxKxGnSNORjGETPREapHSQnDhoOi7sGKReFE43A8snshstYuRI6P8eTvpdIYm8D55Lt99aDvKRm89yAi1hv05GuehJBlYbiaWTcs0XLio9On7Hwn13rGCcee0tW049FRw4YWivncmkAo+JyRK82urKoc9+qq1VakpubwF1duWPdOjvlR2fe938ePykjt/TrlT598/CzXtf+me96Qaj0CL6ghOmIQirILK5eH1ZaA62po0mNIDJ2I4JnnYH1NPTIBMSukwgaJhfELX24o+5PbcojYX5LBruHy+QUezXipeUygddEQVl0Vqk3XLUo+EVWGXsxijJ1EYf79GLx5FSJd2zF2ZA3OP/cTOGjcGBTTrbDMPDRNZt9kz7GgkrIrz+59z19/Wv1O0URlJrGYmAuEEKmhipKIjEKhgGQ6y6UjtpkkyQz2piamswRJC8JyZDS1tOGJhc+hI6+jW4vBGjsB5qFHY2flEGQ90h4iETfAigdhxSKwVaGbRNIj5ZmAsM30jaV5ZeizePdxMtj7a/Bu9mA5VkEfcV3EHBm1Us4eVWw/ZeFh4xa9kyPOOfbYAzPpru9FYqHFckd23vxNm4xZ0yZVe0VcmCwVJqpK+Mcvrl6deCfH/KjsO5AM+ulOnzPz6KkBRb49qChjo5EoZp93EcZMnoLYkEZYqgqHdGq2bcELi57Ai6+8BPIt6DhwAsyTTsXm6jGwKHmQaANT+XcvF+1aGQi/2v1i85c3Lruyk8mLwraK1Eh2FJsbsbKrsmAZ6S6pksMuOCFNhlJIYZSdhvLiIoRefgb1yZ0YFtNx/HHTcPIpM6FrQCmbhMJS1xYrbgpWcNnTV4yQEJTb+3j1TgJMhJLK8tlUhnJRKpWQzxdAEhPkPMfMZP42kragnoXGWv+prIHXV6zFipXrkbSBHaEaBA6djuLIceiuaESShKKJYUz9hVAIbjgGK6Cx1j+Rt0iioffmskexX34iNro/pv2tTfROn6c9jege+snv4LBiVfD/2PsOMDmqK+tTuTpNT08eaWaUhQIKIAkZJCGRczIGE73OGBtjG7NOu/7B3sW72GuztlknFgcw2SBETgKBQAGQQALlMCNp8vR07q5c9e99r1sSNjYjkJAN6u8bJEbVFd57de+79557jsdAPgHCtoyYU8RYFK6XF22+Ycn1x+0T+ocaz+6raJfuw1182A995zflwz5CQ3j+o48+OtSqBffEQvpZqqLi6m99B02zjsag4yNbclA0AkTUMISggLqYgMfv/B2efOARZGNVKM45AR3TT0YxUc+6Tm1BYgVE2gky9V/WeUoYfc5gupvwi/dvloXNiU2Tdo88ReKLhHbZ3zq5QxiIvQ+ppDSouYB20T6nYGaAUNIDKOsZs4Kvyhj4oNoBBNeHoEiQ7RKGF/rRsvE1+EseQ22uB5qTw8jaBP7p0oswcvJYeMUUHCMLTaBSrQdP9FixmimlsdGjrTsvzrMqQrlL+K0RQDn1wignOGkdqzv4AQzDYEgh23VZbYK9LCIJD9FxpKBGyFKZqZB1dHTh2RdeRlfGRkGMoFjdCGcGMXtOQDJUjYIQBkQVJhHihUIIonG4SojNF3Xt0pzxOayQ4HHE1B7I5p400RD82z5O1r4dfkCcAQkGEU8UE3JSUKsIqC30La4qDVzw4ryp6X27w0NHv5sROOQM3s2o/dl3zp0z87SoItwvyGrosiuuxuxTzsQOs4i0KMIkUfRAZdTAjmhDkR2gtwdP3Hobdm7dis5EI/JnfBxd9W2wahthhcMwiVzNIxYfgrN7TPtWdFXmECiT4Ir00pAroJw2GSSbNXcRlxEZF1e1iOaU0S0frM/bdaLuAX1Wdu4cMeUzRlYXqstF2akBiwxtyHPRYufR0LMB7iuLoWxdi+ZMFjUyMG78cMw94WhMOWwUZMeFYBowYcPXAsC1IDFCIYJ/8rw/E1XZqxrDdv8stcRRQ2T8XdeD47gwLQuGZYI6i1m8sRfDKdXABU+GIsaQyTnY0duL195ci66efuRdBalIE0otEyFOmoneunqUdCJ1k2AFEnw1BD8Uga+HON0EcQ+R05SIxsHhg8LSQeTIy1HCvnVvHazpfo/XJS9IvEh8Q0P7BE1w0eSX2muNwsnLZ7QeahJ7jyM8lK8fcgZDGaW/ccwCQG6c/5EbLSN7zfTZc/Clf70BaSWCXZYJU1EgiAp0V2INNZZoAbIDc7ALufXrsfiPdyIphTEw/0wMjp6Gvmg9vPpGFOUAkiyyrlvBc+DSLHkKM5TE8eNJNoRA4SRqxMypUBQtQiBaYA46egsi5T0+4rv6Ot/5l2+GW7nyf8tGbrdnqPDvkPQi7yejPbhHlsEPoLs2aq08mp0ChC3rgOcfR302ibhrwEh2YvL4Npx/+mmYOHE8FE1CqZRG4JkI67Rjd5jEJN/Qk4Gt6B/zorPvunAdF47jMAI2x/FBGsoM905jS0/gcyy8pmrwAwEFz4Zpeti5aSfWr9mCrr4U3EgVBhUdA5FaVM06DqXhY9AjhuGoMTiixGQgbUUGYhF4oTBj9nQpIqKaBF2LiOHK2/2/Zvt51YKj/P9hUoVDXjncGVBTIqUNaShUOKhzCoOjzNzHlswatWTIpzp04LsegUPO4F0PHf/iggWTotWuelciFj3z6FNOx3lXfA0bUyYsEg8nAi+fC7sQ54QkASU7i8HkDoSKaTz2y18j6wADM+cjM3EOuvQGGDUNMKMaXDJFjGeflSe5qEq52SqgNAu9NGWhG0oxsCCAdpSeAM3jpJH0c/A+FZINnt5glAoVnHyZdI0orelDDoyDQemRiOG0XDil3LwH6EGAkBMg7lpoHGyH+OZq6Ns2obpvJ7RCP7TARF1tFVqbGzF54ni0tbUgFJahK4T7BzPwrkvmluaDKKt9Rkftk14CGfvKOLFggovXUDRA6R+av1LJRDaTQ3dPD9p7epEczMDKWfCEEApKHKlEE5zxh8MZfRgGQjGYehQGRQKSBpNgqZoGPxqBrcqsj4DgqZRuEvwAkkcpQKqn8O5qNq3l8WFDxu6NU0Ds+XzQXlueNqRnJMp2WhZK4KDWLlljrNx3npvZ9pODt44/PFf+oK2q933mLjjl6BoNwiIx8Oae+9krMOOsS7AlQ/w5IlyScJR4Zl9ziU6RYImDyOX7EPOLWPg/P0fB9pE5fBYGJs1Db7QFBT0O1MRQCMllhjJi6rQQ8gNQNy+dzQkEWILG5BAlmeCMblkJjYH5wRq9WC76IE7vXg7gL/t4eSq/Ei0wNUSBupIr0CnuHVRRhGvYUKRyFOQG0J08hueTOGxgF5Slz0DZtgYhPw9ZdpnwvJ0vwbMdNDbXoW1kE1pahqG+vh6hUIjBQ2XK+Yu8t4PqA2T0Hc+B45hwKTJwXNZERgXjdCqDnp4+9Pb2wTRJ+1iEpodgGhYEMYyiFoc7bjrs6UdjYySBgUgNbFmB79kI6Spy5KxDYQR6CI6swiFN4DI7LaOZKFNGE823RMABcvsUGZWzex5DE/ElzTYC/G/v+xp/Py5IiDKWHGN1L4KYekhYRYyzC3cvndVy8ftxDx/2a3wwV9b7OKtnz5kTCynmfRFdOeXYcy/AnIs+h10m5arJYLtMrIZsMjkCI19CMZOFZBUQsYp44Le/QtpxUZo+B12TZ6OPMOhyGHI8hkJEZ0Lt4cBEvZlBNDUAKZ9jmRc/XA2zthnpUAwZ6oSVK1KIPN8sU3cuceawYujB+eze3JNx4zmOvZslGLcNU9aiHgESkyGcPonPsOI5jyQo7092kQnSsIiBfi+hycphcqYT8pMLEXp9OaaPrMXoMc3o6u7CwM5eeIaLYslg/RtkYKmor2sqg4kqisrmg1hGybFSCsgLPHjkUClK8HyWNqJownMoxSRAVVVWe4iGw6irT6ClcRg2b+vEGxkL2YnT4R41H+3RBmTlONP8ZfZaE+GEovAVlYnCEyiA0kwVc073RUECJX6I5noPkIiXjPdEAuWBK6ucfRDdAU997XEGJOijIkDCtTHKyr82rtRz6u1zpvUfnJX84bnqIWfwHueaagbD5s+40Sjlrpkwew4+8y//gT4hwtIDTLdY8CG7HkrFAnozKSbzV0N8xjs68cAdv8dgKAJr3unYMWYC+vUqJnCiJqpgihJqAmCskYe34jng9VcgFvrg+BaC+DD446ZAn7cA6/UoSvF6GJ7EBOTJeJJyIW8OOnjTy6UUPRJsYzcjKDJzbozljewb5V+YryJvQeIvXIWMU3FI7CFUj5AlPsKBA8krICoDIddD3MpiWGYXik8sQnXHJpwwaxLOPf8M5PM5FJMpDHT1YmdnJ3oH0sjliygWC7BtmyOCKGJzubGnBj+xrFy2d5FZ0zRomoJwSEcsFkVTUwNaWlrQ3NQEJUw7/wCPP/IMVm7rQqltLEIzjkGmtg1JIQYjUgerKo6MqiCnqYx3iACw1FjHqItc0mTeQ3/NUkIVz0lj47lMDpKSVeQQmBNh6aMKJIo7ioM3s+/xhXmbr/O1SotWoCXDxkMVgCrXQbNTGpwSFE6/c3rry/v/yofOuPcIfJDW1EGb2XNnH36yLgsL9era8Bn/9Hm0zTgWWUljVM2uZQBGCZZZhKN4kBwbtXkXy+9fhK27tqOLEEQnX4jO6iaUQiHkBQ9yXTUkQcSYbAHR5UshrliMZiONsGJBUAOkc4CdGI7ekeMRPuej2BirR0aKMolJKoy6Cu2uORT1YH2IapoJyQuk1sa5/ik/T7thYm7geXNenCXdXZ2YfPHs5/oAACAASURBVDwTsmciJPhMgD3mAlqpgKhRgNXbASGbhJgaADL9wEA3hrkG1GwKp51yHC64/CIM7mpHKdUP1ytBlAS4tgDbdpgjoF4Bgoqalsl6B7jeMdeNY4AsSYaqKCyC0HUFqqZAVWSoqgyZxpP1tfmwPR+SpGPRg09iW2cSRTkMM1INO5JAKVwNv2kknObhcJuaYcZrYCkqDFGGAYWR0HmiAodovampjQrJzDFS9FjhqOa6wBQ5MaSVKLDIikUO5RbkfxTp06Guvb2dAaUMCTxA+6iw46LJs4JhRvLS52ePumuo5zt03LsbgYNnLd7d/f5dfouig4Z5R9xfX19/tiFoOPXiTyI2agIGTAuSLCAkArJIzUtZNFVF8PL9j+G1FauRjYWQPnwq0rNOR0oMw1M15CUfQUMMcc/DqPUbYd75e0wMspg8Zjj+6YufQjQRw2O3P4xHFj6BbMtIZI6Zi67pc1hTU6Bq8AIXFjEn+OpfNDG9n4PHd7tc0F4gXD7t8smwmTbCisKkW6h7WBUEqJ4DzTEQ80qocUqQc4Pwkr3I7mhHoWM7pHwK9QTG8WzUEc/R4CCTXfRtB3XDm1A7rBnf/M43IQcm8gPtyOS7YRg5yAFJTVZYMXkDGvENcR/JU2gMcko1BIpGKF/tOwzvTlGKQtFM+e+70zOuAsuS8Yc7HkA+5yGZzMIwLTS1DINSE8cgBCQhYTCQYEZqERnehsTYsRCbh8GOVKOohGGqYZQEDZkAsBQNUkiHUXRZ8xrzCcT0Wr7FSnDHu5HLpEkHQKnh/Vwbf36tCs6Mtfr5YLU2+lN3A1Q7Bprc/DdWz2j6r72TZwfzfj+o1z7kDPbTzJ5z9PRjAs+5vaa+frQer8OEGbMx4vCpEMMRqAQjskooZfrw+soV2LW9G72BivyINkjzFmBruBmBEIUDGUZEhVsTwnCziMbnnkT1C49jckscX/6372OAqJ8tD9GsiTv+4z+xNZVG55hxyJx4HjqrWyGEYxA1GTmKsQmKejD7DCp897TjFwA58KD5Fqo8F5FSAXHHRtRx4KVScDK98FJ9EAaS0NODUDNJaCYZcxPwTNhO0ZIkOV3MZDqQL24ZWz98e2tD84BSFT1pQ0f7OXq8Cl//xjUYNaoJxXQ7xCAPjyIx24VjObBsopcmygsy/BV50T0FWYbp300Zy1xEOYvNCfX2ZNsEhOQ4Nq7bhUefWApXiOHSz10JXVOwq2MzNqxfg3QqiVwhj3Q6DwlRIBJDTpWR1RR41bXwE/VwYzUQG4ZBbm6GE40hr6gwwzGUSNdA0mBICkxJhU/EbYzOltdPCHpLReWDWQvaT6/LX5yGcRPRpoGcgUJNhAJ0QsZZJdTD+GlzKv+tJceNMg/U9Q+d94OVejzo83nO0dNOEXznjvqG+lpBEmH4EmqbWqGoIVj5LFJ9XZA0HSk9gr76NqgfORY9sVoUI9WQgygMSYWViMGKiJhql6De8RuM2/AKjpw1GadedS16LYkha5y+Tiy/8xasfH01kqPGIX/qJdgebkOgxBGKVCEbEuEwuPbB8/W08yefpNgWIo6FhGMikh1AjZlDsGsritvXI9uxBZproF52US2LCAsh2LkSUr09sM18NhYLbxQlPOd6wvOe6a7tEqMDq1atIgvtL1iwQD5v9uSPvrlm7W2B62jnnX8WTrvgVDjWILxcH7uuQMVbX2BoIWooo9SQYVhwqWDs8lQRRQgS5a5YP0EZv8kosVmJl/2X+g4Y6oi6o8MxLFu2Gq+88BrqG8bgq/92AxKtLYzYWnRtBLYDq1TClo2bsOm11Xhl1SusKU0OaaiurYMkK5CUMHKujy7DQFBdhVDrSIRHTYXWMhJmTQN6lRDSkThSgsqdQrmozhrpGOz04M3rgXrJmDNgneoCHIX3HJAqnh64qEP+6RYjecmSmYclD9T1ZwBK64LpkQeXvE4ayR/KzwdvVR3kaTx1xqS5oiRenYhHTxQEJS7qVaItKHBFGaYkw4xXwWpthTB+GgYTzcjqMdi+wIq+bjgGK14NR5Ew1shg2OIHEX/uIUxuqcf5X/k6koIGy3Zh9bbj+T/+Dt2FEtJ0nrmno1NrgidGoUbjyFYR/82+0rT99YHbA3Hn+H/qduZFTf4didE38xSMKIsQHQsxwUCNX0TdYBaxrh642zcBfR3wkp0IF1KoJZSVbXimVXQ0Reov5HKbS1lrc1iPbBAlZZ0TmB3bClLX+vXr7b9yZ8IPvv7liSgVn9624c1hEyaPxhe/8SVoIRd2qhcqVWsJhUTwUW7Sy21vXMOY6gjFYhG2YRPDEEMzsRoL8wHc+O8Rz6HXhHoPRMYrdNfdC5HqL2DMhCNwyRVfhqvrCGQJUVVHWNUgSzIbB1Lach0Lmcwgkv192LF+I7Zv3oa+vgEMFnLop/qHGECLRpEsefAicbiJJgStoxCMnohiUyuyiRokqV9BCcOi+gvrUOYUFnS7rNhcpvnwRJ9RlzBEmcd5oA5i2Wif3sSKM5ADAY7EqAtZf07E9xAzslvHwD5tyQHqRF4we2pLULJ+3VybmJHJF1cUS7krl27Y8aETwTnkDPZpyQ7tYNq1NgITQjXxs4ti6PiMFhru1zWNVUeOkUuNjchXJxh/TVpQYcs6CAPkhHy41Jikx+GLKhqcAsauX4nsH36OqYKDmsZaHLHgeFTV1uGNFxaj481N6AvVwDv6RHSNPxxpJQ6bAHlVVcgnokxKkbFg7ofPW6QlWaGXYKt7nEFUCsjuwXMdKE4JLSR4378J1cl25J9dhqr2DjSKLnTBgiLYqKXayGA67QA/ThYKT/t5YcNWSbLWr19PWM4hKyj++798bXhLpO6eFc8vniOoLr553TVobauDlemDb+WhE4KHFQ3KojC7E/C05xcZjDSbzaJgGHCYUiV1LROyiawoFcDJoZTRTexPBb29Gdxx1wMwfRXnXfIpTD9qLhOzJ7ILxstKCCWJ9zJo4RiUiAaZ2FipG50U7aghkNJ9ThH9ndux8ZWVWHTHbSDVSw8KCr4CM1KFbk9CMHI01GkzIE45EpsDHUaiCWagsM5lW6FCPO2gJUYCK8oBbOpEpzfal5m8KDUd/hn33X5YDfv/FMztEtyXGjQpTURd9qSZDR8x10OdaQyMUf0zn5xcd0AQRcceMeU/xjY1/HNEDKR0oWTu7On95AubO+7Z/0/6933GQ87gQM/P9deLc5tHX2lX1dxUqK5Ssgp1JodZx6lDYiYy4d5DcOISLF2BLYYgBDJ0p4RxxW4ESxYhvvZV1OQLqGJ6roDpmMiHIsiNngzMPg7dkTqU5AgsQqqQdGJVlDU37c/JrRT5yptsbmCJjdQXoPg+NK+E2qCIxvwApHXrIG96HeLW9ah3fN9PD6Y1XdpUdPJLtZBuyS6uDalRvy+dP33Ryy8vfbdTcOONN8bGRPVvLnt28bdT2X7xU1deinnzZ8HO9UMwC9Sex26y4sxYb1uZdZTQWmSwHdtGNl9CtlCAJHAhG4b+Z86Atty8Oc3zBChyCEuXvoplL68F1Aiu+fb3EattgldRV6NIhBUZeGrJJauvEHpAgCbLiCkhKIoOyDIUjc7rYO2SxfjJv30f1bW1OOvCi9GdzuDNN9ejt7cL+UIRdqwGRutYeFOPgTdpJnZoVRjUNLhEkMcU0bjRJLU8Dj/l4QADc/Ec17sd3vftexVnQPdLZIYU3VAnOvWgxD2g3jTTbZ5x0dMzG586EDd1wuxZX6xWxf9qrI6HOnt6s32DyQtWtnc/fSCu9fd8zr//lfL3PHpDuLcZr76qKKXQT7tK/pXFmI4SpRs8HRo12SiEnFDg6tWwdKKtBmRXguaJEIMAsaCAZrMf7soXoGzaCD2dhGyZUGJxOK1tsCdNR3+sAY4YgwEZZkiHHa+Cp4cZCdr+9AaVVNFuGCA8Rpyn0k8xhxHIob53E/LPPoHIzl1osCyYvX1Fp5B7SFSFX4TCuVX3Le8kbvlqsegvaWsafngqX1h43/IV5w9hGN/2kOvJ0Y4f9bnVK1betGnz2tCUIyfgK9dcAbuYhJMfhEo0HYyPiO88eQaIK6QRCR39kEMwbReDqQxcqgmU6wMUoBCpsihQEZfkL0kJTcMf/nA/coaPMZOm4fJPXwmTYKLcy3AOWXqjKjQb5JwJjcT8iw+F6RWQk/AQiqgIiQFu/9X/YP3q1Rg5bjy+fuMPmRqc4zrYsmYVHrvvbmzcsBkFSUeuugW5xDBEFpyCwXET0SPqSMkaPAIneFyak2CrrKOOdSa6EIginHWe/H1/mDMgDeRKyosVyX1WNK/yBNSaxUKLVfrMc0c333sgnoQi+ZCZu0kKgrmFYnGRlSnduLzzw6eGdsgZHIjVtdc5Zzz8ajgYOe7ePkc6Iyf7DDKoeBpk0YMju7BlGY6k891rEEBxaacdwKcdqUi0zgW0Bg5CA91Q0gPwMyloigavsQG9koISUWPbMiyqScQicOJVCAQqOla6kvfHA1aIhbjDIpZNMjZh10OtZaLFTgOvPQ9vxdNoyaYhDA5msgO5RwMruLVkFVf8+Yt1/jFHfi4qK7+wPccx5dIJC5/fuPzd3uWKJx49Z9Prr/3u2WceTzQ0xvC9f/82JMmBX0pD8g22Pd4t4l5ugub1AIHBSXlh2MNgJgvTIKPKJoI5BYKYcgiqDAQyBgfzuPvex1C0JZx/0eWYecx8lJwAIu3SmdoaS0rtvh5RKxD6h4SKeJ8Ca3eGqirwXQuD3Z245ac3wTFMnHnhhZh/6umMvkLWw5BFAZJr4rUVy/HIo49g3ZZtbI6z9c3wph0Db+Y8bAnXIaNHGBki5Z7YnBMdtkBdDKQjobL7/nv/VJwBR01V1i31GviIegJiRtFqMVLXLp878uYD+CzS3LlTql588Q0qIL+FCeoAXvPv6tSHnMEBno4Zr26LDyp1T6QR/oitk5EnagqF7TotxSnTNxOFAaldUd6UGpAcJqFI3I2SEEBxPMQoh0oNbMUcJNOCLXoo+g5Ewqk7AqNFdqtisDUdxHVDKYT9hTrZTf1MG07ewgDZd9BcLGBsuhepZx9A1fbXMcYpom/dxvVu4H17QzZ4uvOv7K5mzIAyUpm0uro6enhvpu/m8IodX323YiRrX1pydH4gee/tv72lJZ/tx9eu/QKOPGoqjEwPRK/A8vhkoskY76mgcBoK+pBDoGxOcjAFo8T5h6huwLI9IuAQrbZA3Egq1q/fhicXvwxRrcaVX/k6apuGw6beBNJJYBkb+pMjkVgjGxVWBMBhKl4kgsNRS6TmpQouHlu0CC889STjO7rq299FVXUN64oWZA2SEkJ1dTVCIRW2mcMrS5/BzT/7ESQtjJSWQM+YqQifeTGjwSiEquCSeBDNjUD5dtJ1oKiI+iz+QSKDMhcrRQeceYOji8LEGFvIeyOszA9XHTPiOwf4df1Qn/6QMzjA03/Uyg212+Tax61I7aySZDEjoTghhm1xZeKkcSFRxtcNsWofS2xIVBEkg0Q7O65wRflTmaQi6WVxTDheAYFPCl9EuhZiXPmMCI0dw5LVQ8ajMyOy1zhUSOTYO0nOqSIjyTbNPnzJR52Rw/hkJ/D4/ajqWAsl12+YqcGHswOp//dSe3LTOw3r6VMP++e24c0/KBj5LfmidcqiV97c9U7febt/X/vqsglVkvLo/97889EdW9fj2PlH4ROfvxxwMgiMJATamZclMcmx0odHBhW9AAGCRLv+DPJ5IrzjRWQWGTAlM2LR1KDIOh588Els7kiipnEkrrrmWqZKJ8gqdwaE4qlQTLO3ikjX+PV4zEBGzqfyASTfQ2EwiZ/ceCPsUhFHHTMP53z8k8wRsGsSUw/xMokywpEIYtUxKjOgo2ML7v/D7/D6q6uRTTRi1/DRUI47C31tk5DWqihxx9U/pQAGsYBSDeTdDOpB+c5bo0/ebU0cRQJCVhGtdvrXb8xo+8JBubUPyUX/cdbKP+iETH1pa0OXHn3GqaqbUhIdeETQ5ulcyJ0Rs3nwiLbB0VioT6gQiWoJHu3uyLzw3SQVadn7Qd8pIy3IqBB5ARkBliJgerxUhSONYdoVDg1NRDswrrlbHuSy0adT0RkoMqBfMfK4wEHCLmFkz3Z4T96HUd2b4XVv8zPZwn9YueDfl3R0DKkx6ONzj5pWzOSeHlZbF0k6pS89sGz179/NFG9/443GcEh96rlHH5265LGHoCgevvvD61AdE+AWellkwCmguUlmZprxEZF8Jdkbrm5GkUGpYECUqUOCH0dzJYoqAl9mHcJ33v0AetI2TjztPJx8xtlw2LiJoJ4SOhlFBpViKI1YxRmwzmaWtiMBFx8hWcTSJ5/A/ffcg+raGnzhy19BY8toGCTSI0lcBU4MmM6zUTIhSSrqahsRjlXBymbw0B2/x30P3Al15EhsCNdBOP5cDI6ahoFwDUxJ210rIl/0D1A/5nNSqe3Q3yq03bSabQe1ERF16d7bNk5v/STzuoc+B2QEDjmDAzKse056xOqdw3rV6OK8Ep5giMRQSRZdKZONkd4xFz5XKcx3A3BWewuS4MCQSBRFJZY3aBalmGw4FPVLKqN4kD2+a2dsmOXiG2UmHJUqExyTPpTPW5wBWxF8V0YfRuJAho6agHwb1XYOEzIpmI/ci8aOtdCSO9J9PTt+VCoN/vfyThhDuR4dc9rYsZoQVX/bFK++xPDd5cWEcspDD72UH+r3K8etW7euJqEqjw/u6jzqtz+/CalkJ772r1/F5Klj4OS6Ebg200cmY1OJDHh0UNZ/YEghH6nBNEyTIjIurkK6B2SY+Vyp2LipHU888Tyytoirrv0OWkeOYSkiltZhKShyOBVnwI0/ORVKFXEJTpHrNHg2RMfArT+/Gf19fRh12GG4/POfgcmOJjgwz/ETmokVsGUBLktVqYhFaxCPxyGJHhb+4Wbcf//dMBNNGBg+AaWPnIj+cVPQE4rDE8NQqM9gr16QfR3X9//4cqG/7AyYI6WNE9GVBCbazOSi8Ir+C1ZdMbMsCff+3+EH/YqHnMEBnuGpazpGJbXqp0tS1ZiCRyRyZDm4ihelhSjtI/su4l6AkF1ANChBI2fgB8goKvrVMPJSCJKvMbgd8bZQ0p4w6xLbuZKT4HhzOhcliCyJpzmG2oH8ts6gbDFpn0x1DPIPVU4eEwvd8B5ehKat6yDt2uQVCqmvPf5m+y+YAs8+fs6YO+XEMKRFIUVTDdu/7L6XXtlnbPe2bdviiuc+pNnusb/5yY/Q37cDR847Ev/0hUvhDe5kBIEicwacFqPSZcwI8hhSSECpaCKTyfKO5LIzYOI2bAQp1aLjsccWY936bahpHYsvXvNNiKoGl9JEkgSfmEZZlzCn4ibDT4aYmsBYU5jLqy50xpAmYsfG9bj15pvZ7z562aWYNmc28q7D0kKBDah0X5SekyW4ngvH9yBR+ioAIpEY6mpqEAQmHr/3dtx9x93IiBEUps5Cft4J6GwZh3ykCb6rcKGcoe0H9nHmDsThlXiMF3cYfTml3xAgqvoYnutbObJjx0kPnTN3nzcMB+JuP4jnPOQMDvCsTn1x+2EDkaonSmpipC2IsGViZfQguSR4IzKd32o/j9pUD9D+JoTurVByWYSkMNyGETDGTcZA6xgMqHEUKG0kyKxln9JMLjkCxWIayKR5LHgaiwZoV8ry/UN8Nk6GWcHj0zV4WohFBJR1oh94aC0OIP7cQqjLXiDpyYLV333Tpjc23bCVQpl38SGCv+pZkx9qqE6cmsnl7zFc+TMPr1pV2pdT9ff3R+1C9gHV8k567K67sOrVpYg2RvD9H34XQrEfVinPnAECQtjQTpN0BTiaiKq+FA3kcwWYhslQQcRMylJITH4T8D0JRsnDPfc8jHTWwLxTz8JJZ54Li1rGSUuCajkUHZDhYpFB2RkI1PRFWHly9mXuI4HqOTZu+80v0b5uPaKJBK649uvQq2qYxrVHWDOZ1x9Y/cgWEFbD7H7dwISg+PB9D5oeQby+DkoA3H3LrXj6ySeQisQwOPlI5GbOw86GUbBijaD1Rs6p8nkrqqrSkT30dbIv8/KXx+6d3eH3VOld4fitPRAepnTmU3Mj1U58RBUfU4Ni95jtb8wO/niLVMgN1uZL+cHHnl22473d06Fv7z0CQ7UXh0btXY7ApJc2T++LNSxy1HhbkXaLRMNAOX/XgW55aPUNVG9eBnvpU0gMDkLN5mDn0ozaQI7XoV3WoBx/IgqzjkOXXouiSGTPIkMbCQrlrAnb7pYpq8vpCEatMPSXnL+U1LZE5+MKawKxdrI6hcwYRofZ/Ri+cTn0h+9GdT7rF1Pp3/QsffnqVWWCzXc5PDhz1pRPJSKh/3EdMynqoVPvWLxy/b6cK5VKxa1C4WG3kJvXuWkjfvGzH0OWfVx33TfROiIBOz8AQSTxGpOxZvueD5n0iAMRJcNANpeHa9qQIMOXSTbUg8D0FWSY1JOgRLBtcw8eXvQMHEHHZ778VTSPHMWouVkqiO1eOXR0d8cZcwg8SqMdvefaIGiAJgE927bgph/cAEVWcOo5H8XcU0+DI0gQPZo7iky4maRaBmkj8wZqnnIKBKoOUZ+KB6VKQ1VtPWzDwm9/9jO8vnw5BmNxFOeehPbDj0a2diRMLcxoSRiqjCId4q2gXYRHFCLUtMbrRMyRDXnrsA+zUxGuo7sX6P65E2Za3gztRv/vs5QW68D2eARkGXnUScRmK8IOJIREAfMk06t7buGftt350wkRVW1EyUqqPn6z8+U1v1xCi/fQ5z2PwCFn8J6H8G+fYPILG+f0xBvvsbTq4SVCtsgEFPKgejZqbRvDuzZDfPgWNPXtQo2oY+y4SRg+shWlzCA2vvkGBksGtmshBMedjdyUY7ErUgeXCO2oyai86+NaWHw3zwvBFZH5oT0cf0kdlr3yCMHEInWPpa+oUzpslnBYahPsP/0a47vbke7pXZsvGGe9tH77zqFd4a8fdfyMw8fUqMJTiVikNe94/3n3c69cty84b8Mw2vKp1JNmPjvBzmdw03/eADOXwXHzP4JLPn0+zFw/PLcAKr0QXQb1EVAUQDBSx7Lhux6jkCCBegs+Q6/orDEsgCXJ0PRqPPvkMry+ZivkeD2+cM21CMWqypEFrzuUuaXZQ/KeMz7+FMXZnsP7RcgQmyU8ufB+rFy6FNU1dfjS174BtaYOputDphzWUD6OCFWWUPIziNQkkKhtxkBnL359/f/DrsF+dLSNRnb+2ehtOAzF6noYqg6P+ikYkS1T12FRh+IqpLNTVo8rR0pDuf4+HMM3JLybmOlbgDs9Sp25lFJj6UyKlkQ2NxER1FOAer8IubcbiusC4ShCkobqzetgPnUvGoudUCNRSAULhYFkqSQE37h/9YZfvZs05T48yofi0CGuwA/FWByQh5y6eN3xXfHmO6xoookKyOQMJNuH7hkYUUhBfWYhml95CvWSj89d8y0MmzYDKasEXRNQ6urEA7f+L9au24DCsNHIL/godoydAVePwNNJTU1gL3TlpeNEChzKWDFMQ3konhZy2Hl8UA8EnZSKxg6i8DEqn0V06SOIrHwS4s6tnUYmffYL63e8NpRzv9Mx1HMwLnLkT+TAvcoJpI2+LB9335JXet/pe5V/N4z88WbBuCeXStaFRWDh3Xdg1fKXoGnAl79+BYY31SDVtwshVUDJKMIi2mzagQoSZEY/FMCTRBQDF7KmIUxdwyUbiqbCEUSsXb0eK196HYMZC9PmH49zL7kUAYnUeOW6TFnTmDWUsQ5n7pTZjp4oQYSARQY0vpLj4sc33gDHMHD41CNw7oUXU3UIgkoSp0Pc3PrlVJZKIj0OaupaEI3VYs2LS/DjH16PVG0dclPnYvCwo5FsGIlSVQ3sMsKIoMxBQPMsQXVlxmxL0QHTljgAkQEVgakBzmdOSITgKKypsiLWI8keAsdl0aimiqga7MO4vl0YfO4hhFK9CCsiXEVCXTwOoX0HoulBtA2vwzmXfRpP/Gkh+jZvRKGQKhTgfP+h5W/+5JBDGOpb8/bHHXIG72383vHb059546TueNttpWhVkyG7bIem2gKivoFxXRuR+93PMa2UxpkXnIfZZ1+MnUUfviKi5OZQq4pwd+3EHT/+EXYMpJE/8XxsP2I+LD0CP14DU9GYQ2BUCOWQvOIQ9gl/R4afcJasW5e1GJc7om00eEWM3bYO6sK70Ni11ctkB3/yxPLV33jHB9+HAy6YPWWGFpIfdSyvMRKJXv3bZ5bdfP3/bSqvfwfSuiAIFMdxflTK576YHehTIrKAzevX4bb//TV8z4IaEjF94njMnDIRiagGReepILssC0qRENVD2PhRgZbSQ7RxhoCBbBbLli3HlrWboCsx9KTzuPjqr+DwmbMZMV2Z25qlO1jnbJmOgs0Dx6wyp6OSfoLnQlckPL/kWTzy8EK4vosvffmrGNY2BpA0uFQsHmJk4Ae8kCyLBkNKqaFq1Da2wvVM/OKH/4qVa1ajv6oJOP5j6Bg+Cam64bBD1IMgMj1ugq1KgQjFE+EQakritY69W/L2Yer+5qGBQOudUl90IZkV0ilA8mhIfKq10LhRL0eAWjOHCT074S28B4mBrQgrLouoXNOAFrjQIKCmdhguu/JqRBpGILlrF5744+/R374JyWx/KmsWT33i9e2v7K97/zCe55AzOMCzPmPxGyd3VY24LR+LNRqyg8BzEfZ0xNwCJmxahsKtP8HkUAj/evNNGJRr4IpRwPFQEorwAwtObxde/N2tSPf0Y9P4meiZfwZyig4zVg0rEocpK7uLhIwPvrwrpR3fUD8UGRBiSBA8ltul1JAXiAzV1FboRN3TD2L4Ky/Bb9/S2110jlu+efPGoZ57KMddAEjK/Bl3hRXtY2ahtLxx2LBLfvzAY9SE9jcZTB3HmSdJ0t3p5MCwQipJGvRMN+Lm/74JhUIWrm0hpAjQpeGETgAAIABJREFUBR/NtXFMnTIJw9paEYpGIesqwIRuAogkZekHMHIltO/sxuqN67G9r5ulkaKBBrfkQamuxie/9Q3EqmuBMgppNy12me6adsL0Q1BWwhORkVMEEZogIZtO4Zf/8wt0D3ShZfQIfPbKL0FWIxBAmgsBygHGOw6XHQTQdA1ByYAmiyiaLiLVDahuqoExsA3fvOrzyAYaesfNRPaY09BR2wqzuh6+FIJDnD8SB7ORM6AdOjkI5v4OQKcyOQJyPqJHkFm+NgnVZREwQVMQOD5CjoVGr4gxXZtReuBujEr2IiJ7mP+xc1DT3IwlCxehd8MayIGPWfNPxPyzLkTRFhFWRcilNP7w3/+FVH+P2ZtOffrB1zYeksZ8xxX01w/YB5PxHq7yIf7qjOc3nNwVabk9E4s02DLxPHsIuxpCTh6T31wM5/b/wcT/o53++k03IiXFIUg1EIwSHN1HH/Hyl4p49e470LFhI3ZMmo3UsWciq4WYDoJTXQvn/xwJ5btZg9hezoBh5Ycw7pUmKdqxUZdzIBLTJ0GeRNT7Blp3roL6p1vQ1L7JD1K5f79/zcZ/44nn/fs5ffqkc+prEr+PyXIUAjaagbdUCKvLg0DoUCJ6VxzxtD6+O3/99UvcIAhEu2BPkkLSjwVBODmd7EchlaISMCKKhFtv+Q02bdgASZQga4DhFBB4FmyjiLgeQX2iFtWxOLSQBlGV4VoWjHweA/2D6M+XYIZUBBEdOkToeQeKL6HtsAm48ItfQEDFXkFhBVeeGeKVY9ZnQJTS8ODaBhzTRL6QR09XN3o6OtGxbTuS6UEUHQMXfeoTmDL9SEYXERApIdNcKJPcvcOwMs0Cqjk5ElNtI5pq6mFPNDWgKiLggd/8Ak88/iS6a4bDOO5cbB42BulEI8RoPQy6SjkCIWdAKUYmT1p2BvvbGFTAuRJ5HYqYRFpfNiPj83wZuudidGChbvNq2I/8Ea3ZfuaUT77oMow57iR0ZgqwB/rx6r13YXDTOhbFTZ91DObMWwBZE7BzyzqsePpxdLXvMIqe84lFr6770/5dlR+us+3v+f9wjd4Qnnb6kvUn9VS13J4JRxstiRqgKE2kIuoZOHzbMpi3/RSHCT7O/tRlGD7tGJQ8HXaphGJgwC6WUOMFePBXN6O/kEb6iGMxMG0e8noUg0oIXqIWTiTG8O70eTeRQbn3ChIhTCjHK7oIAhlhB2g1UqhbsQjhZ+6G2t+1ZbAvc+JL27vfc9H47YZtwaRJUSlwb2pIVF2kiYgKkhCImmznzVLRsKxcW8uIDkUPvX7SWRf9cu5pp82KhCNXCaIwA0Gg9Pd2s3QCXBe6BKx46SX88fbbEK2qwrmfughbUjuwdM1yGIU8dNuHlLOg2QFP4VCTnhjApVSZqMKiXXd1lME+28IJ9L26Dool4LyPX4xp8+bCIeGD3cDdCoifIKuAb5tY/NQT2NG+Db09nSiZBmTiPrK45KakKJh21Aycc+HHmBhOEJAWNCGbKFM1NPiXJxIFSQDVCsFlTKUOI7AIReJoqK9B15YNuO6fvw4rmkDyiLnomTobO2K18OPD4JLiHtueU8Miz92zRjhWH9q/lOfcTfJKBCGj6ENRJyHfAt9jOth1mSTGdm2H+fCdGJHuQCA5OPYzV6LxyAVY129iRyYPyTcx1rPQ/vAiDK5dhYgMTJ08GYnGGjz3/DMQHBfpZGaTqOlnL3zx5c1DeCUPHfJXRuCQMzjAS2PKs2vnd1ePuKsYiTWbksucgeLIkN0SJqfa4f/pVozYtRn1iSiOO+tCRJpHwiPKiSBAxALeeGYJXn9tGXZFFfhzT0Zy1HTkFA1ZJQS3ugZemIRsqGuW6A84QJA1b1Y2re/wfG+NDAKGjaeSYq1hY+JgF6SFv0Dj9pW+kU39atGL6750gIdLPGPm1DPjunqGImOyLIotfuDWVVUnwql0Wig4Hq776S93TDliVgJAFRVoSUmsr6ebwS0Fh4qjHgrZNP7tuu8hkARMO2cBRp0+G09vfRlF30apPw3054DBPCSb0nY+y2H7qoRotBpaXQ3ESBhxNQxvSw8GVq5HHDqu/sq1qG4eDo814HECOro+fag3QZUEbN+8Eb/8+U+hknqZKjE6Cz0cRVW8Bg2NwzByzGgcOWsmAklku2NKN3kep26mwvNQariB4PAGOjcMh1BQIkGCqSCuoLaxGaoE/Nf3r8Prq1/DwKjJsI8/HdsahiOr10OoqoVJ15YEiCS0U6aOPlDOgDkAokwhdBo5LlaaoBY+B83Zfozt3IrCQ/eiObkTcV3ARy7+OOpOOguv9xroSJnI+h5kNUBVMYPDYGPzovthbH4DcWqyJCfue36hZGzzZe2Ke598/rkDvDY/8Kc/5AwO8BRPeGbt0X11rfeZofhwgzoESAWLKAoCBy1mCi0bX4H14G1oc4toiNdhwqRpSDTWwzUdbHt9A3Zt3Y6k5CE1cRykY05Gd6QZWUFGQQtBqKqGp4fgi4QHYQhujiTaB6RgpdmHogLWtVDuXG4tljCxfQ3kB3+JRM/GUv9A3yVPvr5r0QEeLnb6BQsgD3OnxEKyUquHYp8yXftaUVPUURMn46pvfw+ROPkCDuEsFYsYTA6wFA1FBlSUDFwXt996K9a+vhrB+Fqc8K1P4/nsFgxINjNKITuAlLfgF0tEAsXSNGDoICowU3VTQI0tIvfSOgjbBnFYy1h89oovMzbRChNsuS2P3wc1m7kOnFIOf/jtLejt2gnfsTB/wXE4Zt58aNE4JD0MUVaZmA5zIIyriH4ktibo3ofCI8T7dBlJ1V5Yfap7BKhpaIaqa1izagV+eN13UagfAW/+KWgfOxF9WgOCeAMcXWPRAROfZ7t1XlSmmsH+NgYse0mGm2lfgBXKqa4z3MpiXMcGFB+5D83pXqiCjZMvuhSt80/CsnQBGwdNFKmwTpMpeNBhI2Rn0OoU0f344+hd8RJaIhH4pplWVPnSXz787OPvx7r8oF9jf8//B3289vn5Jjy7YUZfXdNCV4+3Glw4i+3cKWSO2CWMs/MIv/QY/JWL0WSWoBZLCIe41rEryHAiVSgOGw5x7knYqSWQUatQEkkmMwzEquCT6DvLOZOBIWdAzTwVuOnQbrcCAQwop0upiwAYk0tjzJrnoD70G0RSOztN05j/wCs7tw/tjPvnqI9/5CNHRjX1di0amqTVRnHNv/wLho2exHWNqVgrCCgUChjo72NKYr7jMJikLErY+Noq3PX7W9EbdXH8tz6JHQ0BXst0wdOpmEkUES4E0pMuFamoAF3Q2O9pHCOOgNqMh/QzqyHtzOOMk8/CyWeez+knWBd4mYW0/Jg0XhL1Egg+utq34fe3/hpmsYiaeAKXfuozqBneghKl4WSVjS0VlV3XhaipKDgEY9Ug0v0MYdiCgHTNCPBl8UiQnAIrELmQJBlNrW0o5jP4f1/7MroKQHbqLPTOOgZdkWFwY/VwI1GUWK8LbUg4VTQHGwzl6kO4wb0OYQ155HjKBfaw76DezGHkrk0oLbwTwzO9kH0bx196CSbMPR1JPY7FVFsJRBiKDMcXoEkKDKMIPQLoxQwO9z10PvIn5NesQdhyM34gnP7bxYvftR7Gvj3RB/vo/b8CPtjjtc9PN+nFLZN744lHA61mBBkEXrTjAjFkPEIlGyNKKdR3rIH32isQu3cBpRyoJVNsaIA/rBXOiMPQXTUKJTUCQmWXZAleJAIxHIVHO9kyHbNbdgZc3H1orzctAEISuaJdVptSmQ7tpFwPwg//Hs0vPw5/cNcj6YGdFyzpwJAYSfd5kN7mC6dNndoS0vQ76mpqjrUR4Krv/DOOOOYjEEi4hxltH57rorurh9NUOy5UWYTnuFAkCXYmhV/ceAN2uGlMuexkROdNxPN9m5HTSWyGojNe8LVtE17RhOYRVWzAdrAJS0BsVw7pp19DtaHg81dcjZGTp8EmvRjqOmbBVxleSqaZaMOpq5wMcuBix7YtuPWWX0NwPdQPb8Xln7sCoUQNPDLA1ATMGOSI+U+BQ/oDJJ9TbtD6y6F46yvqByq7tifnmWC8GCiUNIIgebAMA22jRrEO65tvvAHLV76B/pETkD3hVOyIDINX3QxTD8HUVEZwyPk/qU7EnUEFjvyXxBF7q73wf2UgJEbUx2k7KnfJqyjlngsGuaV0jgAFHoZZGYzo3gBr0d1o6tuJqCbhxIsvwag5C1AUq7DT9fHCjh0oygocRYHlCNDoeT0PgRJA9my0OBZa+zZh0z13w9vR6SBwv3T7shW37I8192E/xyFncIBXwJHLdo3tiUaeLKraaDegl1+GQ6T2DHLngzTM6UWptkuopWazbBpWsp/RHDvULavpMLQQcnKY6dqS4WGKZtVx+LICjwwY48FnACCeIWKoIipMvs307oUyqnDVkI4xrxUEjEdHDwxMT26DceuPMXVgl9+b7P3GoyvX//gAD9XepxdOnTntp7Fw9Ivxmlrp/Esvx8kfPY9BmGQihKNndV0MJgdRyhWZM2BylrsdoADFM3Hnr27CuvYNqJo1Dh+56iIs6n0Tu1QDnkCazQEU4vzxPQQlG2LBZTvsaKCiLuujuHwzvHU9GBUfhq99/ZvwFB0i1RHI9v9ZPoexEYkCay6jfgPKk69Y9gIeu/8uuK6DabM+ggsvuQyqHoVLJ2A6y/yze4oq984sNNFRlNN+jO+Idu9EeUHrhgvWCIHFUkP03JAkOHT3YoBIJIya2mo888hDuOO3v8dAwwgUTz4PW2uGo6DEINU0I09dyXQVakKjvHzAdQ/oypU1VPlFZQXtrkExIisPuk0kiyJsCYxvixYdrU8iS6RbYnBZgQj8CL8KDLNKGLtrPTIP3IJWI8mihePPvwhHHH86MoGIYjiK5zd1Iym7yJIwjySznVNgU/1FR+A5kD0L1cUCEh1vovfxhyD37LTNYvHKu19987fv49r8wF7qkDM4wFM7dUVnS7eExV6iZrzhAragwaccscC6myAR8DsA1MBDKHChOiZgFBBYJUaVQLs+SgMRpYAvKhAoLRSLMtQLe6GZMhqvGextWHi/wds7g92GqLyDI5plMpD0Fqs+EPPymLxzDXK/+hEmZPqspFGa+/TLb756gIdq9+nnHNY6rCGeWB2NRBvO+Oj5wnmf+BTkcJh3y1KKyHWRz+eQzWRZAZgRxbHUGD0vVU64EtvyxU/gj/f8EeKIOpx3/Zex1O7BZi8FTyI9Yt4cRjtztehBThm8aO/LiKdcdD71KqrzwIJZx+L8Cy6CSZTQJF9ZZgoqm/KKSWdpK54W4c6AZuT5Jx7B4qefhqBouPqr16K2sQmCpHB0zW5a/oroAPEc8SiD6ynzBkAizfOYYg2dl2ssSDKl8ijXSDgi8i0kj8Q3Cromob65AVvXrsH3vvUN5IaNQu64c9E+bDSKWhWCWANKoSjbaPjUgh1Qj0XZGZARL5ecWKxQDhH2bmSsaA1QAZrWDT0K61Ugh0DOgOi26fdlB0G7+Xorj/E97Sjd/0e0pTshiS5OuORyjJ9zElKChqIqY33vILan8ygpCkpiwESARJf4nEIsspBci7HmCtvXo/DC06hKdiPXubMTnn/ufas3rnq/1uYH+TqHnMEBnt3Zb2xv7BZii4tqZHLRl+AKCkMLEQKEFfEoRqed7W5qM4cxhFJBMrBdpnHAtU4k+JoGJ6QhEBX28jOoHrP6ZX6c3fE9hxO9HfnYn084TxPxF5q+rroB6uwcRm9YBvfuX2NkumdwR6Zn2vI1nV1DGaoLjj46FAqHw9lcX1iQXCksK6LHBBfoo73lFJIoBp7vC7q+5/eyEgiwvcMK+cL9NTU12hVfugptE6lOELDiLnWuloolViug3StFCj5RT3PCg906DPT3ga4u/OZXv4RYF8PMj52KUls11qc7meEi1ThCAVkyoDuAny4wY67YgJY20LnsTcQdBRdfcAnGjp8A2ycJTB+SRIJCeydSuPYAKaTxrAuR3JEEZYDejp246667GBz1wosvw4gxY2E5LkSmk8C7QHiGhqsnc0qL8rkZrQUxrAKiokDTdIT0ECRZguPyTnb+PZLTpL4QAuoQ4VuA+uZG9OxqxzWkk9AyFqmjT0X3uMORV6tghaphxxJwaCwJT+yThobEYKY8VOF/sHXBHCb/h8oMUsGZpZUoAqikvARKMzqMxVX2RMg+YEuk5+2g0cyhpXcDSgtvw8h0HyKOh+MuvgyHnXg6+gQNGUHBllQSO1MDcCQqbofYm0AiSpQAo1CFitshMwdp5zpklj2Jur5eGH19RjKTvnFAS/xg1apVhzQOhvJyvsMxh5zBfhjEv3WKI17YUj8Qizxd0GqnFUUZLr2wJOfnORB9ShCJjMmU8N7sRWPslBQP8Lw27WBJxEbyRThKAEOi9JLCDF8guvAEDy7pJ5cZLuleJBBihVqwuFDL7s/b1BHonymH7cicwlq1fTSX0mh9bTGkR+5EY7p3/cs7+md0vIOC2VkzxteFtdBZcIUTXM+fbFmFqCh7osByG/wudhO4lQuKHFQjCEE571IGxqIqEtWqorFGWZBItZ45PitwyzKeAmRWJ+GKZRUcLRey3+vDdAUkSJbLLK4hB8jrAmzadSKA6vMOYeLncWUBpmND13SItouoLyHiSEwwjnoDTFIgo6iMQTF5V+2eD/87OQPHoR4NQowRs6gPXZJhWw4rHNNcMHprZsB5J25lYFjai2NVy46GC7uQM/B8ErhREAqF0dLSggmTJ2PC4ZNRVVuDIkFpRQU+07agjgURkuCjdlgDspkBfOeLn8NAtA7JGQuQnHIUUlIMJTUGh/pTFIVRoLN6B1FVlIeP15rKKbdyE+PeKnjklEljmbb+9Ael2sgrkCY3OQO4IlEd0rYezUYWozq3ovT4HzG8fxtCkoCTLv40Wo4+GV2eiC7bRUc6g4LtwZI82JII19eg0h15FhTJh2+Z0AsmIt07MPDi44ilOmB19hpGybihP2L8ZPnyziELKh3gV/0f/vSHnMEBnsIz1u5IrAlCTxX0+plZIqoTqU7gIOrZUHza+xAayGUpgIogDRNgKYupU0aJA7R9+KoLRyAmUQ0y0zVw4QYuLGIxpcIq5c2przUwGRLJE5W3fbq9hQNZo1oQwGYVTAGa46EtN4iGlx5FYtnjiKS6Xrhn8fL5f22YFixYIDcJ7gzRNn/oO+a8eFVc0Km4TXE+8fMzGCQXlaHnI2hnRWDmrQ6C89Uoeog9L0FGNUnmlMauxYqiPLtCumHUh8GNOROZL+sx7BUYsNy3DQ8hcpJU+ZUlpgtM2FPJ8yBTNMGI/nhBmY09IZRc7oBJ05LQOZSPJ4cU+AJL21GPwFtrBrzWQsR15JAkcgTlzI9nmcxhkTEn6gva0TNHwcai3LrGOKEEeKwoTik/rl7HNQ14xED/Ric1TBO266FtzGiceOYZGD9lGhyS1PRklvenHb7v22horoHhmviPb12DzVkLg1PnIXPUfPQzZxCFk6iBo2lsy8B02IhHiTNz8MZFhlLiM15ubud/Z86Q7tcGfAViQCTbnOSQUE6uSPrRAaKCixonjZb2N+E+dA+GD3RB8kyc8OnPYtgJ52Bdbwlb+vpg6RKKVKeCDo9qZMwaSdCo78Jz4BPbrJFBvLsL2WefQWygG6pX8JOp4s9WD2S+tXXr1nelo3GAX/l/2NMfcgYHeOrmbNwY2yU0PJL34se6ggvdz6PBKULLp6AKIk89iJQKImSIxCKASgGAheYS1d98ltNXKL9LNNNM35j2vUQDLMIIV6FPiaFAMFRumhh9MufQoUwAf7P5Jv3tUgF+uagtQHdcjMkNoGbx/ahd9RzUTO+j9z6z7My/MkzCR+cd+U8hSDdUh0LNuqYJg6UCtKoYNF1nxUN+6UoefHcW5y2nYw1XxHHhB7xwyLj8KQ3BjSYrTgo+ew4iWeMpMP485Udjx3GVsb0ekIgaiB66rC1gy2V9XTpPmf2BnAZLxdCumrJuZNQp9UQoGcbZJ7DdOcViXKCOnFm56Wy3wSyPbyWXwtWC+FUrKSAyu+z+yh2B5eiCw3rp3nnqiDVolceMRUrlzFeWdC4sG5FIFA5FMfE4Tj7nHBw5+xjYDi0T0moG4ziqa0owgrj/vu5f8Mq2TuSnzUVq9nEY0BLIKxG4iQQcPQSboLLlDUSF/ZbW196pITYGXBaO1b0ptbY7l8TSRZTuJHSRwmhRlMBGm5tC8471cJ5+AI2d21GrhTH/Yxeh7thTsDRloD1tsk2MpJGDppSXCNcJoMo66/egdR6UMtDMFNSBHcgsfQHV/UnEbAemZbiDxdKNruX9YF+FkA7wq/4Pf/pDzuDPpvDkqVMjT61dSzZ1v3wWtLfr/X7itlwOF9Q4BcT7tyP54nMIkjvhOQb0kATPNlmYz/DvPjNLPJss+IwmgXSTXXiM/jck6IxymZgvydRbvge/uRXazDnIj56A3lAtLD0GtwxjJEPDUtEMjVJ5pD16B4xcjTbCZIsE7gwOy/Uh8fR9SKxeAjWbfOCeZ146/+0G48zZ08fFVOWp5urqka7ro2C7WHDmqZg480iMGjUGiqCWxV+YK3qrQ9p9Qq4NxqCiFDXsVf9gO3VmGIlAj1kpFhmQsWKPVD7Hboez103SERScUP6anYEgjryfjN9HBR7J/o0T+ytl7D1di1IoDkvZ8UIzGUm2a6YmsXKh+m8vEF5Qpg8L8t6CQOIGtYIpYs6APx7XSRMERpKXzWZgWTZisRiy2SyWLn0RK194ASFZgOU68CQJl3/6s5g4ZToLfqg0IygiEvUJkH7PT7//XaxYtxX21GPRN3sB+kO1yClheIk47FCECcfQfZE2NKXi6Ppcs5mPEwMosF+WB8xyIMg0pxXuE7qoDUlU4TsSor6POjOH1o41yD74B7QVBqC5Ds7+xOfRdvxpeClZwJpsCYasM4ZYokgPqCtf5YgjLdAhWB78Uhaa0Y94oQc9LzwLuT+FENUOqCnQdWEmu13TN7/fa6/5z1WrWPh56LMfRuCQM9hrED9+6vxZu3Z1/mttVfU3H16+ar8wc8549VWlpmniz5LtXV+o37UF2cfuw6hiHsbALjgoQZCJRoFysBSa8zw3V87iKlpluRpuvXxqVgoghmTomgLBc6BqOgrhKuysroM47wwUpy5AT7gZJiWMqAZR3nkKlN7Y/axvdQZ0apd2fWVnMCHXi/gz96Jm9RIomdT99y5+6WN/vtaISyimB/cOr6s7RRRksaFlBD566eUYfcRUBJpKDbXMwXGIIc/vc8GttxZfmWEu1xAYDQfLq1c6ZCsGswyvZGmKoS9Z5jDKRryi6rVbEpRqMawwz50B/ZDiFsvfM4QMN4Rc9pPn1jnFN3de7FPmhPpr7+Eec18+oqw4xiqvu9E6zLIyuClLoXkuE7op5Qvo7elltQgmdanpSNTUomP9Wtz9v79CJpNi4zlqzBhc/tnPQVDDsGnNKCLq6uqgSiL++9+/i5VvbII/ZS56Zx+PnnA9sooGLxGFHYrBCXgdhFJSbFzKzoAtNRoDmjc14EAGgSInSmqSGpyIkG9DdvOQFAG5gBynhJGuh9b2LbCevB+Nye2I6BrmnPtxjJyzAC+nMnijUEQpFGZOiCCyhIiS6DyBycbVzdvQSgJ0Owc9vQ2pl5+HOpCGGYSgjxiPcF0DUps3oSbdjmxfR2EwnfrBLrfrJ1u3vjvZ1f1gPz9Qpxj6m/WBeuy3fRjxE6cc+4CRK5zzf2Hr9X9a9ur39scjX3DvvZI2ff5/pro6rjWeexhV619HK2R87JILIEVlEM2YJMeYiWGIkt1cxtzoyBX8PIMVUlpIgGnmUcpnITmAUzDwyiursCWTRUftSFSd8zmsi7ehVBWDqzCxRF68JE6acn6a5x7KiJG9EitUxNQ9D+PzXTwyWEXOIPPAfc+++BeRwTlHTpoXuPazY8eMkZO5Iq7+1ncxfcHxSOeLECQZsqrDcQNGv+BSfv5tnAA3qHuY9LnB3lOcJbfIapxlyjNWYH9L8fYdZohRLOyV/67kvctyj3RuSg2R0acfQsKwKImKyuR0CPJLxXvmUHm0QFXTt7izt4sSeKX5LzQCmIOv0ElUbr0c4lBNgvpFCPdPkUE2lUY6lWTpMlVRWE3p/7P3HXBSVWf7z63T+8w2OkuTsoCASFERVLCiJpbEmBhLNIklxiQmGhVjT2I0sUT9m5hmooJi7xqqikiRKlVge5vd6bff//eeOwMLosIn6Kfu/H4K7M7cuffcc8973vd9Cr369UigefsG/OHWW5gdJHkEX3Tpj9Fj0GBkSTVVlFAWT7B5c9dts/DO++sgDJ+EhonHoN6dQFqWYUa8ULwhmFT3Z6fq6IuW+gXF20L5GMG1WOnGw5ngVR1+XUdZPocKJQW+o5X5ISjxOHifG/7aHah/7N8YqOdhFNox/byLMOyEmXhrWzPW57PooJIb9X4cCjXLgCVdh1vJI6+mYRUUJAwOwVwHdix8BVxbE8B5oVYNhnfYYchzIvzZNNSVryOutiFZuzmTU3LnvLR883MH4ln9uh+jOxgAOPnkMd4+rooT7ULhHkvVyrOFwgaTky5t8+bffvXVz14yunLp1ktbGjfdU/vio4g21+HC7/wIwydPhSlR682EyoygimhuhlenPgIr0DL2JaXGlm5BM3SoSh6WTjVX+rUIj8Whad0qvPDM42gIRJGbeAK2DZqAVn8YvM9HOgnObptEzZhMchHD0iUY0LPp9Kk5uCwTg7L1CL8+G9Fl8+FKpp56/M0FHwkGpx827BeJSPgOElHoXzMal159HRTeDV5wM2mIVC4P3dJZU5gavU52UMp2dn/sSDGTLUDkk8t2qqSVU2xkFnE3TDKBEc5Ku3TnGExCYhc6qVjPKNXhnZ0+1bQZlqdYrqc+AZXenEDhoGFo5Wf9GnAsEFCmQCU0F8twHAE/gqHQmy9XAAAgAElEQVR2DS67rqKEC+pyXUw08KNZEPvJzoBWevyc6ERXR/0TEt9LtrbB0BybTstwegnUgC6viCMclPD3e+9B3foPYBTymDL9WEw55WRkKGIIEipjZRA4EXfdMQtvv78G8rBJqJ94LGo9MWRkF4ywB6ov7AQD6oMQkoz1aOhanXNiOSllR4YBiSeVVPJ2ACpySbgWPwfX+lVw5dLgRTfSviD6VFcju3U9pGQjPJKAad88G72PPA5vNXdiUy6PvOBmmS+hncgCU9M1lnEIigFLVSFDh88swJdqQ+uC/8KbTEIxeVj9hwFDJ6HZ9oNz+SGpOYTTO2Csmodg+zZb72h+b2tb/qx3N2z48Ou+mH/W6//aB4OTj5o4Ti9k7/cCNVXhkCzTIiyK2FTbpJoe7zsGz/3m1bfeffOzDPSvXl8yoa3Q+fKHLz8RDDXX4ewzvosRU05AB4M9EqGsCDO0LVi6CcsyoGsKgyeShg2xbck1ixrDxOok5imzXuRkiLqN3MbVePaJR9AcjcGcOhMbq4ah1R2FGIqCI24CEZcIV14sTXTlH5Qarg5GH5AsAwOzDYi8PgexZQshJzueevzN+XsGA/6Yob3/PGLQwB9kNA2nnns+ps48CwpxqclBq6BD0QvM+9Z5sa3yTvP4PceSI4YSiwJOjd7R1y82YW1Ha8mx4iQ5h6IscpeeAftIl5nMFn0mTe0EOZ52zF0yEGa7WDKDLzbc2TcUyz5O78IpIcnMo576NoBKwKJiOe+j82EXq3hnDKDddAnpxE6RhOlKS+2uk3bCEgV/0+kD5fNobW1y+CXELidXMFF0bDQlDlU9yvDOy8/j1TlPgDMNDBo2DN+++GLkmX6dgIpYGURRxl2334hFK1dBGDEZzRQM3BGkZQlG2A/NG2FS5Wy0WU/eIcIRQpRCM0GgGbqJwXBtuBUFPfUsjPnPIPLW8xjikaGnFdhEoiSOhZKGz2UipedwzPcvxpBpM/FOQzvW5QtotTm4JR8ExrpUoVgKLCPPUF1sPC0eAaMAX6YZ2xe/higx8PMm/P1roI6YhJVmAPBXQbcIu6QhYOUQ3LEa3Kr5kFo3I5fL/sPQ23706qrmA9br+yzP+5f1s1/7YDClZtgMQVUfqO5VVeYROTdV2umBzZtC/oPttU06hCvf2bDh2c9yg695/Z3yHSI/f/urzw+OblyFPh4bQw4dB/gi0G0eMs9BUzQGF2WrmEU7QWIgOI1VBumjh1OkxF1ntW6JShm0Qmkc6lavxZbOFmyr6gP7qFPRHKhChmrIbjf4UBgFyQWNyk+lunBxw1pim9JXsr05ka4sDQMzrYi+MgeJ5QvBpVuemv36R8pE/Ek1/R4c0LvnhYoNzPzuRTjyhG9A4VzQTROKkoehG2wn78Asd/VAdm+kFke1tIHe22wsdYq7vuejG+693p4i6Gcn+GW3N+32XbsfsKsfcEm/x8lcSqFtXx+bkpZ4l2/e46NOVuP8kCWDhoFcKoVMurMIMaXpQPOBZ+U2byCA8ngUy998EXP+9iB8Xi8GDBuNc86/GCSoQbOlrKqSwYruuXUWFq5aA53QRIcdi3pPEGnq54TCsNwRRyerGGhZoHIiF8iymBjK7HxUDRIvImZb6L9+IYwn7kVf00DVwFEYedRMKCaweuFzSK6bBz9URHtVY/w5P8J6yNiQKTCFXV0SIZLXMTWM6biWyDIuDqQ6pcJnmvClGtG4ZAFcba0QlAxcnAw+0htVR30DaxFFs+GGIUrQOB1e2IgVUhA/XA5py2IYDZtTmXT2nFfWbH3hszynX/fP7uus/kqP0ymTJgV6xvznG4XsjZIohnKFfD0k382tBePxFxYt6visF3/Ziy+6mqsGvpTasPHotmefZkxM2cjCVDSG+gCvghdI2540dwhiJ8GyqQBDO2WHXUtwRt6QGaZckMhMRYVqEis3BHgDqPVKMA+bBH3ERCRtL1KcAM3rBR+OQBFlGLR7K+LHHbnqXQvB7sFAxaBMOwsG8eULPi4YcDNHDri1uk/VL8lj4IjjT8UZ5/8YaVOAQQzhfIZBNZk/cJcte4lr8FnH86v0eSZjwe4vZSaOF3VTfT3LRggG1jV4Us/I5w+iqjyBVx9/BIteeY71F0ZPOAozzzwHRrG3kais6BIMVkMbeQQ6DjsWDe4gUm4nGNguslgltJrT36AdOtMlopKQXmqqEy/C4XZEFRU9FzyFskVzEQ8FcdqVv8XSFgOtqoE+fh2rn3gAwsb3Wf2/fOKRSB0yEkl3FLbkRoFXwBM8V5RIMRy8JSPAe2GrKtxiAWJyGzoWz4PVlkEWbvh7J6A174CsGAjGq9HvhO/ivXYbLRChyUSnFJg5VDhdC2vVG/A3b0R7/fZncys3fWPeQXDh+yrNt0+6lu5gUBydy44/3tWUSz7JwTzRMMx7hB4rrpw9m1VWDsSLm7Z06wMF0/4Bv2Mr+DUrEdj2PnoUOiEpefDhIDQGdpdhE0uZNRGd8oSDSHSaoJLlg63xsMQ8zGwjLNGDTlccyUQP5Kv7QRt4CBqEAEzeA1Vyw/B4wQWCUAQZJhGn9hoMnKxjV2awT8EAJx9a/YOqeOxBOud+NWNwxXU3I2uJ0CwL2XQGkkgew7sTzLqDwUenUikYsEXfNKBQiai5CW7WaKX736WGb1sIhcKoiMfwr/t+iw/XrGDcg+mnfhOTjp4BnXpMnI14eRkjuZUyg08LBrTYE6yWymosGBBilBBWhNokNJENhLN59Fv8IsoXP49YOICh3/op3mzikEQQIV7FuHIJyVcfQ2bJ65DdIrgRo+AfMR5Z2YesS3f4ISbpawksO5AKNmL0s/ZaNK+ZD7mxGTnbB+2QcZAG9YNVvw72yiXwpwuI1RyF8infxMLGDFKU8WoW3LyBsNEJz4fLEdyyAvktq/NavvOs59Zsff5APLBfx2N0B4Mud/3EKZOPSbY0Puz3BU59benKlQdyQkxZ3XlBo2U/yPOGUKZl0O+DBWid/Tf04Hmc/cOrEKnohbq2JFMi5XgSTHBM1al2XpJHs3QesiDB0Nsw969/QEfehDh0Igrjp2Cby4smuGB6Q4zIphEe3OsH5/VBpeMRtLTYNBaKujisSchqw/sfDKaP6n+ipGvP9uk7gHfFyjHrzvtguH1QiG+QzjIxta7Fl1LzeK9logM50F+yY5WgtsRctgwdbc3NMBSFNZKpPMQY1qy57/Rf4rEEYkEf7r/9eiTrt6BQ0HDOBZdgcM046BbJZnCIlydI0Aj33noDFqxa86mZQSkYELzYLAYDxormTZi8Co7nEVENDH7/LSiP3o/+fg+0oROgDDwaaVd/2KILeqYOx/bgseOJ+8BtW4O8rSM6+nB4h49BZ8gDRQVk2Q/N0mEIGmKWhWBbB+oWL0Chox4q0eaGTYA66gjUSjJ6WCn4lv8XrrUroGvAod+8GNn+h2FRQw4Kqf+aGmQ9g6pcC+Qlr6AqtRWbVi56JyWY05dsTqa/ZNPg/8TpdgeDPW7DseNHDXxtycotRYD/AbtJU95LTm4QxKdSvJXw2gpGbVkMZc4jqCiouOKG34L3hdCcK0Ah2QJmrUiSwCRYZzhEK6rvEmXf0uA1snjm/t8ipQLKIRNQP/YotHvC0HkvFFuAIvOA3w+43LBkF1RalSkYMDAREblKRC8KBo5mzv5mBtNG9Jkg29bC/r36C6bswc33PggpWo6CYSOfVVjtmUFl6eif1jM4YKP85TvQzmBADW9FRXNTIyRqGpN2VYmBXAwGBDsuj8Xgk3nce8uvkWutYxnlD674GSr6DIJuUlmHZ8GANIv2NRhQmYikp1mZiCC2BLdlzW5CZZH+EQePoqOmswHm3H+gbOsHzBPBc8iREAZORZNciZxbQNRswcSghtTrs5FevZCBFjxDR4OrGYuCO8SUd2FrEPkcQu116Fi6BFpjOzLuMPJDamAMG40WXwQ5KYCAoqB/qgHa/Ll6PFkv6XwIky+6BouUIBoNF+PRGGoesXwKFVuXwb36ZfBN6/ONne2nvLau/o0v30z44s+4Oxh8Tvdg2jvN5U22Na/N6xkSsEwM37II+mN/R0U+h1/cex/ksgrUZ7PQaJdFoETThESwUF2HoWrIZHLQCzmIpg6foePZP/0OeR3Ij5iETeOnIOkKwOTc4AMR5P1uaARJZGQqUkotEs6YukGJNFXEEVGqziQJSg3kXWWixIqFQKp5bw1kTBnSt69o6x8MGzDQZYoe/OzWO+Cp6gWIHqgZlTWSmaZPUZPocxrmL9XX7CTgMXSric5kEvlclgUDkqdmt8TBYTmigzyHqrIyiEYBf7jxF1A72yB7ffjRVVcjEO8FwzYZN6Cy2DO499ZZLDPQRx2J5LhjWM8g7XFBD4Z27xl0FTRkqCsbJtOecM6A5gY1lcvVJAZ1bEd2zqMINWyF6PGBG3QY9JoZaOAiEEQX+HQDpvf3YOuc+6BtWs0+LdWMRmjkOJjuAGylgKiRwsaXnoBXy6Gd+mCjjka+ZgLq3B6Ysgum5WFQsF68bpfvWLHYeuEfI2KqFfIPGY+e3/oxntuchOaPE0MHLqWAHq2bIb77BCpTm+z1q1f86c1NzT/5Uk2E/yMn2x0MPqcbMeW/a/3Nft9DLT7ft4KGjZEbl0B97J8oK+Txqz/dA7GiAvWZHFRJhsbxTJoZBhm826zxVsgXUOhsg5ntYDLTz9z3O2gKB3XYRGyYeBRaXX6oogt2MIK8j0hsDvvWscHcCYMpXq2Dqy/p/1PPYH+DwZhBVfGIICwb0X9Q77xh4ac334r4oKEweBn5TodRSgS57mDwyROMSkFEjdOUAtpbWoo8iiK0lj5ahHhSBkflmqqyOPRUEnfOuhqyVYAvHMElP70akj/OeCRELCyvLGeyGffeeuM+BQO23DMkUZHkx/gejs9GSYbD0cJSEdOSGNhUD+X5x+Fr3gJitruHTYNn6AnYbgZh+j1w642YUuZB7fN/R3b1YsAlITx0KMoHDoORN9C4bCmU9h3IyCK0ASNg1hzJ2NEZgkGzlNIFwRNEXLb0slTdZcG//r4i3pG6VpUkadj5l2JzZBhWJw0UBC+7zspCK1wrnoW8+lUg2bChtqX2sO5S0f4vbN3BYP/H7H/1CWIir60eeXWDJ3hLwLBw6IblyM7+F8oUBTfcdTek8irUZSkYkJqkwETaZAYFdRivtLiqmXbk2prAmRaevv9O6DkL1tAJ2DCRdGf8zBjEDEUZu5TAKI737C5Ez84aflEYzvmjKP+wn5nB0KFD5SoUXhzep9+0dDaHS667HoMnHwHVkpFtc1jIxDMolYn+V4P2Ff1Q1wBJf6dgkGxrRbazA7IsMn7JzgeT2WzSKBLHQEDPsgRaP9yIu266FhGfiERVT1x0xS9giB6SJ2SERRYM+GIweP/TMwOG+iJSAwsG9H27ggGVjBjvgEpVpGwLFRXpNEalmtA+92FUtO6AaXoh958GYex0rDcFyH4ZfGsSJ1b7sePFB5B7/12YtoZeA4eiI5mFkcqi3S1BGTwc9piJaHZFUBB8UHie/ef2BCEEfPDZuWws0352n7uvfVeva3ouGHaNdw0fjRHn34jnP2hBG6mwii4E1Ax6NL0PZd5/4G1YYyuZ9tNeXLntma/o9Dlol9UdDA7a0H70wGOXbj672RN61KPr/MhNy9H+5N8Q0/P4ze/vgausCrW5PBSC31G1mNivjAhmMVE66hdY+RyypFejGZj74G+h5nWYh1AwOBYdsh+KKMIMh1Fg/QOH6EXGII7Ym6NyxA5ZUtUssU2L5CyHZ7BvZSI61ImHDnmwbyT+g1y+gG9dfjkmnf5N5HUB+aTKvodYu93B4KPzoOSK5shd2zA0De2NjU5piMT5ihpO9DvqAZRkSkjio1dZHKvenoe/33cnwl4R1YcMxXcuuQIqx6xg2D0vryjbr2DACkOM9V0kznEmI6Q59qmOOi7lL9RgpsnkNnQk8mn0bdgI9cXZiDc3w+b8kIYfDmPYOKSkOHTNj6CYxqGxLFIvzkV6wzLIRgayKCItetA+aCTyh05GUyABhZNgkMwKfZs3DMHthy3piJvpunhn5/QlRw5bd+JRk3/gk3Gv6vZL478/CzvCfbAkWUA+mABfUDFQbUXmtb+jsnUl2javerrOajhr3Tqm0t392scR6A4G+zhQB+Jtx75bN2q77H9W1gu9Dtm2AqnZD6FCzeOaP/wZcnkP1GXzUAUXDE6ATGxTQwNHpi4i70gk/E9/Id/QDHe2gGcevgMprQBlKJWJTkCWQUpF6JEgk7LWiigUFgyKRGCmTb+fwYBLNT35xOsfFaqj8ZhaU33tkHj5zaqiYca55+LE75+PrC5CzzmaRMy0p9hAPhDj91U4BlvgiXVumjv/7Ghvg5HPO/7J9PMugn5UGiKrS4Lpym4vesQjeO3pJ/D63MfgkUyMOXwiTvvuhciapEDKREX2PxiQR0SRtu3MD4NZYTodJkoxdXCm7DCoeRumoSIkCojkMhiYbUXbk39BecNGCLIf5oCxsGuORxPKmK1m1O7EkR4XdrzxL2TWvY6ApCMT6w3jmG9iQ6Q3mjg3JLcbGVuF6PVBdMXBiR5InIIKpe3Vqqa6b70yY2Ly+AEDXEbEtaSqcsBIs+94DP7OxXi+sR1tnhhEQ0JVpg3BDfMgrJoLZeuKlGAIo59btb1bomI/HpruYLAfg/VZ3zrlvyvC7YHyR0UVJ1TXLUduzv9DpZrD1Xc9BLmsB+pYZiCTCj8r8RAElDIERyQNgKIhW9cAby6F5x/+Pdo0BfmRk7F53HHIClHoggAjEkDeF4TK6KPMFcCRRi765XTNDEqEsI8jnbEGcmfTk7P3olpKY3FczaCzq4L+R0VB4o885TScecllyJqE8rCR/5/yF+HJv7BgUPJwKArdMTY0zXbG3DYgkQAb0/cmBUALAgVc5lXvWGsSmWvXw7EHRXpfn5qdHyuJfjhNesoISGKESjn5bBYdbW1MRtqR4HCKgkWRpl32lrbNpKwTQT8e/8sDWL1kEQRbwxHTjsWMb56JHJN4djLK8ooEq+386babMP/9NbBGOg1kYiBnXB4YwQhsV5i5vhGCyMkAnJdTOTSZN3dp80CIIt4SWObg/J6c1Uy4LR1RU0FZ3QcwXnsSgbptcElecEOPgDlkItrkCDjRjVg+i7ERFW1vPobs2neQ8YegHn08tlRUIx1KMKczMxKA4PJDNFzM08JnFayy5h23uTYXblx28VgmU33SxEMvSgQS9+b8lfLEK36F+aobqxUPeCGAiNKJfunNSL/6ECraN6htdQ2nPru27uXP+sx+nT6/r9P66zQmB/Vaj3xvwy95M3Bbj03voPPJvyCu5XH9n/8ORMrQQMFAkqEyD1gyU2EYkqIcBWDkVeSbm+EptOK1v92H+mQK+ZrDUDv+OCTlBPKCBESCUL1hqCz173J7d6ke7JRVcLiv7OneK7T004LBsaMGT+oRCb7mkl2emvFH4aKrrkWeE6AaBrL5vOO0spuO/0Ed2t0PXlxYyY3L4VIIDlSSN5gGEFNqIjVO3gVRdEzsc4oB2eeHYVpFRjBjYhT1hRyhvGKbZZ8upCSM59iGObaixb86ak2mhWRbG5PvcBzD9ngxLwoneJBGVSwWQ0Dmcd/tNyNZX8uQZsefNhMTjjkWKvks0G6eegYVCdiigbtvvwXzV64FV3MEkocdgzpPiAUDMxCF5Q6hQD1i3jH6KUlt7DyDnfOl+JfSv4vERSpeCZwB0bYQ1hT0bdsB9bnHEN2+EZzkhXfcFOT6jEMDVwbR64Ir04AZARvb/vMg2jMt6Dh0FNJjJqHBl4Dm9kIJR2HxHngJ4moZKIfdFqvdcvbS44bthImeMHp0n6BHni/HE32Gnv0DNPUfjzeaJZjuEFxqCpXZ7dDf/Bcqtr9r5lobr3tq5ebb9ulGdb+puAp0D8TnOgJT31h6mCTJL8XfmxfS5r8ouHQVd/xjNnKSFw15BZpMiArHVYtZvZTkbagGX1CRbmqEx8xi8eN/w/at25Cs7IvUCWei3lOGrOABFwojFwiyvsPuBsh7rJVODNi5G9wbz8AJBs1zZr+x6Iy9DdLUkYN6VIX8S+PRaGWooi+uveOPKHAiQ7V0psmw/osLBkWRB+YeRytdUYADIKN1WjN1FUo6g+a6RmSzKchuCWU9eiMQK4MtkGdxMY4ViXoMcVNazfdxC7VnMGA7b8r0yBdAlJhMdTqVYtyPEhGw6zhTr6DE0aCyUllZGSRTxQ0/uwwBcsnTNJx70QWorhkJjScbVCcYVFQkYAkW7rn9ZixcvgaoORJth09DrZe0idzQgxGY3ghUJudqMnnS4nbgU5+FXSAEJ2ulQCJZJhJKEgMaN0N5/ikk2tqhaBq8o6aiMPRoNLvjsDkNw/Lbwc9/HOnWbWisHgpj8gnY5oqA8/ugh+Ns7ggGEBIBd7JlWb+OzpPmnTisqXRS5KHhEu2ne1RXTwuOORo9v/ljPLYhg6wUgMsooIfSBOut2ajY9radqt/66NylG8791AvqfsPOEdjHad09YgdqBKbMnRuO25hrvfzMEaHmOqFf9UD86OY70axaaFE16JLMegakUePoy9OS4Bjbm4qKjsZ6yJyKbQvfwHuvvI5sMIHMzNNRWzYASTEILhhF2u9n/IIuOpofOf2u7OBPLhN9fDCY0hfuSGzw0gH9+g3XRR9uu/cv0GQ3Q7V0Zsjd1uEwfBEvp+lqgy+q8VGwE0n11dJhqTm8+PRcLP7vPFiKCkkWIXpE1LV14hvf+T6OO/Fk5iLG7EKZFDXzHysis2iB7jp6n3B1u5WJiv8oqrFahoaWpmbWOyC5crrPe75KwaAURCoqKqCnWvHrKy5BZSQGpVDApT//OeJ9+0LfmRnYKKskBrKN+2+5BYuXr4c9cjJax0/DDp8fKbcbRjAK0xOEwiqJpKxKKKJPmi27zoyuguHbCH3E7q3DRwjwJiKZJgzINaH9yf+gf3MLbIODUD0GrkOnoZPjEE9vQstLf4MsmOgcNhHpmmkMUlqQOCAYheH1s8PFNdMuSzf90//qlgvmzTqagEw7X0cOH3BDv359Zgl9hmPCpTfj31tyaOQCEAwdvYxOCCueh7ziGdtfSL39zzfenVyqfH0Rc/DL9p1fzJP6ZRulA3m+s2bx01LNN4S2brhezmZx0U9/iZrpM1GbyqJTN6HxpN8isYaeI1xGX+4EAyKdpdpbIRE7tbkezz3wEFRBRv2Ew9ExchIapCisYDnSfi/TgPnozd377WbOYs6KszuaaPlC2J3Nc+a8uffMYMwYSBVq33lDhwyemDdFXP/7e+BP9IBqGUgXVKrCfKHBgMpCVG5zdrAmZFuHnu3E3x68H5vXrUHQ5WY7dGrQtmRTmH7yqTj+G2dDpV036SqxGnxpwSsFA9IL2sdgUJo3XfwWqDlMTeJ0J2UFabbzJyOavXkflIIBg58KAigYtO/YiDuvvxoRf4CBj6667nq4YzEYfKlMZKOsgrIb4J7bbsUiygxGTkbL+GNQ6/OzzIB6BlQm0ljSZEJ0zCL2aZazYMA5GxWLLqboSkducLytwG91onf9FvBzn0Z5cz1cPCBVDQLCIWSbN4FL1SMre8BNOBHNVcOR9pcjZWngIgloHi/LVOK5QqZvpvXHi6YM/OeeJ3X02MEzvTz/ZKD/SOGYn/0OL6U8WK+K4CwR5XoGgc3zoC/+BwIdDdvrmpQRizdsyOzThXW/aR9nQPdAHcgR4I6YVPOHQWXRn3i9QVz/x4eQD8RQ35lFwSKfXpEZlND+iwUD9s1FfRpdQVPddvggIKArWPDov9Da0IgtvXvAOPpEbPZWQIn2RtbngSGQ/v0ePYMut7v0+DP62ccEg/hyViaaPefNRWfubQCmkHNkddmc8aNHzszqPK687mb0HFIDxTCQUcjhjOlXH8ix2+djOQ5vZNRFfloWBFOHoOdZU7WjqQ5uct1SVIg8j5wJDBo5Bt+7+IdQeRcMSWTEP9aQLXlAsJ2zA9fd76emKP/B7iTJo+eySLa1O14FdF6McfzRAFPqT1AwkCQJ5eXlqF23An/5wy1wCxI8viCuuu4G2G4vg2byzJiAY8HAFDncfcdNWLhiFcsM2igYeH2sZ2AFYrBdEWjskizme+wghz79xTgPBEVmkhUOl0WyLEicgDzvGNdUqCnUNLegfe6/EGnaAo9lQ5RsKDCQoY3OIaOBUUegTiJ5dT/SFFyjZTC9boiciWguu7lHPn3MW5P6b9/zjMaN6j8uaBiLE/1qpGk/vRULuAq8l+HACX6EC2mUNy9F8zN3orfWmVKThcPmvv/Bxk+/qu530Ah8MU/ql3jsz5gw8jRFN87hBK4guj1/emr+0qX7czlnTBrT283b8z1hX99JJ52G0y68HLWKjvas4pjQkOk3I4LR/6lJ5yh/kuKoaSpoqa+D3+Qg2waaVyzHvKefQks0BHPyNDT3H4VaXzkQL4dCxyn6BTsLo+MpwG56cT0rbXAJUbJnZhB79UnEls0nNNHsOW++tddgQGvBjOF9HjpkQP8LSBrjvMuuwqgjjkHOMJFXdWg6wScFVgrZ+d2fU3BgUg8E1bSpyWnDLQBrl76FR+69C0GXAN7U2NgKogCF9+LyX96ESGUVdFGGQnV93gkEjlhgacz2s4FM319UHmUKUJYNTVXQ0dEOXVUcVFERYrq3ZIPE6ZgvMp2/282CwfL5L+OV/zzCHGni5T1wyVU/g0nMXYY+c4JKWWUFTJHHH++4HotXrgJGTkTb+GOxwxtAWnbDDsRhuWMgnjihUamUVsQw7dNUZreQOcyR5JXNTGpYSY2X2Iri0nTEjBziySaY7y+DVLsRHivHpCakqgEw+gxBs8uHHLHtBR6qxw09TH0OEUFbgS/T8WS/bPa8eUcPy+55QhPHVg8PmcbSYNVg97QrbsF73v6Y36KCk/LeeIQAACAASURBVEOIWQoSjUuRfO5uVOWa82a6cPjsZR+s3qeL6n5TdzDYnzkwfcwhlV4YC3tUVvXXDMNuau9Y6fLhqNnz1n1k0n7ccU8/fPSvq2OxWfV6TvjlXfchPLAGjbk8cprJXKoI50JPKKnMMCQLQ6A48tO6oaC9oQ5Bi3DqBuRsGi/+4xHUZ5PI9BkIc+J0bI71RdYfhREIQie5YLbtLzlsdQkGxYDAMoP/fTDgZgzrc23fnhU3GRBxyrfPwzGnfQsKxyOn6FA1JwiUFkQWiD7PYECLlcjBNjR4ReCJvz6EZQvfhF+iBZAUPnnkVQ29ho7BD3/+G+R1E6YoM1czZyF2ggHtgku7ppLj2r7OG1ok6bMSxzE7y1RHB/K5HGv0CgLt5LvAvPY4KJ1DSe3V7/ezYPDqnH9gyUtzAVvC0BGjcdZFF6IAjpW6SGyOLEbLKitZMLjrpuuxZPVaiKOOQOs4aiD7kZJdsENl0N1hFHhnl7/TDXUfLooyAQqutiCQr1JRxoISWTJjol4XI0lA5FV4TRMJzUIo3Qot1QTyeTZ5L/KyD9RR0kmuRJagBbwwfCFI4ODpaC5U2flLVh026J97q8dNGNN3SNzGMn/PId6JF1+LNeFhmNekgHOHETHzqGhcho5n70JltqWgqsbkp95ZtXwfLqv7Ld2Zwf7NgZMnjBnistUFvaqqErpuor65pV2TQwP31QDnpDFjeoc8wkJZ4HoPnzYV3/vZr9HOy2jIZJn/MDjHgIYWb+ZXTKUinmwBHbYYkX2aa7fDb9oQvR7wuRy2Ln0bC998ASlXEPLUk7GhajDS8V5QgxFoJE/BcnkHZuosLk7Dr5QdsB3h/z4Y4KSR/b8f8br+6vIHMX7aCTjnh1cy+ewsWV+q+kd8jz+vYMAkbiyb8Qc4S4Nsa/jbfXfjw1Urmbk7efHSuHRmcxh19PE464IrmBe1yZNBDwdBoOI+GQzRq0tzt+QhvQ9Th5zJJGKFk48wxyGbSbFgwPgExb34LmnvjzZwWZggsqFpMo5BZWUlHv3zndi6dCF0HZg642RMPWUmsobBSn1MLcKykaisYoqhf7z1Frz9/lpg+AR0jp+KRm8AKTJOCsVgkFKoSFSLoiYRu55PLxQRv0CEDh3Ort5xziS7TMo9qSDncEsIU8aOZtgIkVGTqUDN5CFZIkzdgMGZ4AQOnNsL3eeHyXPw2ia8rQ3v9i+0nvzW9EktexviY0YOGO3ijHf8fYfKR152E1a4++GtJg2Wy4ewlUNVw3vIPPsnlGfb8rpiT3z83RXv78Ot6n5LdzDYvzlADVNftve/PJJ8iiy7RJPn73nxvdU/20e5a+7Mw8f8wiWLt0nxMPeL2+5EuN8hTIKi0yDAhAPvs2jhpx0bkw8ullcsRzPGUFUUku0w82mGHnHzPMRMB17894NItnQiNWgMMkedhI2eKJRYBSw3NZIdo3tLKO7Qybqq+NyXShOfJRgcd0jVqQFZmhsvr0LfEWNw6bU3wXJ5GGY/r+yuBvC5BYLi9ZmsVi0ApoqABDz4uztQu/Z9FgyoaUuiaBlFxeijj8Pp3/8RDCJV8RIs8pgumT+waECmMbuarPtaW2VrMwUESUI+lUI62c78rYnQxk6xuPN3bshHj8pwZEW2cjgcZsHgz7dfj+b1y6CqPM763oWoOXwicjZlkdQIthjIJ1ZVyXyJf3fzTVjy/lpIIyYiO34qWj0+pGnPEXBsLwsiNYOpjEb+Gft2VVS6JH0iizrU5M5HCqeEeBMlqALZUjrkNNkkoqRDlhQt8vrmGAwVWbLRpCxYZ2PKCx4ogofxPgJmwQwmG2/eesTgWR/3ZE4Z2X+y29IX+AaN4qb/8o9YmItgdcqGJkoImJ3oVfsulOcfRCTXntM0e9zj7yxfv39P+df33fs2A76+4/ORK58yqm9YsFzHuCVPgUfLf59b1pDfl+E544jRCR/nepp3SROHHH0kzrvyV+jUeTTl8lDJ1QqEiHCM0Wm3Rj0Dq5gZEFOWgoGVV5BqbQY4FYpqwefywGuqWL/weax8bR5aE32RnTYTmyuqkYqUww4EYTGIJMfYwA7c0lnUSnVwtih9cmYwZ86bb+2VZ0CfPXFkn6Nl236zoqonQj364ue3/B68L8x22dmc4ixzRPr6AqSsKRjIsgRTL8Av2pj9l/+HFf99A0GRg0cSUdBoh8uhbMghOP+qX8CCBJuXnYWuS++bFeyoHE+LF6FmPu2G7+LysQXf0HR0trVBVwoQmckQSU6U6vS0l96TE7KTFbHTFyIRjyMaCePuG69GescG6KaEi358JfocMhQ507FIpWBA551gZSIB9952HZavWAWuehRSw8ehU3bDEARI/hDgCkEXTZi24fQaiv2l0qV1uYQioq1oz812/2RqysFtUPPZhh4IoinsR6vsQYH3gbOEomuas00SyWeBaWzwEFnWa8ISyArTgmh7oFkC/LAR0LOtwXTHWWsn9/3vxw3xcTWDfxiP+u6XB43CpMtvwatNLmzM8jAkAX69DT22vwPjxYcRyXe25rPWsNkrVrR+2u3q/v3HbUe6R+agjMCZE8d+w+OS/2YIgv+Km25GvzFHoCGjMTipzsTIdpc/oEDAVOyLNXfaIWp5BcmWJkjEorUISshDtnTorVvw4sMPIC/6kRk+AXWHTUZtqAxKMA7LF4Bu8GQtwCCBLBgwuKVT7qXVgxrNe5ewXgS7o+ETg8HxIweM9srSkqqKhGRLPlzzu7vhL+uNvGGDBOxKsgrFqLCrElHchnRddA7kwJfsJEWRpB80SLaJ9e8twexHHoakF+CmRZCphKuwfWH8+JobEanqhQInQTN55knNPIiZGxzp+zvqFUwmhN0tejlhwUkinAZ9SYSOOZRZOhOfa6NAoCoOFol27zsRt877nYNRgC6hlYoS4xZpAQmMM1KWCCPAW/jDrF+h0NEKQfLg4st/gliP3lBsi50f+V/Yhol4NApRFvHnm36JFStXwIj2RLvoQsEywYlkTUr3m0qHCixWzhEg2BKbE1TiIYFBBh+lYGryrJZPmSvNU4OXWLOaJ/KeobMsSguVgx83CdrYydjujSEn+dicYwUj3sl5HQVdRyGXjk/fRKUz0gAhD4aoZcLfUvdamaGeu+SYEc17mwuklBszC/8aMnzYGfLwwzHsuz/F05vSaMr7mIRF0GxBeONrCL7zNNypprXZ5vyhs9et6xar28cHqzsz2MeB+ixvO3nMGK/fLz4tyMKx/YaOwCW/uh52tBzbOgooQGQPjAMj3L2WTE1GCgZUeyYIZCFLPIM2pklDzFrCVpO5vQspLHthNjasXIs2fyWUE2ZiS6I3OmNV0IMx6JxclLUwHYRRUbyOEC5MnudjPJDLViyC3dkwZ/YbH58ZHDNmaO+YW3qvLBpJdGTzuOmPDyDWdzAUizKDvOO7vFPGoaiU1wWeeTCDAQ0pNXDZblxXwGsqfn/zLORbmxCSCFqagc8torNgYcjYSTjz/AuR5SQInhA0w4TEiUXApcU0fBjqimn87x4MWEAothUIPcUa5rR8WipSqQ5kMw7U3QkQHwMhZb1YKuFR9kY7fdIHIoirAFMQ0aMyBjHThtuvvZqR5zz+IC696meQAyEGgzUoa6ESkGWhIp5Aa2MD/jjrl8gX0ky6U5J0iKIBw6INgbtIoaPyJGUTZDHvNH6pzmQKjksdeRnItKjbJGFtQyeNLAaPleCimo+pAbwLbboXq7QAPKd8C8lxk1DrCYMMj4hnQhkVZQpMVqVY+mRtLPYzGiXKGnQE8hmjX6bjGnvt/LuXXXwx0yLa83Xs6MFVfrfvjUhFryEV08+E7+hv4OmNLTCFcti6jYTeCvvdf6Niw5u2kWx47j8LV8/8LM/t1+2z3cHgc7jj58448oRsqmOuOxKWz7/iKoyeNh07Mho6KCsgxE+pHL1zndiFb2d7T9qh8hzyHSlkiHTGUZmBOncuBwnCZ2E3b8Vz/3gU7aqAwthJSI6cgNpIJXLhBEy3jzmPkToEM0lhukdOVkAPPp3AnnIUkZfnoHwlBYPGjxWqoyMc079/KFbhfz0aCo7d3tCE2+97GH1rxkCxeOQLCkyTGLtOGcTZ+JZ2v87AH8xgwHD8lmP4Qj0CIp1pqRQevudubN+4FmE/LYomCAmVMWxMPWkmppw4E7zLx5r5lu40kClDo6BpMqaws5H/yINTkgNngcBZmDOpdmRSHTsDgRMkumaAu48BsYCdTYFT9qHgoNs8TElGn54JZLZvwm+vvwahgAehSAJX/OJqUCGOGOtUv2dkONNEZWUVnn70X3j+8cfQp2cUJ580GVUJDbrWyOxPwQXA2aLTPCYuBq3YvMHKV07714Ey0/nQXKEgaPDUvyqylQ0ZvKlD0VSkcjrmLd6MNc0yNpQNgXni6djaoxdyriAMci0joybD6UkYFECoeW/S+IkM3EDkSi80+LLN20Ya6qmvjB/8sQ3fqSMPOa1XWfxReMOe8Zf9ButjQ/DGjjZwUgheA4h37ID49qMIb51vF1Ltf5yzZMOVn8Pj/ZX5iu5gcJBv5RkTenpMRB72Bnzf7jN0BC6/4SaogSi2taeg80XMBaF9djsPB0rKFmm2eDuLT76zA0pnEqKtMQghOBds2k2KKmJ8AYvmPIWNazejOVoJa9op2BTvifZwAkakDAplF7LIRDpLjlZkfs42o4SeYSvzLgYyBYOylYuAVONTs19f/I2PGyaSFpaCwhNlscgp9U0tuPb2uzDqyGOgWBxyBQUGSYGyEkpRNfRzCgZ0LaxPQQHBtiFTX0ZV4eZspFqb8NIzc7Fpw1pkUikWLGxRhOQP4tsX/hD9Bw9jhDlZoN2rk62xDKq4n965nO/swBfpaMW+CFU/0p2dSHe0O0zyYvmIrfPOaOw2nCXBQFr8HXQX+V5TKYbq6xJsWUafqig2L30Lf7//j/D73IhX9MRlV12FvElZi8gSDlmSoCkKevaowr2/+y1WL3kLhx9aje9fcAy05gUQXM1Mjhq6ixHNFElni7yzWDtZCbkiyJQhUImKo9o/qblaDBFlmjoDOJiaCEvRGFPblMNYtTaNlxc048PocChHn4qtvapR8Cag+n1QXAJES2JyHvRdFAw4iySzRZZNSTbgN/J6ld7yiH9T00/ePnNiYW9z7biaGh/nNl/qUV55hFDZF2MvvR3PNNj40OBh2BZiho6+nTugv/Ywosm1emeq7bzZb2/690F+vL9Sh+8OBgf5dp4wYcgIL8e9FAhFe5xx0aU4/MTTUZ83kVR1RmwqbtBZLd8p2ZQadcWMgMoNRX37bGsrzGwKXtpaEVxPAwzVQkemDYLaibZ16/DB0vfRLHmhTpqB5sGjsT0UQz5eBYVQRLSzpV0ra1RTD8GGSQnGXoPB7GIwaPrEYEDDd3xN//srE4kfprI5XPCTX+Dok06HYovIFAogCO4XEgyKGRWryhTVP2lxh67C7TQL0N7WgsamBhhaAZIkItGjN0JllTA5CQyJxOxAdzVzmSNY17xgpxIdFduL5DSOQ76QRXtbG3iLIKxF0iATnXMyvj1fnxQMTEiQvD5UlgUx76n/4M0XnoXbJaDfoKH43g9+AJXJQoiMm0KZB9X5K6sq8M+HHsJ/X5yLQ6qjmHn8SPitLZC8GWZT47K8EC0bBVmFJpgQTQmW5VhOCiTvbRhM6iJn20xBl9Zwl2rDsk2oxNwWRXA6Ca1LsLgAFi+tx4odHDZHh8Caeiq2JnojJQWBSAQFt8TOj0aSMgvWCyNyGrESDDCYtFdL15fnG89cOfGQtz7mceSmjRn0w/Jo/G5V8kgTL7gSmQHT8PzGDFPo1e0UytUORDcvgbB4DrjkhoxiWoc99/bGDw7y4/2VOnx3MDi4t5M76bBD7qiIhK70hqLi1bffDVeP/tjcqSBDTTxRgG1YTEOfwRBZ78ARl2c+AGR5aeog6X3a6RZaW6G1tyCfbEBL/Va0fViHjvoWFAo5cJYCv2nCZfNol93YWjUI9hEzsDVaiWSiJ8xgGBo7NAeJtO+pvEDQv08KBisWAelPDwYnjhxwdXk8drNu2eIpZ38Xp3zrPOTBI6fqUBQNHFMvLfaSS6LcB7mBzBzDaGdNpRlRcDIEyo4Yx4L2qRZzEWO2D5YOtygw0plichBkFxtvp6xD94F5xrGAzVSESl4JTJqnmNMV5cazuQySyXZ2sRIhuAyTMY1LjWWWHexBvPtoMHCkSAjlQyUsd8CPilgATzxwN9YteweyS0bNuPGYeeZZUImAWMy8KHiRLHZ5eRm2bFiH3958DVx8Dj5ZhceiTFSDyUuQdBkey4AmqDAEHoLldlBPjsArJGcDD5UIe6LEsgi3QeY5HHPQK/AGfLIEu6BD5P1oykuodZUjN3wiCiMnoi6QQEYKQnW7YAe8THyRmuOUf5gUEERqzgOyDkR0HX49/WxlrvG8RUfUODW1PV7Hj+lVHfTEnnSHEyN9ww/FiPN/gTdqgY1JGSA9IzuJvsp2pF76B3q3fYCm7eteqNfrTu92Otu/xa07GOzfeO3Xu084bOQgXs+/WVUW7THm8Mn43lW/RrPtQm1eR54CAGMIO9aUumVCkiUm5WPoBfC2yUS+3Dzg4mw01e3A+wsWo2ndGmRbdsDKJREyTQRNHn6XB6LEQeQF6KaNWtvCKncY1uRj0TqgBjvCVTDiFczwhpZB0aQ9HccagjoFg730DKKvzEF8+QJw6ZanZr++6GPLRDQgM0YNOKNHWeIRj9fv6z9sNC6/ZhYyugUNPDKZHASBdp5E8vr8GsglYh0tbk625UQjVvMvLua0yjuJg8nMWixQHZ16OE4+QAGDvXbr5Tj/oE86WCKHJUxSE9lcmpWHDMPRG6Lv2Q0jtjOIfFqZqKhLRQkgJ8EdDKAs4sH9t1yHth3bWP/n+NNOx+Rp05hfNpWvBOabbTJfhorKShimirtuvgabN3/AdvKqYSFHaH7ODR9JWdDdsVXkCPCEIGzk2ebAksnukoMPNjw8oFkGOi2DyZuA3M5sASZvsEVdYtAgAQVfGIUBQ4BR49EeqURaDqOTxtIfABcIQJeIeOcwrp0msgOn8uoW4tl0R8TIX/H+jrf+jTPPpDRyt9fxA+Byxfs9GAyUn5NzxcSjfnIdtpbXYPHWPDQ+xIKfn29HcPObkJY+B0/9Jq2jkD3htaUbd/og7NdD+zV+c3cwOHg3XzhuWP+be1eW/zLokdHWmcGIo6ZixLTjEegzgMn1krgYGcdTWV0iCKFBD6gNF2+DIyhiIYvOunqsfGsh1q5YBrsjhQoSLJMFxAMyEgKPsGFDpvIFlT4EFzK2heXJVqwWXdhWNQA46gRsifZGOlwO3edjqqhEMhKI0QwSxnOWw735GexrMDhh9OCxfrf0fFWPnuWRir64+sZboRHm3LSRzebBU037CwgGbNFmtf5Sx5eaoru05lg2xhYmatY6y7/jIuG0URmDqxgMnFo/deCJFe74EjgZhpMdZLJpZFJpJjzHOATFzMRJ6pwAwnoHO89l18TrmhnQN1okK02hiZq3Jo9QIg6PaOCOX1wOTi0gTeW4Sy/FkFGjoNM58SJD09CZE+osEotAcAl48Kab8M6KFbCqB8Lu1w9pzg0XL0Nub4axfinKJBuVA4Yi6S5HhyqyRjQt8pxZgNhUB09rAziyoxw+CM2JchS4OCR4ADuPguRkVgZ9bzCKzngcHZ4AcpwPNudFmkYmEoHl8bPj6g461SHaOUOOiKGir5FZGE+1n/XKkUMb93wUCUpaHeWuDLpdN9neMqnf1NMQnf4tPL9dRYvqAseJ8EBHXKmF9dYTSGx/187Xbpu33f5g+rJl2Csi6eA97l/+I3cHg4N0D08ZPbgKlvny4N59RlRFI0ypsq4tCRD7MxhCr2HDUdm/PwKxKPzBsCNboOsopFPoaG5E46bNqN+wHkI2Cy6fQ0iWUF1Zjj7BIKIQoWXS4JQ8Qkyt0oJhEV9AgCq5sD6XxrJsBhuiVdCPOBF1vYahMVgOLR5DQZZhkZmJ4TQyqWfwcX4G+xoMCF7qt80Fw4YN66PAhdv+9GeQdxcZrlBmQGUiViZhZZWid9tBLxMV1/FSMOha7S/pMpU8oYuoXlY8K0K7iPTnMI8ddyFW8y56BVPtnK1tPBnMqCjkckinU7BNwykJMfIXtWRLPIQuwWAvT1wpGDANKgoDpWBgMb1VRBNx2FoGt//8UvgEHq3JJK6edSMSffqw5jEFW96kEpEJXuAQK4szqYe//uYOLHh/HfJjxkEZOw5tnB8ei0cs1YzUvLko72zFsEMnQBo3FYsaVGiyD6pWQEg2EWjZCnXFQviNDNJlEUhHTkWdVIG8EIXB81Co80tjQGxtTkBGFtn91gyCsbqgeGSYXi848kUmcQq28aHdhwUZgE8Agun2QrWWvf718f3u3JsO0UmTxp3lkoW7PWWJCm+/URj7ncsxrx1Y3cHDFF0sEISUNoR3rICx9Hn42zZr2bb2Hz67YsNfD9Jj/ZU+bHcwOEi3d0ZN9fd6l8UfKvP45XNPPx0RUcLrr76E+uYmpk7abhhozxXY30kqghiaukbG4wY8goC434cgxyPEc6guK0O/8nLoWgZmLg1X2oZA3AHWWaZijCNxwJAekowWzsbbDbX4wJ/AjgFjoR1+PHZEKtAWDkMLBaFTyq9TyYRqws4quTfSGQUDPtU294k3Fpz+ScNUU1Pu6y+Flw4cMPCQ3P+UoG75wz0Qw3EoNodM1uEafBE9g90yg+K+vwQAYp7QBPsv7tQdRjYRv0rKbbTIUfHcUXxlvA52HQ5higKHrhsMOpqjgE29GOoR2BbLgqhk90my1F3H08lC6NDUlyAGupMZ0AIviG5EEzGk2upw343XwCsAHakMrrvlNnjLEjAF8r6gxjjxKRwV1GhFDIIk4qFZN2PB2g+QHDMBHeOPQIergt33hJ6Ed+VrCK9cjognhMMuuxqLch5s7DShEuFOzaFSb4dr89tQNiwBx9vI9xsMHHYUasM9kXaRlAX1u6iU6ZQANcsGL0uM+GZQyc0rASSKBx4qZS4CEdsAwbAhmia8poI+VuHdnlrLN585bERt1/E4AxDUiaNmeGTvI+5QLNERjmLGj3+N9UYUbzVryMsB2JaJGHJItG+CMf8pRJJbUbt55VIV9oy319YlD9Jj/ZU+bHcwOAi3d8yYMaFecmFJj0Bo8Mg+/XHO8cfD2FGLhg3rGHMzlcsipRpIawZyugHVVNmCwxyvBB4+2YWALCPkciHidkEmopCmIa+nQYCYgOqCYUlsh2YyuJ7DpqW1i9AzBZeIDdkUluaBVcG+MI46FQ29B6CRMpRoBKbkZgyqokbZJ2YG+xIMyNegcuKoxYlY/DBT9uBXv7kd4V59oUBgwYDBWT/vBnIREsqqQsVZvlOKutgDoGDgrMLF3X+Rme1MCYvt0J2X0zimQMG0hVjg1tDZ2QmFvJ4JNc8RXJJUQwmPXyoj7d4s3qV3tJeewc5gUJQvL5aZeMHFPI23b16Df/zhVvhEAQXNwHW33g6e6vEMbUA9A57VzykuxMsT4CQef7r511i49gPkD52E5NhpaHFVIc9LiPoM9G9dD3P2o0hkCugxaSoqZpyHVza2IS/HoSk8ZKUdkfQGSBvegrzlA4huL1r69kR+wkS0Vg1EzhWALnigka4R9b5EElI0IbNeCWtpg7M1YuhBYWxuHoJJP7NA/eOYkUdvJXf1Gy/0/j1mlepxzmDPPGb0uR6Du9XvjfUw470x+vs/Rn2gNxbtyKJDjsISeGZzWaG0gF/xCoJr5sNqq21vS6Vm/nftFkIkfZTZdxCe86/aIbuDwYG/o9yMMaMvqwj77o7IHHfBKSdjWDiE9rfehtiRglxs2tJCTsxf2pMbtBYxMzMiK3Gsni8SwVPXGNlMtYC8RtYgzk5VsJxG8E7mcvEaSpo5Kg+0ukW8vaMF21zl2HjIoVAnTcXWUBzpqENCMzhClBc/UTJq52y4TBWDMu2IvfIkYsvng8+0zX3itU/ODOgivj9l8vM+lzxD4wTux7/+JQaMPhwFXYCqakwmmsonDOa5UwOnWDo58ONfrA+VmgN7KAntZZlwbHAI+umI+LF+AJXQLEd1lchr7HfEV+Bs5DIpdHR0MJN6xipmH9oLEW0/ro2J1VKpr9jSZi5rEJi2Up+qcixd8Bpm//0BuCUR/nAYV/3qBraLp0VaI0IhUw+1HAnrsjLwgoQ/3XodFq5aA3PkZKTHHoc6bxxJtwuCX0J/W4Fr3nNwv/0m4hYw7ryfoCE6EEvqNejuKljkp5GvRSK9Fd6Vb8G1YzN0QUeyZwLqpGnoqB6Ndl8VOiEzhVedGBGCBtnQEdYteFUNLo1USlVHxsOSWEaqeVywZA09jNzKyo7kzH8ee8SO0jCdMmlSwCXiEslWrnGHA+GCP4HJ5/0MTWXD8cb2TqQkL3T2bFjorScR2Po29GUvwJvaYbQ2NPzutZXbrtmPIe9+6x4j0B0MDvCUmDJmUNxru56pLi+bOKx3Fc6dMQ1CXR1SS5cjQn63tgWVhDRLWvZUXiYJg+LmiDapVIcVqM5Oi4PAIWeayJIODAWPffADoP1sp1vAxnQBK1ImNvQciMyRx6K+VzXa/XHooSg03uXwHNiO3RGuo/9RMBicbkeUzG32PRhwF0w76q+crn3PkmTue1dcijFTpkPjXFAKGnKK+n8wGOya+k7N3iGH7QwGhBAqavXwRXQR6RjlOjqgqwUWCNg2dh/ux6dNsVJ8oia2UzJitkYwLR4+r4y+lQm89swTeOWpx1jJpmbsOJxz7gXQSCqCxOeYxA+pgDo78rJEGUTRhXtuvQEL318FfdREJMdPR6M7irTLAwT8CAlAz9aN0F94AlUfboc3GMeEC3+CtxUP1uc90AUfdabgVVoRbN0MaetKGNvXQRRU5IJBaH1GQB57c1zxCgAAIABJREFULNrLeyFF8VBNo8rWIGz/ENr2zUCuHYKigiuoTKNJEGWo5I8dCED2S/lywf6V0db58HOzZjGhx2+fOLm/G/xtfN48GYGgp1DVA2O+fTFa/NVYskNDO3zQJYn5f4eVJOKNG5B/5zmEOjYj2b7tvZymf2Pxsq07A8unjXn37z86At3B4ADPipmHjzs5FvQ+FuE47zknTseoqgq0vPM2xMZmhJhrFcH0iPBF7EtmBwLd0RPdubBQbZVKPgSCp1JGWteQN4msQ+nDp2pmsn1unrfRJspY1JTERnccdYcejsyYCWj0VSAfScDw+KGR6AHrmTolI1oQXVbXYLAAfLrl6SdeX3japw3T944c/zuJ469SbXBnfv88TDv9LKi8B4qis8yghKRxVFN3bc8P1gQsLfAlMbndzr/49SXYZ6lm7xjNOBmakx04iz1layqheIgBns8yRFLJgexABISuwaBUTqNgQKCAUMCPflVleOKRB/D2my+D5yxMmz4D00+YCd0SmDos8SgsoRRIgES8jMF577/5BixYvRr5QyegZcJxaHFFUeC8EKJxKJyFKnSgx5Z1MJ5+Hj3TjXD1qcaYi3+GV+sLqNP8MEwRHtJwStUipjaB3/I+sGkVvEYndNuNZKQM0uhRkPv2Ad+RQue7y+BvrofHykAzOyHYMnidGtwGeMGGRo1nEr4TBXh1Q41KrgUu07i2o6B4Ra7wJz2XqgkFe4HrNxSjz78E6+wA3t2Wg8rFAcENzlDhUdpQmd2EjsUvI5Futjtr19fxAeHsF95c+nGEtU+but2/L47AwXoWv5YDTFC4wSHvM+UB3/SB0RB34emnwZ1sR+vy5QjkFfgkMru3mcokE58jWCip4xSbkqx8XTSPYnV2gbRpLGQJZUSSCfsYDIoFEnTKApZ3pLFeEbCuVzXUKdNRV16NjkA5zHAceVaqcoIBQ5iSHMGewSDT+olloukTJkSDbnty2OW6kjPMo2xe5IaNHYsfXv1r5OFGQdWZVHRJqtNZYg9yiajIA3C29h8fPB2V0CLRz8GA7gwGIBMXklugrCybQSZDsFHyodul/N8VMnpAJnzR9Iax0VlmYCMWCaJ3eQx/vedOrF/2NoO29hswABMmTUH1oCFw+QLQTCeDJF8B2kDEEwmIkoz7b5qFhatXITdmIhonTkOzHIVKEtPBOFSfB6KdRa9MO6LvvAt5weOMt+LrNxxDz/wBFrVzaNL8sDg3BLsALlOH8kInAi11QPMGaA3Ed0jB8gmwqPSUtyGlVSZXHagIIV7dC6FEHwRDVYBbh17oRK6tE211zWjatgNIJRGATeEiU+Bs1ZL0GFwBvu+hxyI2YTrWGCKWt6SgyxEYlhuSriOophDPNcFY8yJ87XUwW1uT2UzHpS+uWPWfAzL+X/ODdAeDAzgBTptw6Ek+2TXbD8v93enTMKG6Gu1r18Cua4DXMOAJ+WFLPHQqnhvE91dg5gsQJeoB7NotO/LLPGyBdlLUZKaKrCOUxna6n3bXqNQEDjkBqIWJ99rSWO2OonXsEWgZeTiSod7IhOLQvF7oLBA5SI+9BoOPyQyYVgynny7J0q95wRzUq7wcpkoCayJ6DRiEy399IwxvEIrumNw4MP5Pz2oO1O3Ylw5i12GkdZQq9kwLiu4FIWRUFZ2dSWYqRI39EmS0dI57lpU+87kzvSnHc4LgmsQ/KYtFEPO78Off34KmLetZc1Z2exhk1+X1Y/qJJ2PSlKOh0/kyVp2IaCwOSXbh3lt+g8Xvr4E2+jA0TpjK1EQLsh+WNw7b54dqawhbKgbmMxAXPQ1xyXyUKTpi/Yfi0At/jpe25NBihKDZNkwtBU8ujZCWh7fQjkhmM/T/396XwNlVlXn+z93eXmuqspCQQAhhDxIQwhoQIquCCO6O43Q72tuMbfdMO9oDuE13a7t0q909TmurtC3YCoKIyGIiSwgQkkBIQEgkgYSkKpVa3nrXM/1959737nv1KnlZ6DblfT+KVL13373nfOecb//+39bV0Ma2s5VU9FMozDsOSy+5ArNOXYJqJo8S0pigWhMxQbgp6JYmegMTolzCr59YiV/94l5YpTGYJlB1PSxa9mZkTr4Ea/b42BmY0LNdqNg1dmX2alXMLO6C/fRKZPb8CqJStMfHip9KV5wvJDDVh7zzQiXo8Nznt/4uy5eflB/0s//Um05df9zgAH736suRL5exbfUT6PF8FCwTej4NT1PpgxaldVaqqI1TeU7A2UAKXE1Vy1L7RXIl1TwXVQIJo4AmuYj4Zz/kDittPUPDXj3AxmIJT5eBl+afhNIlV2PXjGMx0jUDTk8vxy8k5c8ToCS5rgIbx0/swYz7f4S+pyiAPDzJTbT8+ONnpIT8q5kD/e/J9WQsVzrwHBtdmS4CzQSMDD71lb+D7OrluRYrVRU8JkZ7GHzsU82+qbiLBerkbB5C9ozcQFwYRhlcXPBH5b6SXRgE9lYul1EtKWsgiic0KpdbsoEOV+OemDCg7DJfajhq1gByeoAv3fJJFHe/AtOQ8KmuxA9gWCk4XoBjFp2At7/r3cj19vMe6emfASuVxt9+7rN4ZP2z8Je8EcPLlmN7rgvjVg6yMIDA7GbXEoSLvGdj/sQwrFX3oHv9I+gu7UXvcUtw/DUfwrNuPzaVAohsCs7oEAq1cczyxqE9/wjM7U+j4E/AK/Tg1KtvxKwzz8VuX8PumosRRzKqKbey0QNWgmqOjpTIIutLDOg19Pvj2PHEw/j1Y48iZ5ch8oNInXgRhvtPwAjVMwgTml9BIVVFanwr5OYn0LNrG2R51J4YH/vr8aHSp1e+/LLqoHSArwsXLz6mq5A5MTD0kZ8+vvbJDrsVHuBTjqzL98dWjqzZ/AeO9trzz1iahbhnViE384ply/CmExdidNNmlLduQwEasvkMRNpiCAgKDhP+i1sswykXGbPFDIUBIWxSQNkTGl9bcWzYAWmLqgFOR8KA2BfhA+saqpbANs/Bk8MlbO6eg73L3oShE87Aa9kZcAZmo5QiHB4wGBnd3pRKGPTf/yPMePphaOPDd972wKp6zGD5SSflLV3+3Zyennf0dmdN3wxw9nlnYfEJi/Ev//TPsCsB9oyW8IVvfhvWwFzohoFSpcpaLrPhVusgUuEPw05sdduwuyyGI6SMrxBGmqExAJ8Q2SRg6CZbA6XiBCYmJiCp/zFBh5PwCIU0Q0TzGhyGwcb3aj2GoQrz6E9uZCmB+XPmANUJfP6mj8OwS0ibAa64+go8/8Lz2LhxI1edj09UceJpZ+B3fu8PGbhuxpyjIP6tVuWrn/0cHl6/EcGSN2LknIvxai6PsVQGbmEQhtULV6Om9NTjQqKr7GBxeTesR+9G9umVmFGzYc08Hifd+HvYIHuxcWgEXbkU5K4X0ffqRsgNj6MvqMDoymHFf/tTOHMX47m9RWwvUv8EguMQ6PdqqG19EbVyCcbAIFLzF2FUy3NHOapyTrujOC6rAZtewvM//h7SrosxYxCFM1dgb/cC2HoeGX8CXZVtGNu0EtnhbchXqvbusb3/ML5j7M9Wv/pqW4TT/bGB5WcsPM4runcV0tYJjidL0I2PPrjxhW/9tguEw7yr97cM0/fzt19w5hfnZLN/2J8yjd99+/UY9B3sWL0aeYbpDZDtLsDnGADBBOvQHBc1qlp1HZixWAExAgoaU+optTOsOJQlQpKCMo5C+nWyamFjEd/SMSJ9PDtWwTrPxNajF6N66ZV4tesojHXPRLWnj/F4uC8CN1Wn1NI96Lvvh6DmNmJ89523NQLIYsXpJ36kYJlfmjOjzxoY7MV7P/xBHLNwHvaOjuGmj/0ZAt/Atu278OXvfB/9x50AGRCKZ01VSLOrKOzBHE1Fpfjv39rpYOu0swzoayr9U3INADvDwg5mlO7K4sHzuYq4WCzC8xwONVDNR71mILx+KjiJDoa270vqaanNwoBodfSc2Rjb+QrXDPSldaRMDx/6yH9hDKKhoSH87L77MTRchC1NXH3djVh20SXI9VHRmYmvfu4z+OWG5+Cevgyjb7wYr2XzmDAzcLv7Ia0+JQwMjy3RVCCQrVUwrzqC1GP3ofDUSnRVq/BzfTjxivchNf8k/OqVV+ANbUGw5i70TpTQffR8XPz7v4+tmX5s2l3FOHSUdRemZaPfqWLioQdQe3wNN+MZFQKL33I93EVLsIfchxYBH1XQ53uYXfOQevEZbH3gJ9AqDiq5QeTPvBg1QiQd3g75/KPoKr0Gvzg2PlG0/2JkpPj1NS+9NHGQdBeXv+Hkbwz25D7Y19UtKCns5Vd2bg1065Kfrlu37SDvOS2+1glbmRYTfT0ncfWFZy/qhnyoW/pzrzrvXFx+zjLYG9djfMsWpAFkMino2SwXy/ge+ODJWg2V8gR0yucmvBaK/YWKJzWgqRHejevA5hZahBgZIX924g1XOo4wNNgEO2zo2Ob6WDM8zlXJE5e8GcMLT8Ourtmo9cxGzUoxo1bCwKkLg4Gnf4l0bezH3/3pg9cS/ZYvWJCeMaf7rrkDMy8z/62I+ROf/l8o9OXZ1VAdL+P//O/PolT2sGNoFB/79Odx2nmXoEqZUFWHXRscB4myoWJ5+a+HMIjWW7mCVNBa9X6hrnE6M3uCXqhUKqiWK3BrNl+jGy3dyJR5wbdjYfB6nJgWYaCAMADdtDBv1kxse34jvvWVv0KvBXR36Xj/B98NjRscCezcOYTv/cudKNsaZs5bhA/90UcxY/ZsCIuEwacYjsLh1NJL8VqmC2UzBa/QDz/TA1tTLS5p30mqZNcspBwXi+wyutb/EtXH7sVstwx7zMEZZ1+M404/Bz+67dvo37sVgW7h0o/+CUYXLca6kSJqVQM104Rtekj7ZRw1vBfb//m7mDW8AxldYJwwt05fihlXXocXUzmMEmJsINGrachUbPRUxlF64lEU1z0BTXrILjgOjmVi+IXNmBsUZXn3q2PFinPTrnXP//1arqM+6Jd+5Rmn3L5g9sDbTO7VILF91/CuIJe75J5fPr75oO86Db74emztaUCWzqewdOlSc15Wu6VLyo8v6uvFf3rrWzEnlcLuR1Yha1eh+QFyPQX4hNxIIHGBDtPx4JbLcJwKY8hwhynCzw9hzyjVtBz4bBmoOEHUoD0EUOtgeAydbBD4GLkCNIwKDU/v2YtntDS2LDwZpQtWcOygRqmm+W52SZEHJBIGFDPoeeIhZO3SXbfe+wC3D7ziDW8YmNWTerqnkJu79Ow34N2//0EFkeFUoNkBvvIXX8IrO/Zgb8nF+//wT3H+lW/lAHK15sAlPxE3uJlcpPV6CwOGoY5ZIownVK2gVqtxkJjbRTJDpNiN6gvAQiTsa8zWBMcFwkD/4T41IfYROYfYMgzxlCgmQMJg9S/uw7233YoCHByzYAbe+vbLYZkaxzaEMHHnnT/D8y/upKoA/NH/+AROXroU1LjoK3/5KTyyfiPkKedjaNlleCXXg5KRhsj3wc90ocqQ1QG7LKUF7j1BiQc9foABKjzcuRne6p+j69ebMOD66O+dhdGxcbiyirPf/l70XLwCq3aNYFwKpEQKFUOiZkhkvBoW7i1h03e+gbnlIWRrNsq6BrFkKU543+9gzZ4y7Ax1k5Mw7BrMShVmtYjc8E5MrH4M7o5fI5vW2WrmuNrY2BZdBH8ytHr9T1ZSn8xDfF122uK3ZHV8o5DNDFRst1x0/G+Wcr1/tnr16oNyOx3icH5jvn64t/VvzMT+vQZy+TmnLzAc5/5FgzOPO/eE43H9hRdh7PnNqG7eiC4hYJo6Ut0F2FRbIIG0bkJUHNTGx+ATtAFlqbCHmPKEFAYmWQNl1+GWhhQ/UN1ZIqS1/VsGzFDCFFViYDXCkE+l8UK5itUTFbzUNxvlFW/BlhnHolyYB3uA4K0VXr8lHSwoDaHvvh9gFlWeFkfvvvVnD72Fxnf12acv6jf1dX29Xbm3vfM6nHfJMviaA6dWQjrQceu3vocnn9wIV8vgwqvehre87z/D9QWnltYcX8FIc5Wv0tL36xsK2/JGnRCUet7Q1JW2Hq505G5SkQluNkMKva7pzOypUxdBSLAlUK3AcWxG+OSGM2x9qTqPeFcybjfaFB/oXBgfyP5T1ga11FTBaiou9KRAJpPBvFkDuON738JTv7gPGenh9NOPxYqrLoBbqyKbySDwBR5++EmsfORpjBYD/PeP/2+cee758A0dX/7Lm/AYxQxOvhDD516K7SwMMiwM3EwBLm83CuZQ3wfKUqLuY6qxTcYHemtjWFTZAbHyDuTXPoYB+oygJY5ZiOs/+X9w/yt78CqB6dHGdj04loTIp4BKGccGJnbc/2PsevRnyJUdBNkcrvzvH8Po3GOwZcyBbVio2hX41TLSNRdG4KBfC5B57TVsufcnmOVXISb2eqVKZVWxHPzB3c8+e1gb1bx5yeKLU1bqsqrv/cp9etOth0PIHMia/yZemwiDQ1yVK8468SMzs4W/Prq3P/OeK9+MhbksRh59FOniODQZwMykYeVzCAjNMsTAd8plDh6r/k8q64VcQ8QsHapQDgKVQcTMM56OGVUQ7HvQxNocTcKQJjclsbUKXN3EkGbhiZFRbNEMbDv5LJTOvQIv5Waj0jcDfjbP2StZ+JhdfBUzVt6BwSdWoTA+cfe371/JwuAtZ565eDCnPZXNWvm3v/cGXHDpBfCcccCtwDAsPHDPQ7jjxz9HKtOP+ScvwR984s9RrnmoBhpKNfJNc9v1MIirGOD+/C6tQWHq1NXEtMmqislHcp1wsRhhC3mqXSNZAPRDwoChtFsrh7lLWSvjP8SNcQBf57Un8Anpcm8FAnVzfB1dXQXM7Erjm3/zl9iycT13TrtsxTlYdu7JjEPEgX9h4pcPP4FHVj+NobEa/vSTn8GSN54HkUrja5+7CavWbYK95CKMXrAcu60uFLUMvO5eVPIFUEtiuoltSghPFddxzYsuYLhUge2hF2Ucv+dlnPzUaow8ehdc1HDuO38PuaXn4PHhcRQzXXA9jZpzIhAe/5DbyZIaZkyMoHd0FyzNxKx58xmxd8Orr2JMAFU/gON53HGN3KYmNXvyHXTLKoYevB+5rVuQr5VfnqhNXH7ro0+9cADkTC49SAokwuAgCUdfWzZ3bmbm3J5753b1XLTkmOPw3svfDGx5CaXnnkHWrbHbR1KXLVPnNEBBjnbPh12pQDouqPkf+bAplkAMgVw6duCj6vgqBfUgM1dIvHCrFmkg5VMfW5vvV7ayeK5YwdMTE9jQdxRw+Tux9ajFGKYuaL2D8ITB3dIWFF9D4aEfov/JVeitln/ynXt/fg3N99qlpyzMZ8wNXV3Z3Nve+TZccs1lCGoUBK+w2bPp2Rfx9b/7J+QKM9E1ay4+8dm/Ur2QPbAwIIht7kAWtwlaeiJHyxF1Botr5lFP46i/sepKrLYwQUaQpk94Qo7jwLZtOIQK67r8Q/chVE/uXjYpG6gzIXsIW2WfX1WdCEJhQKinugFX6ujpLqAvo+FvP/tJjO7chmqpiHe88xqceMp8dmeR1UOZrw8/sgaPPb4eu0ZK+NNP3oKzLngTvEDg65/7FFY+uxnl05dh4vzl2JXqxRgyCHqp6CzP6cREPpfaaFOQneCoYcOXLtKeCU+3mLkvqIzg3PVrUfzxd+AUd+PdX/g6Nrs+tvk6ylYeumaR6QUhCDKFQLWU2y3nlJFxJqAFBhzHwwRBU2QzqHDGHCf4wgykclNx/YyDLtgwf/UrlB99DOmx0d2Ghkv//uc/3/h60T65b4MCiTA4hN1w5VmnXZ4V3o+P7u+z3nHpFThr3nyMrHkM+tBO5MImHj4V7NBWN0yV1ULtFAngLLQSqC0jaYIcNPZd1FyfgeuowExB6x/kElG6JEEgU3tLQVp5AMdIYRcsPDI8jI3pHgwtvRBDZy7HjkI3yr2zIbJZZMZtvMHZC+v+HyK//lFkS3vvufW++68mMt1w4XlvyenubZoh0x/5bx/B0mVnwquOA4HDfqmhncP41Gf+GnlKXezqxy2f/xJcYcKWOopVh1CW64KgPqsphEG7ZVEQEWEv4RAZFNQQPvDguS4c22H3DzF/qg8QZAXUQfhIYBDMN30/vHvc43aQZN739unsplFEgwKnyk1kwNNMDPT3wXSK+PKn/if84igqpQl86L9+ALOP6uPaCEOQcBPY8MxzuPfnv8DQWAm/85E/wiWXXwMYFr7+uc9g5YZn4J15DibOPh9bUzMwnu6Fn++Fl8vCp1oX7r2t+mIb0kVKlGF5FfRXJdKMhFrDrKAM/Sc/QeHZJzCvvwtL3vs+bBoromhkUBMWQ5TrHHOifSbZ86R7BExYA4TN0NzUwpP6LjjUjY2KajQqT6R4BQEvBvCFgUAP+NldQ0PY8eAv4A8N1Rzpvud7jz55R5sVO4STm3y1HQU6260J7drS7vo3LvlCby71x4vmzMSHr38XCnvHMfTYIyjYJRh0IsJG7GTOqx66irlz7jqb6NQeXDBgHGU1kG+dDgv1nVXtU1rc6vsPF9THSWdTZSfRQaN8JA+eEKhlevHL4RFslibWzzoGlatuxI7uPowWBmFmejE/cLDw5c0wH76X0v1kziuudFD+AEapcVXPlzXNvs52a/gvH/4gjl20ALZd4g5thLS6d3gc//jN78KnZrr5Pnz6K19HYFhwpIZi1eXIiNLkVe5+U8wg7uuJhQWUFq+K8ZgcHAuQzPCdms2uH8e14fuecp1E8pNrB8J+xZzTGn4/bH8ZkTZyQ5Gm2vxqGd9BnYEDqLhml08YQKY0Yj2FOYODKA9tw1c/9wmYfo0B8t5+/XWYNXMG04PXWNMxNDyCO+/6KcYrNZx19vm4/p3vRiqdwz9+7W/x1IubEZxwIkpvOA8vDxyLndkBBF19CNJpxgqiLmS8PwMXvW4VM70Semuj6N75KrBrB0R5Lyy3iPSWLSiM7kXW0pChyvqaC1dLwbJyqNk2KJRAQHkkDAhV1/Cp2Y2EY0puj6l7YYDeMOAy6CJZdT6MgFrfED6XwW5ETdbQZdvwtm+HUSsHZdd+YKhW3MBlML7+im6kHzbHnE1J1fFBbch9fikRBgdJ0+XLlxuD5fHvz+7LX3/a8cfi/SuuhtjyMkaffhJd0oYbOBwcphfltTMbZMwZYmzKTFbolEJBCRDkBPUjIDwcEhz8+WT+1PGCSdL4VOogaX/kjybNuKilsdGTWD9WwtrBozFxzbuwt2cmhtMFdOVyWDC2GyPf/b84tTyG/toEIIuO75TGzSAlLaT7DUvT6b66Sa4tEngKr4cb5QTUv5mEkAE3nccnvvBFFPpnwoGB0VKFA+jKn680fGUnhGmbk6YaNaQnD4QPO9T4fddTwWDPDesAFEXo/5z9oyn6kjsociEpARGjXDytNZQycXofNsyhfeAiTdp2NN4QioJaWVIfg3mzBzG0ZSP+9rN/ju6MwQIvYxGalUqoocCtwcyVbU+Y6SzGSxWkMzkFyu1RwFdij25i5+AilM+7AjvnLITzb1abSGVQMlRxY8r3kdLLOHbPXmTWrYP/q7XIDL+MVGkYhl+B5ruYYVjs37c9FzVS7KlIz6O11lUbUC1gGGsSBlpAWXOmqpcRAUOdUBYdW8VKgnGhG/uTpEptBSwOmpMnkXCI8lQAqfkYq5ZQpAp3rg63pOGLMdfV1jm+/J5bw/d//swz5YM8wsnXWijQMW9JKNdMAUopPUa4/zqnt/CW049fiPesuAr+5hdhv/Acsl4FBNHAOPiszdI5IMYfdVUkRk1MX8KTAVsEJC+IL6lgoupVEHbgbXqwOjj7f/HzRMCdzALu4OXA0DVU9BzWV2t4dqKCp2YchfFr3oOxnrnYa6XQlwKO3vE8vB98Byc6NoLiKEYqY0hbgOYKZPQ8Y8hwH1td1mPbUT9gmkRvVw8yZgoTHvDHn/4MFp5wCjdtHy3ZHBwnilDbSEZCYLeN6gwWSI9hob2Q2VN2C2n/zPwJsZW7saneAqorW13VV7lTjOMREjuSou2CwpGFEX49ajij0FSjV/3m+yf0Pq/ozDJQe4QW31fghORWsdI4dt5sbFz9EL72Fzdj3uyZKFWrfF3g1eB6ZA2pLDRyNWrU5SyQsFKZEF5bwPZ9DPZ0QzPSeK2wAHsuvAbbFp6MWu8ApJlGOU31JQH6nDLmVl6BuO9+ZNeuw1FaDdXyMKioMJXKcP0BIewSLhLFtXxDsGVreqQEKEFAqaw+IafyXlNd4RQkNwWUqaagQQtWUsLiStVLguIH1JBBZ3cmo8JSbImsZBLupoDtOPDIEhwvkvtKDo/sQSlw/t4PUh9/YO3a8UNcqOTr+8/tS2i0DwqIa8849W/m9Hf9wYJZM/Ch696Bwp5RvPbYw+iihuIUqGRsepXqSCyMoCbIZUM+WjoMdIg5YBz6tiOPOgOVhbpzHO6ZxtIZe1Hug8Cn7A56Jh1kMs0N1NJ5PD46huc9Dc/MnI/iFe/CcG4OJlIGuvUyTivtwNDXv4zTDQ1Hzx7EkguWsR8+bWQIlp6ZVeSjiGCiSUuU5Kd3HTz52GMYHd6NUtXB+z78e1i67EKOGYyVa6gRc4989uTrp+A5CwKVUhkFjeuum9gGJRgLtiNUFmiLRRGTkE3upmZrgL7VTvupQ1gf9u3e2WopYUpBXMFotpppccLBvFn9eOy+H+O2b/4dugtdmDl3ARafdDI0Q8BKpWCl0yyYNYKwlhIOVbMbBsdFqHhOMyQ2P7kGO156BS/IfpSufCe2HLsY49kuIJXnRjOmdLGoPILsg/+MwoZnMbvmY97c2Vh60fmYOW8+TDMLqoAhHz+56DxaJ93iwC/13WBblyqZSfFg4lIwR2XGKXVGWQb0nhJ6obXMBYhRMlkEv010UEoTXcttMilrVbowCDOqUsXQr3+NjY/9Ejte2Yrx0lhteHz0K3vWPvfnh1iIdthX/ki8YWLb+L0gAAAgAElEQVQZHMKqXfPGU69NS/+Oo2fMwPuvuQ6nzpqJV1f9AtmJUaRtm32hkcLJQUI67JKsAalcQx6Z1gEcKi4OG9ewVdBW+1dvxl0f+xw6MRhmvBo88ufKAC4FkKWBx4eG8atUF7YvfgNKF12DIXMQY6ZEb8bD4vIODP/D13BitYhT5s/Fn/zFZ+B7GhePETMntwR5vzhHn7OhAi5WsmtV2MVx3HPnD7Fpw1p4jodjFx6PG9/3AbiwOL20RkVEDA8ROotIe+QeD6EwiEopOOrbqC5gpV/BikJTLb1CYdAoJqvTIhQGk5xP++hE9voJg86Ol3JrSVimzoFwqtbu6+3F/Fl9+Opf3oJXXnoB5YqN8y+9Che86QpUfR+Frh709vVxlTm5ZsiiIrckpyoHVDxH/xbxzb/5IjY89QyGB0/E2GVvxavzFmKPNOBZOaR6utAnK9zEqPeub2BOqYLTlpyLFTe8G7LQi5pNDksFc+5Tsg9LYvLtp2D4VKBIFhtZC9SfQzFydhcyLDvBqlBZPaXtKiFBn1EwmdexSSyTW5Rxebl9J90vdKxy2ikpDNS8x9R0ZAha3JnAT3/0faxd8yjBqZYrtv/eO9Y89eNDOMrJVxPL4ND2wPmnHt07I9v1wJzu7jNOOvoYvOvSS2EO7cL4hnWMVCrIzKV8dzqgQsUG6MfzJfvPld5EZnek83PEOax2bWEkkcbbIR4CHVJd6uy/dQxCjjQxISxsmijhuWoVmwuD0C57G7bNWYxSqgvjpoSVBo6VNrI/+yn6nnsS3dUR/Nc//iiWLnsTdo2OwaZxUqpT4EG6VMTlomY7qFYdSN+BKT0MvbIVt3/3H1FIpTm757Irr8XZF74J41SF6niqKprdG2GBVz2gHO3GRqoPB0mjJarXD7TT7idLT2JG8Vc7thy53Ngd1xnfPrQNM+W3wzRi6XNQNWWlMHNGH554+EHc+8N/gQEPgZHFte/5XfQMHg1PUsMYDdmuAvJdBQalU1aVTyUCkJ6LlKljy8an8P++9kVULQuvHbME1fOvwI48dbkz4Vg55PIZHF0dhrzzOzhmy5M4bmAObvzgH6GmdwFahtF0JVy4egBfFzB9igVQphMFiLk6RsUF6KHk6KE2nER4EXC6KscH2PWpLAAOF4SePMpeqrtQWXCQO4msCAGHlCaKS1C9AqWpUhEeCTeyFnxKyXbgj+/FD7/9/7CbgPBq1Qeq1eCGO9evH3udFui34rb/oUdgOlD40lOPffdRfX3f6M3ks+edfCIuO+kEyJe3orptOyw6BNQf1iet2lE9CdhnTicihKMmM58Ch6Q1hQovF1WxOR3Lf6drGt6RfZKODh8BkOm+AdNPwU25mAiA7dUAz4wVsStjYefi01E6awV2ds2BJ13Y+RSCXA6zdRPz16+Hf8+tWODsQSaXxQd+92NIz5mNXeWiUhE9j7VE9hdz4ZhO+S/Qqb2hM467brsVO7dvRYYyVqSJC1ZcgbPOuwh7SyUIzVDCjiKFnGpLgefQ598a6K1nEUVzl9DCPsVMgHD3stXQ8mJQv1gcoC5iYmZXPP7SYSjmddmy7BbhGgwX3fkcZs8axP0/uwc//O630Jen2hQXcxacgMtv/CB8jc08drdplolsoQtd3d0c0CdgPeqb3dOVx4ubNuObn/8iPKeC4e4cKhdchp3zT8S4UYAuTTiZArrSOubvfgnyB/+IgT0jeOsNN+C4s5fBgUVDgREybGLMVKei+9SZL4CnU/aYWhP+jGIInoDl6Uh5lDXnwzZ9jhWQ8KDiSRbODI1La6jcYg2xT4FmSm+lZ4Jh1el5hqR7SgTkUjR1toKosELqPgpwsXXNY3joh7dj99COEU/gTXc88dyG12WBfktumgiDzhZaXLN0aSadzeYMy9HKJUCvVmUZZaRg5HoK+a/mc9krLd/DopmDeMO8eQiGdgOew3EBbnLOcQAVL1Dol6rmgH4ix0dkTvPnsXRIxfiiyOf+l4yuJG1OSAPC0zDhlbG7VMZO28doKoNqby9SS5dh94y5GDHyrK3VUgaQz6FLM7BofALFB++G9cqLsHwXVrobSy++CLOPWwhDJ8hrVTimsjGpF0AAy9A4ZpAxgNHh13Dv3T9CtTjO+e6OBwweNQ/HHr8IPb39HOwkXxP5uUkOEKS34tvczEGtSN33HxOKdQGpLmlm4HW8joYQ5eptul8kVJX/gVuMqmjzPk2CqC3m5C3Sugbx1kT72VAtsenoGbplsICdGB/FhnXrsPu1HUiRtPId5LJZXHblWzE4byG766JpcSKq0Bi2IpvNcC8Gwl16dt16PLJqFWSxBpvcknNnA2e9Ea+mu1EjOAofMFMZzMykkPr1Cxh/8B502x7e8b73ItvfD18jlw41PFLzJGoRc1bavGLGCphDQWdwnQIVzVFLSyZ1wJo80VcnuIp4sJjXVVkMKsQQrgYrQJT1pmJcyi1FtTKKYOx24kpxMk5d5E0NlaHXcM9t38fWl7ZUzEz6gyVTPmQ6loY8gBLQ3a1Lz/dFraoTYJLvZf3q3Xev5Z7LyWv/uzqhUQsFrjr11N58d+oGz/Gu1zRzUSClQVEtQ5JbNqBugyh05VO6rg+QP52Az1KExOjYXEwTfwmuupzMzNm336Ka0sZvfTVnvOxjqahBeti4hYDh6Hefahcoy0doqFhpuNkcxhgHiUaURkDuG1LW4SPv2BjwXOSKE8j4HndiK9aqqPouUpkCdBZoyldNQosqeyk1NpPNsGsoZVJAucaVyYZusSCk7CDdNDA+UVK1FlxhrdxkDWxu5g7hxFozehRzadCv/edNzJ8lTKswqKPSxYRBTFjErm9eEuXFPtSXmp1SCKIX/UpV02ThZDJpRrmlPcGV1qRVB+CsnkrVhmYaYUpvYyRESYrREK5QcWycrYtCoZuzsWoBUMvkUMqkMSp0ODpHsqA5NgpBgBylcUoPhmvDqVbheC4I2pvWl5lvqMREwpepGQa8lSxtWLStS8euIY5idPZSoePGKxLX0Q0iV5Opa7BrNaaTqZsUbwmq1cpe36diQ07Q46oG2li6LnRPBsIwjDJMY13Nl7cPlPw7/+/atYeCfNrZhI6wq/avZh5hEzpcw11O/bqWnHJJNmt8wkBwXlchr2tmOsTXIeZNrg2VJ03WK6m4tP0oiEfVrwQ10f4YTNYqW42AkF+0nUp7gTD5uJESze4TFjSkyVPaHvVgptxyg5mENFM8SiugBEDAIeZOmEZBgLRvIxV40Km6l9MGhQIp41xVNTSl04XaI7sNQnyf0Ddshj2EiXkYpsqHp6ygKMVWaYYN37G6676EQaefx+kRCYPo7qHKWbdCiJVyomNI7/j1sbVi/7fyh7d9qcmEH4VsTFUZxvNg63DYTUyPYMwpW4oYL2WAUfV0mHZLTJlcQrphcaxFN8woCtUQJuxqVIB8VHXNOEucnulBEOMMBGxhwjdSnMsf5jLApLl4NfbVGxpZJlQpb3AdB+NoUUZaG1bOXfHqIZ5wznXO3ZiuKi7vhMXE3KFtiNu6glQTQm5VOnD0GWdPcdyEcKriNFfixTA0VZnuUX8Q3x4rVh+CYXz8vifWJW6lGL07WanDxV+PqPtccsrCc7uz2X89amb/rFqlKLIZE1aWsPt1TgHkHgTs7CE4BJUFoRnUQD0EUmtp4kKTV9DIk8nQahXQFXpYsBa/WrGhyTdoxdqh66g7Go2QOk6ZXHRGcYkwp1tSKiK1VVTw2dkwHkGBQcoK4UNGnb4YFE5CmCb7fW3HQ4paEUqFPEqWAfNUShrRKS3SY6ZCh9MwBae2Ri8KeLJbSPX1jLmBCMpAuffj/CSaaQt77VjLjJ7b+v3o/SbexRkwbSy2tlAg9dzWKYRHq8XSLAzIklLZUw2mxTUUtN7EjJkQkhk/a/BhcDhSLaivRZR6G8pStRZUa0B+dqI/+dUpRdWScH3qOmZBJ4gLh4sCuOCL3qfELBH23yYXj3QlW3DpVIqFE60nKR+RHKzTlIRW+5S3ps2tLL/Dy2JIYJGX0Xdd3s+WZcHz/EYDIxaCtJ7hXtctxgJLpU1uBpQmtFZh4uWdux8TZvaKe9esOdgmOUcUP+tksId3pTp54pFxjXbdOUv+eVZv4ca0IbV5Rw1i+UXn4qij5jBzJe6n4BSoiIqOIjUa0VUgVFNVxVFNbORNZgdHLKsi0iLZWcL52s0ascL9b3Zf0OYPO/tOdn80uUM0CN0IC9mUf5ePZeSvZeatYAhoOgFhCzHjo++ocQgq/gnhHByPNH5dNYsPFJOqp8zyrakIjeoaVNEU/Ut54Q3LQTEr5XJQTXrqGjMLB5VX1dGryfUT377xGEDDL90QPC2f13l0WOndkQYb8f/INAqf35rpxdyzYRc2yb5o6mGaMI+UEcpVPwtyzVBqKQHR0QeRkFTlerxYYc5/JD2V851cdySEaWSqKE/C1XwIw4DmUwFXmJZLSgHdw6DuxAH7VOghpq+qYeh3LvJrcRGFcp+fxcF5lnmNwH7k0orrK6QsqLbODTrxKkz6O3S/xabEdw+XplkYqeI8OofKOGi4WFmoRrWHKlTNyhudVbtWwY6dO/GLVY9itOhiuOR6IxX3U9k1T37uB6rL6G/9KxEGbbbAFUuXLuxKY90xs3oLuRTw4Q//Z2TTAilpI3DKsKs1ztogN5FqsK5OOPnBqVE5IWg2UHhC3hd5DiLzOuJNVFjTZhU6ULz2uXk1T2mKdB586mdAaJiU881umcYDuUaUKnsCqhKlgxoyazrIoRtI0GcEekeCTnOViOKMIMUUOBedMYMoD5CYGE2SrIew3SQFAqkwKoTlaNJs+RY0LuWQmIpxMABancG2uF7iHCguVJvwj0KNvS5kY1yZeUE7k63z49GErloXdWGBVZPMUK0t66sQ+uRJACiEklCRqFtQSgunuIFOAj50ISl+HxZrhYyZmDi5lKjSnCxUEuxsm7HFEakfqqZBhYVV0JasNWqyRK4WgrxQ+Q7h+21I0GzJqgvaZXRFDL0jLsucfbJXrd3SkmLCUOQ0RnLJkuUa/h1fVbbbOVHNh0HWsW7g5R3D+Ne7H0QNWewqe1vHpHvhQ6s37OhojNP8os53+zQnRHx6V71x6Q19af1f+vK6fu5Zp+G6ay+H7xQR7P01xne9DJcEAWtvlPWj2g9Gr7Amk9FCJ/uEIr0+dn29CrOZwG3xcaYqnGojOaK0SXXGKOtDZW7QUMmMZquAmYjgJieUBqgTpjxXj0pOGQwYeIzrhjgrhG7hhcIgbrU0GKFiqDwc1v5UNk+zGytkQiEzo+tVb2eVcdVsHymmqSAjlHuJA9ch81MUa4PhFAmrSRATDdeMuknsae18dbEl4ZXjIZLFoxhxY4lVrIRdQCoMwveOcpaizmnRfojuVa+4DgVRmFxWv3dUjdt4VvjMkEOq7zdo1yzOqMCLXEphAV8obFVch2AkIuGvoKQZSqKVGzTRuUGMdkkQbd1GXEjZKeNoHITJe0DdI5pfu2E22dChdcB7l1O4qfYiAMX8ar6JXz6xCbsrArsqYnzc9q+69/GnHu10lNP5uo6XajoToXVu119wzkd7M8bnTb+iv+NtV+G8ZaejMrEX41ufgOmMqXZ9yr8Scr6wFD8evOJAY0s2UcS4wvRGZoQhP2ujl9aHVWemUxxOZYm0vEJIgIghqWCeehhXgvJPeMg0Zd0Qg4je8zQPPqURMuNQndaYCbR5Fo8vzDuPRhHFVCJ+rT5vzLIhIMiiUpYUM1B2hYXaLL8fjjFkvvt2JsWeEFUtt5BFFbxFN1UsRjJuDj275VlhNlh83AHlvdcZUwvb4mdGbEkxIcVhoxuHgpHrSsKFV6KaH6y83KxGKHwqjks1GCqJYyrkUrEa+nzyrqnLYb593P0SjSuW1hnu19aYQBPJwmSA6L2ogGzyhjsc73TCjggVtQHW0jgkdSkcW1+qUSBnGFQAXhKSag6Prt+CnaMeXi375ZKvXXvPI08+cDhGf6TfoxPqH+lzPODxX7f83HfmteB7vWlNnLP0FFx3zQrs3rEVpe3rkdNteI4DnUs9AxjkRw8rjFnnrWtDYcpFqz4Td76GnzVrWnGNVQ09rnl3tGChBaGYWIgBo8RAGCgNnRSRe0FQFkbULjJ07VAyOv1EY2RBoZrwNNUCRDyG+V6kkkXmvhIy6hL6f4OVx7V7YsaqkY8SApHGqzTohjas7tVgwE3Muw1j5GD1lK/4ZyEeTmgx8Tz4SRGOToyZk4BqDSzHhHu0XjRK6jUQfzW11GwdF2vuCtlWzVFFeqKMGb4vG0cBW1LqiiiuFLpY6rRWS0TXKvda5JaKZUyFX6k7OYNWoJOGEIssyFBUhpZcTMipXdpGd2+mcbMrbl/fn0Sc2D6sU6ZVZrW1QijBgwodbWrco6VQCTJYvf4lvDrmYldRTpR9rPjp42vXHDCTmIZf6Ii3TMN573NK1y4/Z4Hm2s8ePdCT77KA97/7BpioYfvmx5HRHK6IpFznKPDJTWtCba5JU2l9SguKZsQcqHl95CtXjKjhO4+CaKFDvc4OI22OrqbgYfRS7J/OhcKLj44OB7UZAiNirrHEV6WM1pkcpyUy3ry6D90xoNTUqCSgqTtM+8wSng+loYaCINJ+GyShOIFiIqyAh37q+okO6aDQdiJOGHZDiO9a5V1qpCNFLpwD2tkhtHKdDOrLUYvM5mWMOyQaLiGKz7Rq6iQMlHwL1zSicaTss9xXmVWN7srkq6fgKFUUh7k4XNQVMlbO/Ir2SCQU6BlqzJFlELmDGCSO177ZBaeERbg6rNe0CC7l4KsvR71amx8wWcjGr21sxlA5OIwMhB8fVa5Hezl0L9bj0jGQR40qtakYj9ycqQJe2r4Hq59+AW6qBzvHnRcm/NpFD67ZuPswDvGIvdUBHZkjdpZtBn4DoP+AuncBGF6+PKTDShSLS/n3+Sn5D3P6C//J8KraUTP7sOTk4+Hbe2EQFLQmOLWN0gGbHQVhAxvK3JgCyz7yF8eFhnKTtLCclgPXOOph25tYsa6qZI4p7OxOCAOzzEdDxEjmPc3P4vsGShslrZ+1TgIc45wo5QYLJFWEqliC3oANbUwhLoyaxh1SJ0KwjNxJsbExyyF6MeNpWCzM8sL8eWVXKDEXtzRCXqaYYJzBhsVsk9tbTt4IKk4bZtK0fjzJAiDJ0+z+iwuACA47uk0DVE+9EwmGiJWyvItoEQpGVUeikpbrYQyem3IZMR3YYguzc6P4T5Omr+hOMNDKWKM4RyhgQoGh7I7GT10JidOgTYwqki2d8YKGZbev69WMO38pGkTWZkTZ0DIN0yOYtKy9UGKDBkcK7B4tYcv2Ybgii93jTm2s4v35HWvWfmk53W35ch7AwMBKCWIMAP3TbM52PsQj8soDWYMjcoLtBn3jpRdcb4+NXZY1DN2ESAtD6Lqm6b6Uvu97gef5IpfLzM1l0+fr3GaGMPddWDoFjVW2UJR6FzfjG4ecyEqHmQ5gGPgM2Vj8b7WpQz2vpdNWO38wFQc1h9EaLpRJwqBxRuqokSoddrJWRznoiqFGIieePqveZzuBGWGIYR8x4LpLqpEMohhVi1YYpbVGdKgzpZBR1ocVsoZYlpa6IrqgBbMp8vXT2JpiNhGnDcVHnfNGNQ6R9AybDE3qdNbQ6ON7SDm0JtOwvvaxiyM3VZSrr0aiFAaO29RlJf0SuXBCGyAcfv12dSHbcP1ELDRufcRsEBUXajhY2NpofsUjMJPn1Hh2g1lPCjLvhyso5aLhROK5x1i/EvHhKzJ+mv+cnFQQur9aHz1pBlFbT19hglE3QSkIddWA6wu3Zrt3Vcrlkuf5gWmYVtpIaVIGXs2xfc8wAsf3nUy+8O3bVj76+LRhfvuYyG+dMLjh0ku7i6O7n+3S9XmCcPots56RodQAlRudzWWRLxQ4D5vSJlVRELlzwhTIkD/FCRg/eOr3xuFrfBYyv/ohVS4KxasaZnlDawwPIu/0sPI5flhiA4jX0FIgsmE2q4c1/R0+n/Oyw0rO+pmM4gctu2Mf7KLtFjuSNlc8zlufTJsJTCVQ2zKmtkVrjRTKhuMmEhMNXV1ZPfHQdcRQox4ZzSJSCeDmgl+Viqv2VFMpRBwkLtqYB7hY8fvVfw8VkPhnYQg8ZtHFxhJev7+GTc1nJ3KpNXZj/fNIuNbPB4ntyFWpzA9OrSYEYddFtVyBW6U+zQIWASh6qqWqpOJRAewtFpGfMeMbYrD4Bz/4wSZnuguEA9wCRyY5nnrqKbO2Y0f6hT3PY2KXly8Nv3ZvdWxkiV+rcm41m+UqQaPuJ6V8barAJH8jFVQpqFEV3IwUVfbL1n3drbTpsIgq1LBVTKBxDyrwimth9BzSNCU3TW9+tdPWqPl4uxTAditIftVmr9TUbF9lvHQYCnw9dtdUQzsMz4ozNVrbSIONa/2R7dRsB7UTBaruhHk6E0y5wJTBpFJR1adRNKCRVRQZHs34VLHVbAOJoTK6mvdQlJnUyak9EI1/P1m4TY+rKyAxQcWxmNhYD+R+6uadY0RF3Qb59IbJCVGMTxmrCl+LCyq5VkidMxg6Iw3PO+bYL4yb+Y/ffPPNkw9eJ4Q9gq45DEfoP362GzZsyFUqlQFDyl4NOApCzNZNfbYmMNfzgwWa0Gb7fmD6TnWPbzteIZs6w7OrhXwmi2qoGahZhD2KGWZXC8HUqIOUxwVcygcckayRotfeNz1FIVMbcrF7JlJNI04beVnqbib6YsSKQ3m0j9VrB6+gzIPJA6BGNfX365kxbbPJldurgxefsyNkd0VujPq0Ygy7dapNVGFSTK12RwHoyHUT2zlKGPBzlPutFQNIGYoNiyFUa6es1FaFZPt6xZ8ejluJqvBLh/J5++/W3WmRmyi8rF6XE2ny+xt607ToS1HGw75nrIxpT3VFVaZW/fxG1rBq0hRWfpMHgOKBnlcH63N8/xelcnWTZqY9K5NJp6y84wl3u5TyZVf4223b31sul0dyuVzx4osvPqIFxhFyXKde9Mcff7zLqVQ+pmvaJbquH5M2zW4phCmFr+uarlG/ED5SIQqkZRHYmuq5SznI1GxF8cjwcLJpTrEBxfgpNsBHlfkwpf5FWokinXIbtDlcoX+9A74Z+o6jat3I8oj5tsNsEPbZt2QOTXn/A+DEzUmFUWFcfE7RU5R11MmLQ76vy+5qd9POxjTVuKPUy8bnze6Z+PdUOmcnE4usyMl2RfM4oqBwxKgiGqugdiMLK+KcU1ic+yXBFFgP0Xq2RuDZTG6MZRKsB1+/v8+jLmctlG/rPutkV4XXMDZW3D6dWpAJOudxJxVBbxgWCOGUKrYJU4wqkymJw/FdVbUf1ndQlp9pWYEXSN91A13jyKIha54T6IbhOK5T833/tXKlssGH+M7ExMT9N9544xELbdHJrj6AVfqPuXTVqlWLLCEu0oDjZRDME5o2IIXs0YToNXSjoEmREVQ6CqF5nqOZKUs4vivMtCV8xxVUKyClFGwuEqBa2KeXYXwJi0doDIRFIF5RCp3SEBuaG8mESJNjraMNZdX7KgUxsibo93pqav1At9j7dbJGUAbNdG7cL56gGBtAi7xqVPWGbrHQhN7/6rXnOPF3m6bdhghTsdlON2Lb0oEDKXTd1yRbY95t17BZHu4rY2nS9ENXTrz8jminNOVICYhRMwYIx1eEH8XvW1/aloep69uvF7lBGDiQITAi/b39CrRLqJpaIWi+B995CiEVPwP733ftrmgoTw0FLTo3ET0VpeOigl1FDOqn1UEAA99XTWIpti+EDIJAUiaWrmmB63NDBUlCwfelF/hBNYAcD6QcMgxjqObYL/uB90SxYq+88sorhw9uLr8Z3+r0DP5mjHY/o7j55pu1FStWpPy9e9NeTqQ0zcgYgdWdtqw+Q2p5TwR91H7AA7qlhl5PBnkh/Yzm+mnDMLplgF4ImRHQLF3XKLJsEq4jBPuHjCDwDUKkI/2AhIv0A62JEctA4aQQYuQU6aINaGKFBaOy36aOL7RCObQ7RPQsxqVhgLiwVU4btTyuSzETiAq62uyCqcbERUxTpJLG358ylhIrIotsj6mU2k5SQ6e2jNqLnXb3rKeETpkiG3tKy1JF95t8X8IAar1YWZc8b3oWuSSoloBy4etuoZh9wgidOvc6oH1Fv1Pgcyr6N1kw+9C+aVzRPRQeEbXJaS9R29Gr3Xvxe8bHEdnRrSm4cWWodT7xa6daL3qfNXuO+akzRIyc+uCochq25QnSiVD36D1PCEHAS8T5bc9zbU3oZV/KMS/wSoGPESHECDStKH3f1TXN04Tca1hmyfe8ipXJlwVQCXy/NFIsjvf19ZWLzz5rL//AB+zwuUcEj9zXIKeVMDiU1bj99tv1gYEBcxAwxhwnq1uW5fq+pel+1vWDjCm0jC+CjOUbeRfo1g0tS/0eNQgz8N2MYaaymiaybs3NWJlUBhJ5IZCWkBYCZKAJS9d0q1armel0mjh22vc9PQikME1TOS4pjZ96gJGk0ag5oOopSYocvc8J01H1aWRhcFN6dSgiba+VDvGDFxcmkdBqV+cwFS1bhdGUBzcqtIqKwsKEzDpziPmLI2EQt4emcL5NTjOMBtrif27NDmq1teJ/17Fgo9TaaOz7cWdEVt5UtGKPQ9SkiDt1qapmfnYowCNmHGKShsVzavbt1pPea6JTmHFU137j5oMyV+tV3XVShRk1xEDphxUIMTmnR6oXf43/H/7B6Qah0s/OJ5VBrS5RD2FtWhD6IH2J78JpeAH9KgShXcnA9/1A03U/8D1P0w1qokCM2w246Sb9zt0wye1iA4KyeVzqDappouK6bjUIJHUtK7uuaxuGXgt8uBCyCsiaBIh529BE0RYo675W0YSwkZK12muj47VMxq1Wq96NN95Iz9qvk+1QeMuR8t1EGBymlaJjd8vNN4uTTjpJjI6OavPmzdMGB+AMjOYAAAZkSURBVH29Vgt0s5azKD8hEMKwLEv3g0B3/YqVyfTQWdCoe5oeGHoAZDQtSFEvGF0YJuBbro++wPd7giA4BkLOgy4GNClmCggSNhaEsALPt1KplO66jjAMMmSUgKhrrUoVrc80slo8CpRRAG0Kl1aceUS/1+EL4pZFa4Fc1LCmzoj2R+T9u5/2r9Ec/FZuytraD1Y/PyWcn8ruChl3GyIqtq24ZPQb/cvNWAwyPNX3lVAJU0PrfZ9VZTm7JoXwA9/3ZCBdwzRcakWhAS6HvgRcSUwykI4MpC8JY5wYqUK3IC2YgP8JZCqg/wDhBr5f0zUqHwykoRvScV0ppO5KLfCkFAp+SAhPSmkTNiE0eEIKyrYkTdvThHA0aPQlKj9xRUDtM6Sv6YKYPTF6V0CvUSjWp+9DdwW8mgwCRwjT8z3Pt0x4ngvPE66v+3rgCeEbnhc4mu0LmfZc0w0sxwgcywkw5nno6fEKpVJQzOeD4eFh1vpvuOGGYLpo5fs7If8enx/8Cfr3GF3yjElK/u233252d3f3pNPI6YHoF9KYb6aMwcD1enTDyHuu22eaBrvDAOS5pyUV1gFpSbD1fmAKyqQWmm4YpkZKmcF5rFwHpbwVii/FgYwU6hLn3rFZzvuGlDw1wMY2aqtMcxVzeGUEQRSfWbt8+kigdJDG2laadRwHab/J4rEcxf8F8/2wW2fYqEhV8Sk3k4qm0lUqH0EEGvubmdsH1G6GOldomvCIeduO75mW4fqe78iAG89VIaQNKSYgUBFAEQhKEihqQht3fX8UtrfDAYYMXa+IIKgZWtUXhZynT0ivaBi+4ziyv9+RjtMvbduWxDQHBgaCVatWsb/qpptv5lVoIBklByyhQIMCiTCYPruB+JBYu3at7jiOYdu2nvX9FFkkmmlaQtNM3wx0aVP7ZhiuUzYy2awBT5iBdFNmoFkBkBaaZgXSS+mamZVABkJ2QYickMjxv0KkhNBMX0pLg7SkIEEjSIk1pJSWIAsIwhBCqn4qSnrQ59RfnVAuWMhIIcOmXkJIP1AKqeqFwA6LOqx1i2NIkJeBgnwRGk/dZ6JyXqNiPe7FwAGO0KfBhb8hVqtyXwSUMECujBCT1ddAjJoqC0EtvpwgCAjejDRtQvQml0UtkNIWkrVx8j87kKhCE5XAlxUhZREaqszQuWMQ3AC+rQnqPClsGfiOY9dcK9freZ7np1PScx3Nl0HgeqbpkDY+NjZm67ruD77ySrC1tzdItN/pc0B/02eSCIPf9BX6DR8fCaBbbrlF3HTTTcyL165dq23dulWcfPLJ2LZtm8hkMsJxHH1w0DKr1ZSmaZppOI7mGIZWMAzNply+Kn21Ctcw6PNwT9ZQq6nJp9Np1Go1anEogRr/F9Dv1BQ9nUY1uhBAyrJk9LdJkAK67mez5JpJS5TLqOm6n0o5QcZJBU6tFgy5rhz0fY/cD3PnzpXr1q1joUIa9fDwsNy0aRP/ffPNN3deRfgbvmbJ8BIKtKNAIgySfZFQIKFAQoGEAh1VzyRkSiiQUCChQEKBaU6BxDKY5gucTC+hQEKBhAKdUCARBp1QKbkmoUBCgYQC05wCiTCY5gucTC+hQEKBhAKdUCARBp1QKbkmoUBCgYQC05wCiTCY5gucTC+hQEKBhAKdUCARBp1QKbkmoUBCgYQC05wCiTCY5gucTC+hQEKBhAKdUCARBp1QKbkmoUBCgYQC05wCiTCY5gucTC+hQEKBhAKdUCARBp1QKbkmoUBCgYQC05wCiTCY5gucTC+hQEKBhAKdUCARBp1QKbkmoUBCgYQC05wCiTCY5gucTC+hQEKBhAKdUCARBp1QKbkmoUBCgYQC05wCiTCY5gucTC+hQEKBhAKdUCARBp1QKbkmoUBCgYQC05wCiTCY5gucTC+hQEKBhAKdUCARBp1QKbkmoUBCgYQC05wCiTCY5gucTC+hQEKBhAKdUCARBp1QKbkmoUBCgYQC05wCiTCY5gucTC+hQEKBhAKdUCARBp1QKbkmoUBCgYQC05wCiTCY5gucTC+hQEKBhAKdUCARBp1QKbkmoUBCgYQC05wCiTCY5gucTC+hQEKBhAKdUCARBp1QKbkmoUBCgYQC05wCiTCY5gucTC+hQEKBhAKdUCARBp1QKbkmoUBCgYQC05wCiTCY5gucTC+hQEKBhAKdUOD/A4q48zcyp2JXAAAAAElFTkSuQmCC;" parent="1" vertex="1">
          <mxGeometry y="203" width="133.45" height="100" as="geometry" />
        </mxCell>
        <mxCell id="R6fphjBCiR-DiBrCDHX--96" value="" style="endArrow=classic;html=1;rounded=0;exitX=1;exitY=0.5;exitDx=0;exitDy=0;entryX=0.078;entryY=1.013;entryDx=0;entryDy=0;entryPerimeter=0;" parent="1" source="R6fphjBCiR-DiBrCDHX--95" target="R6fphjBCiR-DiBrCDHX--91" edge="1">
          <mxGeometry width="50" height="50" relative="1" as="geometry">
            <mxPoint x="470" y="270" as="sourcePoint" />
            <mxPoint x="520" y="220" as="targetPoint" />
          </mxGeometry>
        </mxCell>
        <mxCell id="R6fphjBCiR-DiBrCDHX--97" value="" style="endArrow=classic;html=1;rounded=0;entryX=1.003;entryY=0.672;entryDx=0;entryDy=0;exitX=0.001;exitY=0.6;exitDx=0;exitDy=0;exitPerimeter=0;entryPerimeter=0;" parent="1" source="R6fphjBCiR-DiBrCDHX--90" target="R6fphjBCiR-DiBrCDHX--95" edge="1">
          <mxGeometry width="50" height="50" relative="1" as="geometry">
            <mxPoint x="310" y="278" as="sourcePoint" />
            <mxPoint x="320" y="263" as="targetPoint" />
          </mxGeometry>
        </mxCell>
        <mxCell id="5vkKwvxKlYkF0aGufTi--3" value="&lt;font style=&quot;font-size: 18px;&quot;&gt;&lt;b style=&quot;&quot;&gt;&lt;i style=&quot;&quot;&gt;HeCiX&lt;/i&gt;&lt;/b&gt;&lt;/font&gt;" style="text;html=1;align=center;verticalAlign=middle;resizable=0;points=[];autosize=1;strokeColor=none;fillColor=none;" parent="1" vertex="1">
          <mxGeometry x="454.17" y="30" width="80" height="40" as="geometry" />
        </mxCell>
      </root>
    </mxGraphModel>
  </diagram>
</mxfile>
